0
SECTION
2
HEADER
9
$HANDSEED
5
84
9
$INSUNITS
70
4
9
$ACADVER
1
AC1021
0
ENDSEC
0
SECTION
2
CLASSES
0
ENDSEC
0
SECTION
2
TABLES
0
TABLE
2
LTYPE
5
82
330
0
100
AcDbSymbolTable
70
5
0
LTYPE
5
2
330
82
100
AcDbSymbolTableRecord
100
AcDbLinetypeTableRecord
2
CONTINUOUS
3
______
70
0
72
65
73
0
40
0
0
LTYPE
5
3
330
82
100
AcDbSymbolTableRecord
100
AcDbLinetypeTableRecord
2
DASHED
3
_ _ _ 
70
0
72
65
73
2
40
10
49
5
74
0
49
-5
74
0
0
LTYPE
5
4
330
82
100
AcDbSymbolTableRecord
100
AcDbLinetypeTableRecord
2
DOTTED
3
. . . 
70
0
72
65
73
2
40
5
49
0
74
0
49
-5
74
0
0
LTYPE
5
6
330
82
100
AcDbSymbolTableRecord
100
AcDbLinetypeTableRecord
2
ByBlock
3

70
0
72
65
73
0
40
0
0
LTYPE
5
7
330
82
100
AcDbSymbolTableRecord
100
AcDbLinetypeTableRecord
2
ByLayer
3

70
0
72
65
73
0
40
0
0
ENDTAB
0
TABLE
2
LAYER
5
83
330
0
100
AcDbSymbolTable
70
5
0
LAYER
5
5
330
83
100
AcDbSymbolTableRecord
100
AcDbLayerTableRecord
2
0
62
7
70
0
6
CONTINUOUS
390
1
0
LAYER
5
16
330
83
100
AcDbSymbolTableRecord
100
AcDbLayerTableRecord
2
Cutouts
62
1
70
0
6
CONTINUOUS
390
1
0
LAYER
5
17
330
83
100
AcDbSymbolTableRecord
100
AcDbLayerTableRecord
2
Outline
62
7
70
0
6
CONTINUOUS
390
1
0
LAYER
5
18
330
83
100
AcDbSymbolTableRecord
100
AcDbLayerTableRecord
2
Stabilizers
62
3
70
0
6
CONTINUOUS
390
1
0
LAYER
5
19
330
83
100
AcDbSymbolTableRecord
100
AcDbLayerTableRecord
2
MountingHoles
62
4
70
0
6
CONTINUOUS
390
1
0
ENDTAB
0
TABLE
2
VPORT
5
8
330
0
100
AcDbSymbolTable
70
1
0
VPORT
5
E
330
8
100
AcDbSymbolTableRecord
100
AcDbViewportTableRecord
2
*ACTIVE
40
1000
70
0
0
ENDTAB
0
TABLE
2
STYLE
5
9
330
0
100
AcDbSymbolTable
70
1
0
STYLE
5
F
330
9
100
AcDbSymbolTableRecord
100
AcDbTextStyleTableRecord
2
standard
70
0
40
0
41
1
50
0
71
0
42
1
3
txt
4

0
ENDTAB
0
TABLE
2
VIEW
5
A
330
0
100
AcDbSymbolTable
70
0
0
ENDTAB
0
TABLE
2
UCS
5
B
330
0
100
AcDbSymbolTable
70
0
0
ENDTAB
0
TABLE
2
APPID
5
C
330
0
100
AcDbSymbolTable
70
1
0
APPID
5
10
330
C
100
AcDbSymbolTableRecord
100
AcDbRegAppTableRecord
2
ACAD
70
0
0
ENDTAB
0
TABLE
2
DIMSTYLE
5
D
330
0
100
AcDbSymbolTable
100
AcDbDimStyleTable
70
0
71
1
0
ENDTAB
0
TABLE
2
BLOCK_RECORD
5
7F
330
0
100
AcDbSymbolTable
70
2
0
BLOCK_RECORD
5
80
330
7F
100
AcDbSymbolTableRecord
100
AcDbBlockTableRecord
2
*Model_Space
70
0
280
0
281
1
0
BLOCK_RECORD
5
81
330
7F
100
AcDbSymbolTableRecord
100
AcDbBlockTableRecord
2
*Paper_Space
70
0
280
0
281
1
0
ENDTAB
0
ENDSEC
0
SECTION
2
BLOCKS
0
BLOCK
5
11
330
0
100
AcDbEntity
100
AcDbBlockBegin
2
*Model_Space
70
0
10
0
20
0
30
0
3
*Model_Space
1

0
ENDBLK
5
12
330
0
100
AcDbEntity
100
AcDbBlockEnd
0
BLOCK
5
13
330
0
100
AcDbEntity
100
AcDbBlockBegin
2
*Paper_Space
70
0
10
0
20
0
30
0
3
*Paper_Space
1

0
ENDBLK
5
14
330
0
100
AcDbEntity
100
AcDbBlockEnd
0
ENDSEC
0
SECTION
2
ENTITIES
0
LWPOLYLINE
5
1A
330
11
100
AcDbEntity
100
AcDbPolyline
8
Cutouts
6
ByLayer
62
256
370
-1
90
4
70
1
10
2.5250000000000004
20
2.5250000000000004
10
2.5250000000000004
20
16.525
10
16.525
20
16.525
10
16.525
20
2.5250000000000004
0
LWPOLYLINE
5
1B
330
11
100
AcDbEntity
100
AcDbPolyline
8
Cutouts
6
ByLayer
62
256
370
-1
90
4
70
1
10
26.3375
20
2.5250000000000004
10
26.3375
20
16.525
10
40.3375
20
16.525
10
40.3375
20
2.5250000000000004
0
LWPOLYLINE
5
1C
330
11
100
AcDbEntity
100
AcDbPolyline
8
Cutouts
6
ByLayer
62
256
370
-1
90
4
70
1
10
45.3875
20
2.5250000000000004
10
45.3875
20
16.525
10
59.3875
20
16.525
10
59.3875
20
2.5250000000000004
0
LWPOLYLINE
5
1D
330
11
100
AcDbEntity
100
AcDbPolyline
8
Cutouts
6
ByLayer
62
256
370
-1
90
4
70
1
10
64.4375
20
2.5250000000000004
10
64.4375
20
16.525
10
78.4375
20
16.525
10
78.4375
20
2.5250000000000004
0
LWPOLYLINE
5
1E
330
11
100
AcDbEntity
100
AcDbPolyline
8
Cutouts
6
ByLayer
62
256
370
-1
90
4
70
1
10
83.4875
20
2.5250000000000004
10
83.4875
20
16.525
10
97.4875
20
16.525
10
97.4875
20
2.5250000000000004
0
LWPOLYLINE
5
1F
330
11
100
AcDbEntity
100
AcDbPolyline
8
Cutouts
6
ByLayer
62
256
370
-1
90
4
70
1
10
107.30000000000001
20
2.5250000000000004
10
107.30000000000001
20
16.525
10
121.30000000000001
20
16.525
10
121.30000000000001
20
2.5250000000000004
0
LWPOLYLINE
5
20
330
11
100
AcDbEntity
100
AcDbPolyline
8
Cutouts
6
ByLayer
62
256
370
-1
90
4
70
1
10
126.35
20
2.5250000000000004
10
126.35
20
16.525
10
140.35
20
16.525
10
140.35
20
2.5250000000000004
0
LWPOLYLINE
5
21
330
11
100
AcDbEntity
100
AcDbPolyline
8
Cutouts
6
ByLayer
62
256
370
-1
90
4
70
1
10
145.4
20
2.5250000000000004
10
145.4
20
16.525
10
159.4
20
16.525
10
159.4
20
2.5250000000000004
0
LWPOLYLINE
5
22
330
11
100
AcDbEntity
100
AcDbPolyline
8
Cutouts
6
ByLayer
62
256
370
-1
90
4
70
1
10
164.45000000000002
20
2.5250000000000004
10
164.45000000000002
20
16.525
10
178.45000000000002
20
16.525
10
178.45000000000002
20
2.5250000000000004
0
LWPOLYLINE
5
23
330
11
100
AcDbEntity
100
AcDbPolyline
8
Cutouts
6
ByLayer
62
256
370
-1
90
4
70
1
10
188.26250000000002
20
2.5250000000000004
10
188.26250000000002
20
16.525
10
202.26250000000002
20
16.525
10
202.26250000000002
20
2.5250000000000004
0
LWPOLYLINE
5
24
330
11
100
AcDbEntity
100
AcDbPolyline
8
Cutouts
6
ByLayer
62
256
370
-1
90
4
70
1
10
207.3125
20
2.5250000000000004
10
207.3125
20
16.525
10
221.3125
20
16.525
10
221.3125
20
2.5250000000000004
0
LWPOLYLINE
5
25
330
11
100
AcDbEntity
100
AcDbPolyline
8
Cutouts
6
ByLayer
62
256
370
-1
90
4
70
1
10
226.3625
20
2.5250000000000004
10
226.3625
20
16.525
10
240.3625
20
16.525
10
240.3625
20
2.5250000000000004
0
LWPOLYLINE
5
26
330
11
100
AcDbEntity
100
AcDbPolyline
8
Cutouts
6
ByLayer
62
256
370
-1
90
4
70
1
10
245.41250000000002
20
2.5250000000000004
10
245.41250000000002
20
16.525
10
259.4125
20
16.525
10
259.4125
20
2.5250000000000004
0
LWPOLYLINE
5
27
330
11
100
AcDbEntity
100
AcDbPolyline
8
Cutouts
6
ByLayer
62
256
370
-1
90
4
70
1
10
270.1775
20
2.5250000000000004
10
270.1775
20
16.525
10
284.1775
20
16.525
10
284.1775
20
2.5250000000000004
0
LWPOLYLINE
5
28
330
11
100
AcDbEntity
100
AcDbPolyline
8
Cutouts
6
ByLayer
62
256
370
-1
90
4
70
1
10
289.2275
20
2.525000000000002
10
289.2275
20
16.525000000000002
10
303.2275
20
16.525000000000002
10
303.2275
20
2.525000000000002
0
LWPOLYLINE
5
29
330
11
100
AcDbEntity
100
AcDbPolyline
8
Cutouts
6
ByLayer
62
256
370
-1
90
4
70
1
10
308.2775
20
2.525000000000002
10
308.2775
20
16.525000000000002
10
322.2775
20
16.525000000000002
10
322.2775
20
2.525000000000002
0
LWPOLYLINE
5
2A
330
11
100
AcDbEntity
100
AcDbPolyline
8
Cutouts
6
ByLayer
62
256
370
-1
90
4
70
1
10
2.5250000000000004
20
26.3375
10
2.5250000000000004
20
40.3375
10
16.525
20
40.3375
10
16.525
20
26.3375
0
LWPOLYLINE
5
2B
330
11
100
AcDbEntity
100
AcDbPolyline
8
Cutouts
6
ByLayer
62
256
370
-1
90
4
70
1
10
21.575000000000003
20
26.3375
10
21.575000000000003
20
40.3375
10
35.575
20
40.3375
10
35.575
20
26.3375
0
LWPOLYLINE
5
2C
330
11
100
AcDbEntity
100
AcDbPolyline
8
Cutouts
6
ByLayer
62
256
370
-1
90
4
70
1
10
40.625
20
26.3375
10
40.625
20
40.3375
10
54.625
20
40.3375
10
54.625
20
26.3375
0
LWPOLYLINE
5
2D
330
11
100
AcDbEntity
100
AcDbPolyline
8
Cutouts
6
ByLayer
62
256
370
-1
90
4
70
1
10
59.675
20
26.3375
10
59.675
20
40.3375
10
73.675
20
40.3375
10
73.675
20
26.3375
0
LWPOLYLINE
5
2E
330
11
100
AcDbEntity
100
AcDbPolyline
8
Cutouts
6
ByLayer
62
256
370
-1
90
4
70
1
10
78.72500000000001
20
26.3375
10
78.72500000000001
20
40.3375
10
92.72500000000001
20
40.3375
10
92.72500000000001
20
26.3375
0
LWPOLYLINE
5
2F
330
11
100
AcDbEntity
100
AcDbPolyline
8
Cutouts
6
ByLayer
62
256
370
-1
90
4
70
1
10
97.775
20
26.3375
10
97.775
20
40.3375
10
111.775
20
40.3375
10
111.775
20
26.3375
0
LWPOLYLINE
5
30
330
11
100
AcDbEntity
100
AcDbPolyline
8
Cutouts
6
ByLayer
62
256
370
-1
90
4
70
1
10
116.825
20
26.3375
10
116.825
20
40.3375
10
130.825
20
40.3375
10
130.825
20
26.3375
0
LWPOLYLINE
5
31
330
11
100
AcDbEntity
100
AcDbPolyline
8
Cutouts
6
ByLayer
62
256
370
-1
90
4
70
1
10
135.875
20
26.3375
10
135.875
20
40.3375
10
149.875
20
40.3375
10
149.875
20
26.3375
0
LWPOLYLINE
5
32
330
11
100
AcDbEntity
100
AcDbPolyline
8
Cutouts
6
ByLayer
62
256
370
-1
90
4
70
1
10
154.925
20
26.3375
10
154.925
20
40.3375
10
168.925
20
40.3375
10
168.925
20
26.3375
0
LWPOLYLINE
5
33
330
11
100
AcDbEntity
100
AcDbPolyline
8
Cutouts
6
ByLayer
62
256
370
-1
90
4
70
1
10
173.975
20
26.3375
10
173.975
20
40.3375
10
187.975
20
40.3375
10
187.975
20
26.3375
0
LWPOLYLINE
5
34
330
11
100
AcDbEntity
100
AcDbPolyline
8
Cutouts
6
ByLayer
62
256
370
-1
90
4
70
1
10
193.025
20
26.3375
10
193.025
20
40.3375
10
207.025
20
40.3375
10
207.025
20
26.3375
0
LWPOLYLINE
5
35
330
11
100
AcDbEntity
100
AcDbPolyline
8
Cutouts
6
ByLayer
62
256
370
-1
90
4
70
1
10
212.07500000000002
20
26.3375
10
212.07500000000002
20
40.3375
10
226.07500000000002
20
40.3375
10
226.07500000000002
20
26.3375
0
LWPOLYLINE
5
36
330
11
100
AcDbEntity
100
AcDbPolyline
8
Cutouts
6
ByLayer
62
256
370
-1
90
4
70
1
10
231.125
20
26.3375
10
231.125
20
40.3375
10
245.125
20
40.3375
10
245.125
20
26.3375
0
LWPOLYLINE
5
37
330
11
100
AcDbEntity
100
AcDbPolyline
8
Cutouts
6
ByLayer
62
256
370
-1
90
4
70
1
10
262.08125
20
26.3375
10
262.08125
20
40.3375
10
276.08125
20
40.3375
10
276.08125
20
26.3375
0
LWPOLYLINE
5
3A
330
11
100
AcDbEntity
100
AcDbPolyline
8
Cutouts
6
ByLayer
62
256
370
-1
90
4
70
1
10
294.1805
20
26.3375
10
294.1805
20
40.3375
10
308.1805
20
40.3375
10
308.1805
20
26.3375
0
LWPOLYLINE
5
3B
330
11
100
AcDbEntity
100
AcDbPolyline
8
Cutouts
6
ByLayer
62
256
370
-1
90
4
70
1
10
313.2305
20
26.3375
10
313.2305
20
40.3375
10
327.2305
20
40.3375
10
327.2305
20
26.3375
0
LWPOLYLINE
5
3C
330
11
100
AcDbEntity
100
AcDbPolyline
8
Cutouts
6
ByLayer
62
256
370
-1
90
4
70
1
10
9.66875
20
45.3875
10
9.66875
20
59.3875
10
23.66875
20
59.3875
10
23.66875
20
45.3875
0
LWPOLYLINE
5
3D
330
11
100
AcDbEntity
100
AcDbPolyline
8
Cutouts
6
ByLayer
62
256
370
-1
90
4
70
1
10
35.862500000000004
20
45.3875
10
35.862500000000004
20
59.3875
10
49.862500000000004
20
59.3875
10
49.862500000000004
20
45.3875
0
LWPOLYLINE
5
3E
330
11
100
AcDbEntity
100
AcDbPolyline
8
Cutouts
6
ByLayer
62
256
370
-1
90
4
70
1
10
54.9125
20
45.3875
10
54.9125
20
59.3875
10
68.9125
20
59.3875
10
68.9125
20
45.3875
0
LWPOLYLINE
5
3F
330
11
100
AcDbEntity
100
AcDbPolyline
8
Cutouts
6
ByLayer
62
256
370
-1
90
4
70
1
10
73.9625
20
45.3875
10
73.9625
20
59.3875
10
87.9625
20
59.3875
10
87.9625
20
45.3875
0
LWPOLYLINE
5
40
330
11
100
AcDbEntity
100
AcDbPolyline
8
Cutouts
6
ByLayer
62
256
370
-1
90
4
70
1
10
93.0125
20
45.3875
10
93.0125
20
59.3875
10
107.0125
20
59.3875
10
107.0125
20
45.3875
0
LWPOLYLINE
5
41
330
11
100
AcDbEntity
100
AcDbPolyline
8
Cutouts
6
ByLayer
62
256
370
-1
90
4
70
1
10
112.0625
20
45.3875
10
112.0625
20
59.3875
10
126.0625
20
59.3875
10
126.0625
20
45.3875
0
LWPOLYLINE
5
42
330
11
100
AcDbEntity
100
AcDbPolyline
8
Cutouts
6
ByLayer
62
256
370
-1
90
4
70
1
10
131.1125
20
45.3875
10
131.1125
20
59.3875
10
145.1125
20
59.3875
10
145.1125
20
45.3875
0
LWPOLYLINE
5
43
330
11
100
AcDbEntity
100
AcDbPolyline
8
Cutouts
6
ByLayer
62
256
370
-1
90
4
70
1
10
150.1625
20
45.3875
10
150.1625
20
59.3875
10
164.1625
20
59.3875
10
164.1625
20
45.3875
0
LWPOLYLINE
5
44
330
11
100
AcDbEntity
100
AcDbPolyline
8
Cutouts
6
ByLayer
62
256
370
-1
90
4
70
1
10
169.2125
20
45.3875
10
169.2125
20
59.3875
10
183.2125
20
59.3875
10
183.2125
20
45.3875
0
LWPOLYLINE
5
45
330
11
100
AcDbEntity
100
AcDbPolyline
8
Cutouts
6
ByLayer
62
256
370
-1
90
4
70
1
10
188.26250000000002
20
45.3875
10
188.26250000000002
20
59.3875
10
202.26250000000002
20
59.3875
10
202.26250000000002
20
45.3875
0
LWPOLYLINE
5
46
330
11
100
AcDbEntity
100
AcDbPolyline
8
Cutouts
6
ByLayer
62
256
370
-1
90
4
70
1
10
207.3125
20
45.3875
10
207.3125
20
59.3875
10
221.3125
20
59.3875
10
221.3125
20
45.3875
0
LWPOLYLINE
5
47
330
11
100
AcDbEntity
100
AcDbPolyline
8
Cutouts
6
ByLayer
62
256
370
-1
90
4
70
1
10
226.3625
20
45.3875
10
226.3625
20
59.3875
10
240.3625
20
59.3875
10
240.3625
20
45.3875
0
LWPOLYLINE
5
48
330
11
100
AcDbEntity
100
AcDbPolyline
8
Cutouts
6
ByLayer
62
256
370
-1
90
4
70
1
10
245.41250000000002
20
45.3875
10
245.41250000000002
20
59.3875
10
259.4125
20
59.3875
10
259.4125
20
45.3875
0
LWPOLYLINE
5
49
330
11
100
AcDbEntity
100
AcDbPolyline
8
Cutouts
6
ByLayer
62
256
370
-1
90
4
70
1
10
269.225
20
54.9125
10
269.225
20
68.9125
10
283.225
20
68.9125
10
283.225
20
54.9125
0
LWPOLYLINE
5
4A
330
11
100
AcDbEntity
100
AcDbPolyline
8
Cutouts
6
ByLayer
62
256
370
-1
90
4
70
1
10
294.1805
20
45.3875
10
294.1805
20
59.3875
10
308.1805
20
59.3875
10
308.1805
20
45.3875
0
LWPOLYLINE
5
4B
330
11
100
AcDbEntity
100
AcDbPolyline
8
Cutouts
6
ByLayer
62
256
370
-1
90
4
70
1
10
313.2305
20
45.3875
10
313.2305
20
59.3875
10
327.2305
20
59.3875
10
327.2305
20
45.3875
0
LWPOLYLINE
5
4C
330
11
100
AcDbEntity
100
AcDbPolyline
8
Cutouts
6
ByLayer
62
256
370
-1
90
4
70
1
10
12.05
20
64.4375
10
12.05
20
78.4375
10
26.05
20
78.4375
10
26.05
20
64.4375
0
LWPOLYLINE
5
4F
330
11
100
AcDbEntity
100
AcDbPolyline
8
Cutouts
6
ByLayer
62
256
370
-1
90
4
70
1
10
40.625
20
64.4375
10
40.625
20
78.4375
10
54.625
20
78.4375
10
54.625
20
64.4375
0
LWPOLYLINE
5
50
330
11
100
AcDbEntity
100
AcDbPolyline
8
Cutouts
6
ByLayer
62
256
370
-1
90
4
70
1
10
59.675
20
64.4375
10
59.675
20
78.4375
10
73.675
20
78.4375
10
73.675
20
64.4375
0
LWPOLYLINE
5
51
330
11
100
AcDbEntity
100
AcDbPolyline
8
Cutouts
6
ByLayer
62
256
370
-1
90
4
70
1
10
78.72500000000001
20
64.4375
10
78.72500000000001
20
78.4375
10
92.72500000000001
20
78.4375
10
92.72500000000001
20
64.4375
0
LWPOLYLINE
5
52
330
11
100
AcDbEntity
100
AcDbPolyline
8
Cutouts
6
ByLayer
62
256
370
-1
90
4
70
1
10
97.775
20
64.4375
10
97.775
20
78.4375
10
111.775
20
78.4375
10
111.775
20
64.4375
0
LWPOLYLINE
5
53
330
11
100
AcDbEntity
100
AcDbPolyline
8
Cutouts
6
ByLayer
62
256
370
-1
90
4
70
1
10
116.825
20
64.4375
10
116.825
20
78.4375
10
130.825
20
78.4375
10
130.825
20
64.4375
0
LWPOLYLINE
5
54
330
11
100
AcDbEntity
100
AcDbPolyline
8
Cutouts
6
ByLayer
62
256
370
-1
90
4
70
1
10
135.875
20
64.4375
10
135.875
20
78.4375
10
149.875
20
78.4375
10
149.875
20
64.4375
0
LWPOLYLINE
5
55
330
11
100
AcDbEntity
100
AcDbPolyline
8
Cutouts
6
ByLayer
62
256
370
-1
90
4
70
1
10
154.925
20
64.4375
10
154.925
20
78.4375
10
168.925
20
78.4375
10
168.925
20
64.4375
0
LWPOLYLINE
5
56
330
11
100
AcDbEntity
100
AcDbPolyline
8
Cutouts
6
ByLayer
62
256
370
-1
90
4
70
1
10
173.975
20
64.4375
10
173.975
20
78.4375
10
187.975
20
78.4375
10
187.975
20
64.4375
0
LWPOLYLINE
5
57
330
11
100
AcDbEntity
100
AcDbPolyline
8
Cutouts
6
ByLayer
62
256
370
-1
90
4
70
1
10
193.025
20
64.4375
10
193.025
20
78.4375
10
207.025
20
78.4375
10
207.025
20
64.4375
0
LWPOLYLINE
5
58
330
11
100
AcDbEntity
100
AcDbPolyline
8
Cutouts
6
ByLayer
62
256
370
-1
90
4
70
1
10
212.07500000000002
20
64.4375
10
212.07500000000002
20
78.4375
10
226.07500000000002
20
78.4375
10
226.07500000000002
20
64.4375
0
LWPOLYLINE
5
59
330
11
100
AcDbEntity
100
AcDbPolyline
8
Cutouts
6
ByLayer
62
256
370
-1
90
4
70
1
10
231.125
20
64.4375
10
231.125
20
78.4375
10
245.125
20
78.4375
10
245.125
20
64.4375
0
LWPOLYLINE
5
5A
330
11
100
AcDbEntity
100
AcDbPolyline
8
Cutouts
6
ByLayer
62
256
370
-1
90
4
70
1
10
294.1805
20
64.4375
10
294.1805
20
78.4375
10
308.1805
20
78.4375
10
308.1805
20
64.4375
0
LWPOLYLINE
5
5B
330
11
100
AcDbEntity
100
AcDbPolyline
8
Cutouts
6
ByLayer
62
256
370
-1
90
4
70
1
10
313.2305
20
64.4375
10
313.2305
20
78.4375
10
327.2305
20
78.4375
10
327.2305
20
64.4375
0
LWPOLYLINE
5
5C
330
11
100
AcDbEntity
100
AcDbPolyline
8
Cutouts
6
ByLayer
62
256
370
-1
90
4
70
1
10
14.431250000000002
20
83.4875
10
14.431250000000002
20
97.4875
10
28.431250000000002
20
97.4875
10
28.431250000000002
20
83.4875
0
LWPOLYLINE
5
5F
330
11
100
AcDbEntity
100
AcDbPolyline
8
Cutouts
6
ByLayer
62
256
370
-1
90
4
70
1
10
45.3875
20
83.4875
10
45.3875
20
97.4875
10
59.3875
20
97.4875
10
59.3875
20
83.4875
0
LWPOLYLINE
5
60
330
11
100
AcDbEntity
100
AcDbPolyline
8
Cutouts
6
ByLayer
62
256
370
-1
90
4
70
1
10
64.4375
20
83.4875
10
64.4375
20
97.4875
10
78.4375
20
97.4875
10
78.4375
20
83.4875
0
LWPOLYLINE
5
61
330
11
100
AcDbEntity
100
AcDbPolyline
8
Cutouts
6
ByLayer
62
256
370
-1
90
4
70
1
10
83.4875
20
83.4875
10
83.4875
20
97.4875
10
97.4875
20
97.4875
10
97.4875
20
83.4875
0
LWPOLYLINE
5
62
330
11
100
AcDbEntity
100
AcDbPolyline
8
Cutouts
6
ByLayer
62
256
370
-1
90
4
70
1
10
102.53750000000001
20
83.4875
10
102.53750000000001
20
97.4875
10
116.53750000000001
20
97.4875
10
116.53750000000001
20
83.4875
0
LWPOLYLINE
5
63
330
11
100
AcDbEntity
100
AcDbPolyline
8
Cutouts
6
ByLayer
62
256
370
-1
90
4
70
1
10
121.5875
20
83.4875
10
121.5875
20
97.4875
10
135.5875
20
97.4875
10
135.5875
20
83.4875
0
LWPOLYLINE
5
64
330
11
100
AcDbEntity
100
AcDbPolyline
8
Cutouts
6
ByLayer
62
256
370
-1
90
4
70
1
10
140.63750000000002
20
83.4875
10
140.63750000000002
20
97.4875
10
154.63750000000002
20
97.4875
10
154.63750000000002
20
83.4875
0
LWPOLYLINE
5
65
330
11
100
AcDbEntity
100
AcDbPolyline
8
Cutouts
6
ByLayer
62
256
370
-1
90
4
70
1
10
159.6875
20
83.4875
10
159.6875
20
97.4875
10
173.6875
20
97.4875
10
173.6875
20
83.4875
0
LWPOLYLINE
5
66
330
11
100
AcDbEntity
100
AcDbPolyline
8
Cutouts
6
ByLayer
62
256
370
-1
90
4
70
1
10
178.7375
20
83.4875
10
178.7375
20
97.4875
10
192.7375
20
97.4875
10
192.7375
20
83.4875
0
LWPOLYLINE
5
67
330
11
100
AcDbEntity
100
AcDbPolyline
8
Cutouts
6
ByLayer
62
256
370
-1
90
4
70
1
10
197.7875
20
83.4875
10
197.7875
20
97.4875
10
211.7875
20
97.4875
10
211.7875
20
83.4875
0
LWPOLYLINE
5
68
330
11
100
AcDbEntity
100
AcDbPolyline
8
Cutouts
6
ByLayer
62
256
370
-1
90
4
70
1
10
216.8375
20
83.4875
10
216.8375
20
97.4875
10
230.8375
20
97.4875
10
230.8375
20
83.4875
0
LWPOLYLINE
5
69
330
11
100
AcDbEntity
100
AcDbPolyline
8
Cutouts
6
ByLayer
62
256
370
-1
90
4
70
1
10
243.03125
20
83.4875
10
243.03125
20
97.4875
10
257.03125
20
97.4875
10
257.03125
20
83.4875
0
LWPOLYLINE
5
6A
330
11
100
AcDbEntity
100
AcDbPolyline
8
Cutouts
6
ByLayer
62
256
370
-1
90
4
70
1
10
273.9875
20
83.4875
10
273.9875
20
97.4875
10
287.9875
20
97.4875
10
287.9875
20
83.4875
0
LWPOLYLINE
5
6B
330
11
100
AcDbEntity
100
AcDbPolyline
8
Cutouts
6
ByLayer
62
256
370
-1
90
4
70
1
10
314.945
20
85.39250000000001
10
314.945
20
99.39250000000001
10
328.945
20
99.39250000000001
10
328.945
20
85.39250000000001
0
LWPOLYLINE
5
6C
330
11
100
AcDbEntity
100
AcDbPolyline
8
Cutouts
6
ByLayer
62
256
370
-1
90
4
70
1
10
4.90625
20
102.53750000000001
10
4.90625
20
116.53750000000001
10
18.90625
20
116.53750000000001
10
18.90625
20
102.53750000000001
0
LWPOLYLINE
5
6D
330
11
100
AcDbEntity
100
AcDbPolyline
8
Cutouts
6
ByLayer
62
256
370
-1
90
4
70
1
10
28.71875
20
102.53750000000001
10
28.71875
20
116.53750000000001
10
42.71875
20
116.53750000000001
10
42.71875
20
102.53750000000001
0
LWPOLYLINE
5
6E
330
11
100
AcDbEntity
100
AcDbPolyline
8
Cutouts
6
ByLayer
62
256
370
-1
90
4
70
1
10
52.53125
20
102.53750000000001
10
52.53125
20
116.53750000000001
10
66.53125
20
116.53750000000001
10
66.53125
20
102.53750000000001
0
LWPOLYLINE
5
6F
330
11
100
AcDbEntity
100
AcDbPolyline
8
Cutouts
6
ByLayer
62
256
370
-1
90
4
70
1
10
126.35
20
102.53750000000001
10
126.35
20
116.53750000000001
10
140.35
20
116.53750000000001
10
140.35
20
102.53750000000001
0
LWPOLYLINE
5
72
330
11
100
AcDbEntity
100
AcDbPolyline
8
Cutouts
6
ByLayer
62
256
370
-1
90
4
70
1
10
200.16875000000002
20
102.53750000000001
10
200.16875000000002
20
116.53750000000001
10
214.16875000000002
20
116.53750000000001
10
214.16875000000002
20
102.53750000000001
0
LWPOLYLINE
5
73
330
11
100
AcDbEntity
100
AcDbPolyline
8
Cutouts
6
ByLayer
62
256
370
-1
90
4
70
1
10
223.98125000000002
20
102.53750000000001
10
223.98125000000002
20
116.53750000000001
10
237.98125000000002
20
116.53750000000001
10
237.98125000000002
20
102.53750000000001
0
LWPOLYLINE
5
74
330
11
100
AcDbEntity
100
AcDbPolyline
8
Cutouts
6
ByLayer
62
256
370
-1
90
4
70
1
10
254.9375
20
102.53750000000001
10
254.9375
20
116.53750000000001
10
268.9375
20
116.53750000000001
10
268.9375
20
102.53750000000001
0
LWPOLYLINE
5
75
330
11
100
AcDbEntity
100
AcDbPolyline
8
Cutouts
6
ByLayer
62
256
370
-1
90
4
70
1
10
273.9875
20
102.53750000000001
10
273.9875
20
116.53750000000001
10
287.9875
20
116.53750000000001
10
287.9875
20
102.53750000000001
0
LWPOLYLINE
5
76
330
11
100
AcDbEntity
100
AcDbPolyline
8
Cutouts
6
ByLayer
62
256
370
-1
90
4
70
1
10
293.0375
20
102.53750000000001
10
293.0375
20
116.53750000000001
10
307.0375
20
116.53750000000001
10
307.0375
20
102.53750000000001
0
LWPOLYLINE
5
77
330
11
100
AcDbEntity
100
AcDbPolyline
8
Cutouts
6
ByLayer
62
256
370
-1
90
4
70
1
10
314.945
20
104.44250000000001
10
314.945
20
118.44250000000001
10
328.945
20
118.44250000000001
10
328.945
20
104.44250000000001
0
LWPOLYLINE
5
78
330
11
100
AcDbEntity
100
AcDbPolyline
8
Outline
6
ByLayer
62
256
370
-1
90
4
70
1
10
-5
20
-5
10
-5
20
124.0625
10
334.7555
20
124.0625
10
334.7555
20
-5
0
LWPOLYLINE
5
38
330
11
100
AcDbEntity
100
AcDbPolyline
8
Stabilizers
6
ByLayer
62
256
370
-1
90
4
70
1
10
253.76825000000002
20
27.1875
10
253.76825000000002
20
39.4875
10
260.51825
20
39.4875
10
260.51825
20
27.1875
0
LWPOLYLINE
5
39
330
11
100
AcDbEntity
100
AcDbPolyline
8
Stabilizers
6
ByLayer
62
256
370
-1
90
4
70
1
10
277.64425
20
27.1875
10
277.64425
20
39.4875
10
284.39425
20
39.4875
10
284.39425
20
27.1875
0
LWPOLYLINE
5
4D
330
11
100
AcDbEntity
100
AcDbPolyline
8
Stabilizers
6
ByLayer
62
256
370
-1
90
4
70
1
10
3.737
20
65.2875
10
3.737
20
77.5875
10
10.487
20
77.5875
10
10.487
20
65.2875
0
LWPOLYLINE
5
4E
330
11
100
AcDbEntity
100
AcDbPolyline
8
Stabilizers
6
ByLayer
62
256
370
-1
90
4
70
1
10
27.613
20
65.2875
10
27.613
20
77.5875
10
34.363
20
77.5875
10
34.363
20
65.2875
0
LWPOLYLINE
5
5D
330
11
100
AcDbEntity
100
AcDbPolyline
8
Stabilizers
6
ByLayer
62
256
370
-1
90
4
70
1
10
6.1182500000000015
20
84.33749999999999
10
6.1182500000000015
20
96.6375
10
12.868250000000002
20
96.6375
10
12.868250000000002
20
84.33749999999999
0
LWPOLYLINE
5
5E
330
11
100
AcDbEntity
100
AcDbPolyline
8
Stabilizers
6
ByLayer
62
256
370
-1
90
4
70
1
10
29.99425
20
84.33749999999999
10
29.99425
20
96.6375
10
36.74425
20
96.6375
10
36.74425
20
84.33749999999999
0
LWPOLYLINE
5
70
330
11
100
AcDbEntity
100
AcDbPolyline
8
Stabilizers
6
ByLayer
62
256
370
-1
90
4
70
1
10
79.975
20
103.3875
10
79.975
20
115.68750000000001
10
86.725
20
115.68750000000001
10
86.725
20
103.3875
0
LWPOLYLINE
5
71
330
11
100
AcDbEntity
100
AcDbPolyline
8
Stabilizers
6
ByLayer
62
256
370
-1
90
4
70
1
10
179.975
20
103.3875
10
179.975
20
115.68750000000001
10
186.725
20
115.68750000000001
10
186.725
20
103.3875
0
CIRCLE
5
79
330
11
100
AcDbEntity
100
AcDbCircle
8
MountingHoles
10
22.5
20
22.5
30
0
40
1.35
0
CIRCLE
5
7A
330
11
100
AcDbEntity
100
AcDbCircle
8
MountingHoles
10
357
20
23
30
0
40
1.35
0
CIRCLE
5
7B
330
11
100
AcDbEntity
100
AcDbCircle
8
MountingHoles
10
22.5
20
146.5
30
0
40
1.35
0
CIRCLE
5
7C
330
11
100
AcDbEntity
100
AcDbCircle
8
MountingHoles
10
357
20
146.5
30
0
40
1.35
0
CIRCLE
5
7D
330
11
100
AcDbEntity
100
AcDbCircle
8
MountingHoles
10
127.5
20
45.5
30
0
40
1.35
0
CIRCLE
5
7E
330
11
100
AcDbEntity
100
AcDbCircle
8
MountingHoles
10
281.5
20
96
30
0
40
1.35
0
ENDSEC
0
SECTION
2
OBJECTS
0
DICTIONARY
5
1
330
0
100
AcDbDictionary
281
1
3
ACAD_GROUP
350
15
0
DICTIONARY
5
15
330
1
100
AcDbDictionary
281
1
0
ENDSEC
0
EOF