%TF.GenerationSoftware,KiCad,Pcbnew,9.0.7-1.fc43*%
%TF.CreationDate,2026-03-27T01:22:26-04:00*%
%TF.ProjectId,blue-dream-space,626c7565-2d64-4726-9561-6d2d73706163,rev?*%
%TF.SameCoordinates,Original*%
%TF.FileFunction,Profile,NP*%
%FSLAX46Y46*%
G04 Gerber Fmt 4.6, Leading zero omitted, Abs format (unit mm)*
G04 Created by KiCad (PCBNEW 9.0.7-1.fc43) date 2026-03-27 01:22:26*
%MOMM*%
%LPD*%
G01*
G04 APERTURE LIST*
%TA.AperFunction,Profile*%
%ADD10C,0.100000*%
%TD*%
%ADD11C,0.350000*%
G04 APERTURE END LIST*
D10*
X17000000Y-17000000D02*
X364470000Y-17000000D01*
X364470000Y-153967500D01*
X17000000Y-153967500D01*
X17000000Y-17000000D01*
D11*
X30715000Y-31985000D03*
X37065000Y-29445000D03*
X54527500Y-31985000D03*
X60877500Y-29445000D03*
X73577500Y-31985000D03*
X79927500Y-29445000D03*
X92627500Y-31985000D03*
X98977500Y-29445000D03*
X111677500Y-31985000D03*
X118027500Y-29445000D03*
X135490000Y-31985000D03*
X141840000Y-29445000D03*
X154540000Y-31985000D03*
X160890000Y-29445000D03*
X173590000Y-31985000D03*
X179940000Y-29445000D03*
X192640000Y-31985000D03*
X198990000Y-29445000D03*
X216452500Y-31985000D03*
X222802500Y-29445000D03*
X235502500Y-31985000D03*
X241852500Y-29445000D03*
X254552500Y-31985000D03*
X260902500Y-29445000D03*
X273602500Y-31985000D03*
X279952500Y-29445000D03*
X298367500Y-31985000D03*
X304717500Y-29445000D03*
X317417500Y-31985000D03*
X323767500Y-29445000D03*
X336467500Y-31985000D03*
X342817500Y-29445000D03*
X30715000Y-55797500D03*
X37065000Y-53257500D03*
X49765000Y-55797500D03*
X56115000Y-53257500D03*
X68815000Y-55797500D03*
X75165000Y-53257500D03*
X87865000Y-55797500D03*
X94215000Y-53257500D03*
X106915000Y-55797500D03*
X113265000Y-53257500D03*
X125965000Y-55797500D03*
X132315000Y-53257500D03*
X145015000Y-55797500D03*
X151365000Y-53257500D03*
X164065000Y-55797500D03*
X170415000Y-53257500D03*
X183115000Y-55797500D03*
X189465000Y-53257500D03*
X202165000Y-55797500D03*
X208515000Y-53257500D03*
X221215000Y-55797500D03*
X227565000Y-53257500D03*
X240265000Y-55797500D03*
X246615000Y-53257500D03*
X259315000Y-55797500D03*
X265665000Y-53257500D03*
X290271300Y-55797500D03*
X296621300Y-53257500D03*
X322370500Y-55797500D03*
X328720500Y-53257500D03*
X341420500Y-55797500D03*
X347770500Y-53257500D03*
X37858800Y-74847500D03*
X44208800Y-72307500D03*
X64052500Y-74847500D03*
X70402500Y-72307500D03*
X83102500Y-74847500D03*
X89452500Y-72307500D03*
X102152500Y-74847500D03*
X108502500Y-72307500D03*
X121202500Y-74847500D03*
X127552500Y-72307500D03*
X140252500Y-74847500D03*
X146602500Y-72307500D03*
X159302500Y-74847500D03*
X165652500Y-72307500D03*
X178352500Y-74847500D03*
X184702500Y-72307500D03*
X197402500Y-74847500D03*
X203752500Y-72307500D03*
X216452500Y-74847500D03*
X222802500Y-72307500D03*
X235502500Y-74847500D03*
X241852500Y-72307500D03*
X254552500Y-74847500D03*
X260902500Y-72307500D03*
X273602500Y-74847500D03*
X279952500Y-72307500D03*
X297415000Y-84372500D03*
X303765000Y-81832500D03*
X322370500Y-74847500D03*
X328720500Y-72307500D03*
X341420500Y-74847500D03*
X347770500Y-72307500D03*
X40240000Y-93897500D03*
X46590000Y-91357500D03*
X68815000Y-93897500D03*
X75165000Y-91357500D03*
X87865000Y-93897500D03*
X94215000Y-91357500D03*
X106915000Y-93897500D03*
X113265000Y-91357500D03*
X125965000Y-93897500D03*
X132315000Y-91357500D03*
X145015000Y-93897500D03*
X151365000Y-91357500D03*
X164065000Y-93897500D03*
X170415000Y-91357500D03*
X183115000Y-93897500D03*
X189465000Y-91357500D03*
X202165000Y-93897500D03*
X208515000Y-91357500D03*
X221215000Y-93897500D03*
X227565000Y-91357500D03*
X240265000Y-93897500D03*
X246615000Y-91357500D03*
X259315000Y-93897500D03*
X265665000Y-91357500D03*
X322370500Y-93897500D03*
X328720500Y-91357500D03*
X341420500Y-93897500D03*
X347770500Y-91357500D03*
X42621300Y-112947500D03*
X48971300Y-110407500D03*
X73577500Y-112947500D03*
X79927500Y-110407500D03*
X92627500Y-112947500D03*
X98977500Y-110407500D03*
X111677500Y-112947500D03*
X118027500Y-110407500D03*
X130727500Y-112947500D03*
X137077500Y-110407500D03*
X149777500Y-112947500D03*
X156127500Y-110407500D03*
X168827500Y-112947500D03*
X175177500Y-110407500D03*
X187877500Y-112947500D03*
X194227500Y-110407500D03*
X206927500Y-112947500D03*
X213277500Y-110407500D03*
X225977500Y-112947500D03*
X232327500Y-110407500D03*
X245027500Y-112947500D03*
X251377500Y-110407500D03*
X271221300Y-112947500D03*
X277571300Y-110407500D03*
X302177500Y-112947500D03*
X308527500Y-110407500D03*
X343135000Y-114852500D03*
X349485000Y-112312500D03*
X33096300Y-131997500D03*
X39446300Y-129457500D03*
X56908800Y-131997500D03*
X63258800Y-129457500D03*
X80721300Y-131997500D03*
X87071300Y-129457500D03*
X154540000Y-131997500D03*
X160890000Y-129457500D03*
X228358800Y-131997500D03*
X234708800Y-129457500D03*
X252171300Y-131997500D03*
X258521300Y-129457500D03*
X283127500Y-131997500D03*
X289477500Y-129457500D03*
X302177500Y-131997500D03*
X308527500Y-129457500D03*
X321227500Y-131997500D03*
X327577500Y-129457500D03*
X343135000Y-133902500D03*
X349485000Y-131362500D03*
X306320000Y-24500000D03*
X297680000Y-24500000D03*
X331000000Y-38000000D03*
X329000000Y-38000000D03*
X22500000Y-22500000D03*
X357000000Y-23000000D03*
X22500000Y-146500000D03*
X357000000Y-146500000D03*
X127500000Y-45500000D03*
X281500000Y-96000000D03*
M02*
