%TF.GenerationSoftware,KiCad,Pcbnew,9.0.7-1.fc43*%
%TF.CreationDate,2026-03-27T02:21:04-04:00*%
%TF.ProjectId,blue-dream-space,626c7565-2d64-4726-9561-6d2d73706163,rev?*%
%TF.SameCoordinates,Original*%
%TF.FileFunction,Paste,Top*%
%TF.FilePolarity,Positive*%
%FSLAX46Y46*%
G04 Gerber Fmt 4.6, Leading zero omitted, Abs format (unit mm)*
G04 Created by KiCad (PCBNEW 9.0.7-1.fc43) date 2026-03-27 02:21:04*
%MOMM*%
%LPD*%
G01*
G04 APERTURE LIST*
G04 Aperture macros list*
%AMRoundRect*
0 Rectangle with rounded corners*
0 $1 Rounding radius*
0 $2 $3 $4 $5 $6 $7 $8 $9 X,Y pos of 4 corners*
0 Add a 4 corners polygon primitive as box body*
4,1,4,$2,$3,$4,$5,$6,$7,$8,$9,$2,$3,0*
0 Add four circle primitives for the rounded corners*
1,1,$1+$1,$2,$3*
1,1,$1+$1,$4,$5*
1,1,$1+$1,$6,$7*
1,1,$1+$1,$8,$9*
0 Add four rect primitives between the rounded corners*
20,1,$1+$1,$2,$3,$4,$5,0*
20,1,$1+$1,$4,$5,$6,$7,0*
20,1,$1+$1,$6,$7,$8,$9,0*
20,1,$1+$1,$8,$9,$2,$3,0*%
G04 Aperture macros list end*
%ADD10RoundRect,0.225000X-0.225000X-0.375000X0.225000X-0.375000X0.225000X0.375000X-0.225000X0.375000X0*%
%ADD11RoundRect,0.075000X-0.075000X-0.300000X0.075000X-0.300000X0.075000X0.300000X-0.075000X0.300000X0*%
%ADD12RoundRect,0.075000X-0.300000X-0.075000X0.300000X-0.075000X0.300000X0.075000X-0.300000X0.075000X0*%
%ADD13R,5.600000X5.600000*%
%ADD14RoundRect,0.075000X-0.075000X-0.425000X0.075000X-0.425000X0.075000X0.425000X-0.075000X0.425000X0*%
%ADD15R,1.000000X1.500000*%
%ADD16C,0.350000*%
G04 APERTURE END LIST*
D10*
%TO.C,D1*%
X33175000Y-42525000D03*
X35875000Y-42525000D03*
%TD*%
%TO.C,D2*%
X56987500Y-42525000D03*
X59687500Y-42525000D03*
%TD*%
%TO.C,D3*%
X76037500Y-42525000D03*
X78737500Y-42525000D03*
%TD*%
%TO.C,D4*%
X95087500Y-42525000D03*
X97787500Y-42525000D03*
%TD*%
%TO.C,D5*%
X114137500Y-42525000D03*
X116837500Y-42525000D03*
%TD*%
%TO.C,D6*%
X137950000Y-42525000D03*
X140650000Y-42525000D03*
%TD*%
%TO.C,D7*%
X157000000Y-42525000D03*
X159700000Y-42525000D03*
%TD*%
%TO.C,D8*%
X176050000Y-42525000D03*
X178750000Y-42525000D03*
%TD*%
%TO.C,D9*%
X195100000Y-42525000D03*
X197800000Y-42525000D03*
%TD*%
%TO.C,D10*%
X218912500Y-42525000D03*
X221612500Y-42525000D03*
%TD*%
%TO.C,D11*%
X237962500Y-42525000D03*
X240662500Y-42525000D03*
%TD*%
%TO.C,D12*%
X257012500Y-42525000D03*
X259712500Y-42525000D03*
%TD*%
%TO.C,D13*%
X276062500Y-42525000D03*
X278762500Y-42525000D03*
%TD*%
%TO.C,D14*%
X300827500Y-42525000D03*
X303527500Y-42525000D03*
%TD*%
%TO.C,D15*%
X319877500Y-42525000D03*
X322577500Y-42525000D03*
%TD*%
%TO.C,D16*%
X338927500Y-42525000D03*
X341627500Y-42525000D03*
%TD*%
%TO.C,D17*%
X33175000Y-66337500D03*
X35875000Y-66337500D03*
%TD*%
%TO.C,D18*%
X52225000Y-66337500D03*
X54925000Y-66337500D03*
%TD*%
%TO.C,D19*%
X71275000Y-66337500D03*
X73975000Y-66337500D03*
%TD*%
%TO.C,D20*%
X90325000Y-66337500D03*
X93025000Y-66337500D03*
%TD*%
%TO.C,D21*%
X109375000Y-66337500D03*
X112075000Y-66337500D03*
%TD*%
%TO.C,D22*%
X128425000Y-66337500D03*
X131125000Y-66337500D03*
%TD*%
%TO.C,D23*%
X147475000Y-66337500D03*
X150175000Y-66337500D03*
%TD*%
%TO.C,D24*%
X166525000Y-66337500D03*
X169225000Y-66337500D03*
%TD*%
%TO.C,D25*%
X185575000Y-66337500D03*
X188275000Y-66337500D03*
%TD*%
%TO.C,D26*%
X204625000Y-66337500D03*
X207325000Y-66337500D03*
%TD*%
%TO.C,D27*%
X223675000Y-66337500D03*
X226375000Y-66337500D03*
%TD*%
%TO.C,D28*%
X242725000Y-66337500D03*
X245425000Y-66337500D03*
%TD*%
%TO.C,D29*%
X261775000Y-66337500D03*
X264475000Y-66337500D03*
%TD*%
%TO.C,D30*%
X292731300Y-66337500D03*
X295431300Y-66337500D03*
%TD*%
%TO.C,D31*%
X324830500Y-66337500D03*
X327530500Y-66337500D03*
%TD*%
%TO.C,D32*%
X343880500Y-66337500D03*
X346580500Y-66337500D03*
%TD*%
%TO.C,D33*%
X40318800Y-85387500D03*
X43018800Y-85387500D03*
%TD*%
%TO.C,D34*%
X66512500Y-85387500D03*
X69212500Y-85387500D03*
%TD*%
%TO.C,D35*%
X85562500Y-85387500D03*
X88262500Y-85387500D03*
%TD*%
%TO.C,D36*%
X104612500Y-85387500D03*
X107312500Y-85387500D03*
%TD*%
%TO.C,D37*%
X123662500Y-85387500D03*
X126362500Y-85387500D03*
%TD*%
%TO.C,D38*%
X142712500Y-85387500D03*
X145412500Y-85387500D03*
%TD*%
%TO.C,D39*%
X161762500Y-85387500D03*
X164462500Y-85387500D03*
%TD*%
%TO.C,D40*%
X180812500Y-85387500D03*
X183512500Y-85387500D03*
%TD*%
%TO.C,D41*%
X199862500Y-85387500D03*
X202562500Y-85387500D03*
%TD*%
%TO.C,D42*%
X218912500Y-85387500D03*
X221612500Y-85387500D03*
%TD*%
%TO.C,D43*%
X237962500Y-85387500D03*
X240662500Y-85387500D03*
%TD*%
%TO.C,D44*%
X257012500Y-85387500D03*
X259712500Y-85387500D03*
%TD*%
%TO.C,D45*%
X276062500Y-85387500D03*
X278762500Y-85387500D03*
%TD*%
%TO.C,D46*%
X299875000Y-94912500D03*
X302575000Y-94912500D03*
%TD*%
%TO.C,D47*%
X324830500Y-85387500D03*
X327530500Y-85387500D03*
%TD*%
%TO.C,D48*%
X343880500Y-85387500D03*
X346580500Y-85387500D03*
%TD*%
%TO.C,D49*%
X42700000Y-104437500D03*
X45400000Y-104437500D03*
%TD*%
%TO.C,D50*%
X71275000Y-104437500D03*
X73975000Y-104437500D03*
%TD*%
%TO.C,D51*%
X90325000Y-104437500D03*
X93025000Y-104437500D03*
%TD*%
%TO.C,D52*%
X109375000Y-104437500D03*
X112075000Y-104437500D03*
%TD*%
%TO.C,D53*%
X128425000Y-104437500D03*
X131125000Y-104437500D03*
%TD*%
%TO.C,D54*%
X147475000Y-104437500D03*
X150175000Y-104437500D03*
%TD*%
%TO.C,D55*%
X166525000Y-104437500D03*
X169225000Y-104437500D03*
%TD*%
%TO.C,D56*%
X185575000Y-104437500D03*
X188275000Y-104437500D03*
%TD*%
%TO.C,D57*%
X204625000Y-104437500D03*
X207325000Y-104437500D03*
%TD*%
%TO.C,D58*%
X223675000Y-104437500D03*
X226375000Y-104437500D03*
%TD*%
%TO.C,D59*%
X242725000Y-104437500D03*
X245425000Y-104437500D03*
%TD*%
%TO.C,D60*%
X261775000Y-104437500D03*
X264475000Y-104437500D03*
%TD*%
%TO.C,D61*%
X324830500Y-104437500D03*
X327530500Y-104437500D03*
%TD*%
%TO.C,D62*%
X343880500Y-104437500D03*
X346580500Y-104437500D03*
%TD*%
%TO.C,D63*%
X45081300Y-123487500D03*
X47781300Y-123487500D03*
%TD*%
%TO.C,D64*%
X76037500Y-123487500D03*
X78737500Y-123487500D03*
%TD*%
%TO.C,D65*%
X95087500Y-123487500D03*
X97787500Y-123487500D03*
%TD*%
%TO.C,D66*%
X114137500Y-123487500D03*
X116837500Y-123487500D03*
%TD*%
%TO.C,D67*%
X133187500Y-123487500D03*
X135887500Y-123487500D03*
%TD*%
%TO.C,D68*%
X152237500Y-123487500D03*
X154937500Y-123487500D03*
%TD*%
%TO.C,D69*%
X171287500Y-123487500D03*
X173987500Y-123487500D03*
%TD*%
%TO.C,D70*%
X190337500Y-123487500D03*
X193037500Y-123487500D03*
%TD*%
%TO.C,D71*%
X209387500Y-123487500D03*
X212087500Y-123487500D03*
%TD*%
%TO.C,D72*%
X228437500Y-123487500D03*
X231137500Y-123487500D03*
%TD*%
%TO.C,D73*%
X247487500Y-123487500D03*
X250187500Y-123487500D03*
%TD*%
%TO.C,D74*%
X273681300Y-123487500D03*
X276381300Y-123487500D03*
%TD*%
%TO.C,D75*%
X304637500Y-123487500D03*
X307337500Y-123487500D03*
%TD*%
%TO.C,D76*%
X345595000Y-125392500D03*
X348295000Y-125392500D03*
%TD*%
%TO.C,D77*%
X35556300Y-142537500D03*
X38256300Y-142537500D03*
%TD*%
%TO.C,D78*%
X59368800Y-142537500D03*
X62068800Y-142537500D03*
%TD*%
%TO.C,D79*%
X83181300Y-142537500D03*
X85881300Y-142537500D03*
%TD*%
%TO.C,D80*%
X157000000Y-142537500D03*
X159700000Y-142537500D03*
%TD*%
%TO.C,D81*%
X230818800Y-142537500D03*
X233518800Y-142537500D03*
%TD*%
%TO.C,D82*%
X254631300Y-142537500D03*
X257331300Y-142537500D03*
%TD*%
%TO.C,D83*%
X285587500Y-142537500D03*
X288287500Y-142537500D03*
%TD*%
%TO.C,D84*%
X304637500Y-142537500D03*
X307337500Y-142537500D03*
%TD*%
%TO.C,D85*%
X323687500Y-142537500D03*
X326387500Y-142537500D03*
%TD*%
%TO.C,D86*%
X345595000Y-144442500D03*
X348295000Y-144442500D03*
%TD*%
D11*
%TO.C,U1*%
X178750000Y-140000000D03*
X179250000Y-140000000D03*
X179750000Y-140000000D03*
X180250000Y-140000000D03*
X180750000Y-140000000D03*
X181250000Y-140000000D03*
X181750000Y-140000000D03*
X182250000Y-140000000D03*
X182750000Y-140000000D03*
X183250000Y-140000000D03*
X183750000Y-140000000D03*
X184250000Y-140000000D03*
D12*
X185000000Y-133750000D03*
X185000000Y-134250000D03*
X185000000Y-134750000D03*
X185000000Y-135250000D03*
X185000000Y-135750000D03*
X185000000Y-136250000D03*
X185000000Y-136750000D03*
X185000000Y-137250000D03*
X185000000Y-137750000D03*
X185000000Y-138250000D03*
X185000000Y-138750000D03*
X185000000Y-139250000D03*
D11*
X184250000Y-133000000D03*
X183750000Y-133000000D03*
X183250000Y-133000000D03*
X182750000Y-133000000D03*
X182250000Y-133000000D03*
X181750000Y-133000000D03*
X181250000Y-133000000D03*
X180750000Y-133000000D03*
X180250000Y-133000000D03*
X179750000Y-133000000D03*
X179250000Y-133000000D03*
X178750000Y-133000000D03*
D12*
X178000000Y-139250000D03*
X178000000Y-138750000D03*
X178000000Y-138250000D03*
X178000000Y-137750000D03*
X178000000Y-137250000D03*
X178000000Y-136750000D03*
X178000000Y-136250000D03*
X178000000Y-135750000D03*
X178000000Y-135250000D03*
X178000000Y-134750000D03*
X178000000Y-134250000D03*
X178000000Y-133750000D03*
D13*
X181500000Y-136500000D03*
%TD*%
D14*
%TO.C,J1*%
X305250000Y-23000000D03*
X304250000Y-23000000D03*
X303250000Y-23000000D03*
X302750000Y-23000000D03*
X298750000Y-23000000D03*
X299750000Y-23000000D03*
%TD*%
D15*
%TO.C,SW_PWR*%
X333000000Y-23000000D03*
X330500000Y-23000000D03*
X328000000Y-23000000D03*
%TD*%
D16*
X30715000Y-31985000D03*
X37065000Y-29445000D03*
X54527500Y-31985000D03*
X60877500Y-29445000D03*
X73577500Y-31985000D03*
X79927500Y-29445000D03*
X92627500Y-31985000D03*
X98977500Y-29445000D03*
X111677500Y-31985000D03*
X118027500Y-29445000D03*
X135490000Y-31985000D03*
X141840000Y-29445000D03*
X154540000Y-31985000D03*
X160890000Y-29445000D03*
X173590000Y-31985000D03*
X179940000Y-29445000D03*
X192640000Y-31985000D03*
X198990000Y-29445000D03*
X216452500Y-31985000D03*
X222802500Y-29445000D03*
X235502500Y-31985000D03*
X241852500Y-29445000D03*
X254552500Y-31985000D03*
X260902500Y-29445000D03*
X273602500Y-31985000D03*
X279952500Y-29445000D03*
X298367500Y-31985000D03*
X304717500Y-29445000D03*
X317417500Y-31985000D03*
X323767500Y-29445000D03*
X336467500Y-31985000D03*
X342817500Y-29445000D03*
X30715000Y-55797500D03*
X37065000Y-53257500D03*
X49765000Y-55797500D03*
X56115000Y-53257500D03*
X68815000Y-55797500D03*
X75165000Y-53257500D03*
X87865000Y-55797500D03*
X94215000Y-53257500D03*
X106915000Y-55797500D03*
X113265000Y-53257500D03*
X125965000Y-55797500D03*
X132315000Y-53257500D03*
X145015000Y-55797500D03*
X151365000Y-53257500D03*
X164065000Y-55797500D03*
X170415000Y-53257500D03*
X183115000Y-55797500D03*
X189465000Y-53257500D03*
X202165000Y-55797500D03*
X208515000Y-53257500D03*
X221215000Y-55797500D03*
X227565000Y-53257500D03*
X240265000Y-55797500D03*
X246615000Y-53257500D03*
X259315000Y-55797500D03*
X265665000Y-53257500D03*
X290271300Y-55797500D03*
X296621300Y-53257500D03*
X322370500Y-55797500D03*
X328720500Y-53257500D03*
X341420500Y-55797500D03*
X347770500Y-53257500D03*
X37858800Y-74847500D03*
X44208800Y-72307500D03*
X64052500Y-74847500D03*
X70402500Y-72307500D03*
X83102500Y-74847500D03*
X89452500Y-72307500D03*
X102152500Y-74847500D03*
X108502500Y-72307500D03*
X121202500Y-74847500D03*
X127552500Y-72307500D03*
X140252500Y-74847500D03*
X146602500Y-72307500D03*
X159302500Y-74847500D03*
X165652500Y-72307500D03*
X178352500Y-74847500D03*
X184702500Y-72307500D03*
X197402500Y-74847500D03*
X203752500Y-72307500D03*
X216452500Y-74847500D03*
X222802500Y-72307500D03*
X235502500Y-74847500D03*
X241852500Y-72307500D03*
X254552500Y-74847500D03*
X260902500Y-72307500D03*
X273602500Y-74847500D03*
X279952500Y-72307500D03*
X297415000Y-84372500D03*
X303765000Y-81832500D03*
X322370500Y-74847500D03*
X328720500Y-72307500D03*
X341420500Y-74847500D03*
X347770500Y-72307500D03*
X40240000Y-93897500D03*
X46590000Y-91357500D03*
X68815000Y-93897500D03*
X75165000Y-91357500D03*
X87865000Y-93897500D03*
X94215000Y-91357500D03*
X106915000Y-93897500D03*
X113265000Y-91357500D03*
X125965000Y-93897500D03*
X132315000Y-91357500D03*
X145015000Y-93897500D03*
X151365000Y-91357500D03*
X164065000Y-93897500D03*
X170415000Y-91357500D03*
X183115000Y-93897500D03*
X189465000Y-91357500D03*
X202165000Y-93897500D03*
X208515000Y-91357500D03*
X221215000Y-93897500D03*
X227565000Y-91357500D03*
X240265000Y-93897500D03*
X246615000Y-91357500D03*
X259315000Y-93897500D03*
X265665000Y-91357500D03*
X322370500Y-93897500D03*
X328720500Y-91357500D03*
X341420500Y-93897500D03*
X347770500Y-91357500D03*
X42621300Y-112947500D03*
X48971300Y-110407500D03*
X73577500Y-112947500D03*
X79927500Y-110407500D03*
X92627500Y-112947500D03*
X98977500Y-110407500D03*
X111677500Y-112947500D03*
X118027500Y-110407500D03*
X130727500Y-112947500D03*
X137077500Y-110407500D03*
X149777500Y-112947500D03*
X156127500Y-110407500D03*
X168827500Y-112947500D03*
X175177500Y-110407500D03*
X187877500Y-112947500D03*
X194227500Y-110407500D03*
X206927500Y-112947500D03*
X213277500Y-110407500D03*
X225977500Y-112947500D03*
X232327500Y-110407500D03*
X245027500Y-112947500D03*
X251377500Y-110407500D03*
X271221300Y-112947500D03*
X277571300Y-110407500D03*
X302177500Y-112947500D03*
X308527500Y-110407500D03*
X343135000Y-114852500D03*
X349485000Y-112312500D03*
X33096300Y-131997500D03*
X39446300Y-129457500D03*
X56908800Y-131997500D03*
X63258800Y-129457500D03*
X80721300Y-131997500D03*
X87071300Y-129457500D03*
X154540000Y-131997500D03*
X160890000Y-129457500D03*
X228358800Y-131997500D03*
X234708800Y-129457500D03*
X252171300Y-131997500D03*
X258521300Y-129457500D03*
X283127500Y-131997500D03*
X289477500Y-129457500D03*
X302177500Y-131997500D03*
X308527500Y-129457500D03*
X321227500Y-131997500D03*
X327577500Y-129457500D03*
X343135000Y-133902500D03*
X349485000Y-131362500D03*
X306320000Y-24500000D03*
X297680000Y-24500000D03*
X331000000Y-38000000D03*
X329000000Y-38000000D03*
X22500000Y-22500000D03*
X357000000Y-23000000D03*
X22500000Y-146500000D03*
X357000000Y-146500000D03*
X127500000Y-45500000D03*
X281500000Y-96000000D03*
M02*
