%TF.GenerationSoftware,KiCad,Pcbnew,9.0.8-1.fc43*%
%TF.CreationDate,2026-04-08T13:00:49-04:00*%
%TF.ProjectId,blue-dream-space,626c7565-2d64-4726-9561-6d2d73706163,rev?*%
%TF.SameCoordinates,Original*%
%TF.FileFunction,Paste,Top*%
%TF.FilePolarity,Positive*%
%FSLAX46Y46*%
G04 Gerber Fmt 4.6, Leading zero omitted, Abs format (unit mm)*
G04 Created by KiCad (PCBNEW 9.0.8-1.fc43) date 2026-04-08 13:00:49*
%MOMM*%
%LPD*%
G01*
G04 APERTURE LIST*
G04 Aperture macros list*
%AMRoundRect*
0 Rectangle with rounded corners*
0 $1 Rounding radius*
0 $2 $3 $4 $5 $6 $7 $8 $9 X,Y pos of 4 corners*
0 Add a 4 corners polygon primitive as box body*
4,1,4,$2,$3,$4,$5,$6,$7,$8,$9,$2,$3,0*
0 Add four circle primitives for the rounded corners*
1,1,$1+$1,$2,$3*
1,1,$1+$1,$4,$5*
1,1,$1+$1,$6,$7*
1,1,$1+$1,$8,$9*
0 Add four rect primitives between the rounded corners*
20,1,$1+$1,$2,$3,$4,$5,0*
20,1,$1+$1,$4,$5,$6,$7,0*
20,1,$1+$1,$6,$7,$8,$9,0*
20,1,$1+$1,$8,$9,$2,$3,0*%
G04 Aperture macros list end*
%ADD10RoundRect,0.225000X-0.225000X-0.375000X0.225000X-0.375000X0.225000X0.375000X-0.225000X0.375000X0*%
%ADD11R,0.900000X0.900000*%
%ADD12RoundRect,0.075000X-0.075000X-0.300000X0.075000X-0.300000X0.075000X0.300000X-0.075000X0.300000X0*%
%ADD13RoundRect,0.075000X-0.300000X-0.075000X0.300000X-0.075000X0.300000X0.075000X-0.300000X0.075000X0*%
%ADD14R,5.600000X5.600000*%
%ADD15RoundRect,0.075000X-0.075000X-0.425000X0.075000X-0.425000X0.075000X0.425000X-0.075000X0.425000X0*%
%ADD16R,0.600000X0.400000*%
%ADD17R,2.150000X2.150000*%
%ADD18R,1.000000X1.500000*%
%ADD19C,0.350000*%
G04 APERTURE END LIST*
D10*
%TO.C,D1*%
X33175000Y-42525000D03*
X35875000Y-42525000D03*
%TD*%
D11*
%TO.C,LED1*%
X32075000Y-39775000D03*
X32075000Y-41275000D03*
X36975000Y-41275000D03*
X36975000Y-39775000D03*
%TD*%
D10*
%TO.C,D2*%
X56987500Y-42525000D03*
X59687500Y-42525000D03*
%TD*%
D11*
%TO.C,LED2*%
X55887500Y-39775000D03*
X55887500Y-41275000D03*
X60787500Y-41275000D03*
X60787500Y-39775000D03*
%TD*%
D10*
%TO.C,D3*%
X76037500Y-42525000D03*
X78737500Y-42525000D03*
%TD*%
D11*
%TO.C,LED3*%
X74937500Y-39775000D03*
X74937500Y-41275000D03*
X79837500Y-41275000D03*
X79837500Y-39775000D03*
%TD*%
D10*
%TO.C,D4*%
X95087500Y-42525000D03*
X97787500Y-42525000D03*
%TD*%
D11*
%TO.C,LED4*%
X93987500Y-39775000D03*
X93987500Y-41275000D03*
X98887500Y-41275000D03*
X98887500Y-39775000D03*
%TD*%
D10*
%TO.C,D5*%
X114137500Y-42525000D03*
X116837500Y-42525000D03*
%TD*%
D11*
%TO.C,LED5*%
X113037500Y-39775000D03*
X113037500Y-41275000D03*
X117937500Y-41275000D03*
X117937500Y-39775000D03*
%TD*%
D10*
%TO.C,D6*%
X137950000Y-42525000D03*
X140650000Y-42525000D03*
%TD*%
D11*
%TO.C,LED6*%
X136850000Y-39775000D03*
X136850000Y-41275000D03*
X141750000Y-41275000D03*
X141750000Y-39775000D03*
%TD*%
D10*
%TO.C,D7*%
X157000000Y-42525000D03*
X159700000Y-42525000D03*
%TD*%
D11*
%TO.C,LED7*%
X155900000Y-39775000D03*
X155900000Y-41275000D03*
X160800000Y-41275000D03*
X160800000Y-39775000D03*
%TD*%
D10*
%TO.C,D8*%
X176050000Y-42525000D03*
X178750000Y-42525000D03*
%TD*%
D11*
%TO.C,LED8*%
X174950000Y-39775000D03*
X174950000Y-41275000D03*
X179850000Y-41275000D03*
X179850000Y-39775000D03*
%TD*%
D10*
%TO.C,D9*%
X195100000Y-42525000D03*
X197800000Y-42525000D03*
%TD*%
D11*
%TO.C,LED9*%
X194000000Y-39775000D03*
X194000000Y-41275000D03*
X198900000Y-41275000D03*
X198900000Y-39775000D03*
%TD*%
D10*
%TO.C,D10*%
X218912500Y-42525000D03*
X221612500Y-42525000D03*
%TD*%
D11*
%TO.C,LED10*%
X217812500Y-39775000D03*
X217812500Y-41275000D03*
X222712500Y-41275000D03*
X222712500Y-39775000D03*
%TD*%
D10*
%TO.C,D11*%
X237962500Y-42525000D03*
X240662500Y-42525000D03*
%TD*%
D11*
%TO.C,LED11*%
X236862500Y-39775000D03*
X236862500Y-41275000D03*
X241762500Y-41275000D03*
X241762500Y-39775000D03*
%TD*%
D10*
%TO.C,D12*%
X257012500Y-42525000D03*
X259712500Y-42525000D03*
%TD*%
D11*
%TO.C,LED12*%
X255912500Y-39775000D03*
X255912500Y-41275000D03*
X260812500Y-41275000D03*
X260812500Y-39775000D03*
%TD*%
D10*
%TO.C,D13*%
X276062500Y-42525000D03*
X278762500Y-42525000D03*
%TD*%
D11*
%TO.C,LED13*%
X274962500Y-39775000D03*
X274962500Y-41275000D03*
X279862500Y-41275000D03*
X279862500Y-39775000D03*
%TD*%
D10*
%TO.C,D14*%
X300827500Y-42525000D03*
X303527500Y-42525000D03*
%TD*%
D11*
%TO.C,LED14*%
X299727500Y-39775000D03*
X299727500Y-41275000D03*
X304627500Y-41275000D03*
X304627500Y-39775000D03*
%TD*%
D10*
%TO.C,D15*%
X319877500Y-42525000D03*
X322577500Y-42525000D03*
%TD*%
D11*
%TO.C,LED15*%
X318777500Y-39775000D03*
X318777500Y-41275000D03*
X323677500Y-41275000D03*
X323677500Y-39775000D03*
%TD*%
D10*
%TO.C,D16*%
X338927500Y-42525000D03*
X341627500Y-42525000D03*
%TD*%
D11*
%TO.C,LED16*%
X337827500Y-39775000D03*
X337827500Y-41275000D03*
X342727500Y-41275000D03*
X342727500Y-39775000D03*
%TD*%
D10*
%TO.C,D17*%
X33175000Y-66337500D03*
X35875000Y-66337500D03*
%TD*%
D11*
%TO.C,LED17*%
X32075000Y-63587500D03*
X32075000Y-65087500D03*
X36975000Y-65087500D03*
X36975000Y-63587500D03*
%TD*%
D10*
%TO.C,D18*%
X52225000Y-66337500D03*
X54925000Y-66337500D03*
%TD*%
D11*
%TO.C,LED18*%
X51125000Y-63587500D03*
X51125000Y-65087500D03*
X56025000Y-65087500D03*
X56025000Y-63587500D03*
%TD*%
D10*
%TO.C,D19*%
X71275000Y-66337500D03*
X73975000Y-66337500D03*
%TD*%
D11*
%TO.C,LED19*%
X70175000Y-63587500D03*
X70175000Y-65087500D03*
X75075000Y-65087500D03*
X75075000Y-63587500D03*
%TD*%
D10*
%TO.C,D20*%
X90325000Y-66337500D03*
X93025000Y-66337500D03*
%TD*%
D11*
%TO.C,LED20*%
X89225000Y-63587500D03*
X89225000Y-65087500D03*
X94125000Y-65087500D03*
X94125000Y-63587500D03*
%TD*%
D10*
%TO.C,D21*%
X109375000Y-66337500D03*
X112075000Y-66337500D03*
%TD*%
D11*
%TO.C,LED21*%
X108275000Y-63587500D03*
X108275000Y-65087500D03*
X113175000Y-65087500D03*
X113175000Y-63587500D03*
%TD*%
D10*
%TO.C,D22*%
X128425000Y-66337500D03*
X131125000Y-66337500D03*
%TD*%
D11*
%TO.C,LED22*%
X127325000Y-63587500D03*
X127325000Y-65087500D03*
X132225000Y-65087500D03*
X132225000Y-63587500D03*
%TD*%
D10*
%TO.C,D23*%
X147475000Y-66337500D03*
X150175000Y-66337500D03*
%TD*%
D11*
%TO.C,LED23*%
X146375000Y-63587500D03*
X146375000Y-65087500D03*
X151275000Y-65087500D03*
X151275000Y-63587500D03*
%TD*%
D10*
%TO.C,D24*%
X166525000Y-66337500D03*
X169225000Y-66337500D03*
%TD*%
D11*
%TO.C,LED24*%
X165425000Y-63587500D03*
X165425000Y-65087500D03*
X170325000Y-65087500D03*
X170325000Y-63587500D03*
%TD*%
D10*
%TO.C,D25*%
X185575000Y-66337500D03*
X188275000Y-66337500D03*
%TD*%
D11*
%TO.C,LED25*%
X184475000Y-63587500D03*
X184475000Y-65087500D03*
X189375000Y-65087500D03*
X189375000Y-63587500D03*
%TD*%
D10*
%TO.C,D26*%
X204625000Y-66337500D03*
X207325000Y-66337500D03*
%TD*%
D11*
%TO.C,LED26*%
X203525000Y-63587500D03*
X203525000Y-65087500D03*
X208425000Y-65087500D03*
X208425000Y-63587500D03*
%TD*%
D10*
%TO.C,D27*%
X223675000Y-66337500D03*
X226375000Y-66337500D03*
%TD*%
D11*
%TO.C,LED27*%
X222575000Y-63587500D03*
X222575000Y-65087500D03*
X227475000Y-65087500D03*
X227475000Y-63587500D03*
%TD*%
D10*
%TO.C,D28*%
X242725000Y-66337500D03*
X245425000Y-66337500D03*
%TD*%
D11*
%TO.C,LED28*%
X241625000Y-63587500D03*
X241625000Y-65087500D03*
X246525000Y-65087500D03*
X246525000Y-63587500D03*
%TD*%
D10*
%TO.C,D29*%
X261775000Y-66337500D03*
X264475000Y-66337500D03*
%TD*%
D11*
%TO.C,LED29*%
X260675000Y-63587500D03*
X260675000Y-65087500D03*
X265575000Y-65087500D03*
X265575000Y-63587500D03*
%TD*%
D10*
%TO.C,D30*%
X292731300Y-66337500D03*
X295431300Y-66337500D03*
%TD*%
D11*
%TO.C,LED30*%
X291631300Y-63587500D03*
X291631300Y-65087500D03*
X296531300Y-65087500D03*
X296531300Y-63587500D03*
%TD*%
D10*
%TO.C,D31*%
X324830500Y-66337500D03*
X327530500Y-66337500D03*
%TD*%
D11*
%TO.C,LED31*%
X323730500Y-63587500D03*
X323730500Y-65087500D03*
X328630500Y-65087500D03*
X328630500Y-63587500D03*
%TD*%
D10*
%TO.C,D32*%
X343880500Y-66337500D03*
X346580500Y-66337500D03*
%TD*%
D11*
%TO.C,LED32*%
X342780500Y-63587500D03*
X342780500Y-65087500D03*
X347680500Y-65087500D03*
X347680500Y-63587500D03*
%TD*%
D10*
%TO.C,D33*%
X40318800Y-85387500D03*
X43018800Y-85387500D03*
%TD*%
D11*
%TO.C,LED33*%
X39218800Y-82637500D03*
X39218800Y-84137500D03*
X44118800Y-84137500D03*
X44118800Y-82637500D03*
%TD*%
D10*
%TO.C,D34*%
X66512500Y-85387500D03*
X69212500Y-85387500D03*
%TD*%
D11*
%TO.C,LED34*%
X65412500Y-82637500D03*
X65412500Y-84137500D03*
X70312500Y-84137500D03*
X70312500Y-82637500D03*
%TD*%
D10*
%TO.C,D35*%
X85562500Y-85387500D03*
X88262500Y-85387500D03*
%TD*%
D11*
%TO.C,LED35*%
X84462500Y-82637500D03*
X84462500Y-84137500D03*
X89362500Y-84137500D03*
X89362500Y-82637500D03*
%TD*%
D10*
%TO.C,D36*%
X104612500Y-85387500D03*
X107312500Y-85387500D03*
%TD*%
D11*
%TO.C,LED36*%
X103512500Y-82637500D03*
X103512500Y-84137500D03*
X108412500Y-84137500D03*
X108412500Y-82637500D03*
%TD*%
D10*
%TO.C,D37*%
X123662500Y-85387500D03*
X126362500Y-85387500D03*
%TD*%
D11*
%TO.C,LED37*%
X122562500Y-82637500D03*
X122562500Y-84137500D03*
X127462500Y-84137500D03*
X127462500Y-82637500D03*
%TD*%
D10*
%TO.C,D38*%
X142712500Y-85387500D03*
X145412500Y-85387500D03*
%TD*%
D11*
%TO.C,LED38*%
X141612500Y-82637500D03*
X141612500Y-84137500D03*
X146512500Y-84137500D03*
X146512500Y-82637500D03*
%TD*%
D10*
%TO.C,D39*%
X161762500Y-85387500D03*
X164462500Y-85387500D03*
%TD*%
D11*
%TO.C,LED39*%
X160662500Y-82637500D03*
X160662500Y-84137500D03*
X165562500Y-84137500D03*
X165562500Y-82637500D03*
%TD*%
D10*
%TO.C,D40*%
X180812500Y-85387500D03*
X183512500Y-85387500D03*
%TD*%
D11*
%TO.C,LED40*%
X179712500Y-82637500D03*
X179712500Y-84137500D03*
X184612500Y-84137500D03*
X184612500Y-82637500D03*
%TD*%
D10*
%TO.C,D41*%
X199862500Y-85387500D03*
X202562500Y-85387500D03*
%TD*%
D11*
%TO.C,LED41*%
X198762500Y-82637500D03*
X198762500Y-84137500D03*
X203662500Y-84137500D03*
X203662500Y-82637500D03*
%TD*%
D10*
%TO.C,D42*%
X218912500Y-85387500D03*
X221612500Y-85387500D03*
%TD*%
D11*
%TO.C,LED42*%
X217812500Y-82637500D03*
X217812500Y-84137500D03*
X222712500Y-84137500D03*
X222712500Y-82637500D03*
%TD*%
D10*
%TO.C,D43*%
X237962500Y-85387500D03*
X240662500Y-85387500D03*
%TD*%
D11*
%TO.C,LED43*%
X236862500Y-82637500D03*
X236862500Y-84137500D03*
X241762500Y-84137500D03*
X241762500Y-82637500D03*
%TD*%
D10*
%TO.C,D44*%
X257012500Y-85387500D03*
X259712500Y-85387500D03*
%TD*%
D11*
%TO.C,LED44*%
X255912500Y-82637500D03*
X255912500Y-84137500D03*
X260812500Y-84137500D03*
X260812500Y-82637500D03*
%TD*%
D10*
%TO.C,D45*%
X276062500Y-85387500D03*
X278762500Y-85387500D03*
%TD*%
D11*
%TO.C,LED45*%
X274962500Y-82637500D03*
X274962500Y-84137500D03*
X279862500Y-84137500D03*
X279862500Y-82637500D03*
%TD*%
D10*
%TO.C,D46*%
X299875000Y-94912500D03*
X302575000Y-94912500D03*
%TD*%
D11*
%TO.C,LED46*%
X298775000Y-92162500D03*
X298775000Y-93662500D03*
X303675000Y-93662500D03*
X303675000Y-92162500D03*
%TD*%
D10*
%TO.C,D47*%
X324830500Y-85387500D03*
X327530500Y-85387500D03*
%TD*%
D11*
%TO.C,LED47*%
X323730500Y-82637500D03*
X323730500Y-84137500D03*
X328630500Y-84137500D03*
X328630500Y-82637500D03*
%TD*%
D10*
%TO.C,D48*%
X343880500Y-85387500D03*
X346580500Y-85387500D03*
%TD*%
D11*
%TO.C,LED48*%
X342780500Y-82637500D03*
X342780500Y-84137500D03*
X347680500Y-84137500D03*
X347680500Y-82637500D03*
%TD*%
D10*
%TO.C,D49*%
X42700000Y-104437500D03*
X45400000Y-104437500D03*
%TD*%
D11*
%TO.C,LED49*%
X41600000Y-101687500D03*
X41600000Y-103187500D03*
X46500000Y-103187500D03*
X46500000Y-101687500D03*
%TD*%
D10*
%TO.C,D50*%
X71275000Y-104437500D03*
X73975000Y-104437500D03*
%TD*%
D11*
%TO.C,LED50*%
X70175000Y-101687500D03*
X70175000Y-103187500D03*
X75075000Y-103187500D03*
X75075000Y-101687500D03*
%TD*%
D10*
%TO.C,D51*%
X90325000Y-104437500D03*
X93025000Y-104437500D03*
%TD*%
D11*
%TO.C,LED51*%
X89225000Y-101687500D03*
X89225000Y-103187500D03*
X94125000Y-103187500D03*
X94125000Y-101687500D03*
%TD*%
D10*
%TO.C,D52*%
X109375000Y-104437500D03*
X112075000Y-104437500D03*
%TD*%
D11*
%TO.C,LED52*%
X108275000Y-101687500D03*
X108275000Y-103187500D03*
X113175000Y-103187500D03*
X113175000Y-101687500D03*
%TD*%
D10*
%TO.C,D53*%
X128425000Y-104437500D03*
X131125000Y-104437500D03*
%TD*%
D11*
%TO.C,LED53*%
X127325000Y-101687500D03*
X127325000Y-103187500D03*
X132225000Y-103187500D03*
X132225000Y-101687500D03*
%TD*%
D10*
%TO.C,D54*%
X147475000Y-104437500D03*
X150175000Y-104437500D03*
%TD*%
D11*
%TO.C,LED54*%
X146375000Y-101687500D03*
X146375000Y-103187500D03*
X151275000Y-103187500D03*
X151275000Y-101687500D03*
%TD*%
D10*
%TO.C,D55*%
X166525000Y-104437500D03*
X169225000Y-104437500D03*
%TD*%
D11*
%TO.C,LED55*%
X165425000Y-101687500D03*
X165425000Y-103187500D03*
X170325000Y-103187500D03*
X170325000Y-101687500D03*
%TD*%
D10*
%TO.C,D56*%
X185575000Y-104437500D03*
X188275000Y-104437500D03*
%TD*%
D11*
%TO.C,LED56*%
X184475000Y-101687500D03*
X184475000Y-103187500D03*
X189375000Y-103187500D03*
X189375000Y-101687500D03*
%TD*%
D10*
%TO.C,D57*%
X204625000Y-104437500D03*
X207325000Y-104437500D03*
%TD*%
D11*
%TO.C,LED57*%
X203525000Y-101687500D03*
X203525000Y-103187500D03*
X208425000Y-103187500D03*
X208425000Y-101687500D03*
%TD*%
D10*
%TO.C,D58*%
X223675000Y-104437500D03*
X226375000Y-104437500D03*
%TD*%
D11*
%TO.C,LED58*%
X222575000Y-101687500D03*
X222575000Y-103187500D03*
X227475000Y-103187500D03*
X227475000Y-101687500D03*
%TD*%
D10*
%TO.C,D59*%
X242725000Y-104437500D03*
X245425000Y-104437500D03*
%TD*%
D11*
%TO.C,LED59*%
X241625000Y-101687500D03*
X241625000Y-103187500D03*
X246525000Y-103187500D03*
X246525000Y-101687500D03*
%TD*%
D10*
%TO.C,D60*%
X261775000Y-104437500D03*
X264475000Y-104437500D03*
%TD*%
D11*
%TO.C,LED60*%
X260675000Y-101687500D03*
X260675000Y-103187500D03*
X265575000Y-103187500D03*
X265575000Y-101687500D03*
%TD*%
D10*
%TO.C,D61*%
X324830500Y-104437500D03*
X327530500Y-104437500D03*
%TD*%
D11*
%TO.C,LED61*%
X323730500Y-101687500D03*
X323730500Y-103187500D03*
X328630500Y-103187500D03*
X328630500Y-101687500D03*
%TD*%
D10*
%TO.C,D62*%
X343880500Y-104437500D03*
X346580500Y-104437500D03*
%TD*%
D11*
%TO.C,LED62*%
X342780500Y-101687500D03*
X342780500Y-103187500D03*
X347680500Y-103187500D03*
X347680500Y-101687500D03*
%TD*%
D10*
%TO.C,D63*%
X45081300Y-123487500D03*
X47781300Y-123487500D03*
%TD*%
D11*
%TO.C,LED63*%
X43981300Y-120737500D03*
X43981300Y-122237500D03*
X48881300Y-122237500D03*
X48881300Y-120737500D03*
%TD*%
D10*
%TO.C,D64*%
X76037500Y-123487500D03*
X78737500Y-123487500D03*
%TD*%
D11*
%TO.C,LED64*%
X74937500Y-120737500D03*
X74937500Y-122237500D03*
X79837500Y-122237500D03*
X79837500Y-120737500D03*
%TD*%
D10*
%TO.C,D65*%
X95087500Y-123487500D03*
X97787500Y-123487500D03*
%TD*%
D11*
%TO.C,LED65*%
X93987500Y-120737500D03*
X93987500Y-122237500D03*
X98887500Y-122237500D03*
X98887500Y-120737500D03*
%TD*%
D10*
%TO.C,D66*%
X114137500Y-123487500D03*
X116837500Y-123487500D03*
%TD*%
D11*
%TO.C,LED66*%
X113037500Y-120737500D03*
X113037500Y-122237500D03*
X117937500Y-122237500D03*
X117937500Y-120737500D03*
%TD*%
D10*
%TO.C,D67*%
X133187500Y-123487500D03*
X135887500Y-123487500D03*
%TD*%
D11*
%TO.C,LED67*%
X132087500Y-120737500D03*
X132087500Y-122237500D03*
X136987500Y-122237500D03*
X136987500Y-120737500D03*
%TD*%
D10*
%TO.C,D68*%
X152237500Y-123487500D03*
X154937500Y-123487500D03*
%TD*%
D11*
%TO.C,LED68*%
X151137500Y-120737500D03*
X151137500Y-122237500D03*
X156037500Y-122237500D03*
X156037500Y-120737500D03*
%TD*%
D10*
%TO.C,D69*%
X171287500Y-123487500D03*
X173987500Y-123487500D03*
%TD*%
D11*
%TO.C,LED69*%
X170187500Y-120737500D03*
X170187500Y-122237500D03*
X175087500Y-122237500D03*
X175087500Y-120737500D03*
%TD*%
D10*
%TO.C,D70*%
X190337500Y-123487500D03*
X193037500Y-123487500D03*
%TD*%
D11*
%TO.C,LED70*%
X189237500Y-120737500D03*
X189237500Y-122237500D03*
X194137500Y-122237500D03*
X194137500Y-120737500D03*
%TD*%
D10*
%TO.C,D71*%
X209387500Y-123487500D03*
X212087500Y-123487500D03*
%TD*%
D11*
%TO.C,LED71*%
X208287500Y-120737500D03*
X208287500Y-122237500D03*
X213187500Y-122237500D03*
X213187500Y-120737500D03*
%TD*%
D10*
%TO.C,D72*%
X228437500Y-123487500D03*
X231137500Y-123487500D03*
%TD*%
D11*
%TO.C,LED72*%
X227337500Y-120737500D03*
X227337500Y-122237500D03*
X232237500Y-122237500D03*
X232237500Y-120737500D03*
%TD*%
D10*
%TO.C,D73*%
X247487500Y-123487500D03*
X250187500Y-123487500D03*
%TD*%
D11*
%TO.C,LED73*%
X246387500Y-120737500D03*
X246387500Y-122237500D03*
X251287500Y-122237500D03*
X251287500Y-120737500D03*
%TD*%
D10*
%TO.C,D74*%
X273681300Y-123487500D03*
X276381300Y-123487500D03*
%TD*%
D11*
%TO.C,LED74*%
X272581300Y-120737500D03*
X272581300Y-122237500D03*
X277481300Y-122237500D03*
X277481300Y-120737500D03*
%TD*%
D10*
%TO.C,D75*%
X304637500Y-123487500D03*
X307337500Y-123487500D03*
%TD*%
D11*
%TO.C,LED75*%
X303537500Y-120737500D03*
X303537500Y-122237500D03*
X308437500Y-122237500D03*
X308437500Y-120737500D03*
%TD*%
D10*
%TO.C,D76*%
X345595000Y-125392500D03*
X348295000Y-125392500D03*
%TD*%
D11*
%TO.C,LED76*%
X344495000Y-122642500D03*
X344495000Y-124142500D03*
X349395000Y-124142500D03*
X349395000Y-122642500D03*
%TD*%
D10*
%TO.C,D77*%
X35556300Y-142537500D03*
X38256300Y-142537500D03*
%TD*%
D11*
%TO.C,LED77*%
X34456300Y-139787500D03*
X34456300Y-141287500D03*
X39356300Y-141287500D03*
X39356300Y-139787500D03*
%TD*%
D10*
%TO.C,D78*%
X59368800Y-142537500D03*
X62068800Y-142537500D03*
%TD*%
D11*
%TO.C,LED78*%
X58268800Y-139787500D03*
X58268800Y-141287500D03*
X63168800Y-141287500D03*
X63168800Y-139787500D03*
%TD*%
D10*
%TO.C,D79*%
X83181300Y-142537500D03*
X85881300Y-142537500D03*
%TD*%
D11*
%TO.C,LED79*%
X82081300Y-139787500D03*
X82081300Y-141287500D03*
X86981300Y-141287500D03*
X86981300Y-139787500D03*
%TD*%
D10*
%TO.C,D80*%
X157000000Y-142537500D03*
X159700000Y-142537500D03*
%TD*%
D11*
%TO.C,LED80*%
X155900000Y-139787500D03*
X155900000Y-141287500D03*
X160800000Y-141287500D03*
X160800000Y-139787500D03*
%TD*%
D10*
%TO.C,D81*%
X230818800Y-142537500D03*
X233518800Y-142537500D03*
%TD*%
D11*
%TO.C,LED81*%
X229718800Y-139787500D03*
X229718800Y-141287500D03*
X234618800Y-141287500D03*
X234618800Y-139787500D03*
%TD*%
D10*
%TO.C,D82*%
X254631300Y-142537500D03*
X257331300Y-142537500D03*
%TD*%
D11*
%TO.C,LED82*%
X253531300Y-139787500D03*
X253531300Y-141287500D03*
X258431300Y-141287500D03*
X258431300Y-139787500D03*
%TD*%
D10*
%TO.C,D83*%
X285587500Y-142537500D03*
X288287500Y-142537500D03*
%TD*%
D11*
%TO.C,LED83*%
X284487500Y-139787500D03*
X284487500Y-141287500D03*
X289387500Y-141287500D03*
X289387500Y-139787500D03*
%TD*%
D10*
%TO.C,D84*%
X304637500Y-142537500D03*
X307337500Y-142537500D03*
%TD*%
D11*
%TO.C,LED84*%
X303537500Y-139787500D03*
X303537500Y-141287500D03*
X308437500Y-141287500D03*
X308437500Y-139787500D03*
%TD*%
D10*
%TO.C,D85*%
X323687500Y-142537500D03*
X326387500Y-142537500D03*
%TD*%
D11*
%TO.C,LED85*%
X322587500Y-139787500D03*
X322587500Y-141287500D03*
X327487500Y-141287500D03*
X327487500Y-139787500D03*
%TD*%
D10*
%TO.C,D86*%
X345595000Y-144442500D03*
X348295000Y-144442500D03*
%TD*%
D11*
%TO.C,LED86*%
X344495000Y-141692500D03*
X344495000Y-143192500D03*
X349395000Y-143192500D03*
X349395000Y-141692500D03*
%TD*%
D12*
%TO.C,U1*%
X185750000Y-137500000D03*
X186250000Y-137500000D03*
X186750000Y-137500000D03*
X187250000Y-137500000D03*
X187750000Y-137500000D03*
X188250000Y-137500000D03*
X188750000Y-137500000D03*
X189250000Y-137500000D03*
X189750000Y-137500000D03*
X190250000Y-137500000D03*
X190750000Y-137500000D03*
X191250000Y-137500000D03*
D13*
X192000000Y-131250000D03*
X192000000Y-131750000D03*
X192000000Y-132250000D03*
X192000000Y-132750000D03*
X192000000Y-133250000D03*
X192000000Y-133750000D03*
X192000000Y-134250000D03*
X192000000Y-134750000D03*
X192000000Y-135250000D03*
X192000000Y-135750000D03*
X192000000Y-136250000D03*
X192000000Y-136750000D03*
D12*
X191250000Y-130500000D03*
X190750000Y-130500000D03*
X190250000Y-130500000D03*
X189750000Y-130500000D03*
X189250000Y-130500000D03*
X188750000Y-130500000D03*
X188250000Y-130500000D03*
X187750000Y-130500000D03*
X187250000Y-130500000D03*
X186750000Y-130500000D03*
X186250000Y-130500000D03*
X185750000Y-130500000D03*
D13*
X185000000Y-136750000D03*
X185000000Y-136250000D03*
X185000000Y-135750000D03*
X185000000Y-135250000D03*
X185000000Y-134750000D03*
X185000000Y-134250000D03*
X185000000Y-133750000D03*
X185000000Y-133250000D03*
X185000000Y-132750000D03*
X185000000Y-132250000D03*
X185000000Y-131750000D03*
X185000000Y-131250000D03*
D14*
X188500000Y-134000000D03*
%TD*%
D15*
%TO.C,J1*%
X305250000Y-23000000D03*
X304250000Y-23000000D03*
X303250000Y-23000000D03*
X302750000Y-23000000D03*
X298750000Y-23000000D03*
X299750000Y-23000000D03*
%TD*%
D16*
%TO.C,U2*%
X312400000Y-24850000D03*
X312400000Y-25500000D03*
X312400000Y-26150000D03*
X314600000Y-25500000D03*
D17*
X313500000Y-25500000D03*
%TD*%
D18*
%TO.C,SW_PWR*%
X333000000Y-23000000D03*
X330500000Y-23000000D03*
X328000000Y-23000000D03*
%TD*%
D19*
X30715000Y-31985000D03*
X37065000Y-29445000D03*
X54527500Y-31985000D03*
X60877500Y-29445000D03*
X73577500Y-31985000D03*
X79927500Y-29445000D03*
X92627500Y-31985000D03*
X98977500Y-29445000D03*
X111677500Y-31985000D03*
X118027500Y-29445000D03*
X135490000Y-31985000D03*
X141840000Y-29445000D03*
X154540000Y-31985000D03*
X160890000Y-29445000D03*
X173590000Y-31985000D03*
X179940000Y-29445000D03*
X192640000Y-31985000D03*
X198990000Y-29445000D03*
X216452500Y-31985000D03*
X222802500Y-29445000D03*
X235502500Y-31985000D03*
X241852500Y-29445000D03*
X254552500Y-31985000D03*
X260902500Y-29445000D03*
X273602500Y-31985000D03*
X279952500Y-29445000D03*
X298367500Y-31985000D03*
X304717500Y-29445000D03*
X317417500Y-31985000D03*
X323767500Y-29445000D03*
X336467500Y-31985000D03*
X342817500Y-29445000D03*
X30715000Y-55797500D03*
X37065000Y-53257500D03*
X49765000Y-55797500D03*
X56115000Y-53257500D03*
X68815000Y-55797500D03*
X75165000Y-53257500D03*
X87865000Y-55797500D03*
X94215000Y-53257500D03*
X106915000Y-55797500D03*
X113265000Y-53257500D03*
X125965000Y-55797500D03*
X132315000Y-53257500D03*
X145015000Y-55797500D03*
X151365000Y-53257500D03*
X164065000Y-55797500D03*
X170415000Y-53257500D03*
X183115000Y-55797500D03*
X189465000Y-53257500D03*
X202165000Y-55797500D03*
X208515000Y-53257500D03*
X221215000Y-55797500D03*
X227565000Y-53257500D03*
X240265000Y-55797500D03*
X246615000Y-53257500D03*
X259315000Y-55797500D03*
X265665000Y-53257500D03*
X290271300Y-55797500D03*
X296621300Y-53257500D03*
X322370500Y-55797500D03*
X328720500Y-53257500D03*
X341420500Y-55797500D03*
X347770500Y-53257500D03*
X37858800Y-74847500D03*
X44208800Y-72307500D03*
X64052500Y-74847500D03*
X70402500Y-72307500D03*
X83102500Y-74847500D03*
X89452500Y-72307500D03*
X102152500Y-74847500D03*
X108502500Y-72307500D03*
X121202500Y-74847500D03*
X127552500Y-72307500D03*
X140252500Y-74847500D03*
X146602500Y-72307500D03*
X159302500Y-74847500D03*
X165652500Y-72307500D03*
X178352500Y-74847500D03*
X184702500Y-72307500D03*
X197402500Y-74847500D03*
X203752500Y-72307500D03*
X216452500Y-74847500D03*
X222802500Y-72307500D03*
X235502500Y-74847500D03*
X241852500Y-72307500D03*
X254552500Y-74847500D03*
X260902500Y-72307500D03*
X273602500Y-74847500D03*
X279952500Y-72307500D03*
X297415000Y-84372500D03*
X303765000Y-81832500D03*
X322370500Y-74847500D03*
X328720500Y-72307500D03*
X341420500Y-74847500D03*
X347770500Y-72307500D03*
X40240000Y-93897500D03*
X46590000Y-91357500D03*
X68815000Y-93897500D03*
X75165000Y-91357500D03*
X87865000Y-93897500D03*
X94215000Y-91357500D03*
X106915000Y-93897500D03*
X113265000Y-91357500D03*
X125965000Y-93897500D03*
X132315000Y-91357500D03*
X145015000Y-93897500D03*
X151365000Y-91357500D03*
X164065000Y-93897500D03*
X170415000Y-91357500D03*
X183115000Y-93897500D03*
X189465000Y-91357500D03*
X202165000Y-93897500D03*
X208515000Y-91357500D03*
X221215000Y-93897500D03*
X227565000Y-91357500D03*
X240265000Y-93897500D03*
X246615000Y-91357500D03*
X259315000Y-93897500D03*
X265665000Y-91357500D03*
X322370500Y-93897500D03*
X328720500Y-91357500D03*
X341420500Y-93897500D03*
X347770500Y-91357500D03*
X42621300Y-112947500D03*
X48971300Y-110407500D03*
X73577500Y-112947500D03*
X79927500Y-110407500D03*
X92627500Y-112947500D03*
X98977500Y-110407500D03*
X111677500Y-112947500D03*
X118027500Y-110407500D03*
X130727500Y-112947500D03*
X137077500Y-110407500D03*
X149777500Y-112947500D03*
X156127500Y-110407500D03*
X168827500Y-112947500D03*
X175177500Y-110407500D03*
X187877500Y-112947500D03*
X194227500Y-110407500D03*
X206927500Y-112947500D03*
X213277500Y-110407500D03*
X225977500Y-112947500D03*
X232327500Y-110407500D03*
X245027500Y-112947500D03*
X251377500Y-110407500D03*
X271221300Y-112947500D03*
X277571300Y-110407500D03*
X302177500Y-112947500D03*
X308527500Y-110407500D03*
X343135000Y-114852500D03*
X349485000Y-112312500D03*
X33096300Y-131997500D03*
X39446300Y-129457500D03*
X56908800Y-131997500D03*
X63258800Y-129457500D03*
X80721300Y-131997500D03*
X87071300Y-129457500D03*
X154540000Y-131997500D03*
X160890000Y-129457500D03*
X228358800Y-131997500D03*
X234708800Y-129457500D03*
X252171300Y-131997500D03*
X258521300Y-129457500D03*
X283127500Y-131997500D03*
X289477500Y-129457500D03*
X302177500Y-131997500D03*
X308527500Y-129457500D03*
X321227500Y-131997500D03*
X327577500Y-129457500D03*
X343135000Y-133902500D03*
X349485000Y-131362500D03*
X306320000Y-24500000D03*
X297680000Y-24500000D03*
X335500000Y-77500000D03*
X333500000Y-77500000D03*
X22500000Y-22500000D03*
X357000000Y-23000000D03*
X22500000Y-146500000D03*
X357000000Y-146500000D03*
X127500000Y-45500000D03*
X281500000Y-96000000D03*
M02*
