%TF.GenerationSoftware,KiCad,Pcbnew,9.0.8-1.fc43*%
%TF.CreationDate,2026-04-08T13:00:50-04:00*%
%TF.ProjectId,blue-dream-space,626c7565-2d64-4726-9561-6d2d73706163,rev?*%
%TF.SameCoordinates,Original*%
%TF.FileFunction,Soldermask,Bot*%
%TF.FilePolarity,Negative*%
%FSLAX46Y46*%
G04 Gerber Fmt 4.6, Leading zero omitted, Abs format (unit mm)*
G04 Created by KiCad (PCBNEW 9.0.8-1.fc43) date 2026-04-08 13:00:50*
%MOMM*%
%LPD*%
G01*
G04 APERTURE LIST*
%ADD10C,0.350000*%
G04 APERTURE END LIST*
G36*
X22969017Y-143739561D02*
G01*
X23275139Y-143809431D01*
X23571514Y-143913137D01*
X23854413Y-144049374D01*
X24120280Y-144216430D01*
X24365770Y-144412202D01*
X24587798Y-144634230D01*
X24783570Y-144879720D01*
X24950626Y-145145587D01*
X25086863Y-145428486D01*
X25190569Y-145724861D01*
X25260439Y-146030983D01*
X25295595Y-146343003D01*
X25295595Y-146656997D01*
X25260439Y-146969017D01*
X25190569Y-147275139D01*
X25086863Y-147571514D01*
X24950626Y-147854413D01*
X24783570Y-148120280D01*
X24587798Y-148365770D01*
X24365770Y-148587798D01*
X24120280Y-148783570D01*
X23854413Y-148950626D01*
X23571514Y-149086863D01*
X23275139Y-149190569D01*
X22969017Y-149260439D01*
X22656997Y-149295595D01*
X22343003Y-149295595D01*
X22030983Y-149260439D01*
X21724861Y-149190569D01*
X21428486Y-149086863D01*
X21145587Y-148950626D01*
X20879720Y-148783570D01*
X20634230Y-148587798D01*
X20412202Y-148365770D01*
X20216430Y-148120280D01*
X20049374Y-147854413D01*
X19913137Y-147571514D01*
X19809431Y-147275139D01*
X19739561Y-146969017D01*
X19704405Y-146656997D01*
X19704405Y-146343003D01*
X19739561Y-146030983D01*
X19809431Y-145724861D01*
X19913137Y-145428486D01*
X20049374Y-145145587D01*
X20216430Y-144879720D01*
X20412202Y-144634230D01*
X20634230Y-144412202D01*
X20879720Y-144216430D01*
X21145587Y-144049374D01*
X21428486Y-143913137D01*
X21724861Y-143809431D01*
X22030983Y-143739561D01*
X22343003Y-143704405D01*
X22656997Y-143704405D01*
X22969017Y-143739561D01*
G37*
G36*
X357469017Y-143739561D02*
G01*
X357775139Y-143809431D01*
X358071514Y-143913137D01*
X358354413Y-144049374D01*
X358620280Y-144216430D01*
X358865770Y-144412202D01*
X359087798Y-144634230D01*
X359283570Y-144879720D01*
X359450626Y-145145587D01*
X359586863Y-145428486D01*
X359690569Y-145724861D01*
X359760439Y-146030983D01*
X359795595Y-146343003D01*
X359795595Y-146656997D01*
X359760439Y-146969017D01*
X359690569Y-147275139D01*
X359586863Y-147571514D01*
X359450626Y-147854413D01*
X359283570Y-148120280D01*
X359087798Y-148365770D01*
X358865770Y-148587798D01*
X358620280Y-148783570D01*
X358354413Y-148950626D01*
X358071514Y-149086863D01*
X357775139Y-149190569D01*
X357469017Y-149260439D01*
X357156997Y-149295595D01*
X356843003Y-149295595D01*
X356530983Y-149260439D01*
X356224861Y-149190569D01*
X355928486Y-149086863D01*
X355645587Y-148950626D01*
X355379720Y-148783570D01*
X355134230Y-148587798D01*
X354912202Y-148365770D01*
X354716430Y-148120280D01*
X354549374Y-147854413D01*
X354413137Y-147571514D01*
X354309431Y-147275139D01*
X354239561Y-146969017D01*
X354204405Y-146656997D01*
X354204405Y-146343003D01*
X354239561Y-146030983D01*
X354309431Y-145724861D01*
X354413137Y-145428486D01*
X354549374Y-145145587D01*
X354716430Y-144879720D01*
X354912202Y-144634230D01*
X355134230Y-144412202D01*
X355379720Y-144216430D01*
X355645587Y-144049374D01*
X355928486Y-143913137D01*
X356224861Y-143809431D01*
X356530983Y-143739561D01*
X356843003Y-143704405D01*
X357156997Y-143704405D01*
X357469017Y-143739561D01*
G37*
G36*
X343403462Y-132784275D02*
G01*
X343575086Y-132840039D01*
X343735873Y-132921964D01*
X343881865Y-133028033D01*
X344009467Y-133155635D01*
X344115536Y-133301627D01*
X344197461Y-133462414D01*
X344253225Y-133634038D01*
X344281455Y-133812272D01*
X344281455Y-133992728D01*
X344253225Y-134170962D01*
X344197461Y-134342586D01*
X344115536Y-134503373D01*
X344009467Y-134649365D01*
X343881865Y-134776967D01*
X343735873Y-134883036D01*
X343575086Y-134964961D01*
X343403462Y-135020725D01*
X343225228Y-135048955D01*
X343044772Y-135048955D01*
X342866538Y-135020725D01*
X342694914Y-134964961D01*
X342534127Y-134883036D01*
X342388135Y-134776967D01*
X342260533Y-134649365D01*
X342154464Y-134503373D01*
X342072539Y-134342586D01*
X342016775Y-134170962D01*
X341988545Y-133992728D01*
X341988545Y-133812272D01*
X342016775Y-133634038D01*
X342072539Y-133462414D01*
X342154464Y-133301627D01*
X342260533Y-133155635D01*
X342388135Y-133028033D01*
X342534127Y-132921964D01*
X342694914Y-132840039D01*
X342866538Y-132784275D01*
X343044772Y-132756045D01*
X343225228Y-132756045D01*
X343403462Y-132784275D01*
G37*
G36*
X33364762Y-130879275D02*
G01*
X33536386Y-130935039D01*
X33697173Y-131016964D01*
X33843165Y-131123033D01*
X33970767Y-131250635D01*
X34076836Y-131396627D01*
X34158761Y-131557414D01*
X34214525Y-131729038D01*
X34242755Y-131907272D01*
X34242755Y-132087728D01*
X34214525Y-132265962D01*
X34158761Y-132437586D01*
X34076836Y-132598373D01*
X33970767Y-132744365D01*
X33843165Y-132871967D01*
X33697173Y-132978036D01*
X33536386Y-133059961D01*
X33364762Y-133115725D01*
X33186528Y-133143955D01*
X33006072Y-133143955D01*
X32827838Y-133115725D01*
X32656214Y-133059961D01*
X32495427Y-132978036D01*
X32349435Y-132871967D01*
X32221833Y-132744365D01*
X32115764Y-132598373D01*
X32033839Y-132437586D01*
X31978075Y-132265962D01*
X31949845Y-132087728D01*
X31949845Y-131907272D01*
X31978075Y-131729038D01*
X32033839Y-131557414D01*
X32115764Y-131396627D01*
X32221833Y-131250635D01*
X32349435Y-131123033D01*
X32495427Y-131016964D01*
X32656214Y-130935039D01*
X32827838Y-130879275D01*
X33006072Y-130851045D01*
X33186528Y-130851045D01*
X33364762Y-130879275D01*
G37*
G36*
X57177262Y-130879275D02*
G01*
X57348886Y-130935039D01*
X57509673Y-131016964D01*
X57655665Y-131123033D01*
X57783267Y-131250635D01*
X57889336Y-131396627D01*
X57971261Y-131557414D01*
X58027025Y-131729038D01*
X58055255Y-131907272D01*
X58055255Y-132087728D01*
X58027025Y-132265962D01*
X57971261Y-132437586D01*
X57889336Y-132598373D01*
X57783267Y-132744365D01*
X57655665Y-132871967D01*
X57509673Y-132978036D01*
X57348886Y-133059961D01*
X57177262Y-133115725D01*
X56999028Y-133143955D01*
X56818572Y-133143955D01*
X56640338Y-133115725D01*
X56468714Y-133059961D01*
X56307927Y-132978036D01*
X56161935Y-132871967D01*
X56034333Y-132744365D01*
X55928264Y-132598373D01*
X55846339Y-132437586D01*
X55790575Y-132265962D01*
X55762345Y-132087728D01*
X55762345Y-131907272D01*
X55790575Y-131729038D01*
X55846339Y-131557414D01*
X55928264Y-131396627D01*
X56034333Y-131250635D01*
X56161935Y-131123033D01*
X56307927Y-131016964D01*
X56468714Y-130935039D01*
X56640338Y-130879275D01*
X56818572Y-130851045D01*
X56999028Y-130851045D01*
X57177262Y-130879275D01*
G37*
G36*
X80989762Y-130879275D02*
G01*
X81161386Y-130935039D01*
X81322173Y-131016964D01*
X81468165Y-131123033D01*
X81595767Y-131250635D01*
X81701836Y-131396627D01*
X81783761Y-131557414D01*
X81839525Y-131729038D01*
X81867755Y-131907272D01*
X81867755Y-132087728D01*
X81839525Y-132265962D01*
X81783761Y-132437586D01*
X81701836Y-132598373D01*
X81595767Y-132744365D01*
X81468165Y-132871967D01*
X81322173Y-132978036D01*
X81161386Y-133059961D01*
X80989762Y-133115725D01*
X80811528Y-133143955D01*
X80631072Y-133143955D01*
X80452838Y-133115725D01*
X80281214Y-133059961D01*
X80120427Y-132978036D01*
X79974435Y-132871967D01*
X79846833Y-132744365D01*
X79740764Y-132598373D01*
X79658839Y-132437586D01*
X79603075Y-132265962D01*
X79574845Y-132087728D01*
X79574845Y-131907272D01*
X79603075Y-131729038D01*
X79658839Y-131557414D01*
X79740764Y-131396627D01*
X79846833Y-131250635D01*
X79974435Y-131123033D01*
X80120427Y-131016964D01*
X80281214Y-130935039D01*
X80452838Y-130879275D01*
X80631072Y-130851045D01*
X80811528Y-130851045D01*
X80989762Y-130879275D01*
G37*
G36*
X154808462Y-130879275D02*
G01*
X154980086Y-130935039D01*
X155140873Y-131016964D01*
X155286865Y-131123033D01*
X155414467Y-131250635D01*
X155520536Y-131396627D01*
X155602461Y-131557414D01*
X155658225Y-131729038D01*
X155686455Y-131907272D01*
X155686455Y-132087728D01*
X155658225Y-132265962D01*
X155602461Y-132437586D01*
X155520536Y-132598373D01*
X155414467Y-132744365D01*
X155286865Y-132871967D01*
X155140873Y-132978036D01*
X154980086Y-133059961D01*
X154808462Y-133115725D01*
X154630228Y-133143955D01*
X154449772Y-133143955D01*
X154271538Y-133115725D01*
X154099914Y-133059961D01*
X153939127Y-132978036D01*
X153793135Y-132871967D01*
X153665533Y-132744365D01*
X153559464Y-132598373D01*
X153477539Y-132437586D01*
X153421775Y-132265962D01*
X153393545Y-132087728D01*
X153393545Y-131907272D01*
X153421775Y-131729038D01*
X153477539Y-131557414D01*
X153559464Y-131396627D01*
X153665533Y-131250635D01*
X153793135Y-131123033D01*
X153939127Y-131016964D01*
X154099914Y-130935039D01*
X154271538Y-130879275D01*
X154449772Y-130851045D01*
X154630228Y-130851045D01*
X154808462Y-130879275D01*
G37*
G36*
X228627262Y-130879275D02*
G01*
X228798886Y-130935039D01*
X228959673Y-131016964D01*
X229105665Y-131123033D01*
X229233267Y-131250635D01*
X229339336Y-131396627D01*
X229421261Y-131557414D01*
X229477025Y-131729038D01*
X229505255Y-131907272D01*
X229505255Y-132087728D01*
X229477025Y-132265962D01*
X229421261Y-132437586D01*
X229339336Y-132598373D01*
X229233267Y-132744365D01*
X229105665Y-132871967D01*
X228959673Y-132978036D01*
X228798886Y-133059961D01*
X228627262Y-133115725D01*
X228449028Y-133143955D01*
X228268572Y-133143955D01*
X228090338Y-133115725D01*
X227918714Y-133059961D01*
X227757927Y-132978036D01*
X227611935Y-132871967D01*
X227484333Y-132744365D01*
X227378264Y-132598373D01*
X227296339Y-132437586D01*
X227240575Y-132265962D01*
X227212345Y-132087728D01*
X227212345Y-131907272D01*
X227240575Y-131729038D01*
X227296339Y-131557414D01*
X227378264Y-131396627D01*
X227484333Y-131250635D01*
X227611935Y-131123033D01*
X227757927Y-131016964D01*
X227918714Y-130935039D01*
X228090338Y-130879275D01*
X228268572Y-130851045D01*
X228449028Y-130851045D01*
X228627262Y-130879275D01*
G37*
G36*
X252439762Y-130879275D02*
G01*
X252611386Y-130935039D01*
X252772173Y-131016964D01*
X252918165Y-131123033D01*
X253045767Y-131250635D01*
X253151836Y-131396627D01*
X253233761Y-131557414D01*
X253289525Y-131729038D01*
X253317755Y-131907272D01*
X253317755Y-132087728D01*
X253289525Y-132265962D01*
X253233761Y-132437586D01*
X253151836Y-132598373D01*
X253045767Y-132744365D01*
X252918165Y-132871967D01*
X252772173Y-132978036D01*
X252611386Y-133059961D01*
X252439762Y-133115725D01*
X252261528Y-133143955D01*
X252081072Y-133143955D01*
X251902838Y-133115725D01*
X251731214Y-133059961D01*
X251570427Y-132978036D01*
X251424435Y-132871967D01*
X251296833Y-132744365D01*
X251190764Y-132598373D01*
X251108839Y-132437586D01*
X251053075Y-132265962D01*
X251024845Y-132087728D01*
X251024845Y-131907272D01*
X251053075Y-131729038D01*
X251108839Y-131557414D01*
X251190764Y-131396627D01*
X251296833Y-131250635D01*
X251424435Y-131123033D01*
X251570427Y-131016964D01*
X251731214Y-130935039D01*
X251902838Y-130879275D01*
X252081072Y-130851045D01*
X252261528Y-130851045D01*
X252439762Y-130879275D01*
G37*
G36*
X283395962Y-130879275D02*
G01*
X283567586Y-130935039D01*
X283728373Y-131016964D01*
X283874365Y-131123033D01*
X284001967Y-131250635D01*
X284108036Y-131396627D01*
X284189961Y-131557414D01*
X284245725Y-131729038D01*
X284273955Y-131907272D01*
X284273955Y-132087728D01*
X284245725Y-132265962D01*
X284189961Y-132437586D01*
X284108036Y-132598373D01*
X284001967Y-132744365D01*
X283874365Y-132871967D01*
X283728373Y-132978036D01*
X283567586Y-133059961D01*
X283395962Y-133115725D01*
X283217728Y-133143955D01*
X283037272Y-133143955D01*
X282859038Y-133115725D01*
X282687414Y-133059961D01*
X282526627Y-132978036D01*
X282380635Y-132871967D01*
X282253033Y-132744365D01*
X282146964Y-132598373D01*
X282065039Y-132437586D01*
X282009275Y-132265962D01*
X281981045Y-132087728D01*
X281981045Y-131907272D01*
X282009275Y-131729038D01*
X282065039Y-131557414D01*
X282146964Y-131396627D01*
X282253033Y-131250635D01*
X282380635Y-131123033D01*
X282526627Y-131016964D01*
X282687414Y-130935039D01*
X282859038Y-130879275D01*
X283037272Y-130851045D01*
X283217728Y-130851045D01*
X283395962Y-130879275D01*
G37*
G36*
X302445962Y-130879275D02*
G01*
X302617586Y-130935039D01*
X302778373Y-131016964D01*
X302924365Y-131123033D01*
X303051967Y-131250635D01*
X303158036Y-131396627D01*
X303239961Y-131557414D01*
X303295725Y-131729038D01*
X303323955Y-131907272D01*
X303323955Y-132087728D01*
X303295725Y-132265962D01*
X303239961Y-132437586D01*
X303158036Y-132598373D01*
X303051967Y-132744365D01*
X302924365Y-132871967D01*
X302778373Y-132978036D01*
X302617586Y-133059961D01*
X302445962Y-133115725D01*
X302267728Y-133143955D01*
X302087272Y-133143955D01*
X301909038Y-133115725D01*
X301737414Y-133059961D01*
X301576627Y-132978036D01*
X301430635Y-132871967D01*
X301303033Y-132744365D01*
X301196964Y-132598373D01*
X301115039Y-132437586D01*
X301059275Y-132265962D01*
X301031045Y-132087728D01*
X301031045Y-131907272D01*
X301059275Y-131729038D01*
X301115039Y-131557414D01*
X301196964Y-131396627D01*
X301303033Y-131250635D01*
X301430635Y-131123033D01*
X301576627Y-131016964D01*
X301737414Y-130935039D01*
X301909038Y-130879275D01*
X302087272Y-130851045D01*
X302267728Y-130851045D01*
X302445962Y-130879275D01*
G37*
G36*
X321495962Y-130879275D02*
G01*
X321667586Y-130935039D01*
X321828373Y-131016964D01*
X321974365Y-131123033D01*
X322101967Y-131250635D01*
X322208036Y-131396627D01*
X322289961Y-131557414D01*
X322345725Y-131729038D01*
X322373955Y-131907272D01*
X322373955Y-132087728D01*
X322345725Y-132265962D01*
X322289961Y-132437586D01*
X322208036Y-132598373D01*
X322101967Y-132744365D01*
X321974365Y-132871967D01*
X321828373Y-132978036D01*
X321667586Y-133059961D01*
X321495962Y-133115725D01*
X321317728Y-133143955D01*
X321137272Y-133143955D01*
X320959038Y-133115725D01*
X320787414Y-133059961D01*
X320626627Y-132978036D01*
X320480635Y-132871967D01*
X320353033Y-132744365D01*
X320246964Y-132598373D01*
X320165039Y-132437586D01*
X320109275Y-132265962D01*
X320081045Y-132087728D01*
X320081045Y-131907272D01*
X320109275Y-131729038D01*
X320165039Y-131557414D01*
X320246964Y-131396627D01*
X320353033Y-131250635D01*
X320480635Y-131123033D01*
X320626627Y-131016964D01*
X320787414Y-130935039D01*
X320959038Y-130879275D01*
X321137272Y-130851045D01*
X321317728Y-130851045D01*
X321495962Y-130879275D01*
G37*
G36*
X349753462Y-130244275D02*
G01*
X349925086Y-130300039D01*
X350085873Y-130381964D01*
X350231865Y-130488033D01*
X350359467Y-130615635D01*
X350465536Y-130761627D01*
X350547461Y-130922414D01*
X350603225Y-131094038D01*
X350631455Y-131272272D01*
X350631455Y-131452728D01*
X350603225Y-131630962D01*
X350547461Y-131802586D01*
X350465536Y-131963373D01*
X350359467Y-132109365D01*
X350231865Y-132236967D01*
X350085873Y-132343036D01*
X349925086Y-132424961D01*
X349753462Y-132480725D01*
X349575228Y-132508955D01*
X349394772Y-132508955D01*
X349216538Y-132480725D01*
X349044914Y-132424961D01*
X348884127Y-132343036D01*
X348738135Y-132236967D01*
X348610533Y-132109365D01*
X348504464Y-131963373D01*
X348422539Y-131802586D01*
X348366775Y-131630962D01*
X348338545Y-131452728D01*
X348338545Y-131272272D01*
X348366775Y-131094038D01*
X348422539Y-130922414D01*
X348504464Y-130761627D01*
X348610533Y-130615635D01*
X348738135Y-130488033D01*
X348884127Y-130381964D01*
X349044914Y-130300039D01*
X349216538Y-130244275D01*
X349394772Y-130216045D01*
X349575228Y-130216045D01*
X349753462Y-130244275D01*
G37*
G36*
X39714762Y-128339275D02*
G01*
X39886386Y-128395039D01*
X40047173Y-128476964D01*
X40193165Y-128583033D01*
X40320767Y-128710635D01*
X40426836Y-128856627D01*
X40508761Y-129017414D01*
X40564525Y-129189038D01*
X40592755Y-129367272D01*
X40592755Y-129547728D01*
X40564525Y-129725962D01*
X40508761Y-129897586D01*
X40426836Y-130058373D01*
X40320767Y-130204365D01*
X40193165Y-130331967D01*
X40047173Y-130438036D01*
X39886386Y-130519961D01*
X39714762Y-130575725D01*
X39536528Y-130603955D01*
X39356072Y-130603955D01*
X39177838Y-130575725D01*
X39006214Y-130519961D01*
X38845427Y-130438036D01*
X38699435Y-130331967D01*
X38571833Y-130204365D01*
X38465764Y-130058373D01*
X38383839Y-129897586D01*
X38328075Y-129725962D01*
X38299845Y-129547728D01*
X38299845Y-129367272D01*
X38328075Y-129189038D01*
X38383839Y-129017414D01*
X38465764Y-128856627D01*
X38571833Y-128710635D01*
X38699435Y-128583033D01*
X38845427Y-128476964D01*
X39006214Y-128395039D01*
X39177838Y-128339275D01*
X39356072Y-128311045D01*
X39536528Y-128311045D01*
X39714762Y-128339275D01*
G37*
G36*
X63527262Y-128339275D02*
G01*
X63698886Y-128395039D01*
X63859673Y-128476964D01*
X64005665Y-128583033D01*
X64133267Y-128710635D01*
X64239336Y-128856627D01*
X64321261Y-129017414D01*
X64377025Y-129189038D01*
X64405255Y-129367272D01*
X64405255Y-129547728D01*
X64377025Y-129725962D01*
X64321261Y-129897586D01*
X64239336Y-130058373D01*
X64133267Y-130204365D01*
X64005665Y-130331967D01*
X63859673Y-130438036D01*
X63698886Y-130519961D01*
X63527262Y-130575725D01*
X63349028Y-130603955D01*
X63168572Y-130603955D01*
X62990338Y-130575725D01*
X62818714Y-130519961D01*
X62657927Y-130438036D01*
X62511935Y-130331967D01*
X62384333Y-130204365D01*
X62278264Y-130058373D01*
X62196339Y-129897586D01*
X62140575Y-129725962D01*
X62112345Y-129547728D01*
X62112345Y-129367272D01*
X62140575Y-129189038D01*
X62196339Y-129017414D01*
X62278264Y-128856627D01*
X62384333Y-128710635D01*
X62511935Y-128583033D01*
X62657927Y-128476964D01*
X62818714Y-128395039D01*
X62990338Y-128339275D01*
X63168572Y-128311045D01*
X63349028Y-128311045D01*
X63527262Y-128339275D01*
G37*
G36*
X87339762Y-128339275D02*
G01*
X87511386Y-128395039D01*
X87672173Y-128476964D01*
X87818165Y-128583033D01*
X87945767Y-128710635D01*
X88051836Y-128856627D01*
X88133761Y-129017414D01*
X88189525Y-129189038D01*
X88217755Y-129367272D01*
X88217755Y-129547728D01*
X88189525Y-129725962D01*
X88133761Y-129897586D01*
X88051836Y-130058373D01*
X87945767Y-130204365D01*
X87818165Y-130331967D01*
X87672173Y-130438036D01*
X87511386Y-130519961D01*
X87339762Y-130575725D01*
X87161528Y-130603955D01*
X86981072Y-130603955D01*
X86802838Y-130575725D01*
X86631214Y-130519961D01*
X86470427Y-130438036D01*
X86324435Y-130331967D01*
X86196833Y-130204365D01*
X86090764Y-130058373D01*
X86008839Y-129897586D01*
X85953075Y-129725962D01*
X85924845Y-129547728D01*
X85924845Y-129367272D01*
X85953075Y-129189038D01*
X86008839Y-129017414D01*
X86090764Y-128856627D01*
X86196833Y-128710635D01*
X86324435Y-128583033D01*
X86470427Y-128476964D01*
X86631214Y-128395039D01*
X86802838Y-128339275D01*
X86981072Y-128311045D01*
X87161528Y-128311045D01*
X87339762Y-128339275D01*
G37*
G36*
X161158462Y-128339275D02*
G01*
X161330086Y-128395039D01*
X161490873Y-128476964D01*
X161636865Y-128583033D01*
X161764467Y-128710635D01*
X161870536Y-128856627D01*
X161952461Y-129017414D01*
X162008225Y-129189038D01*
X162036455Y-129367272D01*
X162036455Y-129547728D01*
X162008225Y-129725962D01*
X161952461Y-129897586D01*
X161870536Y-130058373D01*
X161764467Y-130204365D01*
X161636865Y-130331967D01*
X161490873Y-130438036D01*
X161330086Y-130519961D01*
X161158462Y-130575725D01*
X160980228Y-130603955D01*
X160799772Y-130603955D01*
X160621538Y-130575725D01*
X160449914Y-130519961D01*
X160289127Y-130438036D01*
X160143135Y-130331967D01*
X160015533Y-130204365D01*
X159909464Y-130058373D01*
X159827539Y-129897586D01*
X159771775Y-129725962D01*
X159743545Y-129547728D01*
X159743545Y-129367272D01*
X159771775Y-129189038D01*
X159827539Y-129017414D01*
X159909464Y-128856627D01*
X160015533Y-128710635D01*
X160143135Y-128583033D01*
X160289127Y-128476964D01*
X160449914Y-128395039D01*
X160621538Y-128339275D01*
X160799772Y-128311045D01*
X160980228Y-128311045D01*
X161158462Y-128339275D01*
G37*
G36*
X234977262Y-128339275D02*
G01*
X235148886Y-128395039D01*
X235309673Y-128476964D01*
X235455665Y-128583033D01*
X235583267Y-128710635D01*
X235689336Y-128856627D01*
X235771261Y-129017414D01*
X235827025Y-129189038D01*
X235855255Y-129367272D01*
X235855255Y-129547728D01*
X235827025Y-129725962D01*
X235771261Y-129897586D01*
X235689336Y-130058373D01*
X235583267Y-130204365D01*
X235455665Y-130331967D01*
X235309673Y-130438036D01*
X235148886Y-130519961D01*
X234977262Y-130575725D01*
X234799028Y-130603955D01*
X234618572Y-130603955D01*
X234440338Y-130575725D01*
X234268714Y-130519961D01*
X234107927Y-130438036D01*
X233961935Y-130331967D01*
X233834333Y-130204365D01*
X233728264Y-130058373D01*
X233646339Y-129897586D01*
X233590575Y-129725962D01*
X233562345Y-129547728D01*
X233562345Y-129367272D01*
X233590575Y-129189038D01*
X233646339Y-129017414D01*
X233728264Y-128856627D01*
X233834333Y-128710635D01*
X233961935Y-128583033D01*
X234107927Y-128476964D01*
X234268714Y-128395039D01*
X234440338Y-128339275D01*
X234618572Y-128311045D01*
X234799028Y-128311045D01*
X234977262Y-128339275D01*
G37*
G36*
X258789762Y-128339275D02*
G01*
X258961386Y-128395039D01*
X259122173Y-128476964D01*
X259268165Y-128583033D01*
X259395767Y-128710635D01*
X259501836Y-128856627D01*
X259583761Y-129017414D01*
X259639525Y-129189038D01*
X259667755Y-129367272D01*
X259667755Y-129547728D01*
X259639525Y-129725962D01*
X259583761Y-129897586D01*
X259501836Y-130058373D01*
X259395767Y-130204365D01*
X259268165Y-130331967D01*
X259122173Y-130438036D01*
X258961386Y-130519961D01*
X258789762Y-130575725D01*
X258611528Y-130603955D01*
X258431072Y-130603955D01*
X258252838Y-130575725D01*
X258081214Y-130519961D01*
X257920427Y-130438036D01*
X257774435Y-130331967D01*
X257646833Y-130204365D01*
X257540764Y-130058373D01*
X257458839Y-129897586D01*
X257403075Y-129725962D01*
X257374845Y-129547728D01*
X257374845Y-129367272D01*
X257403075Y-129189038D01*
X257458839Y-129017414D01*
X257540764Y-128856627D01*
X257646833Y-128710635D01*
X257774435Y-128583033D01*
X257920427Y-128476964D01*
X258081214Y-128395039D01*
X258252838Y-128339275D01*
X258431072Y-128311045D01*
X258611528Y-128311045D01*
X258789762Y-128339275D01*
G37*
G36*
X289745962Y-128339275D02*
G01*
X289917586Y-128395039D01*
X290078373Y-128476964D01*
X290224365Y-128583033D01*
X290351967Y-128710635D01*
X290458036Y-128856627D01*
X290539961Y-129017414D01*
X290595725Y-129189038D01*
X290623955Y-129367272D01*
X290623955Y-129547728D01*
X290595725Y-129725962D01*
X290539961Y-129897586D01*
X290458036Y-130058373D01*
X290351967Y-130204365D01*
X290224365Y-130331967D01*
X290078373Y-130438036D01*
X289917586Y-130519961D01*
X289745962Y-130575725D01*
X289567728Y-130603955D01*
X289387272Y-130603955D01*
X289209038Y-130575725D01*
X289037414Y-130519961D01*
X288876627Y-130438036D01*
X288730635Y-130331967D01*
X288603033Y-130204365D01*
X288496964Y-130058373D01*
X288415039Y-129897586D01*
X288359275Y-129725962D01*
X288331045Y-129547728D01*
X288331045Y-129367272D01*
X288359275Y-129189038D01*
X288415039Y-129017414D01*
X288496964Y-128856627D01*
X288603033Y-128710635D01*
X288730635Y-128583033D01*
X288876627Y-128476964D01*
X289037414Y-128395039D01*
X289209038Y-128339275D01*
X289387272Y-128311045D01*
X289567728Y-128311045D01*
X289745962Y-128339275D01*
G37*
G36*
X308795962Y-128339275D02*
G01*
X308967586Y-128395039D01*
X309128373Y-128476964D01*
X309274365Y-128583033D01*
X309401967Y-128710635D01*
X309508036Y-128856627D01*
X309589961Y-129017414D01*
X309645725Y-129189038D01*
X309673955Y-129367272D01*
X309673955Y-129547728D01*
X309645725Y-129725962D01*
X309589961Y-129897586D01*
X309508036Y-130058373D01*
X309401967Y-130204365D01*
X309274365Y-130331967D01*
X309128373Y-130438036D01*
X308967586Y-130519961D01*
X308795962Y-130575725D01*
X308617728Y-130603955D01*
X308437272Y-130603955D01*
X308259038Y-130575725D01*
X308087414Y-130519961D01*
X307926627Y-130438036D01*
X307780635Y-130331967D01*
X307653033Y-130204365D01*
X307546964Y-130058373D01*
X307465039Y-129897586D01*
X307409275Y-129725962D01*
X307381045Y-129547728D01*
X307381045Y-129367272D01*
X307409275Y-129189038D01*
X307465039Y-129017414D01*
X307546964Y-128856627D01*
X307653033Y-128710635D01*
X307780635Y-128583033D01*
X307926627Y-128476964D01*
X308087414Y-128395039D01*
X308259038Y-128339275D01*
X308437272Y-128311045D01*
X308617728Y-128311045D01*
X308795962Y-128339275D01*
G37*
G36*
X327845962Y-128339275D02*
G01*
X328017586Y-128395039D01*
X328178373Y-128476964D01*
X328324365Y-128583033D01*
X328451967Y-128710635D01*
X328558036Y-128856627D01*
X328639961Y-129017414D01*
X328695725Y-129189038D01*
X328723955Y-129367272D01*
X328723955Y-129547728D01*
X328695725Y-129725962D01*
X328639961Y-129897586D01*
X328558036Y-130058373D01*
X328451967Y-130204365D01*
X328324365Y-130331967D01*
X328178373Y-130438036D01*
X328017586Y-130519961D01*
X327845962Y-130575725D01*
X327667728Y-130603955D01*
X327487272Y-130603955D01*
X327309038Y-130575725D01*
X327137414Y-130519961D01*
X326976627Y-130438036D01*
X326830635Y-130331967D01*
X326703033Y-130204365D01*
X326596964Y-130058373D01*
X326515039Y-129897586D01*
X326459275Y-129725962D01*
X326431045Y-129547728D01*
X326431045Y-129367272D01*
X326459275Y-129189038D01*
X326515039Y-129017414D01*
X326596964Y-128856627D01*
X326703033Y-128710635D01*
X326830635Y-128583033D01*
X326976627Y-128476964D01*
X327137414Y-128395039D01*
X327309038Y-128339275D01*
X327487272Y-128311045D01*
X327667728Y-128311045D01*
X327845962Y-128339275D01*
G37*
G36*
X343403462Y-113734275D02*
G01*
X343575086Y-113790039D01*
X343735873Y-113871964D01*
X343881865Y-113978033D01*
X344009467Y-114105635D01*
X344115536Y-114251627D01*
X344197461Y-114412414D01*
X344253225Y-114584038D01*
X344281455Y-114762272D01*
X344281455Y-114942728D01*
X344253225Y-115120962D01*
X344197461Y-115292586D01*
X344115536Y-115453373D01*
X344009467Y-115599365D01*
X343881865Y-115726967D01*
X343735873Y-115833036D01*
X343575086Y-115914961D01*
X343403462Y-115970725D01*
X343225228Y-115998955D01*
X343044772Y-115998955D01*
X342866538Y-115970725D01*
X342694914Y-115914961D01*
X342534127Y-115833036D01*
X342388135Y-115726967D01*
X342260533Y-115599365D01*
X342154464Y-115453373D01*
X342072539Y-115292586D01*
X342016775Y-115120962D01*
X341988545Y-114942728D01*
X341988545Y-114762272D01*
X342016775Y-114584038D01*
X342072539Y-114412414D01*
X342154464Y-114251627D01*
X342260533Y-114105635D01*
X342388135Y-113978033D01*
X342534127Y-113871964D01*
X342694914Y-113790039D01*
X342866538Y-113734275D01*
X343044772Y-113706045D01*
X343225228Y-113706045D01*
X343403462Y-113734275D01*
G37*
G36*
X42889762Y-111829275D02*
G01*
X43061386Y-111885039D01*
X43222173Y-111966964D01*
X43368165Y-112073033D01*
X43495767Y-112200635D01*
X43601836Y-112346627D01*
X43683761Y-112507414D01*
X43739525Y-112679038D01*
X43767755Y-112857272D01*
X43767755Y-113037728D01*
X43739525Y-113215962D01*
X43683761Y-113387586D01*
X43601836Y-113548373D01*
X43495767Y-113694365D01*
X43368165Y-113821967D01*
X43222173Y-113928036D01*
X43061386Y-114009961D01*
X42889762Y-114065725D01*
X42711528Y-114093955D01*
X42531072Y-114093955D01*
X42352838Y-114065725D01*
X42181214Y-114009961D01*
X42020427Y-113928036D01*
X41874435Y-113821967D01*
X41746833Y-113694365D01*
X41640764Y-113548373D01*
X41558839Y-113387586D01*
X41503075Y-113215962D01*
X41474845Y-113037728D01*
X41474845Y-112857272D01*
X41503075Y-112679038D01*
X41558839Y-112507414D01*
X41640764Y-112346627D01*
X41746833Y-112200635D01*
X41874435Y-112073033D01*
X42020427Y-111966964D01*
X42181214Y-111885039D01*
X42352838Y-111829275D01*
X42531072Y-111801045D01*
X42711528Y-111801045D01*
X42889762Y-111829275D01*
G37*
G36*
X73845962Y-111829275D02*
G01*
X74017586Y-111885039D01*
X74178373Y-111966964D01*
X74324365Y-112073033D01*
X74451967Y-112200635D01*
X74558036Y-112346627D01*
X74639961Y-112507414D01*
X74695725Y-112679038D01*
X74723955Y-112857272D01*
X74723955Y-113037728D01*
X74695725Y-113215962D01*
X74639961Y-113387586D01*
X74558036Y-113548373D01*
X74451967Y-113694365D01*
X74324365Y-113821967D01*
X74178373Y-113928036D01*
X74017586Y-114009961D01*
X73845962Y-114065725D01*
X73667728Y-114093955D01*
X73487272Y-114093955D01*
X73309038Y-114065725D01*
X73137414Y-114009961D01*
X72976627Y-113928036D01*
X72830635Y-113821967D01*
X72703033Y-113694365D01*
X72596964Y-113548373D01*
X72515039Y-113387586D01*
X72459275Y-113215962D01*
X72431045Y-113037728D01*
X72431045Y-112857272D01*
X72459275Y-112679038D01*
X72515039Y-112507414D01*
X72596964Y-112346627D01*
X72703033Y-112200635D01*
X72830635Y-112073033D01*
X72976627Y-111966964D01*
X73137414Y-111885039D01*
X73309038Y-111829275D01*
X73487272Y-111801045D01*
X73667728Y-111801045D01*
X73845962Y-111829275D01*
G37*
G36*
X92895962Y-111829275D02*
G01*
X93067586Y-111885039D01*
X93228373Y-111966964D01*
X93374365Y-112073033D01*
X93501967Y-112200635D01*
X93608036Y-112346627D01*
X93689961Y-112507414D01*
X93745725Y-112679038D01*
X93773955Y-112857272D01*
X93773955Y-113037728D01*
X93745725Y-113215962D01*
X93689961Y-113387586D01*
X93608036Y-113548373D01*
X93501967Y-113694365D01*
X93374365Y-113821967D01*
X93228373Y-113928036D01*
X93067586Y-114009961D01*
X92895962Y-114065725D01*
X92717728Y-114093955D01*
X92537272Y-114093955D01*
X92359038Y-114065725D01*
X92187414Y-114009961D01*
X92026627Y-113928036D01*
X91880635Y-113821967D01*
X91753033Y-113694365D01*
X91646964Y-113548373D01*
X91565039Y-113387586D01*
X91509275Y-113215962D01*
X91481045Y-113037728D01*
X91481045Y-112857272D01*
X91509275Y-112679038D01*
X91565039Y-112507414D01*
X91646964Y-112346627D01*
X91753033Y-112200635D01*
X91880635Y-112073033D01*
X92026627Y-111966964D01*
X92187414Y-111885039D01*
X92359038Y-111829275D01*
X92537272Y-111801045D01*
X92717728Y-111801045D01*
X92895962Y-111829275D01*
G37*
G36*
X111945962Y-111829275D02*
G01*
X112117586Y-111885039D01*
X112278373Y-111966964D01*
X112424365Y-112073033D01*
X112551967Y-112200635D01*
X112658036Y-112346627D01*
X112739961Y-112507414D01*
X112795725Y-112679038D01*
X112823955Y-112857272D01*
X112823955Y-113037728D01*
X112795725Y-113215962D01*
X112739961Y-113387586D01*
X112658036Y-113548373D01*
X112551967Y-113694365D01*
X112424365Y-113821967D01*
X112278373Y-113928036D01*
X112117586Y-114009961D01*
X111945962Y-114065725D01*
X111767728Y-114093955D01*
X111587272Y-114093955D01*
X111409038Y-114065725D01*
X111237414Y-114009961D01*
X111076627Y-113928036D01*
X110930635Y-113821967D01*
X110803033Y-113694365D01*
X110696964Y-113548373D01*
X110615039Y-113387586D01*
X110559275Y-113215962D01*
X110531045Y-113037728D01*
X110531045Y-112857272D01*
X110559275Y-112679038D01*
X110615039Y-112507414D01*
X110696964Y-112346627D01*
X110803033Y-112200635D01*
X110930635Y-112073033D01*
X111076627Y-111966964D01*
X111237414Y-111885039D01*
X111409038Y-111829275D01*
X111587272Y-111801045D01*
X111767728Y-111801045D01*
X111945962Y-111829275D01*
G37*
G36*
X130995962Y-111829275D02*
G01*
X131167586Y-111885039D01*
X131328373Y-111966964D01*
X131474365Y-112073033D01*
X131601967Y-112200635D01*
X131708036Y-112346627D01*
X131789961Y-112507414D01*
X131845725Y-112679038D01*
X131873955Y-112857272D01*
X131873955Y-113037728D01*
X131845725Y-113215962D01*
X131789961Y-113387586D01*
X131708036Y-113548373D01*
X131601967Y-113694365D01*
X131474365Y-113821967D01*
X131328373Y-113928036D01*
X131167586Y-114009961D01*
X130995962Y-114065725D01*
X130817728Y-114093955D01*
X130637272Y-114093955D01*
X130459038Y-114065725D01*
X130287414Y-114009961D01*
X130126627Y-113928036D01*
X129980635Y-113821967D01*
X129853033Y-113694365D01*
X129746964Y-113548373D01*
X129665039Y-113387586D01*
X129609275Y-113215962D01*
X129581045Y-113037728D01*
X129581045Y-112857272D01*
X129609275Y-112679038D01*
X129665039Y-112507414D01*
X129746964Y-112346627D01*
X129853033Y-112200635D01*
X129980635Y-112073033D01*
X130126627Y-111966964D01*
X130287414Y-111885039D01*
X130459038Y-111829275D01*
X130637272Y-111801045D01*
X130817728Y-111801045D01*
X130995962Y-111829275D01*
G37*
G36*
X150045962Y-111829275D02*
G01*
X150217586Y-111885039D01*
X150378373Y-111966964D01*
X150524365Y-112073033D01*
X150651967Y-112200635D01*
X150758036Y-112346627D01*
X150839961Y-112507414D01*
X150895725Y-112679038D01*
X150923955Y-112857272D01*
X150923955Y-113037728D01*
X150895725Y-113215962D01*
X150839961Y-113387586D01*
X150758036Y-113548373D01*
X150651967Y-113694365D01*
X150524365Y-113821967D01*
X150378373Y-113928036D01*
X150217586Y-114009961D01*
X150045962Y-114065725D01*
X149867728Y-114093955D01*
X149687272Y-114093955D01*
X149509038Y-114065725D01*
X149337414Y-114009961D01*
X149176627Y-113928036D01*
X149030635Y-113821967D01*
X148903033Y-113694365D01*
X148796964Y-113548373D01*
X148715039Y-113387586D01*
X148659275Y-113215962D01*
X148631045Y-113037728D01*
X148631045Y-112857272D01*
X148659275Y-112679038D01*
X148715039Y-112507414D01*
X148796964Y-112346627D01*
X148903033Y-112200635D01*
X149030635Y-112073033D01*
X149176627Y-111966964D01*
X149337414Y-111885039D01*
X149509038Y-111829275D01*
X149687272Y-111801045D01*
X149867728Y-111801045D01*
X150045962Y-111829275D01*
G37*
G36*
X169095962Y-111829275D02*
G01*
X169267586Y-111885039D01*
X169428373Y-111966964D01*
X169574365Y-112073033D01*
X169701967Y-112200635D01*
X169808036Y-112346627D01*
X169889961Y-112507414D01*
X169945725Y-112679038D01*
X169973955Y-112857272D01*
X169973955Y-113037728D01*
X169945725Y-113215962D01*
X169889961Y-113387586D01*
X169808036Y-113548373D01*
X169701967Y-113694365D01*
X169574365Y-113821967D01*
X169428373Y-113928036D01*
X169267586Y-114009961D01*
X169095962Y-114065725D01*
X168917728Y-114093955D01*
X168737272Y-114093955D01*
X168559038Y-114065725D01*
X168387414Y-114009961D01*
X168226627Y-113928036D01*
X168080635Y-113821967D01*
X167953033Y-113694365D01*
X167846964Y-113548373D01*
X167765039Y-113387586D01*
X167709275Y-113215962D01*
X167681045Y-113037728D01*
X167681045Y-112857272D01*
X167709275Y-112679038D01*
X167765039Y-112507414D01*
X167846964Y-112346627D01*
X167953033Y-112200635D01*
X168080635Y-112073033D01*
X168226627Y-111966964D01*
X168387414Y-111885039D01*
X168559038Y-111829275D01*
X168737272Y-111801045D01*
X168917728Y-111801045D01*
X169095962Y-111829275D01*
G37*
G36*
X188145962Y-111829275D02*
G01*
X188317586Y-111885039D01*
X188478373Y-111966964D01*
X188624365Y-112073033D01*
X188751967Y-112200635D01*
X188858036Y-112346627D01*
X188939961Y-112507414D01*
X188995725Y-112679038D01*
X189023955Y-112857272D01*
X189023955Y-113037728D01*
X188995725Y-113215962D01*
X188939961Y-113387586D01*
X188858036Y-113548373D01*
X188751967Y-113694365D01*
X188624365Y-113821967D01*
X188478373Y-113928036D01*
X188317586Y-114009961D01*
X188145962Y-114065725D01*
X187967728Y-114093955D01*
X187787272Y-114093955D01*
X187609038Y-114065725D01*
X187437414Y-114009961D01*
X187276627Y-113928036D01*
X187130635Y-113821967D01*
X187003033Y-113694365D01*
X186896964Y-113548373D01*
X186815039Y-113387586D01*
X186759275Y-113215962D01*
X186731045Y-113037728D01*
X186731045Y-112857272D01*
X186759275Y-112679038D01*
X186815039Y-112507414D01*
X186896964Y-112346627D01*
X187003033Y-112200635D01*
X187130635Y-112073033D01*
X187276627Y-111966964D01*
X187437414Y-111885039D01*
X187609038Y-111829275D01*
X187787272Y-111801045D01*
X187967728Y-111801045D01*
X188145962Y-111829275D01*
G37*
G36*
X207195962Y-111829275D02*
G01*
X207367586Y-111885039D01*
X207528373Y-111966964D01*
X207674365Y-112073033D01*
X207801967Y-112200635D01*
X207908036Y-112346627D01*
X207989961Y-112507414D01*
X208045725Y-112679038D01*
X208073955Y-112857272D01*
X208073955Y-113037728D01*
X208045725Y-113215962D01*
X207989961Y-113387586D01*
X207908036Y-113548373D01*
X207801967Y-113694365D01*
X207674365Y-113821967D01*
X207528373Y-113928036D01*
X207367586Y-114009961D01*
X207195962Y-114065725D01*
X207017728Y-114093955D01*
X206837272Y-114093955D01*
X206659038Y-114065725D01*
X206487414Y-114009961D01*
X206326627Y-113928036D01*
X206180635Y-113821967D01*
X206053033Y-113694365D01*
X205946964Y-113548373D01*
X205865039Y-113387586D01*
X205809275Y-113215962D01*
X205781045Y-113037728D01*
X205781045Y-112857272D01*
X205809275Y-112679038D01*
X205865039Y-112507414D01*
X205946964Y-112346627D01*
X206053033Y-112200635D01*
X206180635Y-112073033D01*
X206326627Y-111966964D01*
X206487414Y-111885039D01*
X206659038Y-111829275D01*
X206837272Y-111801045D01*
X207017728Y-111801045D01*
X207195962Y-111829275D01*
G37*
G36*
X226245962Y-111829275D02*
G01*
X226417586Y-111885039D01*
X226578373Y-111966964D01*
X226724365Y-112073033D01*
X226851967Y-112200635D01*
X226958036Y-112346627D01*
X227039961Y-112507414D01*
X227095725Y-112679038D01*
X227123955Y-112857272D01*
X227123955Y-113037728D01*
X227095725Y-113215962D01*
X227039961Y-113387586D01*
X226958036Y-113548373D01*
X226851967Y-113694365D01*
X226724365Y-113821967D01*
X226578373Y-113928036D01*
X226417586Y-114009961D01*
X226245962Y-114065725D01*
X226067728Y-114093955D01*
X225887272Y-114093955D01*
X225709038Y-114065725D01*
X225537414Y-114009961D01*
X225376627Y-113928036D01*
X225230635Y-113821967D01*
X225103033Y-113694365D01*
X224996964Y-113548373D01*
X224915039Y-113387586D01*
X224859275Y-113215962D01*
X224831045Y-113037728D01*
X224831045Y-112857272D01*
X224859275Y-112679038D01*
X224915039Y-112507414D01*
X224996964Y-112346627D01*
X225103033Y-112200635D01*
X225230635Y-112073033D01*
X225376627Y-111966964D01*
X225537414Y-111885039D01*
X225709038Y-111829275D01*
X225887272Y-111801045D01*
X226067728Y-111801045D01*
X226245962Y-111829275D01*
G37*
G36*
X245295962Y-111829275D02*
G01*
X245467586Y-111885039D01*
X245628373Y-111966964D01*
X245774365Y-112073033D01*
X245901967Y-112200635D01*
X246008036Y-112346627D01*
X246089961Y-112507414D01*
X246145725Y-112679038D01*
X246173955Y-112857272D01*
X246173955Y-113037728D01*
X246145725Y-113215962D01*
X246089961Y-113387586D01*
X246008036Y-113548373D01*
X245901967Y-113694365D01*
X245774365Y-113821967D01*
X245628373Y-113928036D01*
X245467586Y-114009961D01*
X245295962Y-114065725D01*
X245117728Y-114093955D01*
X244937272Y-114093955D01*
X244759038Y-114065725D01*
X244587414Y-114009961D01*
X244426627Y-113928036D01*
X244280635Y-113821967D01*
X244153033Y-113694365D01*
X244046964Y-113548373D01*
X243965039Y-113387586D01*
X243909275Y-113215962D01*
X243881045Y-113037728D01*
X243881045Y-112857272D01*
X243909275Y-112679038D01*
X243965039Y-112507414D01*
X244046964Y-112346627D01*
X244153033Y-112200635D01*
X244280635Y-112073033D01*
X244426627Y-111966964D01*
X244587414Y-111885039D01*
X244759038Y-111829275D01*
X244937272Y-111801045D01*
X245117728Y-111801045D01*
X245295962Y-111829275D01*
G37*
G36*
X271489762Y-111829275D02*
G01*
X271661386Y-111885039D01*
X271822173Y-111966964D01*
X271968165Y-112073033D01*
X272095767Y-112200635D01*
X272201836Y-112346627D01*
X272283761Y-112507414D01*
X272339525Y-112679038D01*
X272367755Y-112857272D01*
X272367755Y-113037728D01*
X272339525Y-113215962D01*
X272283761Y-113387586D01*
X272201836Y-113548373D01*
X272095767Y-113694365D01*
X271968165Y-113821967D01*
X271822173Y-113928036D01*
X271661386Y-114009961D01*
X271489762Y-114065725D01*
X271311528Y-114093955D01*
X271131072Y-114093955D01*
X270952838Y-114065725D01*
X270781214Y-114009961D01*
X270620427Y-113928036D01*
X270474435Y-113821967D01*
X270346833Y-113694365D01*
X270240764Y-113548373D01*
X270158839Y-113387586D01*
X270103075Y-113215962D01*
X270074845Y-113037728D01*
X270074845Y-112857272D01*
X270103075Y-112679038D01*
X270158839Y-112507414D01*
X270240764Y-112346627D01*
X270346833Y-112200635D01*
X270474435Y-112073033D01*
X270620427Y-111966964D01*
X270781214Y-111885039D01*
X270952838Y-111829275D01*
X271131072Y-111801045D01*
X271311528Y-111801045D01*
X271489762Y-111829275D01*
G37*
G36*
X302445962Y-111829275D02*
G01*
X302617586Y-111885039D01*
X302778373Y-111966964D01*
X302924365Y-112073033D01*
X303051967Y-112200635D01*
X303158036Y-112346627D01*
X303239961Y-112507414D01*
X303295725Y-112679038D01*
X303323955Y-112857272D01*
X303323955Y-113037728D01*
X303295725Y-113215962D01*
X303239961Y-113387586D01*
X303158036Y-113548373D01*
X303051967Y-113694365D01*
X302924365Y-113821967D01*
X302778373Y-113928036D01*
X302617586Y-114009961D01*
X302445962Y-114065725D01*
X302267728Y-114093955D01*
X302087272Y-114093955D01*
X301909038Y-114065725D01*
X301737414Y-114009961D01*
X301576627Y-113928036D01*
X301430635Y-113821967D01*
X301303033Y-113694365D01*
X301196964Y-113548373D01*
X301115039Y-113387586D01*
X301059275Y-113215962D01*
X301031045Y-113037728D01*
X301031045Y-112857272D01*
X301059275Y-112679038D01*
X301115039Y-112507414D01*
X301196964Y-112346627D01*
X301303033Y-112200635D01*
X301430635Y-112073033D01*
X301576627Y-111966964D01*
X301737414Y-111885039D01*
X301909038Y-111829275D01*
X302087272Y-111801045D01*
X302267728Y-111801045D01*
X302445962Y-111829275D01*
G37*
G36*
X349753462Y-111194275D02*
G01*
X349925086Y-111250039D01*
X350085873Y-111331964D01*
X350231865Y-111438033D01*
X350359467Y-111565635D01*
X350465536Y-111711627D01*
X350547461Y-111872414D01*
X350603225Y-112044038D01*
X350631455Y-112222272D01*
X350631455Y-112402728D01*
X350603225Y-112580962D01*
X350547461Y-112752586D01*
X350465536Y-112913373D01*
X350359467Y-113059365D01*
X350231865Y-113186967D01*
X350085873Y-113293036D01*
X349925086Y-113374961D01*
X349753462Y-113430725D01*
X349575228Y-113458955D01*
X349394772Y-113458955D01*
X349216538Y-113430725D01*
X349044914Y-113374961D01*
X348884127Y-113293036D01*
X348738135Y-113186967D01*
X348610533Y-113059365D01*
X348504464Y-112913373D01*
X348422539Y-112752586D01*
X348366775Y-112580962D01*
X348338545Y-112402728D01*
X348338545Y-112222272D01*
X348366775Y-112044038D01*
X348422539Y-111872414D01*
X348504464Y-111711627D01*
X348610533Y-111565635D01*
X348738135Y-111438033D01*
X348884127Y-111331964D01*
X349044914Y-111250039D01*
X349216538Y-111194275D01*
X349394772Y-111166045D01*
X349575228Y-111166045D01*
X349753462Y-111194275D01*
G37*
G36*
X49239762Y-109289275D02*
G01*
X49411386Y-109345039D01*
X49572173Y-109426964D01*
X49718165Y-109533033D01*
X49845767Y-109660635D01*
X49951836Y-109806627D01*
X50033761Y-109967414D01*
X50089525Y-110139038D01*
X50117755Y-110317272D01*
X50117755Y-110497728D01*
X50089525Y-110675962D01*
X50033761Y-110847586D01*
X49951836Y-111008373D01*
X49845767Y-111154365D01*
X49718165Y-111281967D01*
X49572173Y-111388036D01*
X49411386Y-111469961D01*
X49239762Y-111525725D01*
X49061528Y-111553955D01*
X48881072Y-111553955D01*
X48702838Y-111525725D01*
X48531214Y-111469961D01*
X48370427Y-111388036D01*
X48224435Y-111281967D01*
X48096833Y-111154365D01*
X47990764Y-111008373D01*
X47908839Y-110847586D01*
X47853075Y-110675962D01*
X47824845Y-110497728D01*
X47824845Y-110317272D01*
X47853075Y-110139038D01*
X47908839Y-109967414D01*
X47990764Y-109806627D01*
X48096833Y-109660635D01*
X48224435Y-109533033D01*
X48370427Y-109426964D01*
X48531214Y-109345039D01*
X48702838Y-109289275D01*
X48881072Y-109261045D01*
X49061528Y-109261045D01*
X49239762Y-109289275D01*
G37*
G36*
X80195962Y-109289275D02*
G01*
X80367586Y-109345039D01*
X80528373Y-109426964D01*
X80674365Y-109533033D01*
X80801967Y-109660635D01*
X80908036Y-109806627D01*
X80989961Y-109967414D01*
X81045725Y-110139038D01*
X81073955Y-110317272D01*
X81073955Y-110497728D01*
X81045725Y-110675962D01*
X80989961Y-110847586D01*
X80908036Y-111008373D01*
X80801967Y-111154365D01*
X80674365Y-111281967D01*
X80528373Y-111388036D01*
X80367586Y-111469961D01*
X80195962Y-111525725D01*
X80017728Y-111553955D01*
X79837272Y-111553955D01*
X79659038Y-111525725D01*
X79487414Y-111469961D01*
X79326627Y-111388036D01*
X79180635Y-111281967D01*
X79053033Y-111154365D01*
X78946964Y-111008373D01*
X78865039Y-110847586D01*
X78809275Y-110675962D01*
X78781045Y-110497728D01*
X78781045Y-110317272D01*
X78809275Y-110139038D01*
X78865039Y-109967414D01*
X78946964Y-109806627D01*
X79053033Y-109660635D01*
X79180635Y-109533033D01*
X79326627Y-109426964D01*
X79487414Y-109345039D01*
X79659038Y-109289275D01*
X79837272Y-109261045D01*
X80017728Y-109261045D01*
X80195962Y-109289275D01*
G37*
G36*
X99245962Y-109289275D02*
G01*
X99417586Y-109345039D01*
X99578373Y-109426964D01*
X99724365Y-109533033D01*
X99851967Y-109660635D01*
X99958036Y-109806627D01*
X100039961Y-109967414D01*
X100095725Y-110139038D01*
X100123955Y-110317272D01*
X100123955Y-110497728D01*
X100095725Y-110675962D01*
X100039961Y-110847586D01*
X99958036Y-111008373D01*
X99851967Y-111154365D01*
X99724365Y-111281967D01*
X99578373Y-111388036D01*
X99417586Y-111469961D01*
X99245962Y-111525725D01*
X99067728Y-111553955D01*
X98887272Y-111553955D01*
X98709038Y-111525725D01*
X98537414Y-111469961D01*
X98376627Y-111388036D01*
X98230635Y-111281967D01*
X98103033Y-111154365D01*
X97996964Y-111008373D01*
X97915039Y-110847586D01*
X97859275Y-110675962D01*
X97831045Y-110497728D01*
X97831045Y-110317272D01*
X97859275Y-110139038D01*
X97915039Y-109967414D01*
X97996964Y-109806627D01*
X98103033Y-109660635D01*
X98230635Y-109533033D01*
X98376627Y-109426964D01*
X98537414Y-109345039D01*
X98709038Y-109289275D01*
X98887272Y-109261045D01*
X99067728Y-109261045D01*
X99245962Y-109289275D01*
G37*
G36*
X118295962Y-109289275D02*
G01*
X118467586Y-109345039D01*
X118628373Y-109426964D01*
X118774365Y-109533033D01*
X118901967Y-109660635D01*
X119008036Y-109806627D01*
X119089961Y-109967414D01*
X119145725Y-110139038D01*
X119173955Y-110317272D01*
X119173955Y-110497728D01*
X119145725Y-110675962D01*
X119089961Y-110847586D01*
X119008036Y-111008373D01*
X118901967Y-111154365D01*
X118774365Y-111281967D01*
X118628373Y-111388036D01*
X118467586Y-111469961D01*
X118295962Y-111525725D01*
X118117728Y-111553955D01*
X117937272Y-111553955D01*
X117759038Y-111525725D01*
X117587414Y-111469961D01*
X117426627Y-111388036D01*
X117280635Y-111281967D01*
X117153033Y-111154365D01*
X117046964Y-111008373D01*
X116965039Y-110847586D01*
X116909275Y-110675962D01*
X116881045Y-110497728D01*
X116881045Y-110317272D01*
X116909275Y-110139038D01*
X116965039Y-109967414D01*
X117046964Y-109806627D01*
X117153033Y-109660635D01*
X117280635Y-109533033D01*
X117426627Y-109426964D01*
X117587414Y-109345039D01*
X117759038Y-109289275D01*
X117937272Y-109261045D01*
X118117728Y-109261045D01*
X118295962Y-109289275D01*
G37*
G36*
X137345962Y-109289275D02*
G01*
X137517586Y-109345039D01*
X137678373Y-109426964D01*
X137824365Y-109533033D01*
X137951967Y-109660635D01*
X138058036Y-109806627D01*
X138139961Y-109967414D01*
X138195725Y-110139038D01*
X138223955Y-110317272D01*
X138223955Y-110497728D01*
X138195725Y-110675962D01*
X138139961Y-110847586D01*
X138058036Y-111008373D01*
X137951967Y-111154365D01*
X137824365Y-111281967D01*
X137678373Y-111388036D01*
X137517586Y-111469961D01*
X137345962Y-111525725D01*
X137167728Y-111553955D01*
X136987272Y-111553955D01*
X136809038Y-111525725D01*
X136637414Y-111469961D01*
X136476627Y-111388036D01*
X136330635Y-111281967D01*
X136203033Y-111154365D01*
X136096964Y-111008373D01*
X136015039Y-110847586D01*
X135959275Y-110675962D01*
X135931045Y-110497728D01*
X135931045Y-110317272D01*
X135959275Y-110139038D01*
X136015039Y-109967414D01*
X136096964Y-109806627D01*
X136203033Y-109660635D01*
X136330635Y-109533033D01*
X136476627Y-109426964D01*
X136637414Y-109345039D01*
X136809038Y-109289275D01*
X136987272Y-109261045D01*
X137167728Y-109261045D01*
X137345962Y-109289275D01*
G37*
G36*
X156395962Y-109289275D02*
G01*
X156567586Y-109345039D01*
X156728373Y-109426964D01*
X156874365Y-109533033D01*
X157001967Y-109660635D01*
X157108036Y-109806627D01*
X157189961Y-109967414D01*
X157245725Y-110139038D01*
X157273955Y-110317272D01*
X157273955Y-110497728D01*
X157245725Y-110675962D01*
X157189961Y-110847586D01*
X157108036Y-111008373D01*
X157001967Y-111154365D01*
X156874365Y-111281967D01*
X156728373Y-111388036D01*
X156567586Y-111469961D01*
X156395962Y-111525725D01*
X156217728Y-111553955D01*
X156037272Y-111553955D01*
X155859038Y-111525725D01*
X155687414Y-111469961D01*
X155526627Y-111388036D01*
X155380635Y-111281967D01*
X155253033Y-111154365D01*
X155146964Y-111008373D01*
X155065039Y-110847586D01*
X155009275Y-110675962D01*
X154981045Y-110497728D01*
X154981045Y-110317272D01*
X155009275Y-110139038D01*
X155065039Y-109967414D01*
X155146964Y-109806627D01*
X155253033Y-109660635D01*
X155380635Y-109533033D01*
X155526627Y-109426964D01*
X155687414Y-109345039D01*
X155859038Y-109289275D01*
X156037272Y-109261045D01*
X156217728Y-109261045D01*
X156395962Y-109289275D01*
G37*
G36*
X175445962Y-109289275D02*
G01*
X175617586Y-109345039D01*
X175778373Y-109426964D01*
X175924365Y-109533033D01*
X176051967Y-109660635D01*
X176158036Y-109806627D01*
X176239961Y-109967414D01*
X176295725Y-110139038D01*
X176323955Y-110317272D01*
X176323955Y-110497728D01*
X176295725Y-110675962D01*
X176239961Y-110847586D01*
X176158036Y-111008373D01*
X176051967Y-111154365D01*
X175924365Y-111281967D01*
X175778373Y-111388036D01*
X175617586Y-111469961D01*
X175445962Y-111525725D01*
X175267728Y-111553955D01*
X175087272Y-111553955D01*
X174909038Y-111525725D01*
X174737414Y-111469961D01*
X174576627Y-111388036D01*
X174430635Y-111281967D01*
X174303033Y-111154365D01*
X174196964Y-111008373D01*
X174115039Y-110847586D01*
X174059275Y-110675962D01*
X174031045Y-110497728D01*
X174031045Y-110317272D01*
X174059275Y-110139038D01*
X174115039Y-109967414D01*
X174196964Y-109806627D01*
X174303033Y-109660635D01*
X174430635Y-109533033D01*
X174576627Y-109426964D01*
X174737414Y-109345039D01*
X174909038Y-109289275D01*
X175087272Y-109261045D01*
X175267728Y-109261045D01*
X175445962Y-109289275D01*
G37*
G36*
X194495962Y-109289275D02*
G01*
X194667586Y-109345039D01*
X194828373Y-109426964D01*
X194974365Y-109533033D01*
X195101967Y-109660635D01*
X195208036Y-109806627D01*
X195289961Y-109967414D01*
X195345725Y-110139038D01*
X195373955Y-110317272D01*
X195373955Y-110497728D01*
X195345725Y-110675962D01*
X195289961Y-110847586D01*
X195208036Y-111008373D01*
X195101967Y-111154365D01*
X194974365Y-111281967D01*
X194828373Y-111388036D01*
X194667586Y-111469961D01*
X194495962Y-111525725D01*
X194317728Y-111553955D01*
X194137272Y-111553955D01*
X193959038Y-111525725D01*
X193787414Y-111469961D01*
X193626627Y-111388036D01*
X193480635Y-111281967D01*
X193353033Y-111154365D01*
X193246964Y-111008373D01*
X193165039Y-110847586D01*
X193109275Y-110675962D01*
X193081045Y-110497728D01*
X193081045Y-110317272D01*
X193109275Y-110139038D01*
X193165039Y-109967414D01*
X193246964Y-109806627D01*
X193353033Y-109660635D01*
X193480635Y-109533033D01*
X193626627Y-109426964D01*
X193787414Y-109345039D01*
X193959038Y-109289275D01*
X194137272Y-109261045D01*
X194317728Y-109261045D01*
X194495962Y-109289275D01*
G37*
G36*
X213545962Y-109289275D02*
G01*
X213717586Y-109345039D01*
X213878373Y-109426964D01*
X214024365Y-109533033D01*
X214151967Y-109660635D01*
X214258036Y-109806627D01*
X214339961Y-109967414D01*
X214395725Y-110139038D01*
X214423955Y-110317272D01*
X214423955Y-110497728D01*
X214395725Y-110675962D01*
X214339961Y-110847586D01*
X214258036Y-111008373D01*
X214151967Y-111154365D01*
X214024365Y-111281967D01*
X213878373Y-111388036D01*
X213717586Y-111469961D01*
X213545962Y-111525725D01*
X213367728Y-111553955D01*
X213187272Y-111553955D01*
X213009038Y-111525725D01*
X212837414Y-111469961D01*
X212676627Y-111388036D01*
X212530635Y-111281967D01*
X212403033Y-111154365D01*
X212296964Y-111008373D01*
X212215039Y-110847586D01*
X212159275Y-110675962D01*
X212131045Y-110497728D01*
X212131045Y-110317272D01*
X212159275Y-110139038D01*
X212215039Y-109967414D01*
X212296964Y-109806627D01*
X212403033Y-109660635D01*
X212530635Y-109533033D01*
X212676627Y-109426964D01*
X212837414Y-109345039D01*
X213009038Y-109289275D01*
X213187272Y-109261045D01*
X213367728Y-109261045D01*
X213545962Y-109289275D01*
G37*
G36*
X232595962Y-109289275D02*
G01*
X232767586Y-109345039D01*
X232928373Y-109426964D01*
X233074365Y-109533033D01*
X233201967Y-109660635D01*
X233308036Y-109806627D01*
X233389961Y-109967414D01*
X233445725Y-110139038D01*
X233473955Y-110317272D01*
X233473955Y-110497728D01*
X233445725Y-110675962D01*
X233389961Y-110847586D01*
X233308036Y-111008373D01*
X233201967Y-111154365D01*
X233074365Y-111281967D01*
X232928373Y-111388036D01*
X232767586Y-111469961D01*
X232595962Y-111525725D01*
X232417728Y-111553955D01*
X232237272Y-111553955D01*
X232059038Y-111525725D01*
X231887414Y-111469961D01*
X231726627Y-111388036D01*
X231580635Y-111281967D01*
X231453033Y-111154365D01*
X231346964Y-111008373D01*
X231265039Y-110847586D01*
X231209275Y-110675962D01*
X231181045Y-110497728D01*
X231181045Y-110317272D01*
X231209275Y-110139038D01*
X231265039Y-109967414D01*
X231346964Y-109806627D01*
X231453033Y-109660635D01*
X231580635Y-109533033D01*
X231726627Y-109426964D01*
X231887414Y-109345039D01*
X232059038Y-109289275D01*
X232237272Y-109261045D01*
X232417728Y-109261045D01*
X232595962Y-109289275D01*
G37*
G36*
X251645962Y-109289275D02*
G01*
X251817586Y-109345039D01*
X251978373Y-109426964D01*
X252124365Y-109533033D01*
X252251967Y-109660635D01*
X252358036Y-109806627D01*
X252439961Y-109967414D01*
X252495725Y-110139038D01*
X252523955Y-110317272D01*
X252523955Y-110497728D01*
X252495725Y-110675962D01*
X252439961Y-110847586D01*
X252358036Y-111008373D01*
X252251967Y-111154365D01*
X252124365Y-111281967D01*
X251978373Y-111388036D01*
X251817586Y-111469961D01*
X251645962Y-111525725D01*
X251467728Y-111553955D01*
X251287272Y-111553955D01*
X251109038Y-111525725D01*
X250937414Y-111469961D01*
X250776627Y-111388036D01*
X250630635Y-111281967D01*
X250503033Y-111154365D01*
X250396964Y-111008373D01*
X250315039Y-110847586D01*
X250259275Y-110675962D01*
X250231045Y-110497728D01*
X250231045Y-110317272D01*
X250259275Y-110139038D01*
X250315039Y-109967414D01*
X250396964Y-109806627D01*
X250503033Y-109660635D01*
X250630635Y-109533033D01*
X250776627Y-109426964D01*
X250937414Y-109345039D01*
X251109038Y-109289275D01*
X251287272Y-109261045D01*
X251467728Y-109261045D01*
X251645962Y-109289275D01*
G37*
G36*
X277839762Y-109289275D02*
G01*
X278011386Y-109345039D01*
X278172173Y-109426964D01*
X278318165Y-109533033D01*
X278445767Y-109660635D01*
X278551836Y-109806627D01*
X278633761Y-109967414D01*
X278689525Y-110139038D01*
X278717755Y-110317272D01*
X278717755Y-110497728D01*
X278689525Y-110675962D01*
X278633761Y-110847586D01*
X278551836Y-111008373D01*
X278445767Y-111154365D01*
X278318165Y-111281967D01*
X278172173Y-111388036D01*
X278011386Y-111469961D01*
X277839762Y-111525725D01*
X277661528Y-111553955D01*
X277481072Y-111553955D01*
X277302838Y-111525725D01*
X277131214Y-111469961D01*
X276970427Y-111388036D01*
X276824435Y-111281967D01*
X276696833Y-111154365D01*
X276590764Y-111008373D01*
X276508839Y-110847586D01*
X276453075Y-110675962D01*
X276424845Y-110497728D01*
X276424845Y-110317272D01*
X276453075Y-110139038D01*
X276508839Y-109967414D01*
X276590764Y-109806627D01*
X276696833Y-109660635D01*
X276824435Y-109533033D01*
X276970427Y-109426964D01*
X277131214Y-109345039D01*
X277302838Y-109289275D01*
X277481072Y-109261045D01*
X277661528Y-109261045D01*
X277839762Y-109289275D01*
G37*
G36*
X308795962Y-109289275D02*
G01*
X308967586Y-109345039D01*
X309128373Y-109426964D01*
X309274365Y-109533033D01*
X309401967Y-109660635D01*
X309508036Y-109806627D01*
X309589961Y-109967414D01*
X309645725Y-110139038D01*
X309673955Y-110317272D01*
X309673955Y-110497728D01*
X309645725Y-110675962D01*
X309589961Y-110847586D01*
X309508036Y-111008373D01*
X309401967Y-111154365D01*
X309274365Y-111281967D01*
X309128373Y-111388036D01*
X308967586Y-111469961D01*
X308795962Y-111525725D01*
X308617728Y-111553955D01*
X308437272Y-111553955D01*
X308259038Y-111525725D01*
X308087414Y-111469961D01*
X307926627Y-111388036D01*
X307780635Y-111281967D01*
X307653033Y-111154365D01*
X307546964Y-111008373D01*
X307465039Y-110847586D01*
X307409275Y-110675962D01*
X307381045Y-110497728D01*
X307381045Y-110317272D01*
X307409275Y-110139038D01*
X307465039Y-109967414D01*
X307546964Y-109806627D01*
X307653033Y-109660635D01*
X307780635Y-109533033D01*
X307926627Y-109426964D01*
X308087414Y-109345039D01*
X308259038Y-109289275D01*
X308437272Y-109261045D01*
X308617728Y-109261045D01*
X308795962Y-109289275D01*
G37*
G36*
X281969017Y-93239561D02*
G01*
X282275139Y-93309431D01*
X282571514Y-93413137D01*
X282854413Y-93549374D01*
X283120280Y-93716430D01*
X283365770Y-93912202D01*
X283587798Y-94134230D01*
X283783570Y-94379720D01*
X283950626Y-94645587D01*
X284086863Y-94928486D01*
X284190569Y-95224861D01*
X284260439Y-95530983D01*
X284295595Y-95843003D01*
X284295595Y-96156997D01*
X284260439Y-96469017D01*
X284190569Y-96775139D01*
X284086863Y-97071514D01*
X283950626Y-97354413D01*
X283783570Y-97620280D01*
X283587798Y-97865770D01*
X283365770Y-98087798D01*
X283120280Y-98283570D01*
X282854413Y-98450626D01*
X282571514Y-98586863D01*
X282275139Y-98690569D01*
X281969017Y-98760439D01*
X281656997Y-98795595D01*
X281343003Y-98795595D01*
X281030983Y-98760439D01*
X280724861Y-98690569D01*
X280428486Y-98586863D01*
X280145587Y-98450626D01*
X279879720Y-98283570D01*
X279634230Y-98087798D01*
X279412202Y-97865770D01*
X279216430Y-97620280D01*
X279049374Y-97354413D01*
X278913137Y-97071514D01*
X278809431Y-96775139D01*
X278739561Y-96469017D01*
X278704405Y-96156997D01*
X278704405Y-95843003D01*
X278739561Y-95530983D01*
X278809431Y-95224861D01*
X278913137Y-94928486D01*
X279049374Y-94645587D01*
X279216430Y-94379720D01*
X279412202Y-94134230D01*
X279634230Y-93912202D01*
X279879720Y-93716430D01*
X280145587Y-93549374D01*
X280428486Y-93413137D01*
X280724861Y-93309431D01*
X281030983Y-93239561D01*
X281343003Y-93204405D01*
X281656997Y-93204405D01*
X281969017Y-93239561D01*
G37*
G36*
X40508462Y-92779275D02*
G01*
X40680086Y-92835039D01*
X40840873Y-92916964D01*
X40986865Y-93023033D01*
X41114467Y-93150635D01*
X41220536Y-93296627D01*
X41302461Y-93457414D01*
X41358225Y-93629038D01*
X41386455Y-93807272D01*
X41386455Y-93987728D01*
X41358225Y-94165962D01*
X41302461Y-94337586D01*
X41220536Y-94498373D01*
X41114467Y-94644365D01*
X40986865Y-94771967D01*
X40840873Y-94878036D01*
X40680086Y-94959961D01*
X40508462Y-95015725D01*
X40330228Y-95043955D01*
X40149772Y-95043955D01*
X39971538Y-95015725D01*
X39799914Y-94959961D01*
X39639127Y-94878036D01*
X39493135Y-94771967D01*
X39365533Y-94644365D01*
X39259464Y-94498373D01*
X39177539Y-94337586D01*
X39121775Y-94165962D01*
X39093545Y-93987728D01*
X39093545Y-93807272D01*
X39121775Y-93629038D01*
X39177539Y-93457414D01*
X39259464Y-93296627D01*
X39365533Y-93150635D01*
X39493135Y-93023033D01*
X39639127Y-92916964D01*
X39799914Y-92835039D01*
X39971538Y-92779275D01*
X40149772Y-92751045D01*
X40330228Y-92751045D01*
X40508462Y-92779275D01*
G37*
G36*
X69083462Y-92779275D02*
G01*
X69255086Y-92835039D01*
X69415873Y-92916964D01*
X69561865Y-93023033D01*
X69689467Y-93150635D01*
X69795536Y-93296627D01*
X69877461Y-93457414D01*
X69933225Y-93629038D01*
X69961455Y-93807272D01*
X69961455Y-93987728D01*
X69933225Y-94165962D01*
X69877461Y-94337586D01*
X69795536Y-94498373D01*
X69689467Y-94644365D01*
X69561865Y-94771967D01*
X69415873Y-94878036D01*
X69255086Y-94959961D01*
X69083462Y-95015725D01*
X68905228Y-95043955D01*
X68724772Y-95043955D01*
X68546538Y-95015725D01*
X68374914Y-94959961D01*
X68214127Y-94878036D01*
X68068135Y-94771967D01*
X67940533Y-94644365D01*
X67834464Y-94498373D01*
X67752539Y-94337586D01*
X67696775Y-94165962D01*
X67668545Y-93987728D01*
X67668545Y-93807272D01*
X67696775Y-93629038D01*
X67752539Y-93457414D01*
X67834464Y-93296627D01*
X67940533Y-93150635D01*
X68068135Y-93023033D01*
X68214127Y-92916964D01*
X68374914Y-92835039D01*
X68546538Y-92779275D01*
X68724772Y-92751045D01*
X68905228Y-92751045D01*
X69083462Y-92779275D01*
G37*
G36*
X88133462Y-92779275D02*
G01*
X88305086Y-92835039D01*
X88465873Y-92916964D01*
X88611865Y-93023033D01*
X88739467Y-93150635D01*
X88845536Y-93296627D01*
X88927461Y-93457414D01*
X88983225Y-93629038D01*
X89011455Y-93807272D01*
X89011455Y-93987728D01*
X88983225Y-94165962D01*
X88927461Y-94337586D01*
X88845536Y-94498373D01*
X88739467Y-94644365D01*
X88611865Y-94771967D01*
X88465873Y-94878036D01*
X88305086Y-94959961D01*
X88133462Y-95015725D01*
X87955228Y-95043955D01*
X87774772Y-95043955D01*
X87596538Y-95015725D01*
X87424914Y-94959961D01*
X87264127Y-94878036D01*
X87118135Y-94771967D01*
X86990533Y-94644365D01*
X86884464Y-94498373D01*
X86802539Y-94337586D01*
X86746775Y-94165962D01*
X86718545Y-93987728D01*
X86718545Y-93807272D01*
X86746775Y-93629038D01*
X86802539Y-93457414D01*
X86884464Y-93296627D01*
X86990533Y-93150635D01*
X87118135Y-93023033D01*
X87264127Y-92916964D01*
X87424914Y-92835039D01*
X87596538Y-92779275D01*
X87774772Y-92751045D01*
X87955228Y-92751045D01*
X88133462Y-92779275D01*
G37*
G36*
X107183462Y-92779275D02*
G01*
X107355086Y-92835039D01*
X107515873Y-92916964D01*
X107661865Y-93023033D01*
X107789467Y-93150635D01*
X107895536Y-93296627D01*
X107977461Y-93457414D01*
X108033225Y-93629038D01*
X108061455Y-93807272D01*
X108061455Y-93987728D01*
X108033225Y-94165962D01*
X107977461Y-94337586D01*
X107895536Y-94498373D01*
X107789467Y-94644365D01*
X107661865Y-94771967D01*
X107515873Y-94878036D01*
X107355086Y-94959961D01*
X107183462Y-95015725D01*
X107005228Y-95043955D01*
X106824772Y-95043955D01*
X106646538Y-95015725D01*
X106474914Y-94959961D01*
X106314127Y-94878036D01*
X106168135Y-94771967D01*
X106040533Y-94644365D01*
X105934464Y-94498373D01*
X105852539Y-94337586D01*
X105796775Y-94165962D01*
X105768545Y-93987728D01*
X105768545Y-93807272D01*
X105796775Y-93629038D01*
X105852539Y-93457414D01*
X105934464Y-93296627D01*
X106040533Y-93150635D01*
X106168135Y-93023033D01*
X106314127Y-92916964D01*
X106474914Y-92835039D01*
X106646538Y-92779275D01*
X106824772Y-92751045D01*
X107005228Y-92751045D01*
X107183462Y-92779275D01*
G37*
G36*
X126233462Y-92779275D02*
G01*
X126405086Y-92835039D01*
X126565873Y-92916964D01*
X126711865Y-93023033D01*
X126839467Y-93150635D01*
X126945536Y-93296627D01*
X127027461Y-93457414D01*
X127083225Y-93629038D01*
X127111455Y-93807272D01*
X127111455Y-93987728D01*
X127083225Y-94165962D01*
X127027461Y-94337586D01*
X126945536Y-94498373D01*
X126839467Y-94644365D01*
X126711865Y-94771967D01*
X126565873Y-94878036D01*
X126405086Y-94959961D01*
X126233462Y-95015725D01*
X126055228Y-95043955D01*
X125874772Y-95043955D01*
X125696538Y-95015725D01*
X125524914Y-94959961D01*
X125364127Y-94878036D01*
X125218135Y-94771967D01*
X125090533Y-94644365D01*
X124984464Y-94498373D01*
X124902539Y-94337586D01*
X124846775Y-94165962D01*
X124818545Y-93987728D01*
X124818545Y-93807272D01*
X124846775Y-93629038D01*
X124902539Y-93457414D01*
X124984464Y-93296627D01*
X125090533Y-93150635D01*
X125218135Y-93023033D01*
X125364127Y-92916964D01*
X125524914Y-92835039D01*
X125696538Y-92779275D01*
X125874772Y-92751045D01*
X126055228Y-92751045D01*
X126233462Y-92779275D01*
G37*
G36*
X145283462Y-92779275D02*
G01*
X145455086Y-92835039D01*
X145615873Y-92916964D01*
X145761865Y-93023033D01*
X145889467Y-93150635D01*
X145995536Y-93296627D01*
X146077461Y-93457414D01*
X146133225Y-93629038D01*
X146161455Y-93807272D01*
X146161455Y-93987728D01*
X146133225Y-94165962D01*
X146077461Y-94337586D01*
X145995536Y-94498373D01*
X145889467Y-94644365D01*
X145761865Y-94771967D01*
X145615873Y-94878036D01*
X145455086Y-94959961D01*
X145283462Y-95015725D01*
X145105228Y-95043955D01*
X144924772Y-95043955D01*
X144746538Y-95015725D01*
X144574914Y-94959961D01*
X144414127Y-94878036D01*
X144268135Y-94771967D01*
X144140533Y-94644365D01*
X144034464Y-94498373D01*
X143952539Y-94337586D01*
X143896775Y-94165962D01*
X143868545Y-93987728D01*
X143868545Y-93807272D01*
X143896775Y-93629038D01*
X143952539Y-93457414D01*
X144034464Y-93296627D01*
X144140533Y-93150635D01*
X144268135Y-93023033D01*
X144414127Y-92916964D01*
X144574914Y-92835039D01*
X144746538Y-92779275D01*
X144924772Y-92751045D01*
X145105228Y-92751045D01*
X145283462Y-92779275D01*
G37*
G36*
X164333462Y-92779275D02*
G01*
X164505086Y-92835039D01*
X164665873Y-92916964D01*
X164811865Y-93023033D01*
X164939467Y-93150635D01*
X165045536Y-93296627D01*
X165127461Y-93457414D01*
X165183225Y-93629038D01*
X165211455Y-93807272D01*
X165211455Y-93987728D01*
X165183225Y-94165962D01*
X165127461Y-94337586D01*
X165045536Y-94498373D01*
X164939467Y-94644365D01*
X164811865Y-94771967D01*
X164665873Y-94878036D01*
X164505086Y-94959961D01*
X164333462Y-95015725D01*
X164155228Y-95043955D01*
X163974772Y-95043955D01*
X163796538Y-95015725D01*
X163624914Y-94959961D01*
X163464127Y-94878036D01*
X163318135Y-94771967D01*
X163190533Y-94644365D01*
X163084464Y-94498373D01*
X163002539Y-94337586D01*
X162946775Y-94165962D01*
X162918545Y-93987728D01*
X162918545Y-93807272D01*
X162946775Y-93629038D01*
X163002539Y-93457414D01*
X163084464Y-93296627D01*
X163190533Y-93150635D01*
X163318135Y-93023033D01*
X163464127Y-92916964D01*
X163624914Y-92835039D01*
X163796538Y-92779275D01*
X163974772Y-92751045D01*
X164155228Y-92751045D01*
X164333462Y-92779275D01*
G37*
G36*
X183383462Y-92779275D02*
G01*
X183555086Y-92835039D01*
X183715873Y-92916964D01*
X183861865Y-93023033D01*
X183989467Y-93150635D01*
X184095536Y-93296627D01*
X184177461Y-93457414D01*
X184233225Y-93629038D01*
X184261455Y-93807272D01*
X184261455Y-93987728D01*
X184233225Y-94165962D01*
X184177461Y-94337586D01*
X184095536Y-94498373D01*
X183989467Y-94644365D01*
X183861865Y-94771967D01*
X183715873Y-94878036D01*
X183555086Y-94959961D01*
X183383462Y-95015725D01*
X183205228Y-95043955D01*
X183024772Y-95043955D01*
X182846538Y-95015725D01*
X182674914Y-94959961D01*
X182514127Y-94878036D01*
X182368135Y-94771967D01*
X182240533Y-94644365D01*
X182134464Y-94498373D01*
X182052539Y-94337586D01*
X181996775Y-94165962D01*
X181968545Y-93987728D01*
X181968545Y-93807272D01*
X181996775Y-93629038D01*
X182052539Y-93457414D01*
X182134464Y-93296627D01*
X182240533Y-93150635D01*
X182368135Y-93023033D01*
X182514127Y-92916964D01*
X182674914Y-92835039D01*
X182846538Y-92779275D01*
X183024772Y-92751045D01*
X183205228Y-92751045D01*
X183383462Y-92779275D01*
G37*
G36*
X202433462Y-92779275D02*
G01*
X202605086Y-92835039D01*
X202765873Y-92916964D01*
X202911865Y-93023033D01*
X203039467Y-93150635D01*
X203145536Y-93296627D01*
X203227461Y-93457414D01*
X203283225Y-93629038D01*
X203311455Y-93807272D01*
X203311455Y-93987728D01*
X203283225Y-94165962D01*
X203227461Y-94337586D01*
X203145536Y-94498373D01*
X203039467Y-94644365D01*
X202911865Y-94771967D01*
X202765873Y-94878036D01*
X202605086Y-94959961D01*
X202433462Y-95015725D01*
X202255228Y-95043955D01*
X202074772Y-95043955D01*
X201896538Y-95015725D01*
X201724914Y-94959961D01*
X201564127Y-94878036D01*
X201418135Y-94771967D01*
X201290533Y-94644365D01*
X201184464Y-94498373D01*
X201102539Y-94337586D01*
X201046775Y-94165962D01*
X201018545Y-93987728D01*
X201018545Y-93807272D01*
X201046775Y-93629038D01*
X201102539Y-93457414D01*
X201184464Y-93296627D01*
X201290533Y-93150635D01*
X201418135Y-93023033D01*
X201564127Y-92916964D01*
X201724914Y-92835039D01*
X201896538Y-92779275D01*
X202074772Y-92751045D01*
X202255228Y-92751045D01*
X202433462Y-92779275D01*
G37*
G36*
X221483462Y-92779275D02*
G01*
X221655086Y-92835039D01*
X221815873Y-92916964D01*
X221961865Y-93023033D01*
X222089467Y-93150635D01*
X222195536Y-93296627D01*
X222277461Y-93457414D01*
X222333225Y-93629038D01*
X222361455Y-93807272D01*
X222361455Y-93987728D01*
X222333225Y-94165962D01*
X222277461Y-94337586D01*
X222195536Y-94498373D01*
X222089467Y-94644365D01*
X221961865Y-94771967D01*
X221815873Y-94878036D01*
X221655086Y-94959961D01*
X221483462Y-95015725D01*
X221305228Y-95043955D01*
X221124772Y-95043955D01*
X220946538Y-95015725D01*
X220774914Y-94959961D01*
X220614127Y-94878036D01*
X220468135Y-94771967D01*
X220340533Y-94644365D01*
X220234464Y-94498373D01*
X220152539Y-94337586D01*
X220096775Y-94165962D01*
X220068545Y-93987728D01*
X220068545Y-93807272D01*
X220096775Y-93629038D01*
X220152539Y-93457414D01*
X220234464Y-93296627D01*
X220340533Y-93150635D01*
X220468135Y-93023033D01*
X220614127Y-92916964D01*
X220774914Y-92835039D01*
X220946538Y-92779275D01*
X221124772Y-92751045D01*
X221305228Y-92751045D01*
X221483462Y-92779275D01*
G37*
G36*
X240533462Y-92779275D02*
G01*
X240705086Y-92835039D01*
X240865873Y-92916964D01*
X241011865Y-93023033D01*
X241139467Y-93150635D01*
X241245536Y-93296627D01*
X241327461Y-93457414D01*
X241383225Y-93629038D01*
X241411455Y-93807272D01*
X241411455Y-93987728D01*
X241383225Y-94165962D01*
X241327461Y-94337586D01*
X241245536Y-94498373D01*
X241139467Y-94644365D01*
X241011865Y-94771967D01*
X240865873Y-94878036D01*
X240705086Y-94959961D01*
X240533462Y-95015725D01*
X240355228Y-95043955D01*
X240174772Y-95043955D01*
X239996538Y-95015725D01*
X239824914Y-94959961D01*
X239664127Y-94878036D01*
X239518135Y-94771967D01*
X239390533Y-94644365D01*
X239284464Y-94498373D01*
X239202539Y-94337586D01*
X239146775Y-94165962D01*
X239118545Y-93987728D01*
X239118545Y-93807272D01*
X239146775Y-93629038D01*
X239202539Y-93457414D01*
X239284464Y-93296627D01*
X239390533Y-93150635D01*
X239518135Y-93023033D01*
X239664127Y-92916964D01*
X239824914Y-92835039D01*
X239996538Y-92779275D01*
X240174772Y-92751045D01*
X240355228Y-92751045D01*
X240533462Y-92779275D01*
G37*
G36*
X259583462Y-92779275D02*
G01*
X259755086Y-92835039D01*
X259915873Y-92916964D01*
X260061865Y-93023033D01*
X260189467Y-93150635D01*
X260295536Y-93296627D01*
X260377461Y-93457414D01*
X260433225Y-93629038D01*
X260461455Y-93807272D01*
X260461455Y-93987728D01*
X260433225Y-94165962D01*
X260377461Y-94337586D01*
X260295536Y-94498373D01*
X260189467Y-94644365D01*
X260061865Y-94771967D01*
X259915873Y-94878036D01*
X259755086Y-94959961D01*
X259583462Y-95015725D01*
X259405228Y-95043955D01*
X259224772Y-95043955D01*
X259046538Y-95015725D01*
X258874914Y-94959961D01*
X258714127Y-94878036D01*
X258568135Y-94771967D01*
X258440533Y-94644365D01*
X258334464Y-94498373D01*
X258252539Y-94337586D01*
X258196775Y-94165962D01*
X258168545Y-93987728D01*
X258168545Y-93807272D01*
X258196775Y-93629038D01*
X258252539Y-93457414D01*
X258334464Y-93296627D01*
X258440533Y-93150635D01*
X258568135Y-93023033D01*
X258714127Y-92916964D01*
X258874914Y-92835039D01*
X259046538Y-92779275D01*
X259224772Y-92751045D01*
X259405228Y-92751045D01*
X259583462Y-92779275D01*
G37*
G36*
X322638962Y-92779275D02*
G01*
X322810586Y-92835039D01*
X322971373Y-92916964D01*
X323117365Y-93023033D01*
X323244967Y-93150635D01*
X323351036Y-93296627D01*
X323432961Y-93457414D01*
X323488725Y-93629038D01*
X323516955Y-93807272D01*
X323516955Y-93987728D01*
X323488725Y-94165962D01*
X323432961Y-94337586D01*
X323351036Y-94498373D01*
X323244967Y-94644365D01*
X323117365Y-94771967D01*
X322971373Y-94878036D01*
X322810586Y-94959961D01*
X322638962Y-95015725D01*
X322460728Y-95043955D01*
X322280272Y-95043955D01*
X322102038Y-95015725D01*
X321930414Y-94959961D01*
X321769627Y-94878036D01*
X321623635Y-94771967D01*
X321496033Y-94644365D01*
X321389964Y-94498373D01*
X321308039Y-94337586D01*
X321252275Y-94165962D01*
X321224045Y-93987728D01*
X321224045Y-93807272D01*
X321252275Y-93629038D01*
X321308039Y-93457414D01*
X321389964Y-93296627D01*
X321496033Y-93150635D01*
X321623635Y-93023033D01*
X321769627Y-92916964D01*
X321930414Y-92835039D01*
X322102038Y-92779275D01*
X322280272Y-92751045D01*
X322460728Y-92751045D01*
X322638962Y-92779275D01*
G37*
G36*
X341688962Y-92779275D02*
G01*
X341860586Y-92835039D01*
X342021373Y-92916964D01*
X342167365Y-93023033D01*
X342294967Y-93150635D01*
X342401036Y-93296627D01*
X342482961Y-93457414D01*
X342538725Y-93629038D01*
X342566955Y-93807272D01*
X342566955Y-93987728D01*
X342538725Y-94165962D01*
X342482961Y-94337586D01*
X342401036Y-94498373D01*
X342294967Y-94644365D01*
X342167365Y-94771967D01*
X342021373Y-94878036D01*
X341860586Y-94959961D01*
X341688962Y-95015725D01*
X341510728Y-95043955D01*
X341330272Y-95043955D01*
X341152038Y-95015725D01*
X340980414Y-94959961D01*
X340819627Y-94878036D01*
X340673635Y-94771967D01*
X340546033Y-94644365D01*
X340439964Y-94498373D01*
X340358039Y-94337586D01*
X340302275Y-94165962D01*
X340274045Y-93987728D01*
X340274045Y-93807272D01*
X340302275Y-93629038D01*
X340358039Y-93457414D01*
X340439964Y-93296627D01*
X340546033Y-93150635D01*
X340673635Y-93023033D01*
X340819627Y-92916964D01*
X340980414Y-92835039D01*
X341152038Y-92779275D01*
X341330272Y-92751045D01*
X341510728Y-92751045D01*
X341688962Y-92779275D01*
G37*
G36*
X46858462Y-90239275D02*
G01*
X47030086Y-90295039D01*
X47190873Y-90376964D01*
X47336865Y-90483033D01*
X47464467Y-90610635D01*
X47570536Y-90756627D01*
X47652461Y-90917414D01*
X47708225Y-91089038D01*
X47736455Y-91267272D01*
X47736455Y-91447728D01*
X47708225Y-91625962D01*
X47652461Y-91797586D01*
X47570536Y-91958373D01*
X47464467Y-92104365D01*
X47336865Y-92231967D01*
X47190873Y-92338036D01*
X47030086Y-92419961D01*
X46858462Y-92475725D01*
X46680228Y-92503955D01*
X46499772Y-92503955D01*
X46321538Y-92475725D01*
X46149914Y-92419961D01*
X45989127Y-92338036D01*
X45843135Y-92231967D01*
X45715533Y-92104365D01*
X45609464Y-91958373D01*
X45527539Y-91797586D01*
X45471775Y-91625962D01*
X45443545Y-91447728D01*
X45443545Y-91267272D01*
X45471775Y-91089038D01*
X45527539Y-90917414D01*
X45609464Y-90756627D01*
X45715533Y-90610635D01*
X45843135Y-90483033D01*
X45989127Y-90376964D01*
X46149914Y-90295039D01*
X46321538Y-90239275D01*
X46499772Y-90211045D01*
X46680228Y-90211045D01*
X46858462Y-90239275D01*
G37*
G36*
X75433462Y-90239275D02*
G01*
X75605086Y-90295039D01*
X75765873Y-90376964D01*
X75911865Y-90483033D01*
X76039467Y-90610635D01*
X76145536Y-90756627D01*
X76227461Y-90917414D01*
X76283225Y-91089038D01*
X76311455Y-91267272D01*
X76311455Y-91447728D01*
X76283225Y-91625962D01*
X76227461Y-91797586D01*
X76145536Y-91958373D01*
X76039467Y-92104365D01*
X75911865Y-92231967D01*
X75765873Y-92338036D01*
X75605086Y-92419961D01*
X75433462Y-92475725D01*
X75255228Y-92503955D01*
X75074772Y-92503955D01*
X74896538Y-92475725D01*
X74724914Y-92419961D01*
X74564127Y-92338036D01*
X74418135Y-92231967D01*
X74290533Y-92104365D01*
X74184464Y-91958373D01*
X74102539Y-91797586D01*
X74046775Y-91625962D01*
X74018545Y-91447728D01*
X74018545Y-91267272D01*
X74046775Y-91089038D01*
X74102539Y-90917414D01*
X74184464Y-90756627D01*
X74290533Y-90610635D01*
X74418135Y-90483033D01*
X74564127Y-90376964D01*
X74724914Y-90295039D01*
X74896538Y-90239275D01*
X75074772Y-90211045D01*
X75255228Y-90211045D01*
X75433462Y-90239275D01*
G37*
G36*
X94483462Y-90239275D02*
G01*
X94655086Y-90295039D01*
X94815873Y-90376964D01*
X94961865Y-90483033D01*
X95089467Y-90610635D01*
X95195536Y-90756627D01*
X95277461Y-90917414D01*
X95333225Y-91089038D01*
X95361455Y-91267272D01*
X95361455Y-91447728D01*
X95333225Y-91625962D01*
X95277461Y-91797586D01*
X95195536Y-91958373D01*
X95089467Y-92104365D01*
X94961865Y-92231967D01*
X94815873Y-92338036D01*
X94655086Y-92419961D01*
X94483462Y-92475725D01*
X94305228Y-92503955D01*
X94124772Y-92503955D01*
X93946538Y-92475725D01*
X93774914Y-92419961D01*
X93614127Y-92338036D01*
X93468135Y-92231967D01*
X93340533Y-92104365D01*
X93234464Y-91958373D01*
X93152539Y-91797586D01*
X93096775Y-91625962D01*
X93068545Y-91447728D01*
X93068545Y-91267272D01*
X93096775Y-91089038D01*
X93152539Y-90917414D01*
X93234464Y-90756627D01*
X93340533Y-90610635D01*
X93468135Y-90483033D01*
X93614127Y-90376964D01*
X93774914Y-90295039D01*
X93946538Y-90239275D01*
X94124772Y-90211045D01*
X94305228Y-90211045D01*
X94483462Y-90239275D01*
G37*
G36*
X113533462Y-90239275D02*
G01*
X113705086Y-90295039D01*
X113865873Y-90376964D01*
X114011865Y-90483033D01*
X114139467Y-90610635D01*
X114245536Y-90756627D01*
X114327461Y-90917414D01*
X114383225Y-91089038D01*
X114411455Y-91267272D01*
X114411455Y-91447728D01*
X114383225Y-91625962D01*
X114327461Y-91797586D01*
X114245536Y-91958373D01*
X114139467Y-92104365D01*
X114011865Y-92231967D01*
X113865873Y-92338036D01*
X113705086Y-92419961D01*
X113533462Y-92475725D01*
X113355228Y-92503955D01*
X113174772Y-92503955D01*
X112996538Y-92475725D01*
X112824914Y-92419961D01*
X112664127Y-92338036D01*
X112518135Y-92231967D01*
X112390533Y-92104365D01*
X112284464Y-91958373D01*
X112202539Y-91797586D01*
X112146775Y-91625962D01*
X112118545Y-91447728D01*
X112118545Y-91267272D01*
X112146775Y-91089038D01*
X112202539Y-90917414D01*
X112284464Y-90756627D01*
X112390533Y-90610635D01*
X112518135Y-90483033D01*
X112664127Y-90376964D01*
X112824914Y-90295039D01*
X112996538Y-90239275D01*
X113174772Y-90211045D01*
X113355228Y-90211045D01*
X113533462Y-90239275D01*
G37*
G36*
X132583462Y-90239275D02*
G01*
X132755086Y-90295039D01*
X132915873Y-90376964D01*
X133061865Y-90483033D01*
X133189467Y-90610635D01*
X133295536Y-90756627D01*
X133377461Y-90917414D01*
X133433225Y-91089038D01*
X133461455Y-91267272D01*
X133461455Y-91447728D01*
X133433225Y-91625962D01*
X133377461Y-91797586D01*
X133295536Y-91958373D01*
X133189467Y-92104365D01*
X133061865Y-92231967D01*
X132915873Y-92338036D01*
X132755086Y-92419961D01*
X132583462Y-92475725D01*
X132405228Y-92503955D01*
X132224772Y-92503955D01*
X132046538Y-92475725D01*
X131874914Y-92419961D01*
X131714127Y-92338036D01*
X131568135Y-92231967D01*
X131440533Y-92104365D01*
X131334464Y-91958373D01*
X131252539Y-91797586D01*
X131196775Y-91625962D01*
X131168545Y-91447728D01*
X131168545Y-91267272D01*
X131196775Y-91089038D01*
X131252539Y-90917414D01*
X131334464Y-90756627D01*
X131440533Y-90610635D01*
X131568135Y-90483033D01*
X131714127Y-90376964D01*
X131874914Y-90295039D01*
X132046538Y-90239275D01*
X132224772Y-90211045D01*
X132405228Y-90211045D01*
X132583462Y-90239275D01*
G37*
G36*
X151633462Y-90239275D02*
G01*
X151805086Y-90295039D01*
X151965873Y-90376964D01*
X152111865Y-90483033D01*
X152239467Y-90610635D01*
X152345536Y-90756627D01*
X152427461Y-90917414D01*
X152483225Y-91089038D01*
X152511455Y-91267272D01*
X152511455Y-91447728D01*
X152483225Y-91625962D01*
X152427461Y-91797586D01*
X152345536Y-91958373D01*
X152239467Y-92104365D01*
X152111865Y-92231967D01*
X151965873Y-92338036D01*
X151805086Y-92419961D01*
X151633462Y-92475725D01*
X151455228Y-92503955D01*
X151274772Y-92503955D01*
X151096538Y-92475725D01*
X150924914Y-92419961D01*
X150764127Y-92338036D01*
X150618135Y-92231967D01*
X150490533Y-92104365D01*
X150384464Y-91958373D01*
X150302539Y-91797586D01*
X150246775Y-91625962D01*
X150218545Y-91447728D01*
X150218545Y-91267272D01*
X150246775Y-91089038D01*
X150302539Y-90917414D01*
X150384464Y-90756627D01*
X150490533Y-90610635D01*
X150618135Y-90483033D01*
X150764127Y-90376964D01*
X150924914Y-90295039D01*
X151096538Y-90239275D01*
X151274772Y-90211045D01*
X151455228Y-90211045D01*
X151633462Y-90239275D01*
G37*
G36*
X170683462Y-90239275D02*
G01*
X170855086Y-90295039D01*
X171015873Y-90376964D01*
X171161865Y-90483033D01*
X171289467Y-90610635D01*
X171395536Y-90756627D01*
X171477461Y-90917414D01*
X171533225Y-91089038D01*
X171561455Y-91267272D01*
X171561455Y-91447728D01*
X171533225Y-91625962D01*
X171477461Y-91797586D01*
X171395536Y-91958373D01*
X171289467Y-92104365D01*
X171161865Y-92231967D01*
X171015873Y-92338036D01*
X170855086Y-92419961D01*
X170683462Y-92475725D01*
X170505228Y-92503955D01*
X170324772Y-92503955D01*
X170146538Y-92475725D01*
X169974914Y-92419961D01*
X169814127Y-92338036D01*
X169668135Y-92231967D01*
X169540533Y-92104365D01*
X169434464Y-91958373D01*
X169352539Y-91797586D01*
X169296775Y-91625962D01*
X169268545Y-91447728D01*
X169268545Y-91267272D01*
X169296775Y-91089038D01*
X169352539Y-90917414D01*
X169434464Y-90756627D01*
X169540533Y-90610635D01*
X169668135Y-90483033D01*
X169814127Y-90376964D01*
X169974914Y-90295039D01*
X170146538Y-90239275D01*
X170324772Y-90211045D01*
X170505228Y-90211045D01*
X170683462Y-90239275D01*
G37*
G36*
X189733462Y-90239275D02*
G01*
X189905086Y-90295039D01*
X190065873Y-90376964D01*
X190211865Y-90483033D01*
X190339467Y-90610635D01*
X190445536Y-90756627D01*
X190527461Y-90917414D01*
X190583225Y-91089038D01*
X190611455Y-91267272D01*
X190611455Y-91447728D01*
X190583225Y-91625962D01*
X190527461Y-91797586D01*
X190445536Y-91958373D01*
X190339467Y-92104365D01*
X190211865Y-92231967D01*
X190065873Y-92338036D01*
X189905086Y-92419961D01*
X189733462Y-92475725D01*
X189555228Y-92503955D01*
X189374772Y-92503955D01*
X189196538Y-92475725D01*
X189024914Y-92419961D01*
X188864127Y-92338036D01*
X188718135Y-92231967D01*
X188590533Y-92104365D01*
X188484464Y-91958373D01*
X188402539Y-91797586D01*
X188346775Y-91625962D01*
X188318545Y-91447728D01*
X188318545Y-91267272D01*
X188346775Y-91089038D01*
X188402539Y-90917414D01*
X188484464Y-90756627D01*
X188590533Y-90610635D01*
X188718135Y-90483033D01*
X188864127Y-90376964D01*
X189024914Y-90295039D01*
X189196538Y-90239275D01*
X189374772Y-90211045D01*
X189555228Y-90211045D01*
X189733462Y-90239275D01*
G37*
G36*
X208783462Y-90239275D02*
G01*
X208955086Y-90295039D01*
X209115873Y-90376964D01*
X209261865Y-90483033D01*
X209389467Y-90610635D01*
X209495536Y-90756627D01*
X209577461Y-90917414D01*
X209633225Y-91089038D01*
X209661455Y-91267272D01*
X209661455Y-91447728D01*
X209633225Y-91625962D01*
X209577461Y-91797586D01*
X209495536Y-91958373D01*
X209389467Y-92104365D01*
X209261865Y-92231967D01*
X209115873Y-92338036D01*
X208955086Y-92419961D01*
X208783462Y-92475725D01*
X208605228Y-92503955D01*
X208424772Y-92503955D01*
X208246538Y-92475725D01*
X208074914Y-92419961D01*
X207914127Y-92338036D01*
X207768135Y-92231967D01*
X207640533Y-92104365D01*
X207534464Y-91958373D01*
X207452539Y-91797586D01*
X207396775Y-91625962D01*
X207368545Y-91447728D01*
X207368545Y-91267272D01*
X207396775Y-91089038D01*
X207452539Y-90917414D01*
X207534464Y-90756627D01*
X207640533Y-90610635D01*
X207768135Y-90483033D01*
X207914127Y-90376964D01*
X208074914Y-90295039D01*
X208246538Y-90239275D01*
X208424772Y-90211045D01*
X208605228Y-90211045D01*
X208783462Y-90239275D01*
G37*
G36*
X227833462Y-90239275D02*
G01*
X228005086Y-90295039D01*
X228165873Y-90376964D01*
X228311865Y-90483033D01*
X228439467Y-90610635D01*
X228545536Y-90756627D01*
X228627461Y-90917414D01*
X228683225Y-91089038D01*
X228711455Y-91267272D01*
X228711455Y-91447728D01*
X228683225Y-91625962D01*
X228627461Y-91797586D01*
X228545536Y-91958373D01*
X228439467Y-92104365D01*
X228311865Y-92231967D01*
X228165873Y-92338036D01*
X228005086Y-92419961D01*
X227833462Y-92475725D01*
X227655228Y-92503955D01*
X227474772Y-92503955D01*
X227296538Y-92475725D01*
X227124914Y-92419961D01*
X226964127Y-92338036D01*
X226818135Y-92231967D01*
X226690533Y-92104365D01*
X226584464Y-91958373D01*
X226502539Y-91797586D01*
X226446775Y-91625962D01*
X226418545Y-91447728D01*
X226418545Y-91267272D01*
X226446775Y-91089038D01*
X226502539Y-90917414D01*
X226584464Y-90756627D01*
X226690533Y-90610635D01*
X226818135Y-90483033D01*
X226964127Y-90376964D01*
X227124914Y-90295039D01*
X227296538Y-90239275D01*
X227474772Y-90211045D01*
X227655228Y-90211045D01*
X227833462Y-90239275D01*
G37*
G36*
X246883462Y-90239275D02*
G01*
X247055086Y-90295039D01*
X247215873Y-90376964D01*
X247361865Y-90483033D01*
X247489467Y-90610635D01*
X247595536Y-90756627D01*
X247677461Y-90917414D01*
X247733225Y-91089038D01*
X247761455Y-91267272D01*
X247761455Y-91447728D01*
X247733225Y-91625962D01*
X247677461Y-91797586D01*
X247595536Y-91958373D01*
X247489467Y-92104365D01*
X247361865Y-92231967D01*
X247215873Y-92338036D01*
X247055086Y-92419961D01*
X246883462Y-92475725D01*
X246705228Y-92503955D01*
X246524772Y-92503955D01*
X246346538Y-92475725D01*
X246174914Y-92419961D01*
X246014127Y-92338036D01*
X245868135Y-92231967D01*
X245740533Y-92104365D01*
X245634464Y-91958373D01*
X245552539Y-91797586D01*
X245496775Y-91625962D01*
X245468545Y-91447728D01*
X245468545Y-91267272D01*
X245496775Y-91089038D01*
X245552539Y-90917414D01*
X245634464Y-90756627D01*
X245740533Y-90610635D01*
X245868135Y-90483033D01*
X246014127Y-90376964D01*
X246174914Y-90295039D01*
X246346538Y-90239275D01*
X246524772Y-90211045D01*
X246705228Y-90211045D01*
X246883462Y-90239275D01*
G37*
G36*
X265933462Y-90239275D02*
G01*
X266105086Y-90295039D01*
X266265873Y-90376964D01*
X266411865Y-90483033D01*
X266539467Y-90610635D01*
X266645536Y-90756627D01*
X266727461Y-90917414D01*
X266783225Y-91089038D01*
X266811455Y-91267272D01*
X266811455Y-91447728D01*
X266783225Y-91625962D01*
X266727461Y-91797586D01*
X266645536Y-91958373D01*
X266539467Y-92104365D01*
X266411865Y-92231967D01*
X266265873Y-92338036D01*
X266105086Y-92419961D01*
X265933462Y-92475725D01*
X265755228Y-92503955D01*
X265574772Y-92503955D01*
X265396538Y-92475725D01*
X265224914Y-92419961D01*
X265064127Y-92338036D01*
X264918135Y-92231967D01*
X264790533Y-92104365D01*
X264684464Y-91958373D01*
X264602539Y-91797586D01*
X264546775Y-91625962D01*
X264518545Y-91447728D01*
X264518545Y-91267272D01*
X264546775Y-91089038D01*
X264602539Y-90917414D01*
X264684464Y-90756627D01*
X264790533Y-90610635D01*
X264918135Y-90483033D01*
X265064127Y-90376964D01*
X265224914Y-90295039D01*
X265396538Y-90239275D01*
X265574772Y-90211045D01*
X265755228Y-90211045D01*
X265933462Y-90239275D01*
G37*
G36*
X328988962Y-90239275D02*
G01*
X329160586Y-90295039D01*
X329321373Y-90376964D01*
X329467365Y-90483033D01*
X329594967Y-90610635D01*
X329701036Y-90756627D01*
X329782961Y-90917414D01*
X329838725Y-91089038D01*
X329866955Y-91267272D01*
X329866955Y-91447728D01*
X329838725Y-91625962D01*
X329782961Y-91797586D01*
X329701036Y-91958373D01*
X329594967Y-92104365D01*
X329467365Y-92231967D01*
X329321373Y-92338036D01*
X329160586Y-92419961D01*
X328988962Y-92475725D01*
X328810728Y-92503955D01*
X328630272Y-92503955D01*
X328452038Y-92475725D01*
X328280414Y-92419961D01*
X328119627Y-92338036D01*
X327973635Y-92231967D01*
X327846033Y-92104365D01*
X327739964Y-91958373D01*
X327658039Y-91797586D01*
X327602275Y-91625962D01*
X327574045Y-91447728D01*
X327574045Y-91267272D01*
X327602275Y-91089038D01*
X327658039Y-90917414D01*
X327739964Y-90756627D01*
X327846033Y-90610635D01*
X327973635Y-90483033D01*
X328119627Y-90376964D01*
X328280414Y-90295039D01*
X328452038Y-90239275D01*
X328630272Y-90211045D01*
X328810728Y-90211045D01*
X328988962Y-90239275D01*
G37*
G36*
X348038962Y-90239275D02*
G01*
X348210586Y-90295039D01*
X348371373Y-90376964D01*
X348517365Y-90483033D01*
X348644967Y-90610635D01*
X348751036Y-90756627D01*
X348832961Y-90917414D01*
X348888725Y-91089038D01*
X348916955Y-91267272D01*
X348916955Y-91447728D01*
X348888725Y-91625962D01*
X348832961Y-91797586D01*
X348751036Y-91958373D01*
X348644967Y-92104365D01*
X348517365Y-92231967D01*
X348371373Y-92338036D01*
X348210586Y-92419961D01*
X348038962Y-92475725D01*
X347860728Y-92503955D01*
X347680272Y-92503955D01*
X347502038Y-92475725D01*
X347330414Y-92419961D01*
X347169627Y-92338036D01*
X347023635Y-92231967D01*
X346896033Y-92104365D01*
X346789964Y-91958373D01*
X346708039Y-91797586D01*
X346652275Y-91625962D01*
X346624045Y-91447728D01*
X346624045Y-91267272D01*
X346652275Y-91089038D01*
X346708039Y-90917414D01*
X346789964Y-90756627D01*
X346896033Y-90610635D01*
X347023635Y-90483033D01*
X347169627Y-90376964D01*
X347330414Y-90295039D01*
X347502038Y-90239275D01*
X347680272Y-90211045D01*
X347860728Y-90211045D01*
X348038962Y-90239275D01*
G37*
G36*
X297683462Y-83254275D02*
G01*
X297855086Y-83310039D01*
X298015873Y-83391964D01*
X298161865Y-83498033D01*
X298289467Y-83625635D01*
X298395536Y-83771627D01*
X298477461Y-83932414D01*
X298533225Y-84104038D01*
X298561455Y-84282272D01*
X298561455Y-84462728D01*
X298533225Y-84640962D01*
X298477461Y-84812586D01*
X298395536Y-84973373D01*
X298289467Y-85119365D01*
X298161865Y-85246967D01*
X298015873Y-85353036D01*
X297855086Y-85434961D01*
X297683462Y-85490725D01*
X297505228Y-85518955D01*
X297324772Y-85518955D01*
X297146538Y-85490725D01*
X296974914Y-85434961D01*
X296814127Y-85353036D01*
X296668135Y-85246967D01*
X296540533Y-85119365D01*
X296434464Y-84973373D01*
X296352539Y-84812586D01*
X296296775Y-84640962D01*
X296268545Y-84462728D01*
X296268545Y-84282272D01*
X296296775Y-84104038D01*
X296352539Y-83932414D01*
X296434464Y-83771627D01*
X296540533Y-83625635D01*
X296668135Y-83498033D01*
X296814127Y-83391964D01*
X296974914Y-83310039D01*
X297146538Y-83254275D01*
X297324772Y-83226045D01*
X297505228Y-83226045D01*
X297683462Y-83254275D01*
G37*
G36*
X304033462Y-80714275D02*
G01*
X304205086Y-80770039D01*
X304365873Y-80851964D01*
X304511865Y-80958033D01*
X304639467Y-81085635D01*
X304745536Y-81231627D01*
X304827461Y-81392414D01*
X304883225Y-81564038D01*
X304911455Y-81742272D01*
X304911455Y-81922728D01*
X304883225Y-82100962D01*
X304827461Y-82272586D01*
X304745536Y-82433373D01*
X304639467Y-82579365D01*
X304511865Y-82706967D01*
X304365873Y-82813036D01*
X304205086Y-82894961D01*
X304033462Y-82950725D01*
X303855228Y-82978955D01*
X303674772Y-82978955D01*
X303496538Y-82950725D01*
X303324914Y-82894961D01*
X303164127Y-82813036D01*
X303018135Y-82706967D01*
X302890533Y-82579365D01*
X302784464Y-82433373D01*
X302702539Y-82272586D01*
X302646775Y-82100962D01*
X302618545Y-81922728D01*
X302618545Y-81742272D01*
X302646775Y-81564038D01*
X302702539Y-81392414D01*
X302784464Y-81231627D01*
X302890533Y-81085635D01*
X303018135Y-80958033D01*
X303164127Y-80851964D01*
X303324914Y-80770039D01*
X303496538Y-80714275D01*
X303674772Y-80686045D01*
X303855228Y-80686045D01*
X304033462Y-80714275D01*
G37*
G36*
X333768513Y-76614830D02*
G01*
X333936042Y-76684223D01*
X334086814Y-76784965D01*
X334215035Y-76913186D01*
X334315777Y-77063958D01*
X334385170Y-77231487D01*
X334420546Y-77409334D01*
X334420546Y-77590666D01*
X334385170Y-77768513D01*
X334315777Y-77936042D01*
X334215035Y-78086814D01*
X334086814Y-78215035D01*
X333936042Y-78315777D01*
X333768513Y-78385170D01*
X333590666Y-78420546D01*
X333409334Y-78420546D01*
X333231487Y-78385170D01*
X333063958Y-78315777D01*
X332913186Y-78215035D01*
X332784965Y-78086814D01*
X332684223Y-77936042D01*
X332614830Y-77768513D01*
X332579454Y-77590666D01*
X332579454Y-77409334D01*
X332614830Y-77231487D01*
X332684223Y-77063958D01*
X332784965Y-76913186D01*
X332913186Y-76784965D01*
X333063958Y-76684223D01*
X333231487Y-76614830D01*
X333409334Y-76579454D01*
X333590666Y-76579454D01*
X333768513Y-76614830D01*
G37*
G36*
X335768513Y-76614830D02*
G01*
X335936042Y-76684223D01*
X336086814Y-76784965D01*
X336215035Y-76913186D01*
X336315777Y-77063958D01*
X336385170Y-77231487D01*
X336420546Y-77409334D01*
X336420546Y-77590666D01*
X336385170Y-77768513D01*
X336315777Y-77936042D01*
X336215035Y-78086814D01*
X336086814Y-78215035D01*
X335936042Y-78315777D01*
X335768513Y-78385170D01*
X335590666Y-78420546D01*
X335409334Y-78420546D01*
X335231487Y-78385170D01*
X335063958Y-78315777D01*
X334913186Y-78215035D01*
X334784965Y-78086814D01*
X334684223Y-77936042D01*
X334614830Y-77768513D01*
X334579454Y-77590666D01*
X334579454Y-77409334D01*
X334614830Y-77231487D01*
X334684223Y-77063958D01*
X334784965Y-76913186D01*
X334913186Y-76784965D01*
X335063958Y-76684223D01*
X335231487Y-76614830D01*
X335409334Y-76579454D01*
X335590666Y-76579454D01*
X335768513Y-76614830D01*
G37*
G36*
X38127262Y-73729275D02*
G01*
X38298886Y-73785039D01*
X38459673Y-73866964D01*
X38605665Y-73973033D01*
X38733267Y-74100635D01*
X38839336Y-74246627D01*
X38921261Y-74407414D01*
X38977025Y-74579038D01*
X39005255Y-74757272D01*
X39005255Y-74937728D01*
X38977025Y-75115962D01*
X38921261Y-75287586D01*
X38839336Y-75448373D01*
X38733267Y-75594365D01*
X38605665Y-75721967D01*
X38459673Y-75828036D01*
X38298886Y-75909961D01*
X38127262Y-75965725D01*
X37949028Y-75993955D01*
X37768572Y-75993955D01*
X37590338Y-75965725D01*
X37418714Y-75909961D01*
X37257927Y-75828036D01*
X37111935Y-75721967D01*
X36984333Y-75594365D01*
X36878264Y-75448373D01*
X36796339Y-75287586D01*
X36740575Y-75115962D01*
X36712345Y-74937728D01*
X36712345Y-74757272D01*
X36740575Y-74579038D01*
X36796339Y-74407414D01*
X36878264Y-74246627D01*
X36984333Y-74100635D01*
X37111935Y-73973033D01*
X37257927Y-73866964D01*
X37418714Y-73785039D01*
X37590338Y-73729275D01*
X37768572Y-73701045D01*
X37949028Y-73701045D01*
X38127262Y-73729275D01*
G37*
G36*
X64320962Y-73729275D02*
G01*
X64492586Y-73785039D01*
X64653373Y-73866964D01*
X64799365Y-73973033D01*
X64926967Y-74100635D01*
X65033036Y-74246627D01*
X65114961Y-74407414D01*
X65170725Y-74579038D01*
X65198955Y-74757272D01*
X65198955Y-74937728D01*
X65170725Y-75115962D01*
X65114961Y-75287586D01*
X65033036Y-75448373D01*
X64926967Y-75594365D01*
X64799365Y-75721967D01*
X64653373Y-75828036D01*
X64492586Y-75909961D01*
X64320962Y-75965725D01*
X64142728Y-75993955D01*
X63962272Y-75993955D01*
X63784038Y-75965725D01*
X63612414Y-75909961D01*
X63451627Y-75828036D01*
X63305635Y-75721967D01*
X63178033Y-75594365D01*
X63071964Y-75448373D01*
X62990039Y-75287586D01*
X62934275Y-75115962D01*
X62906045Y-74937728D01*
X62906045Y-74757272D01*
X62934275Y-74579038D01*
X62990039Y-74407414D01*
X63071964Y-74246627D01*
X63178033Y-74100635D01*
X63305635Y-73973033D01*
X63451627Y-73866964D01*
X63612414Y-73785039D01*
X63784038Y-73729275D01*
X63962272Y-73701045D01*
X64142728Y-73701045D01*
X64320962Y-73729275D01*
G37*
G36*
X83370962Y-73729275D02*
G01*
X83542586Y-73785039D01*
X83703373Y-73866964D01*
X83849365Y-73973033D01*
X83976967Y-74100635D01*
X84083036Y-74246627D01*
X84164961Y-74407414D01*
X84220725Y-74579038D01*
X84248955Y-74757272D01*
X84248955Y-74937728D01*
X84220725Y-75115962D01*
X84164961Y-75287586D01*
X84083036Y-75448373D01*
X83976967Y-75594365D01*
X83849365Y-75721967D01*
X83703373Y-75828036D01*
X83542586Y-75909961D01*
X83370962Y-75965725D01*
X83192728Y-75993955D01*
X83012272Y-75993955D01*
X82834038Y-75965725D01*
X82662414Y-75909961D01*
X82501627Y-75828036D01*
X82355635Y-75721967D01*
X82228033Y-75594365D01*
X82121964Y-75448373D01*
X82040039Y-75287586D01*
X81984275Y-75115962D01*
X81956045Y-74937728D01*
X81956045Y-74757272D01*
X81984275Y-74579038D01*
X82040039Y-74407414D01*
X82121964Y-74246627D01*
X82228033Y-74100635D01*
X82355635Y-73973033D01*
X82501627Y-73866964D01*
X82662414Y-73785039D01*
X82834038Y-73729275D01*
X83012272Y-73701045D01*
X83192728Y-73701045D01*
X83370962Y-73729275D01*
G37*
G36*
X102420962Y-73729275D02*
G01*
X102592586Y-73785039D01*
X102753373Y-73866964D01*
X102899365Y-73973033D01*
X103026967Y-74100635D01*
X103133036Y-74246627D01*
X103214961Y-74407414D01*
X103270725Y-74579038D01*
X103298955Y-74757272D01*
X103298955Y-74937728D01*
X103270725Y-75115962D01*
X103214961Y-75287586D01*
X103133036Y-75448373D01*
X103026967Y-75594365D01*
X102899365Y-75721967D01*
X102753373Y-75828036D01*
X102592586Y-75909961D01*
X102420962Y-75965725D01*
X102242728Y-75993955D01*
X102062272Y-75993955D01*
X101884038Y-75965725D01*
X101712414Y-75909961D01*
X101551627Y-75828036D01*
X101405635Y-75721967D01*
X101278033Y-75594365D01*
X101171964Y-75448373D01*
X101090039Y-75287586D01*
X101034275Y-75115962D01*
X101006045Y-74937728D01*
X101006045Y-74757272D01*
X101034275Y-74579038D01*
X101090039Y-74407414D01*
X101171964Y-74246627D01*
X101278033Y-74100635D01*
X101405635Y-73973033D01*
X101551627Y-73866964D01*
X101712414Y-73785039D01*
X101884038Y-73729275D01*
X102062272Y-73701045D01*
X102242728Y-73701045D01*
X102420962Y-73729275D01*
G37*
G36*
X121470962Y-73729275D02*
G01*
X121642586Y-73785039D01*
X121803373Y-73866964D01*
X121949365Y-73973033D01*
X122076967Y-74100635D01*
X122183036Y-74246627D01*
X122264961Y-74407414D01*
X122320725Y-74579038D01*
X122348955Y-74757272D01*
X122348955Y-74937728D01*
X122320725Y-75115962D01*
X122264961Y-75287586D01*
X122183036Y-75448373D01*
X122076967Y-75594365D01*
X121949365Y-75721967D01*
X121803373Y-75828036D01*
X121642586Y-75909961D01*
X121470962Y-75965725D01*
X121292728Y-75993955D01*
X121112272Y-75993955D01*
X120934038Y-75965725D01*
X120762414Y-75909961D01*
X120601627Y-75828036D01*
X120455635Y-75721967D01*
X120328033Y-75594365D01*
X120221964Y-75448373D01*
X120140039Y-75287586D01*
X120084275Y-75115962D01*
X120056045Y-74937728D01*
X120056045Y-74757272D01*
X120084275Y-74579038D01*
X120140039Y-74407414D01*
X120221964Y-74246627D01*
X120328033Y-74100635D01*
X120455635Y-73973033D01*
X120601627Y-73866964D01*
X120762414Y-73785039D01*
X120934038Y-73729275D01*
X121112272Y-73701045D01*
X121292728Y-73701045D01*
X121470962Y-73729275D01*
G37*
G36*
X140520962Y-73729275D02*
G01*
X140692586Y-73785039D01*
X140853373Y-73866964D01*
X140999365Y-73973033D01*
X141126967Y-74100635D01*
X141233036Y-74246627D01*
X141314961Y-74407414D01*
X141370725Y-74579038D01*
X141398955Y-74757272D01*
X141398955Y-74937728D01*
X141370725Y-75115962D01*
X141314961Y-75287586D01*
X141233036Y-75448373D01*
X141126967Y-75594365D01*
X140999365Y-75721967D01*
X140853373Y-75828036D01*
X140692586Y-75909961D01*
X140520962Y-75965725D01*
X140342728Y-75993955D01*
X140162272Y-75993955D01*
X139984038Y-75965725D01*
X139812414Y-75909961D01*
X139651627Y-75828036D01*
X139505635Y-75721967D01*
X139378033Y-75594365D01*
X139271964Y-75448373D01*
X139190039Y-75287586D01*
X139134275Y-75115962D01*
X139106045Y-74937728D01*
X139106045Y-74757272D01*
X139134275Y-74579038D01*
X139190039Y-74407414D01*
X139271964Y-74246627D01*
X139378033Y-74100635D01*
X139505635Y-73973033D01*
X139651627Y-73866964D01*
X139812414Y-73785039D01*
X139984038Y-73729275D01*
X140162272Y-73701045D01*
X140342728Y-73701045D01*
X140520962Y-73729275D01*
G37*
G36*
X159570962Y-73729275D02*
G01*
X159742586Y-73785039D01*
X159903373Y-73866964D01*
X160049365Y-73973033D01*
X160176967Y-74100635D01*
X160283036Y-74246627D01*
X160364961Y-74407414D01*
X160420725Y-74579038D01*
X160448955Y-74757272D01*
X160448955Y-74937728D01*
X160420725Y-75115962D01*
X160364961Y-75287586D01*
X160283036Y-75448373D01*
X160176967Y-75594365D01*
X160049365Y-75721967D01*
X159903373Y-75828036D01*
X159742586Y-75909961D01*
X159570962Y-75965725D01*
X159392728Y-75993955D01*
X159212272Y-75993955D01*
X159034038Y-75965725D01*
X158862414Y-75909961D01*
X158701627Y-75828036D01*
X158555635Y-75721967D01*
X158428033Y-75594365D01*
X158321964Y-75448373D01*
X158240039Y-75287586D01*
X158184275Y-75115962D01*
X158156045Y-74937728D01*
X158156045Y-74757272D01*
X158184275Y-74579038D01*
X158240039Y-74407414D01*
X158321964Y-74246627D01*
X158428033Y-74100635D01*
X158555635Y-73973033D01*
X158701627Y-73866964D01*
X158862414Y-73785039D01*
X159034038Y-73729275D01*
X159212272Y-73701045D01*
X159392728Y-73701045D01*
X159570962Y-73729275D01*
G37*
G36*
X178620962Y-73729275D02*
G01*
X178792586Y-73785039D01*
X178953373Y-73866964D01*
X179099365Y-73973033D01*
X179226967Y-74100635D01*
X179333036Y-74246627D01*
X179414961Y-74407414D01*
X179470725Y-74579038D01*
X179498955Y-74757272D01*
X179498955Y-74937728D01*
X179470725Y-75115962D01*
X179414961Y-75287586D01*
X179333036Y-75448373D01*
X179226967Y-75594365D01*
X179099365Y-75721967D01*
X178953373Y-75828036D01*
X178792586Y-75909961D01*
X178620962Y-75965725D01*
X178442728Y-75993955D01*
X178262272Y-75993955D01*
X178084038Y-75965725D01*
X177912414Y-75909961D01*
X177751627Y-75828036D01*
X177605635Y-75721967D01*
X177478033Y-75594365D01*
X177371964Y-75448373D01*
X177290039Y-75287586D01*
X177234275Y-75115962D01*
X177206045Y-74937728D01*
X177206045Y-74757272D01*
X177234275Y-74579038D01*
X177290039Y-74407414D01*
X177371964Y-74246627D01*
X177478033Y-74100635D01*
X177605635Y-73973033D01*
X177751627Y-73866964D01*
X177912414Y-73785039D01*
X178084038Y-73729275D01*
X178262272Y-73701045D01*
X178442728Y-73701045D01*
X178620962Y-73729275D01*
G37*
G36*
X197670962Y-73729275D02*
G01*
X197842586Y-73785039D01*
X198003373Y-73866964D01*
X198149365Y-73973033D01*
X198276967Y-74100635D01*
X198383036Y-74246627D01*
X198464961Y-74407414D01*
X198520725Y-74579038D01*
X198548955Y-74757272D01*
X198548955Y-74937728D01*
X198520725Y-75115962D01*
X198464961Y-75287586D01*
X198383036Y-75448373D01*
X198276967Y-75594365D01*
X198149365Y-75721967D01*
X198003373Y-75828036D01*
X197842586Y-75909961D01*
X197670962Y-75965725D01*
X197492728Y-75993955D01*
X197312272Y-75993955D01*
X197134038Y-75965725D01*
X196962414Y-75909961D01*
X196801627Y-75828036D01*
X196655635Y-75721967D01*
X196528033Y-75594365D01*
X196421964Y-75448373D01*
X196340039Y-75287586D01*
X196284275Y-75115962D01*
X196256045Y-74937728D01*
X196256045Y-74757272D01*
X196284275Y-74579038D01*
X196340039Y-74407414D01*
X196421964Y-74246627D01*
X196528033Y-74100635D01*
X196655635Y-73973033D01*
X196801627Y-73866964D01*
X196962414Y-73785039D01*
X197134038Y-73729275D01*
X197312272Y-73701045D01*
X197492728Y-73701045D01*
X197670962Y-73729275D01*
G37*
G36*
X216720962Y-73729275D02*
G01*
X216892586Y-73785039D01*
X217053373Y-73866964D01*
X217199365Y-73973033D01*
X217326967Y-74100635D01*
X217433036Y-74246627D01*
X217514961Y-74407414D01*
X217570725Y-74579038D01*
X217598955Y-74757272D01*
X217598955Y-74937728D01*
X217570725Y-75115962D01*
X217514961Y-75287586D01*
X217433036Y-75448373D01*
X217326967Y-75594365D01*
X217199365Y-75721967D01*
X217053373Y-75828036D01*
X216892586Y-75909961D01*
X216720962Y-75965725D01*
X216542728Y-75993955D01*
X216362272Y-75993955D01*
X216184038Y-75965725D01*
X216012414Y-75909961D01*
X215851627Y-75828036D01*
X215705635Y-75721967D01*
X215578033Y-75594365D01*
X215471964Y-75448373D01*
X215390039Y-75287586D01*
X215334275Y-75115962D01*
X215306045Y-74937728D01*
X215306045Y-74757272D01*
X215334275Y-74579038D01*
X215390039Y-74407414D01*
X215471964Y-74246627D01*
X215578033Y-74100635D01*
X215705635Y-73973033D01*
X215851627Y-73866964D01*
X216012414Y-73785039D01*
X216184038Y-73729275D01*
X216362272Y-73701045D01*
X216542728Y-73701045D01*
X216720962Y-73729275D01*
G37*
G36*
X235770962Y-73729275D02*
G01*
X235942586Y-73785039D01*
X236103373Y-73866964D01*
X236249365Y-73973033D01*
X236376967Y-74100635D01*
X236483036Y-74246627D01*
X236564961Y-74407414D01*
X236620725Y-74579038D01*
X236648955Y-74757272D01*
X236648955Y-74937728D01*
X236620725Y-75115962D01*
X236564961Y-75287586D01*
X236483036Y-75448373D01*
X236376967Y-75594365D01*
X236249365Y-75721967D01*
X236103373Y-75828036D01*
X235942586Y-75909961D01*
X235770962Y-75965725D01*
X235592728Y-75993955D01*
X235412272Y-75993955D01*
X235234038Y-75965725D01*
X235062414Y-75909961D01*
X234901627Y-75828036D01*
X234755635Y-75721967D01*
X234628033Y-75594365D01*
X234521964Y-75448373D01*
X234440039Y-75287586D01*
X234384275Y-75115962D01*
X234356045Y-74937728D01*
X234356045Y-74757272D01*
X234384275Y-74579038D01*
X234440039Y-74407414D01*
X234521964Y-74246627D01*
X234628033Y-74100635D01*
X234755635Y-73973033D01*
X234901627Y-73866964D01*
X235062414Y-73785039D01*
X235234038Y-73729275D01*
X235412272Y-73701045D01*
X235592728Y-73701045D01*
X235770962Y-73729275D01*
G37*
G36*
X254820962Y-73729275D02*
G01*
X254992586Y-73785039D01*
X255153373Y-73866964D01*
X255299365Y-73973033D01*
X255426967Y-74100635D01*
X255533036Y-74246627D01*
X255614961Y-74407414D01*
X255670725Y-74579038D01*
X255698955Y-74757272D01*
X255698955Y-74937728D01*
X255670725Y-75115962D01*
X255614961Y-75287586D01*
X255533036Y-75448373D01*
X255426967Y-75594365D01*
X255299365Y-75721967D01*
X255153373Y-75828036D01*
X254992586Y-75909961D01*
X254820962Y-75965725D01*
X254642728Y-75993955D01*
X254462272Y-75993955D01*
X254284038Y-75965725D01*
X254112414Y-75909961D01*
X253951627Y-75828036D01*
X253805635Y-75721967D01*
X253678033Y-75594365D01*
X253571964Y-75448373D01*
X253490039Y-75287586D01*
X253434275Y-75115962D01*
X253406045Y-74937728D01*
X253406045Y-74757272D01*
X253434275Y-74579038D01*
X253490039Y-74407414D01*
X253571964Y-74246627D01*
X253678033Y-74100635D01*
X253805635Y-73973033D01*
X253951627Y-73866964D01*
X254112414Y-73785039D01*
X254284038Y-73729275D01*
X254462272Y-73701045D01*
X254642728Y-73701045D01*
X254820962Y-73729275D01*
G37*
G36*
X273870962Y-73729275D02*
G01*
X274042586Y-73785039D01*
X274203373Y-73866964D01*
X274349365Y-73973033D01*
X274476967Y-74100635D01*
X274583036Y-74246627D01*
X274664961Y-74407414D01*
X274720725Y-74579038D01*
X274748955Y-74757272D01*
X274748955Y-74937728D01*
X274720725Y-75115962D01*
X274664961Y-75287586D01*
X274583036Y-75448373D01*
X274476967Y-75594365D01*
X274349365Y-75721967D01*
X274203373Y-75828036D01*
X274042586Y-75909961D01*
X273870962Y-75965725D01*
X273692728Y-75993955D01*
X273512272Y-75993955D01*
X273334038Y-75965725D01*
X273162414Y-75909961D01*
X273001627Y-75828036D01*
X272855635Y-75721967D01*
X272728033Y-75594365D01*
X272621964Y-75448373D01*
X272540039Y-75287586D01*
X272484275Y-75115962D01*
X272456045Y-74937728D01*
X272456045Y-74757272D01*
X272484275Y-74579038D01*
X272540039Y-74407414D01*
X272621964Y-74246627D01*
X272728033Y-74100635D01*
X272855635Y-73973033D01*
X273001627Y-73866964D01*
X273162414Y-73785039D01*
X273334038Y-73729275D01*
X273512272Y-73701045D01*
X273692728Y-73701045D01*
X273870962Y-73729275D01*
G37*
G36*
X322638962Y-73729275D02*
G01*
X322810586Y-73785039D01*
X322971373Y-73866964D01*
X323117365Y-73973033D01*
X323244967Y-74100635D01*
X323351036Y-74246627D01*
X323432961Y-74407414D01*
X323488725Y-74579038D01*
X323516955Y-74757272D01*
X323516955Y-74937728D01*
X323488725Y-75115962D01*
X323432961Y-75287586D01*
X323351036Y-75448373D01*
X323244967Y-75594365D01*
X323117365Y-75721967D01*
X322971373Y-75828036D01*
X322810586Y-75909961D01*
X322638962Y-75965725D01*
X322460728Y-75993955D01*
X322280272Y-75993955D01*
X322102038Y-75965725D01*
X321930414Y-75909961D01*
X321769627Y-75828036D01*
X321623635Y-75721967D01*
X321496033Y-75594365D01*
X321389964Y-75448373D01*
X321308039Y-75287586D01*
X321252275Y-75115962D01*
X321224045Y-74937728D01*
X321224045Y-74757272D01*
X321252275Y-74579038D01*
X321308039Y-74407414D01*
X321389964Y-74246627D01*
X321496033Y-74100635D01*
X321623635Y-73973033D01*
X321769627Y-73866964D01*
X321930414Y-73785039D01*
X322102038Y-73729275D01*
X322280272Y-73701045D01*
X322460728Y-73701045D01*
X322638962Y-73729275D01*
G37*
G36*
X341688962Y-73729275D02*
G01*
X341860586Y-73785039D01*
X342021373Y-73866964D01*
X342167365Y-73973033D01*
X342294967Y-74100635D01*
X342401036Y-74246627D01*
X342482961Y-74407414D01*
X342538725Y-74579038D01*
X342566955Y-74757272D01*
X342566955Y-74937728D01*
X342538725Y-75115962D01*
X342482961Y-75287586D01*
X342401036Y-75448373D01*
X342294967Y-75594365D01*
X342167365Y-75721967D01*
X342021373Y-75828036D01*
X341860586Y-75909961D01*
X341688962Y-75965725D01*
X341510728Y-75993955D01*
X341330272Y-75993955D01*
X341152038Y-75965725D01*
X340980414Y-75909961D01*
X340819627Y-75828036D01*
X340673635Y-75721967D01*
X340546033Y-75594365D01*
X340439964Y-75448373D01*
X340358039Y-75287586D01*
X340302275Y-75115962D01*
X340274045Y-74937728D01*
X340274045Y-74757272D01*
X340302275Y-74579038D01*
X340358039Y-74407414D01*
X340439964Y-74246627D01*
X340546033Y-74100635D01*
X340673635Y-73973033D01*
X340819627Y-73866964D01*
X340980414Y-73785039D01*
X341152038Y-73729275D01*
X341330272Y-73701045D01*
X341510728Y-73701045D01*
X341688962Y-73729275D01*
G37*
G36*
X44477262Y-71189275D02*
G01*
X44648886Y-71245039D01*
X44809673Y-71326964D01*
X44955665Y-71433033D01*
X45083267Y-71560635D01*
X45189336Y-71706627D01*
X45271261Y-71867414D01*
X45327025Y-72039038D01*
X45355255Y-72217272D01*
X45355255Y-72397728D01*
X45327025Y-72575962D01*
X45271261Y-72747586D01*
X45189336Y-72908373D01*
X45083267Y-73054365D01*
X44955665Y-73181967D01*
X44809673Y-73288036D01*
X44648886Y-73369961D01*
X44477262Y-73425725D01*
X44299028Y-73453955D01*
X44118572Y-73453955D01*
X43940338Y-73425725D01*
X43768714Y-73369961D01*
X43607927Y-73288036D01*
X43461935Y-73181967D01*
X43334333Y-73054365D01*
X43228264Y-72908373D01*
X43146339Y-72747586D01*
X43090575Y-72575962D01*
X43062345Y-72397728D01*
X43062345Y-72217272D01*
X43090575Y-72039038D01*
X43146339Y-71867414D01*
X43228264Y-71706627D01*
X43334333Y-71560635D01*
X43461935Y-71433033D01*
X43607927Y-71326964D01*
X43768714Y-71245039D01*
X43940338Y-71189275D01*
X44118572Y-71161045D01*
X44299028Y-71161045D01*
X44477262Y-71189275D01*
G37*
G36*
X70670962Y-71189275D02*
G01*
X70842586Y-71245039D01*
X71003373Y-71326964D01*
X71149365Y-71433033D01*
X71276967Y-71560635D01*
X71383036Y-71706627D01*
X71464961Y-71867414D01*
X71520725Y-72039038D01*
X71548955Y-72217272D01*
X71548955Y-72397728D01*
X71520725Y-72575962D01*
X71464961Y-72747586D01*
X71383036Y-72908373D01*
X71276967Y-73054365D01*
X71149365Y-73181967D01*
X71003373Y-73288036D01*
X70842586Y-73369961D01*
X70670962Y-73425725D01*
X70492728Y-73453955D01*
X70312272Y-73453955D01*
X70134038Y-73425725D01*
X69962414Y-73369961D01*
X69801627Y-73288036D01*
X69655635Y-73181967D01*
X69528033Y-73054365D01*
X69421964Y-72908373D01*
X69340039Y-72747586D01*
X69284275Y-72575962D01*
X69256045Y-72397728D01*
X69256045Y-72217272D01*
X69284275Y-72039038D01*
X69340039Y-71867414D01*
X69421964Y-71706627D01*
X69528033Y-71560635D01*
X69655635Y-71433033D01*
X69801627Y-71326964D01*
X69962414Y-71245039D01*
X70134038Y-71189275D01*
X70312272Y-71161045D01*
X70492728Y-71161045D01*
X70670962Y-71189275D01*
G37*
G36*
X89720962Y-71189275D02*
G01*
X89892586Y-71245039D01*
X90053373Y-71326964D01*
X90199365Y-71433033D01*
X90326967Y-71560635D01*
X90433036Y-71706627D01*
X90514961Y-71867414D01*
X90570725Y-72039038D01*
X90598955Y-72217272D01*
X90598955Y-72397728D01*
X90570725Y-72575962D01*
X90514961Y-72747586D01*
X90433036Y-72908373D01*
X90326967Y-73054365D01*
X90199365Y-73181967D01*
X90053373Y-73288036D01*
X89892586Y-73369961D01*
X89720962Y-73425725D01*
X89542728Y-73453955D01*
X89362272Y-73453955D01*
X89184038Y-73425725D01*
X89012414Y-73369961D01*
X88851627Y-73288036D01*
X88705635Y-73181967D01*
X88578033Y-73054365D01*
X88471964Y-72908373D01*
X88390039Y-72747586D01*
X88334275Y-72575962D01*
X88306045Y-72397728D01*
X88306045Y-72217272D01*
X88334275Y-72039038D01*
X88390039Y-71867414D01*
X88471964Y-71706627D01*
X88578033Y-71560635D01*
X88705635Y-71433033D01*
X88851627Y-71326964D01*
X89012414Y-71245039D01*
X89184038Y-71189275D01*
X89362272Y-71161045D01*
X89542728Y-71161045D01*
X89720962Y-71189275D01*
G37*
G36*
X108770962Y-71189275D02*
G01*
X108942586Y-71245039D01*
X109103373Y-71326964D01*
X109249365Y-71433033D01*
X109376967Y-71560635D01*
X109483036Y-71706627D01*
X109564961Y-71867414D01*
X109620725Y-72039038D01*
X109648955Y-72217272D01*
X109648955Y-72397728D01*
X109620725Y-72575962D01*
X109564961Y-72747586D01*
X109483036Y-72908373D01*
X109376967Y-73054365D01*
X109249365Y-73181967D01*
X109103373Y-73288036D01*
X108942586Y-73369961D01*
X108770962Y-73425725D01*
X108592728Y-73453955D01*
X108412272Y-73453955D01*
X108234038Y-73425725D01*
X108062414Y-73369961D01*
X107901627Y-73288036D01*
X107755635Y-73181967D01*
X107628033Y-73054365D01*
X107521964Y-72908373D01*
X107440039Y-72747586D01*
X107384275Y-72575962D01*
X107356045Y-72397728D01*
X107356045Y-72217272D01*
X107384275Y-72039038D01*
X107440039Y-71867414D01*
X107521964Y-71706627D01*
X107628033Y-71560635D01*
X107755635Y-71433033D01*
X107901627Y-71326964D01*
X108062414Y-71245039D01*
X108234038Y-71189275D01*
X108412272Y-71161045D01*
X108592728Y-71161045D01*
X108770962Y-71189275D01*
G37*
G36*
X127820962Y-71189275D02*
G01*
X127992586Y-71245039D01*
X128153373Y-71326964D01*
X128299365Y-71433033D01*
X128426967Y-71560635D01*
X128533036Y-71706627D01*
X128614961Y-71867414D01*
X128670725Y-72039038D01*
X128698955Y-72217272D01*
X128698955Y-72397728D01*
X128670725Y-72575962D01*
X128614961Y-72747586D01*
X128533036Y-72908373D01*
X128426967Y-73054365D01*
X128299365Y-73181967D01*
X128153373Y-73288036D01*
X127992586Y-73369961D01*
X127820962Y-73425725D01*
X127642728Y-73453955D01*
X127462272Y-73453955D01*
X127284038Y-73425725D01*
X127112414Y-73369961D01*
X126951627Y-73288036D01*
X126805635Y-73181967D01*
X126678033Y-73054365D01*
X126571964Y-72908373D01*
X126490039Y-72747586D01*
X126434275Y-72575962D01*
X126406045Y-72397728D01*
X126406045Y-72217272D01*
X126434275Y-72039038D01*
X126490039Y-71867414D01*
X126571964Y-71706627D01*
X126678033Y-71560635D01*
X126805635Y-71433033D01*
X126951627Y-71326964D01*
X127112414Y-71245039D01*
X127284038Y-71189275D01*
X127462272Y-71161045D01*
X127642728Y-71161045D01*
X127820962Y-71189275D01*
G37*
G36*
X146870962Y-71189275D02*
G01*
X147042586Y-71245039D01*
X147203373Y-71326964D01*
X147349365Y-71433033D01*
X147476967Y-71560635D01*
X147583036Y-71706627D01*
X147664961Y-71867414D01*
X147720725Y-72039038D01*
X147748955Y-72217272D01*
X147748955Y-72397728D01*
X147720725Y-72575962D01*
X147664961Y-72747586D01*
X147583036Y-72908373D01*
X147476967Y-73054365D01*
X147349365Y-73181967D01*
X147203373Y-73288036D01*
X147042586Y-73369961D01*
X146870962Y-73425725D01*
X146692728Y-73453955D01*
X146512272Y-73453955D01*
X146334038Y-73425725D01*
X146162414Y-73369961D01*
X146001627Y-73288036D01*
X145855635Y-73181967D01*
X145728033Y-73054365D01*
X145621964Y-72908373D01*
X145540039Y-72747586D01*
X145484275Y-72575962D01*
X145456045Y-72397728D01*
X145456045Y-72217272D01*
X145484275Y-72039038D01*
X145540039Y-71867414D01*
X145621964Y-71706627D01*
X145728033Y-71560635D01*
X145855635Y-71433033D01*
X146001627Y-71326964D01*
X146162414Y-71245039D01*
X146334038Y-71189275D01*
X146512272Y-71161045D01*
X146692728Y-71161045D01*
X146870962Y-71189275D01*
G37*
G36*
X165920962Y-71189275D02*
G01*
X166092586Y-71245039D01*
X166253373Y-71326964D01*
X166399365Y-71433033D01*
X166526967Y-71560635D01*
X166633036Y-71706627D01*
X166714961Y-71867414D01*
X166770725Y-72039038D01*
X166798955Y-72217272D01*
X166798955Y-72397728D01*
X166770725Y-72575962D01*
X166714961Y-72747586D01*
X166633036Y-72908373D01*
X166526967Y-73054365D01*
X166399365Y-73181967D01*
X166253373Y-73288036D01*
X166092586Y-73369961D01*
X165920962Y-73425725D01*
X165742728Y-73453955D01*
X165562272Y-73453955D01*
X165384038Y-73425725D01*
X165212414Y-73369961D01*
X165051627Y-73288036D01*
X164905635Y-73181967D01*
X164778033Y-73054365D01*
X164671964Y-72908373D01*
X164590039Y-72747586D01*
X164534275Y-72575962D01*
X164506045Y-72397728D01*
X164506045Y-72217272D01*
X164534275Y-72039038D01*
X164590039Y-71867414D01*
X164671964Y-71706627D01*
X164778033Y-71560635D01*
X164905635Y-71433033D01*
X165051627Y-71326964D01*
X165212414Y-71245039D01*
X165384038Y-71189275D01*
X165562272Y-71161045D01*
X165742728Y-71161045D01*
X165920962Y-71189275D01*
G37*
G36*
X184970962Y-71189275D02*
G01*
X185142586Y-71245039D01*
X185303373Y-71326964D01*
X185449365Y-71433033D01*
X185576967Y-71560635D01*
X185683036Y-71706627D01*
X185764961Y-71867414D01*
X185820725Y-72039038D01*
X185848955Y-72217272D01*
X185848955Y-72397728D01*
X185820725Y-72575962D01*
X185764961Y-72747586D01*
X185683036Y-72908373D01*
X185576967Y-73054365D01*
X185449365Y-73181967D01*
X185303373Y-73288036D01*
X185142586Y-73369961D01*
X184970962Y-73425725D01*
X184792728Y-73453955D01*
X184612272Y-73453955D01*
X184434038Y-73425725D01*
X184262414Y-73369961D01*
X184101627Y-73288036D01*
X183955635Y-73181967D01*
X183828033Y-73054365D01*
X183721964Y-72908373D01*
X183640039Y-72747586D01*
X183584275Y-72575962D01*
X183556045Y-72397728D01*
X183556045Y-72217272D01*
X183584275Y-72039038D01*
X183640039Y-71867414D01*
X183721964Y-71706627D01*
X183828033Y-71560635D01*
X183955635Y-71433033D01*
X184101627Y-71326964D01*
X184262414Y-71245039D01*
X184434038Y-71189275D01*
X184612272Y-71161045D01*
X184792728Y-71161045D01*
X184970962Y-71189275D01*
G37*
G36*
X204020962Y-71189275D02*
G01*
X204192586Y-71245039D01*
X204353373Y-71326964D01*
X204499365Y-71433033D01*
X204626967Y-71560635D01*
X204733036Y-71706627D01*
X204814961Y-71867414D01*
X204870725Y-72039038D01*
X204898955Y-72217272D01*
X204898955Y-72397728D01*
X204870725Y-72575962D01*
X204814961Y-72747586D01*
X204733036Y-72908373D01*
X204626967Y-73054365D01*
X204499365Y-73181967D01*
X204353373Y-73288036D01*
X204192586Y-73369961D01*
X204020962Y-73425725D01*
X203842728Y-73453955D01*
X203662272Y-73453955D01*
X203484038Y-73425725D01*
X203312414Y-73369961D01*
X203151627Y-73288036D01*
X203005635Y-73181967D01*
X202878033Y-73054365D01*
X202771964Y-72908373D01*
X202690039Y-72747586D01*
X202634275Y-72575962D01*
X202606045Y-72397728D01*
X202606045Y-72217272D01*
X202634275Y-72039038D01*
X202690039Y-71867414D01*
X202771964Y-71706627D01*
X202878033Y-71560635D01*
X203005635Y-71433033D01*
X203151627Y-71326964D01*
X203312414Y-71245039D01*
X203484038Y-71189275D01*
X203662272Y-71161045D01*
X203842728Y-71161045D01*
X204020962Y-71189275D01*
G37*
G36*
X223070962Y-71189275D02*
G01*
X223242586Y-71245039D01*
X223403373Y-71326964D01*
X223549365Y-71433033D01*
X223676967Y-71560635D01*
X223783036Y-71706627D01*
X223864961Y-71867414D01*
X223920725Y-72039038D01*
X223948955Y-72217272D01*
X223948955Y-72397728D01*
X223920725Y-72575962D01*
X223864961Y-72747586D01*
X223783036Y-72908373D01*
X223676967Y-73054365D01*
X223549365Y-73181967D01*
X223403373Y-73288036D01*
X223242586Y-73369961D01*
X223070962Y-73425725D01*
X222892728Y-73453955D01*
X222712272Y-73453955D01*
X222534038Y-73425725D01*
X222362414Y-73369961D01*
X222201627Y-73288036D01*
X222055635Y-73181967D01*
X221928033Y-73054365D01*
X221821964Y-72908373D01*
X221740039Y-72747586D01*
X221684275Y-72575962D01*
X221656045Y-72397728D01*
X221656045Y-72217272D01*
X221684275Y-72039038D01*
X221740039Y-71867414D01*
X221821964Y-71706627D01*
X221928033Y-71560635D01*
X222055635Y-71433033D01*
X222201627Y-71326964D01*
X222362414Y-71245039D01*
X222534038Y-71189275D01*
X222712272Y-71161045D01*
X222892728Y-71161045D01*
X223070962Y-71189275D01*
G37*
G36*
X242120962Y-71189275D02*
G01*
X242292586Y-71245039D01*
X242453373Y-71326964D01*
X242599365Y-71433033D01*
X242726967Y-71560635D01*
X242833036Y-71706627D01*
X242914961Y-71867414D01*
X242970725Y-72039038D01*
X242998955Y-72217272D01*
X242998955Y-72397728D01*
X242970725Y-72575962D01*
X242914961Y-72747586D01*
X242833036Y-72908373D01*
X242726967Y-73054365D01*
X242599365Y-73181967D01*
X242453373Y-73288036D01*
X242292586Y-73369961D01*
X242120962Y-73425725D01*
X241942728Y-73453955D01*
X241762272Y-73453955D01*
X241584038Y-73425725D01*
X241412414Y-73369961D01*
X241251627Y-73288036D01*
X241105635Y-73181967D01*
X240978033Y-73054365D01*
X240871964Y-72908373D01*
X240790039Y-72747586D01*
X240734275Y-72575962D01*
X240706045Y-72397728D01*
X240706045Y-72217272D01*
X240734275Y-72039038D01*
X240790039Y-71867414D01*
X240871964Y-71706627D01*
X240978033Y-71560635D01*
X241105635Y-71433033D01*
X241251627Y-71326964D01*
X241412414Y-71245039D01*
X241584038Y-71189275D01*
X241762272Y-71161045D01*
X241942728Y-71161045D01*
X242120962Y-71189275D01*
G37*
G36*
X261170962Y-71189275D02*
G01*
X261342586Y-71245039D01*
X261503373Y-71326964D01*
X261649365Y-71433033D01*
X261776967Y-71560635D01*
X261883036Y-71706627D01*
X261964961Y-71867414D01*
X262020725Y-72039038D01*
X262048955Y-72217272D01*
X262048955Y-72397728D01*
X262020725Y-72575962D01*
X261964961Y-72747586D01*
X261883036Y-72908373D01*
X261776967Y-73054365D01*
X261649365Y-73181967D01*
X261503373Y-73288036D01*
X261342586Y-73369961D01*
X261170962Y-73425725D01*
X260992728Y-73453955D01*
X260812272Y-73453955D01*
X260634038Y-73425725D01*
X260462414Y-73369961D01*
X260301627Y-73288036D01*
X260155635Y-73181967D01*
X260028033Y-73054365D01*
X259921964Y-72908373D01*
X259840039Y-72747586D01*
X259784275Y-72575962D01*
X259756045Y-72397728D01*
X259756045Y-72217272D01*
X259784275Y-72039038D01*
X259840039Y-71867414D01*
X259921964Y-71706627D01*
X260028033Y-71560635D01*
X260155635Y-71433033D01*
X260301627Y-71326964D01*
X260462414Y-71245039D01*
X260634038Y-71189275D01*
X260812272Y-71161045D01*
X260992728Y-71161045D01*
X261170962Y-71189275D01*
G37*
G36*
X280220962Y-71189275D02*
G01*
X280392586Y-71245039D01*
X280553373Y-71326964D01*
X280699365Y-71433033D01*
X280826967Y-71560635D01*
X280933036Y-71706627D01*
X281014961Y-71867414D01*
X281070725Y-72039038D01*
X281098955Y-72217272D01*
X281098955Y-72397728D01*
X281070725Y-72575962D01*
X281014961Y-72747586D01*
X280933036Y-72908373D01*
X280826967Y-73054365D01*
X280699365Y-73181967D01*
X280553373Y-73288036D01*
X280392586Y-73369961D01*
X280220962Y-73425725D01*
X280042728Y-73453955D01*
X279862272Y-73453955D01*
X279684038Y-73425725D01*
X279512414Y-73369961D01*
X279351627Y-73288036D01*
X279205635Y-73181967D01*
X279078033Y-73054365D01*
X278971964Y-72908373D01*
X278890039Y-72747586D01*
X278834275Y-72575962D01*
X278806045Y-72397728D01*
X278806045Y-72217272D01*
X278834275Y-72039038D01*
X278890039Y-71867414D01*
X278971964Y-71706627D01*
X279078033Y-71560635D01*
X279205635Y-71433033D01*
X279351627Y-71326964D01*
X279512414Y-71245039D01*
X279684038Y-71189275D01*
X279862272Y-71161045D01*
X280042728Y-71161045D01*
X280220962Y-71189275D01*
G37*
G36*
X328988962Y-71189275D02*
G01*
X329160586Y-71245039D01*
X329321373Y-71326964D01*
X329467365Y-71433033D01*
X329594967Y-71560635D01*
X329701036Y-71706627D01*
X329782961Y-71867414D01*
X329838725Y-72039038D01*
X329866955Y-72217272D01*
X329866955Y-72397728D01*
X329838725Y-72575962D01*
X329782961Y-72747586D01*
X329701036Y-72908373D01*
X329594967Y-73054365D01*
X329467365Y-73181967D01*
X329321373Y-73288036D01*
X329160586Y-73369961D01*
X328988962Y-73425725D01*
X328810728Y-73453955D01*
X328630272Y-73453955D01*
X328452038Y-73425725D01*
X328280414Y-73369961D01*
X328119627Y-73288036D01*
X327973635Y-73181967D01*
X327846033Y-73054365D01*
X327739964Y-72908373D01*
X327658039Y-72747586D01*
X327602275Y-72575962D01*
X327574045Y-72397728D01*
X327574045Y-72217272D01*
X327602275Y-72039038D01*
X327658039Y-71867414D01*
X327739964Y-71706627D01*
X327846033Y-71560635D01*
X327973635Y-71433033D01*
X328119627Y-71326964D01*
X328280414Y-71245039D01*
X328452038Y-71189275D01*
X328630272Y-71161045D01*
X328810728Y-71161045D01*
X328988962Y-71189275D01*
G37*
G36*
X348038962Y-71189275D02*
G01*
X348210586Y-71245039D01*
X348371373Y-71326964D01*
X348517365Y-71433033D01*
X348644967Y-71560635D01*
X348751036Y-71706627D01*
X348832961Y-71867414D01*
X348888725Y-72039038D01*
X348916955Y-72217272D01*
X348916955Y-72397728D01*
X348888725Y-72575962D01*
X348832961Y-72747586D01*
X348751036Y-72908373D01*
X348644967Y-73054365D01*
X348517365Y-73181967D01*
X348371373Y-73288036D01*
X348210586Y-73369961D01*
X348038962Y-73425725D01*
X347860728Y-73453955D01*
X347680272Y-73453955D01*
X347502038Y-73425725D01*
X347330414Y-73369961D01*
X347169627Y-73288036D01*
X347023635Y-73181967D01*
X346896033Y-73054365D01*
X346789964Y-72908373D01*
X346708039Y-72747586D01*
X346652275Y-72575962D01*
X346624045Y-72397728D01*
X346624045Y-72217272D01*
X346652275Y-72039038D01*
X346708039Y-71867414D01*
X346789964Y-71706627D01*
X346896033Y-71560635D01*
X347023635Y-71433033D01*
X347169627Y-71326964D01*
X347330414Y-71245039D01*
X347502038Y-71189275D01*
X347680272Y-71161045D01*
X347860728Y-71161045D01*
X348038962Y-71189275D01*
G37*
G36*
X30983462Y-54679275D02*
G01*
X31155086Y-54735039D01*
X31315873Y-54816964D01*
X31461865Y-54923033D01*
X31589467Y-55050635D01*
X31695536Y-55196627D01*
X31777461Y-55357414D01*
X31833225Y-55529038D01*
X31861455Y-55707272D01*
X31861455Y-55887728D01*
X31833225Y-56065962D01*
X31777461Y-56237586D01*
X31695536Y-56398373D01*
X31589467Y-56544365D01*
X31461865Y-56671967D01*
X31315873Y-56778036D01*
X31155086Y-56859961D01*
X30983462Y-56915725D01*
X30805228Y-56943955D01*
X30624772Y-56943955D01*
X30446538Y-56915725D01*
X30274914Y-56859961D01*
X30114127Y-56778036D01*
X29968135Y-56671967D01*
X29840533Y-56544365D01*
X29734464Y-56398373D01*
X29652539Y-56237586D01*
X29596775Y-56065962D01*
X29568545Y-55887728D01*
X29568545Y-55707272D01*
X29596775Y-55529038D01*
X29652539Y-55357414D01*
X29734464Y-55196627D01*
X29840533Y-55050635D01*
X29968135Y-54923033D01*
X30114127Y-54816964D01*
X30274914Y-54735039D01*
X30446538Y-54679275D01*
X30624772Y-54651045D01*
X30805228Y-54651045D01*
X30983462Y-54679275D01*
G37*
G36*
X50033462Y-54679275D02*
G01*
X50205086Y-54735039D01*
X50365873Y-54816964D01*
X50511865Y-54923033D01*
X50639467Y-55050635D01*
X50745536Y-55196627D01*
X50827461Y-55357414D01*
X50883225Y-55529038D01*
X50911455Y-55707272D01*
X50911455Y-55887728D01*
X50883225Y-56065962D01*
X50827461Y-56237586D01*
X50745536Y-56398373D01*
X50639467Y-56544365D01*
X50511865Y-56671967D01*
X50365873Y-56778036D01*
X50205086Y-56859961D01*
X50033462Y-56915725D01*
X49855228Y-56943955D01*
X49674772Y-56943955D01*
X49496538Y-56915725D01*
X49324914Y-56859961D01*
X49164127Y-56778036D01*
X49018135Y-56671967D01*
X48890533Y-56544365D01*
X48784464Y-56398373D01*
X48702539Y-56237586D01*
X48646775Y-56065962D01*
X48618545Y-55887728D01*
X48618545Y-55707272D01*
X48646775Y-55529038D01*
X48702539Y-55357414D01*
X48784464Y-55196627D01*
X48890533Y-55050635D01*
X49018135Y-54923033D01*
X49164127Y-54816964D01*
X49324914Y-54735039D01*
X49496538Y-54679275D01*
X49674772Y-54651045D01*
X49855228Y-54651045D01*
X50033462Y-54679275D01*
G37*
G36*
X69083462Y-54679275D02*
G01*
X69255086Y-54735039D01*
X69415873Y-54816964D01*
X69561865Y-54923033D01*
X69689467Y-55050635D01*
X69795536Y-55196627D01*
X69877461Y-55357414D01*
X69933225Y-55529038D01*
X69961455Y-55707272D01*
X69961455Y-55887728D01*
X69933225Y-56065962D01*
X69877461Y-56237586D01*
X69795536Y-56398373D01*
X69689467Y-56544365D01*
X69561865Y-56671967D01*
X69415873Y-56778036D01*
X69255086Y-56859961D01*
X69083462Y-56915725D01*
X68905228Y-56943955D01*
X68724772Y-56943955D01*
X68546538Y-56915725D01*
X68374914Y-56859961D01*
X68214127Y-56778036D01*
X68068135Y-56671967D01*
X67940533Y-56544365D01*
X67834464Y-56398373D01*
X67752539Y-56237586D01*
X67696775Y-56065962D01*
X67668545Y-55887728D01*
X67668545Y-55707272D01*
X67696775Y-55529038D01*
X67752539Y-55357414D01*
X67834464Y-55196627D01*
X67940533Y-55050635D01*
X68068135Y-54923033D01*
X68214127Y-54816964D01*
X68374914Y-54735039D01*
X68546538Y-54679275D01*
X68724772Y-54651045D01*
X68905228Y-54651045D01*
X69083462Y-54679275D01*
G37*
G36*
X88133462Y-54679275D02*
G01*
X88305086Y-54735039D01*
X88465873Y-54816964D01*
X88611865Y-54923033D01*
X88739467Y-55050635D01*
X88845536Y-55196627D01*
X88927461Y-55357414D01*
X88983225Y-55529038D01*
X89011455Y-55707272D01*
X89011455Y-55887728D01*
X88983225Y-56065962D01*
X88927461Y-56237586D01*
X88845536Y-56398373D01*
X88739467Y-56544365D01*
X88611865Y-56671967D01*
X88465873Y-56778036D01*
X88305086Y-56859961D01*
X88133462Y-56915725D01*
X87955228Y-56943955D01*
X87774772Y-56943955D01*
X87596538Y-56915725D01*
X87424914Y-56859961D01*
X87264127Y-56778036D01*
X87118135Y-56671967D01*
X86990533Y-56544365D01*
X86884464Y-56398373D01*
X86802539Y-56237586D01*
X86746775Y-56065962D01*
X86718545Y-55887728D01*
X86718545Y-55707272D01*
X86746775Y-55529038D01*
X86802539Y-55357414D01*
X86884464Y-55196627D01*
X86990533Y-55050635D01*
X87118135Y-54923033D01*
X87264127Y-54816964D01*
X87424914Y-54735039D01*
X87596538Y-54679275D01*
X87774772Y-54651045D01*
X87955228Y-54651045D01*
X88133462Y-54679275D01*
G37*
G36*
X107183462Y-54679275D02*
G01*
X107355086Y-54735039D01*
X107515873Y-54816964D01*
X107661865Y-54923033D01*
X107789467Y-55050635D01*
X107895536Y-55196627D01*
X107977461Y-55357414D01*
X108033225Y-55529038D01*
X108061455Y-55707272D01*
X108061455Y-55887728D01*
X108033225Y-56065962D01*
X107977461Y-56237586D01*
X107895536Y-56398373D01*
X107789467Y-56544365D01*
X107661865Y-56671967D01*
X107515873Y-56778036D01*
X107355086Y-56859961D01*
X107183462Y-56915725D01*
X107005228Y-56943955D01*
X106824772Y-56943955D01*
X106646538Y-56915725D01*
X106474914Y-56859961D01*
X106314127Y-56778036D01*
X106168135Y-56671967D01*
X106040533Y-56544365D01*
X105934464Y-56398373D01*
X105852539Y-56237586D01*
X105796775Y-56065962D01*
X105768545Y-55887728D01*
X105768545Y-55707272D01*
X105796775Y-55529038D01*
X105852539Y-55357414D01*
X105934464Y-55196627D01*
X106040533Y-55050635D01*
X106168135Y-54923033D01*
X106314127Y-54816964D01*
X106474914Y-54735039D01*
X106646538Y-54679275D01*
X106824772Y-54651045D01*
X107005228Y-54651045D01*
X107183462Y-54679275D01*
G37*
G36*
X126233462Y-54679275D02*
G01*
X126405086Y-54735039D01*
X126565873Y-54816964D01*
X126711865Y-54923033D01*
X126839467Y-55050635D01*
X126945536Y-55196627D01*
X127027461Y-55357414D01*
X127083225Y-55529038D01*
X127111455Y-55707272D01*
X127111455Y-55887728D01*
X127083225Y-56065962D01*
X127027461Y-56237586D01*
X126945536Y-56398373D01*
X126839467Y-56544365D01*
X126711865Y-56671967D01*
X126565873Y-56778036D01*
X126405086Y-56859961D01*
X126233462Y-56915725D01*
X126055228Y-56943955D01*
X125874772Y-56943955D01*
X125696538Y-56915725D01*
X125524914Y-56859961D01*
X125364127Y-56778036D01*
X125218135Y-56671967D01*
X125090533Y-56544365D01*
X124984464Y-56398373D01*
X124902539Y-56237586D01*
X124846775Y-56065962D01*
X124818545Y-55887728D01*
X124818545Y-55707272D01*
X124846775Y-55529038D01*
X124902539Y-55357414D01*
X124984464Y-55196627D01*
X125090533Y-55050635D01*
X125218135Y-54923033D01*
X125364127Y-54816964D01*
X125524914Y-54735039D01*
X125696538Y-54679275D01*
X125874772Y-54651045D01*
X126055228Y-54651045D01*
X126233462Y-54679275D01*
G37*
G36*
X145283462Y-54679275D02*
G01*
X145455086Y-54735039D01*
X145615873Y-54816964D01*
X145761865Y-54923033D01*
X145889467Y-55050635D01*
X145995536Y-55196627D01*
X146077461Y-55357414D01*
X146133225Y-55529038D01*
X146161455Y-55707272D01*
X146161455Y-55887728D01*
X146133225Y-56065962D01*
X146077461Y-56237586D01*
X145995536Y-56398373D01*
X145889467Y-56544365D01*
X145761865Y-56671967D01*
X145615873Y-56778036D01*
X145455086Y-56859961D01*
X145283462Y-56915725D01*
X145105228Y-56943955D01*
X144924772Y-56943955D01*
X144746538Y-56915725D01*
X144574914Y-56859961D01*
X144414127Y-56778036D01*
X144268135Y-56671967D01*
X144140533Y-56544365D01*
X144034464Y-56398373D01*
X143952539Y-56237586D01*
X143896775Y-56065962D01*
X143868545Y-55887728D01*
X143868545Y-55707272D01*
X143896775Y-55529038D01*
X143952539Y-55357414D01*
X144034464Y-55196627D01*
X144140533Y-55050635D01*
X144268135Y-54923033D01*
X144414127Y-54816964D01*
X144574914Y-54735039D01*
X144746538Y-54679275D01*
X144924772Y-54651045D01*
X145105228Y-54651045D01*
X145283462Y-54679275D01*
G37*
G36*
X164333462Y-54679275D02*
G01*
X164505086Y-54735039D01*
X164665873Y-54816964D01*
X164811865Y-54923033D01*
X164939467Y-55050635D01*
X165045536Y-55196627D01*
X165127461Y-55357414D01*
X165183225Y-55529038D01*
X165211455Y-55707272D01*
X165211455Y-55887728D01*
X165183225Y-56065962D01*
X165127461Y-56237586D01*
X165045536Y-56398373D01*
X164939467Y-56544365D01*
X164811865Y-56671967D01*
X164665873Y-56778036D01*
X164505086Y-56859961D01*
X164333462Y-56915725D01*
X164155228Y-56943955D01*
X163974772Y-56943955D01*
X163796538Y-56915725D01*
X163624914Y-56859961D01*
X163464127Y-56778036D01*
X163318135Y-56671967D01*
X163190533Y-56544365D01*
X163084464Y-56398373D01*
X163002539Y-56237586D01*
X162946775Y-56065962D01*
X162918545Y-55887728D01*
X162918545Y-55707272D01*
X162946775Y-55529038D01*
X163002539Y-55357414D01*
X163084464Y-55196627D01*
X163190533Y-55050635D01*
X163318135Y-54923033D01*
X163464127Y-54816964D01*
X163624914Y-54735039D01*
X163796538Y-54679275D01*
X163974772Y-54651045D01*
X164155228Y-54651045D01*
X164333462Y-54679275D01*
G37*
G36*
X183383462Y-54679275D02*
G01*
X183555086Y-54735039D01*
X183715873Y-54816964D01*
X183861865Y-54923033D01*
X183989467Y-55050635D01*
X184095536Y-55196627D01*
X184177461Y-55357414D01*
X184233225Y-55529038D01*
X184261455Y-55707272D01*
X184261455Y-55887728D01*
X184233225Y-56065962D01*
X184177461Y-56237586D01*
X184095536Y-56398373D01*
X183989467Y-56544365D01*
X183861865Y-56671967D01*
X183715873Y-56778036D01*
X183555086Y-56859961D01*
X183383462Y-56915725D01*
X183205228Y-56943955D01*
X183024772Y-56943955D01*
X182846538Y-56915725D01*
X182674914Y-56859961D01*
X182514127Y-56778036D01*
X182368135Y-56671967D01*
X182240533Y-56544365D01*
X182134464Y-56398373D01*
X182052539Y-56237586D01*
X181996775Y-56065962D01*
X181968545Y-55887728D01*
X181968545Y-55707272D01*
X181996775Y-55529038D01*
X182052539Y-55357414D01*
X182134464Y-55196627D01*
X182240533Y-55050635D01*
X182368135Y-54923033D01*
X182514127Y-54816964D01*
X182674914Y-54735039D01*
X182846538Y-54679275D01*
X183024772Y-54651045D01*
X183205228Y-54651045D01*
X183383462Y-54679275D01*
G37*
G36*
X202433462Y-54679275D02*
G01*
X202605086Y-54735039D01*
X202765873Y-54816964D01*
X202911865Y-54923033D01*
X203039467Y-55050635D01*
X203145536Y-55196627D01*
X203227461Y-55357414D01*
X203283225Y-55529038D01*
X203311455Y-55707272D01*
X203311455Y-55887728D01*
X203283225Y-56065962D01*
X203227461Y-56237586D01*
X203145536Y-56398373D01*
X203039467Y-56544365D01*
X202911865Y-56671967D01*
X202765873Y-56778036D01*
X202605086Y-56859961D01*
X202433462Y-56915725D01*
X202255228Y-56943955D01*
X202074772Y-56943955D01*
X201896538Y-56915725D01*
X201724914Y-56859961D01*
X201564127Y-56778036D01*
X201418135Y-56671967D01*
X201290533Y-56544365D01*
X201184464Y-56398373D01*
X201102539Y-56237586D01*
X201046775Y-56065962D01*
X201018545Y-55887728D01*
X201018545Y-55707272D01*
X201046775Y-55529038D01*
X201102539Y-55357414D01*
X201184464Y-55196627D01*
X201290533Y-55050635D01*
X201418135Y-54923033D01*
X201564127Y-54816964D01*
X201724914Y-54735039D01*
X201896538Y-54679275D01*
X202074772Y-54651045D01*
X202255228Y-54651045D01*
X202433462Y-54679275D01*
G37*
G36*
X221483462Y-54679275D02*
G01*
X221655086Y-54735039D01*
X221815873Y-54816964D01*
X221961865Y-54923033D01*
X222089467Y-55050635D01*
X222195536Y-55196627D01*
X222277461Y-55357414D01*
X222333225Y-55529038D01*
X222361455Y-55707272D01*
X222361455Y-55887728D01*
X222333225Y-56065962D01*
X222277461Y-56237586D01*
X222195536Y-56398373D01*
X222089467Y-56544365D01*
X221961865Y-56671967D01*
X221815873Y-56778036D01*
X221655086Y-56859961D01*
X221483462Y-56915725D01*
X221305228Y-56943955D01*
X221124772Y-56943955D01*
X220946538Y-56915725D01*
X220774914Y-56859961D01*
X220614127Y-56778036D01*
X220468135Y-56671967D01*
X220340533Y-56544365D01*
X220234464Y-56398373D01*
X220152539Y-56237586D01*
X220096775Y-56065962D01*
X220068545Y-55887728D01*
X220068545Y-55707272D01*
X220096775Y-55529038D01*
X220152539Y-55357414D01*
X220234464Y-55196627D01*
X220340533Y-55050635D01*
X220468135Y-54923033D01*
X220614127Y-54816964D01*
X220774914Y-54735039D01*
X220946538Y-54679275D01*
X221124772Y-54651045D01*
X221305228Y-54651045D01*
X221483462Y-54679275D01*
G37*
G36*
X240533462Y-54679275D02*
G01*
X240705086Y-54735039D01*
X240865873Y-54816964D01*
X241011865Y-54923033D01*
X241139467Y-55050635D01*
X241245536Y-55196627D01*
X241327461Y-55357414D01*
X241383225Y-55529038D01*
X241411455Y-55707272D01*
X241411455Y-55887728D01*
X241383225Y-56065962D01*
X241327461Y-56237586D01*
X241245536Y-56398373D01*
X241139467Y-56544365D01*
X241011865Y-56671967D01*
X240865873Y-56778036D01*
X240705086Y-56859961D01*
X240533462Y-56915725D01*
X240355228Y-56943955D01*
X240174772Y-56943955D01*
X239996538Y-56915725D01*
X239824914Y-56859961D01*
X239664127Y-56778036D01*
X239518135Y-56671967D01*
X239390533Y-56544365D01*
X239284464Y-56398373D01*
X239202539Y-56237586D01*
X239146775Y-56065962D01*
X239118545Y-55887728D01*
X239118545Y-55707272D01*
X239146775Y-55529038D01*
X239202539Y-55357414D01*
X239284464Y-55196627D01*
X239390533Y-55050635D01*
X239518135Y-54923033D01*
X239664127Y-54816964D01*
X239824914Y-54735039D01*
X239996538Y-54679275D01*
X240174772Y-54651045D01*
X240355228Y-54651045D01*
X240533462Y-54679275D01*
G37*
G36*
X259583462Y-54679275D02*
G01*
X259755086Y-54735039D01*
X259915873Y-54816964D01*
X260061865Y-54923033D01*
X260189467Y-55050635D01*
X260295536Y-55196627D01*
X260377461Y-55357414D01*
X260433225Y-55529038D01*
X260461455Y-55707272D01*
X260461455Y-55887728D01*
X260433225Y-56065962D01*
X260377461Y-56237586D01*
X260295536Y-56398373D01*
X260189467Y-56544365D01*
X260061865Y-56671967D01*
X259915873Y-56778036D01*
X259755086Y-56859961D01*
X259583462Y-56915725D01*
X259405228Y-56943955D01*
X259224772Y-56943955D01*
X259046538Y-56915725D01*
X258874914Y-56859961D01*
X258714127Y-56778036D01*
X258568135Y-56671967D01*
X258440533Y-56544365D01*
X258334464Y-56398373D01*
X258252539Y-56237586D01*
X258196775Y-56065962D01*
X258168545Y-55887728D01*
X258168545Y-55707272D01*
X258196775Y-55529038D01*
X258252539Y-55357414D01*
X258334464Y-55196627D01*
X258440533Y-55050635D01*
X258568135Y-54923033D01*
X258714127Y-54816964D01*
X258874914Y-54735039D01*
X259046538Y-54679275D01*
X259224772Y-54651045D01*
X259405228Y-54651045D01*
X259583462Y-54679275D01*
G37*
G36*
X290539762Y-54679275D02*
G01*
X290711386Y-54735039D01*
X290872173Y-54816964D01*
X291018165Y-54923033D01*
X291145767Y-55050635D01*
X291251836Y-55196627D01*
X291333761Y-55357414D01*
X291389525Y-55529038D01*
X291417755Y-55707272D01*
X291417755Y-55887728D01*
X291389525Y-56065962D01*
X291333761Y-56237586D01*
X291251836Y-56398373D01*
X291145767Y-56544365D01*
X291018165Y-56671967D01*
X290872173Y-56778036D01*
X290711386Y-56859961D01*
X290539762Y-56915725D01*
X290361528Y-56943955D01*
X290181072Y-56943955D01*
X290002838Y-56915725D01*
X289831214Y-56859961D01*
X289670427Y-56778036D01*
X289524435Y-56671967D01*
X289396833Y-56544365D01*
X289290764Y-56398373D01*
X289208839Y-56237586D01*
X289153075Y-56065962D01*
X289124845Y-55887728D01*
X289124845Y-55707272D01*
X289153075Y-55529038D01*
X289208839Y-55357414D01*
X289290764Y-55196627D01*
X289396833Y-55050635D01*
X289524435Y-54923033D01*
X289670427Y-54816964D01*
X289831214Y-54735039D01*
X290002838Y-54679275D01*
X290181072Y-54651045D01*
X290361528Y-54651045D01*
X290539762Y-54679275D01*
G37*
G36*
X322638962Y-54679275D02*
G01*
X322810586Y-54735039D01*
X322971373Y-54816964D01*
X323117365Y-54923033D01*
X323244967Y-55050635D01*
X323351036Y-55196627D01*
X323432961Y-55357414D01*
X323488725Y-55529038D01*
X323516955Y-55707272D01*
X323516955Y-55887728D01*
X323488725Y-56065962D01*
X323432961Y-56237586D01*
X323351036Y-56398373D01*
X323244967Y-56544365D01*
X323117365Y-56671967D01*
X322971373Y-56778036D01*
X322810586Y-56859961D01*
X322638962Y-56915725D01*
X322460728Y-56943955D01*
X322280272Y-56943955D01*
X322102038Y-56915725D01*
X321930414Y-56859961D01*
X321769627Y-56778036D01*
X321623635Y-56671967D01*
X321496033Y-56544365D01*
X321389964Y-56398373D01*
X321308039Y-56237586D01*
X321252275Y-56065962D01*
X321224045Y-55887728D01*
X321224045Y-55707272D01*
X321252275Y-55529038D01*
X321308039Y-55357414D01*
X321389964Y-55196627D01*
X321496033Y-55050635D01*
X321623635Y-54923033D01*
X321769627Y-54816964D01*
X321930414Y-54735039D01*
X322102038Y-54679275D01*
X322280272Y-54651045D01*
X322460728Y-54651045D01*
X322638962Y-54679275D01*
G37*
G36*
X341688962Y-54679275D02*
G01*
X341860586Y-54735039D01*
X342021373Y-54816964D01*
X342167365Y-54923033D01*
X342294967Y-55050635D01*
X342401036Y-55196627D01*
X342482961Y-55357414D01*
X342538725Y-55529038D01*
X342566955Y-55707272D01*
X342566955Y-55887728D01*
X342538725Y-56065962D01*
X342482961Y-56237586D01*
X342401036Y-56398373D01*
X342294967Y-56544365D01*
X342167365Y-56671967D01*
X342021373Y-56778036D01*
X341860586Y-56859961D01*
X341688962Y-56915725D01*
X341510728Y-56943955D01*
X341330272Y-56943955D01*
X341152038Y-56915725D01*
X340980414Y-56859961D01*
X340819627Y-56778036D01*
X340673635Y-56671967D01*
X340546033Y-56544365D01*
X340439964Y-56398373D01*
X340358039Y-56237586D01*
X340302275Y-56065962D01*
X340274045Y-55887728D01*
X340274045Y-55707272D01*
X340302275Y-55529038D01*
X340358039Y-55357414D01*
X340439964Y-55196627D01*
X340546033Y-55050635D01*
X340673635Y-54923033D01*
X340819627Y-54816964D01*
X340980414Y-54735039D01*
X341152038Y-54679275D01*
X341330272Y-54651045D01*
X341510728Y-54651045D01*
X341688962Y-54679275D01*
G37*
G36*
X37333462Y-52139275D02*
G01*
X37505086Y-52195039D01*
X37665873Y-52276964D01*
X37811865Y-52383033D01*
X37939467Y-52510635D01*
X38045536Y-52656627D01*
X38127461Y-52817414D01*
X38183225Y-52989038D01*
X38211455Y-53167272D01*
X38211455Y-53347728D01*
X38183225Y-53525962D01*
X38127461Y-53697586D01*
X38045536Y-53858373D01*
X37939467Y-54004365D01*
X37811865Y-54131967D01*
X37665873Y-54238036D01*
X37505086Y-54319961D01*
X37333462Y-54375725D01*
X37155228Y-54403955D01*
X36974772Y-54403955D01*
X36796538Y-54375725D01*
X36624914Y-54319961D01*
X36464127Y-54238036D01*
X36318135Y-54131967D01*
X36190533Y-54004365D01*
X36084464Y-53858373D01*
X36002539Y-53697586D01*
X35946775Y-53525962D01*
X35918545Y-53347728D01*
X35918545Y-53167272D01*
X35946775Y-52989038D01*
X36002539Y-52817414D01*
X36084464Y-52656627D01*
X36190533Y-52510635D01*
X36318135Y-52383033D01*
X36464127Y-52276964D01*
X36624914Y-52195039D01*
X36796538Y-52139275D01*
X36974772Y-52111045D01*
X37155228Y-52111045D01*
X37333462Y-52139275D01*
G37*
G36*
X56383462Y-52139275D02*
G01*
X56555086Y-52195039D01*
X56715873Y-52276964D01*
X56861865Y-52383033D01*
X56989467Y-52510635D01*
X57095536Y-52656627D01*
X57177461Y-52817414D01*
X57233225Y-52989038D01*
X57261455Y-53167272D01*
X57261455Y-53347728D01*
X57233225Y-53525962D01*
X57177461Y-53697586D01*
X57095536Y-53858373D01*
X56989467Y-54004365D01*
X56861865Y-54131967D01*
X56715873Y-54238036D01*
X56555086Y-54319961D01*
X56383462Y-54375725D01*
X56205228Y-54403955D01*
X56024772Y-54403955D01*
X55846538Y-54375725D01*
X55674914Y-54319961D01*
X55514127Y-54238036D01*
X55368135Y-54131967D01*
X55240533Y-54004365D01*
X55134464Y-53858373D01*
X55052539Y-53697586D01*
X54996775Y-53525962D01*
X54968545Y-53347728D01*
X54968545Y-53167272D01*
X54996775Y-52989038D01*
X55052539Y-52817414D01*
X55134464Y-52656627D01*
X55240533Y-52510635D01*
X55368135Y-52383033D01*
X55514127Y-52276964D01*
X55674914Y-52195039D01*
X55846538Y-52139275D01*
X56024772Y-52111045D01*
X56205228Y-52111045D01*
X56383462Y-52139275D01*
G37*
G36*
X75433462Y-52139275D02*
G01*
X75605086Y-52195039D01*
X75765873Y-52276964D01*
X75911865Y-52383033D01*
X76039467Y-52510635D01*
X76145536Y-52656627D01*
X76227461Y-52817414D01*
X76283225Y-52989038D01*
X76311455Y-53167272D01*
X76311455Y-53347728D01*
X76283225Y-53525962D01*
X76227461Y-53697586D01*
X76145536Y-53858373D01*
X76039467Y-54004365D01*
X75911865Y-54131967D01*
X75765873Y-54238036D01*
X75605086Y-54319961D01*
X75433462Y-54375725D01*
X75255228Y-54403955D01*
X75074772Y-54403955D01*
X74896538Y-54375725D01*
X74724914Y-54319961D01*
X74564127Y-54238036D01*
X74418135Y-54131967D01*
X74290533Y-54004365D01*
X74184464Y-53858373D01*
X74102539Y-53697586D01*
X74046775Y-53525962D01*
X74018545Y-53347728D01*
X74018545Y-53167272D01*
X74046775Y-52989038D01*
X74102539Y-52817414D01*
X74184464Y-52656627D01*
X74290533Y-52510635D01*
X74418135Y-52383033D01*
X74564127Y-52276964D01*
X74724914Y-52195039D01*
X74896538Y-52139275D01*
X75074772Y-52111045D01*
X75255228Y-52111045D01*
X75433462Y-52139275D01*
G37*
G36*
X94483462Y-52139275D02*
G01*
X94655086Y-52195039D01*
X94815873Y-52276964D01*
X94961865Y-52383033D01*
X95089467Y-52510635D01*
X95195536Y-52656627D01*
X95277461Y-52817414D01*
X95333225Y-52989038D01*
X95361455Y-53167272D01*
X95361455Y-53347728D01*
X95333225Y-53525962D01*
X95277461Y-53697586D01*
X95195536Y-53858373D01*
X95089467Y-54004365D01*
X94961865Y-54131967D01*
X94815873Y-54238036D01*
X94655086Y-54319961D01*
X94483462Y-54375725D01*
X94305228Y-54403955D01*
X94124772Y-54403955D01*
X93946538Y-54375725D01*
X93774914Y-54319961D01*
X93614127Y-54238036D01*
X93468135Y-54131967D01*
X93340533Y-54004365D01*
X93234464Y-53858373D01*
X93152539Y-53697586D01*
X93096775Y-53525962D01*
X93068545Y-53347728D01*
X93068545Y-53167272D01*
X93096775Y-52989038D01*
X93152539Y-52817414D01*
X93234464Y-52656627D01*
X93340533Y-52510635D01*
X93468135Y-52383033D01*
X93614127Y-52276964D01*
X93774914Y-52195039D01*
X93946538Y-52139275D01*
X94124772Y-52111045D01*
X94305228Y-52111045D01*
X94483462Y-52139275D01*
G37*
G36*
X113533462Y-52139275D02*
G01*
X113705086Y-52195039D01*
X113865873Y-52276964D01*
X114011865Y-52383033D01*
X114139467Y-52510635D01*
X114245536Y-52656627D01*
X114327461Y-52817414D01*
X114383225Y-52989038D01*
X114411455Y-53167272D01*
X114411455Y-53347728D01*
X114383225Y-53525962D01*
X114327461Y-53697586D01*
X114245536Y-53858373D01*
X114139467Y-54004365D01*
X114011865Y-54131967D01*
X113865873Y-54238036D01*
X113705086Y-54319961D01*
X113533462Y-54375725D01*
X113355228Y-54403955D01*
X113174772Y-54403955D01*
X112996538Y-54375725D01*
X112824914Y-54319961D01*
X112664127Y-54238036D01*
X112518135Y-54131967D01*
X112390533Y-54004365D01*
X112284464Y-53858373D01*
X112202539Y-53697586D01*
X112146775Y-53525962D01*
X112118545Y-53347728D01*
X112118545Y-53167272D01*
X112146775Y-52989038D01*
X112202539Y-52817414D01*
X112284464Y-52656627D01*
X112390533Y-52510635D01*
X112518135Y-52383033D01*
X112664127Y-52276964D01*
X112824914Y-52195039D01*
X112996538Y-52139275D01*
X113174772Y-52111045D01*
X113355228Y-52111045D01*
X113533462Y-52139275D01*
G37*
G36*
X132583462Y-52139275D02*
G01*
X132755086Y-52195039D01*
X132915873Y-52276964D01*
X133061865Y-52383033D01*
X133189467Y-52510635D01*
X133295536Y-52656627D01*
X133377461Y-52817414D01*
X133433225Y-52989038D01*
X133461455Y-53167272D01*
X133461455Y-53347728D01*
X133433225Y-53525962D01*
X133377461Y-53697586D01*
X133295536Y-53858373D01*
X133189467Y-54004365D01*
X133061865Y-54131967D01*
X132915873Y-54238036D01*
X132755086Y-54319961D01*
X132583462Y-54375725D01*
X132405228Y-54403955D01*
X132224772Y-54403955D01*
X132046538Y-54375725D01*
X131874914Y-54319961D01*
X131714127Y-54238036D01*
X131568135Y-54131967D01*
X131440533Y-54004365D01*
X131334464Y-53858373D01*
X131252539Y-53697586D01*
X131196775Y-53525962D01*
X131168545Y-53347728D01*
X131168545Y-53167272D01*
X131196775Y-52989038D01*
X131252539Y-52817414D01*
X131334464Y-52656627D01*
X131440533Y-52510635D01*
X131568135Y-52383033D01*
X131714127Y-52276964D01*
X131874914Y-52195039D01*
X132046538Y-52139275D01*
X132224772Y-52111045D01*
X132405228Y-52111045D01*
X132583462Y-52139275D01*
G37*
G36*
X151633462Y-52139275D02*
G01*
X151805086Y-52195039D01*
X151965873Y-52276964D01*
X152111865Y-52383033D01*
X152239467Y-52510635D01*
X152345536Y-52656627D01*
X152427461Y-52817414D01*
X152483225Y-52989038D01*
X152511455Y-53167272D01*
X152511455Y-53347728D01*
X152483225Y-53525962D01*
X152427461Y-53697586D01*
X152345536Y-53858373D01*
X152239467Y-54004365D01*
X152111865Y-54131967D01*
X151965873Y-54238036D01*
X151805086Y-54319961D01*
X151633462Y-54375725D01*
X151455228Y-54403955D01*
X151274772Y-54403955D01*
X151096538Y-54375725D01*
X150924914Y-54319961D01*
X150764127Y-54238036D01*
X150618135Y-54131967D01*
X150490533Y-54004365D01*
X150384464Y-53858373D01*
X150302539Y-53697586D01*
X150246775Y-53525962D01*
X150218545Y-53347728D01*
X150218545Y-53167272D01*
X150246775Y-52989038D01*
X150302539Y-52817414D01*
X150384464Y-52656627D01*
X150490533Y-52510635D01*
X150618135Y-52383033D01*
X150764127Y-52276964D01*
X150924914Y-52195039D01*
X151096538Y-52139275D01*
X151274772Y-52111045D01*
X151455228Y-52111045D01*
X151633462Y-52139275D01*
G37*
G36*
X170683462Y-52139275D02*
G01*
X170855086Y-52195039D01*
X171015873Y-52276964D01*
X171161865Y-52383033D01*
X171289467Y-52510635D01*
X171395536Y-52656627D01*
X171477461Y-52817414D01*
X171533225Y-52989038D01*
X171561455Y-53167272D01*
X171561455Y-53347728D01*
X171533225Y-53525962D01*
X171477461Y-53697586D01*
X171395536Y-53858373D01*
X171289467Y-54004365D01*
X171161865Y-54131967D01*
X171015873Y-54238036D01*
X170855086Y-54319961D01*
X170683462Y-54375725D01*
X170505228Y-54403955D01*
X170324772Y-54403955D01*
X170146538Y-54375725D01*
X169974914Y-54319961D01*
X169814127Y-54238036D01*
X169668135Y-54131967D01*
X169540533Y-54004365D01*
X169434464Y-53858373D01*
X169352539Y-53697586D01*
X169296775Y-53525962D01*
X169268545Y-53347728D01*
X169268545Y-53167272D01*
X169296775Y-52989038D01*
X169352539Y-52817414D01*
X169434464Y-52656627D01*
X169540533Y-52510635D01*
X169668135Y-52383033D01*
X169814127Y-52276964D01*
X169974914Y-52195039D01*
X170146538Y-52139275D01*
X170324772Y-52111045D01*
X170505228Y-52111045D01*
X170683462Y-52139275D01*
G37*
G36*
X189733462Y-52139275D02*
G01*
X189905086Y-52195039D01*
X190065873Y-52276964D01*
X190211865Y-52383033D01*
X190339467Y-52510635D01*
X190445536Y-52656627D01*
X190527461Y-52817414D01*
X190583225Y-52989038D01*
X190611455Y-53167272D01*
X190611455Y-53347728D01*
X190583225Y-53525962D01*
X190527461Y-53697586D01*
X190445536Y-53858373D01*
X190339467Y-54004365D01*
X190211865Y-54131967D01*
X190065873Y-54238036D01*
X189905086Y-54319961D01*
X189733462Y-54375725D01*
X189555228Y-54403955D01*
X189374772Y-54403955D01*
X189196538Y-54375725D01*
X189024914Y-54319961D01*
X188864127Y-54238036D01*
X188718135Y-54131967D01*
X188590533Y-54004365D01*
X188484464Y-53858373D01*
X188402539Y-53697586D01*
X188346775Y-53525962D01*
X188318545Y-53347728D01*
X188318545Y-53167272D01*
X188346775Y-52989038D01*
X188402539Y-52817414D01*
X188484464Y-52656627D01*
X188590533Y-52510635D01*
X188718135Y-52383033D01*
X188864127Y-52276964D01*
X189024914Y-52195039D01*
X189196538Y-52139275D01*
X189374772Y-52111045D01*
X189555228Y-52111045D01*
X189733462Y-52139275D01*
G37*
G36*
X208783462Y-52139275D02*
G01*
X208955086Y-52195039D01*
X209115873Y-52276964D01*
X209261865Y-52383033D01*
X209389467Y-52510635D01*
X209495536Y-52656627D01*
X209577461Y-52817414D01*
X209633225Y-52989038D01*
X209661455Y-53167272D01*
X209661455Y-53347728D01*
X209633225Y-53525962D01*
X209577461Y-53697586D01*
X209495536Y-53858373D01*
X209389467Y-54004365D01*
X209261865Y-54131967D01*
X209115873Y-54238036D01*
X208955086Y-54319961D01*
X208783462Y-54375725D01*
X208605228Y-54403955D01*
X208424772Y-54403955D01*
X208246538Y-54375725D01*
X208074914Y-54319961D01*
X207914127Y-54238036D01*
X207768135Y-54131967D01*
X207640533Y-54004365D01*
X207534464Y-53858373D01*
X207452539Y-53697586D01*
X207396775Y-53525962D01*
X207368545Y-53347728D01*
X207368545Y-53167272D01*
X207396775Y-52989038D01*
X207452539Y-52817414D01*
X207534464Y-52656627D01*
X207640533Y-52510635D01*
X207768135Y-52383033D01*
X207914127Y-52276964D01*
X208074914Y-52195039D01*
X208246538Y-52139275D01*
X208424772Y-52111045D01*
X208605228Y-52111045D01*
X208783462Y-52139275D01*
G37*
G36*
X227833462Y-52139275D02*
G01*
X228005086Y-52195039D01*
X228165873Y-52276964D01*
X228311865Y-52383033D01*
X228439467Y-52510635D01*
X228545536Y-52656627D01*
X228627461Y-52817414D01*
X228683225Y-52989038D01*
X228711455Y-53167272D01*
X228711455Y-53347728D01*
X228683225Y-53525962D01*
X228627461Y-53697586D01*
X228545536Y-53858373D01*
X228439467Y-54004365D01*
X228311865Y-54131967D01*
X228165873Y-54238036D01*
X228005086Y-54319961D01*
X227833462Y-54375725D01*
X227655228Y-54403955D01*
X227474772Y-54403955D01*
X227296538Y-54375725D01*
X227124914Y-54319961D01*
X226964127Y-54238036D01*
X226818135Y-54131967D01*
X226690533Y-54004365D01*
X226584464Y-53858373D01*
X226502539Y-53697586D01*
X226446775Y-53525962D01*
X226418545Y-53347728D01*
X226418545Y-53167272D01*
X226446775Y-52989038D01*
X226502539Y-52817414D01*
X226584464Y-52656627D01*
X226690533Y-52510635D01*
X226818135Y-52383033D01*
X226964127Y-52276964D01*
X227124914Y-52195039D01*
X227296538Y-52139275D01*
X227474772Y-52111045D01*
X227655228Y-52111045D01*
X227833462Y-52139275D01*
G37*
G36*
X246883462Y-52139275D02*
G01*
X247055086Y-52195039D01*
X247215873Y-52276964D01*
X247361865Y-52383033D01*
X247489467Y-52510635D01*
X247595536Y-52656627D01*
X247677461Y-52817414D01*
X247733225Y-52989038D01*
X247761455Y-53167272D01*
X247761455Y-53347728D01*
X247733225Y-53525962D01*
X247677461Y-53697586D01*
X247595536Y-53858373D01*
X247489467Y-54004365D01*
X247361865Y-54131967D01*
X247215873Y-54238036D01*
X247055086Y-54319961D01*
X246883462Y-54375725D01*
X246705228Y-54403955D01*
X246524772Y-54403955D01*
X246346538Y-54375725D01*
X246174914Y-54319961D01*
X246014127Y-54238036D01*
X245868135Y-54131967D01*
X245740533Y-54004365D01*
X245634464Y-53858373D01*
X245552539Y-53697586D01*
X245496775Y-53525962D01*
X245468545Y-53347728D01*
X245468545Y-53167272D01*
X245496775Y-52989038D01*
X245552539Y-52817414D01*
X245634464Y-52656627D01*
X245740533Y-52510635D01*
X245868135Y-52383033D01*
X246014127Y-52276964D01*
X246174914Y-52195039D01*
X246346538Y-52139275D01*
X246524772Y-52111045D01*
X246705228Y-52111045D01*
X246883462Y-52139275D01*
G37*
G36*
X265933462Y-52139275D02*
G01*
X266105086Y-52195039D01*
X266265873Y-52276964D01*
X266411865Y-52383033D01*
X266539467Y-52510635D01*
X266645536Y-52656627D01*
X266727461Y-52817414D01*
X266783225Y-52989038D01*
X266811455Y-53167272D01*
X266811455Y-53347728D01*
X266783225Y-53525962D01*
X266727461Y-53697586D01*
X266645536Y-53858373D01*
X266539467Y-54004365D01*
X266411865Y-54131967D01*
X266265873Y-54238036D01*
X266105086Y-54319961D01*
X265933462Y-54375725D01*
X265755228Y-54403955D01*
X265574772Y-54403955D01*
X265396538Y-54375725D01*
X265224914Y-54319961D01*
X265064127Y-54238036D01*
X264918135Y-54131967D01*
X264790533Y-54004365D01*
X264684464Y-53858373D01*
X264602539Y-53697586D01*
X264546775Y-53525962D01*
X264518545Y-53347728D01*
X264518545Y-53167272D01*
X264546775Y-52989038D01*
X264602539Y-52817414D01*
X264684464Y-52656627D01*
X264790533Y-52510635D01*
X264918135Y-52383033D01*
X265064127Y-52276964D01*
X265224914Y-52195039D01*
X265396538Y-52139275D01*
X265574772Y-52111045D01*
X265755228Y-52111045D01*
X265933462Y-52139275D01*
G37*
G36*
X296889762Y-52139275D02*
G01*
X297061386Y-52195039D01*
X297222173Y-52276964D01*
X297368165Y-52383033D01*
X297495767Y-52510635D01*
X297601836Y-52656627D01*
X297683761Y-52817414D01*
X297739525Y-52989038D01*
X297767755Y-53167272D01*
X297767755Y-53347728D01*
X297739525Y-53525962D01*
X297683761Y-53697586D01*
X297601836Y-53858373D01*
X297495767Y-54004365D01*
X297368165Y-54131967D01*
X297222173Y-54238036D01*
X297061386Y-54319961D01*
X296889762Y-54375725D01*
X296711528Y-54403955D01*
X296531072Y-54403955D01*
X296352838Y-54375725D01*
X296181214Y-54319961D01*
X296020427Y-54238036D01*
X295874435Y-54131967D01*
X295746833Y-54004365D01*
X295640764Y-53858373D01*
X295558839Y-53697586D01*
X295503075Y-53525962D01*
X295474845Y-53347728D01*
X295474845Y-53167272D01*
X295503075Y-52989038D01*
X295558839Y-52817414D01*
X295640764Y-52656627D01*
X295746833Y-52510635D01*
X295874435Y-52383033D01*
X296020427Y-52276964D01*
X296181214Y-52195039D01*
X296352838Y-52139275D01*
X296531072Y-52111045D01*
X296711528Y-52111045D01*
X296889762Y-52139275D01*
G37*
G36*
X328988962Y-52139275D02*
G01*
X329160586Y-52195039D01*
X329321373Y-52276964D01*
X329467365Y-52383033D01*
X329594967Y-52510635D01*
X329701036Y-52656627D01*
X329782961Y-52817414D01*
X329838725Y-52989038D01*
X329866955Y-53167272D01*
X329866955Y-53347728D01*
X329838725Y-53525962D01*
X329782961Y-53697586D01*
X329701036Y-53858373D01*
X329594967Y-54004365D01*
X329467365Y-54131967D01*
X329321373Y-54238036D01*
X329160586Y-54319961D01*
X328988962Y-54375725D01*
X328810728Y-54403955D01*
X328630272Y-54403955D01*
X328452038Y-54375725D01*
X328280414Y-54319961D01*
X328119627Y-54238036D01*
X327973635Y-54131967D01*
X327846033Y-54004365D01*
X327739964Y-53858373D01*
X327658039Y-53697586D01*
X327602275Y-53525962D01*
X327574045Y-53347728D01*
X327574045Y-53167272D01*
X327602275Y-52989038D01*
X327658039Y-52817414D01*
X327739964Y-52656627D01*
X327846033Y-52510635D01*
X327973635Y-52383033D01*
X328119627Y-52276964D01*
X328280414Y-52195039D01*
X328452038Y-52139275D01*
X328630272Y-52111045D01*
X328810728Y-52111045D01*
X328988962Y-52139275D01*
G37*
G36*
X348038962Y-52139275D02*
G01*
X348210586Y-52195039D01*
X348371373Y-52276964D01*
X348517365Y-52383033D01*
X348644967Y-52510635D01*
X348751036Y-52656627D01*
X348832961Y-52817414D01*
X348888725Y-52989038D01*
X348916955Y-53167272D01*
X348916955Y-53347728D01*
X348888725Y-53525962D01*
X348832961Y-53697586D01*
X348751036Y-53858373D01*
X348644967Y-54004365D01*
X348517365Y-54131967D01*
X348371373Y-54238036D01*
X348210586Y-54319961D01*
X348038962Y-54375725D01*
X347860728Y-54403955D01*
X347680272Y-54403955D01*
X347502038Y-54375725D01*
X347330414Y-54319961D01*
X347169627Y-54238036D01*
X347023635Y-54131967D01*
X346896033Y-54004365D01*
X346789964Y-53858373D01*
X346708039Y-53697586D01*
X346652275Y-53525962D01*
X346624045Y-53347728D01*
X346624045Y-53167272D01*
X346652275Y-52989038D01*
X346708039Y-52817414D01*
X346789964Y-52656627D01*
X346896033Y-52510635D01*
X347023635Y-52383033D01*
X347169627Y-52276964D01*
X347330414Y-52195039D01*
X347502038Y-52139275D01*
X347680272Y-52111045D01*
X347860728Y-52111045D01*
X348038962Y-52139275D01*
G37*
G36*
X127969017Y-42739561D02*
G01*
X128275139Y-42809431D01*
X128571514Y-42913137D01*
X128854413Y-43049374D01*
X129120280Y-43216430D01*
X129365770Y-43412202D01*
X129587798Y-43634230D01*
X129783570Y-43879720D01*
X129950626Y-44145587D01*
X130086863Y-44428486D01*
X130190569Y-44724861D01*
X130260439Y-45030983D01*
X130295595Y-45343003D01*
X130295595Y-45656997D01*
X130260439Y-45969017D01*
X130190569Y-46275139D01*
X130086863Y-46571514D01*
X129950626Y-46854413D01*
X129783570Y-47120280D01*
X129587798Y-47365770D01*
X129365770Y-47587798D01*
X129120280Y-47783570D01*
X128854413Y-47950626D01*
X128571514Y-48086863D01*
X128275139Y-48190569D01*
X127969017Y-48260439D01*
X127656997Y-48295595D01*
X127343003Y-48295595D01*
X127030983Y-48260439D01*
X126724861Y-48190569D01*
X126428486Y-48086863D01*
X126145587Y-47950626D01*
X125879720Y-47783570D01*
X125634230Y-47587798D01*
X125412202Y-47365770D01*
X125216430Y-47120280D01*
X125049374Y-46854413D01*
X124913137Y-46571514D01*
X124809431Y-46275139D01*
X124739561Y-45969017D01*
X124704405Y-45656997D01*
X124704405Y-45343003D01*
X124739561Y-45030983D01*
X124809431Y-44724861D01*
X124913137Y-44428486D01*
X125049374Y-44145587D01*
X125216430Y-43879720D01*
X125412202Y-43634230D01*
X125634230Y-43412202D01*
X125879720Y-43216430D01*
X126145587Y-43049374D01*
X126428486Y-42913137D01*
X126724861Y-42809431D01*
X127030983Y-42739561D01*
X127343003Y-42704405D01*
X127656997Y-42704405D01*
X127969017Y-42739561D01*
G37*
G36*
X30983462Y-30866775D02*
G01*
X31155086Y-30922539D01*
X31315873Y-31004464D01*
X31461865Y-31110533D01*
X31589467Y-31238135D01*
X31695536Y-31384127D01*
X31777461Y-31544914D01*
X31833225Y-31716538D01*
X31861455Y-31894772D01*
X31861455Y-32075228D01*
X31833225Y-32253462D01*
X31777461Y-32425086D01*
X31695536Y-32585873D01*
X31589467Y-32731865D01*
X31461865Y-32859467D01*
X31315873Y-32965536D01*
X31155086Y-33047461D01*
X30983462Y-33103225D01*
X30805228Y-33131455D01*
X30624772Y-33131455D01*
X30446538Y-33103225D01*
X30274914Y-33047461D01*
X30114127Y-32965536D01*
X29968135Y-32859467D01*
X29840533Y-32731865D01*
X29734464Y-32585873D01*
X29652539Y-32425086D01*
X29596775Y-32253462D01*
X29568545Y-32075228D01*
X29568545Y-31894772D01*
X29596775Y-31716538D01*
X29652539Y-31544914D01*
X29734464Y-31384127D01*
X29840533Y-31238135D01*
X29968135Y-31110533D01*
X30114127Y-31004464D01*
X30274914Y-30922539D01*
X30446538Y-30866775D01*
X30624772Y-30838545D01*
X30805228Y-30838545D01*
X30983462Y-30866775D01*
G37*
G36*
X54795962Y-30866775D02*
G01*
X54967586Y-30922539D01*
X55128373Y-31004464D01*
X55274365Y-31110533D01*
X55401967Y-31238135D01*
X55508036Y-31384127D01*
X55589961Y-31544914D01*
X55645725Y-31716538D01*
X55673955Y-31894772D01*
X55673955Y-32075228D01*
X55645725Y-32253462D01*
X55589961Y-32425086D01*
X55508036Y-32585873D01*
X55401967Y-32731865D01*
X55274365Y-32859467D01*
X55128373Y-32965536D01*
X54967586Y-33047461D01*
X54795962Y-33103225D01*
X54617728Y-33131455D01*
X54437272Y-33131455D01*
X54259038Y-33103225D01*
X54087414Y-33047461D01*
X53926627Y-32965536D01*
X53780635Y-32859467D01*
X53653033Y-32731865D01*
X53546964Y-32585873D01*
X53465039Y-32425086D01*
X53409275Y-32253462D01*
X53381045Y-32075228D01*
X53381045Y-31894772D01*
X53409275Y-31716538D01*
X53465039Y-31544914D01*
X53546964Y-31384127D01*
X53653033Y-31238135D01*
X53780635Y-31110533D01*
X53926627Y-31004464D01*
X54087414Y-30922539D01*
X54259038Y-30866775D01*
X54437272Y-30838545D01*
X54617728Y-30838545D01*
X54795962Y-30866775D01*
G37*
G36*
X73845962Y-30866775D02*
G01*
X74017586Y-30922539D01*
X74178373Y-31004464D01*
X74324365Y-31110533D01*
X74451967Y-31238135D01*
X74558036Y-31384127D01*
X74639961Y-31544914D01*
X74695725Y-31716538D01*
X74723955Y-31894772D01*
X74723955Y-32075228D01*
X74695725Y-32253462D01*
X74639961Y-32425086D01*
X74558036Y-32585873D01*
X74451967Y-32731865D01*
X74324365Y-32859467D01*
X74178373Y-32965536D01*
X74017586Y-33047461D01*
X73845962Y-33103225D01*
X73667728Y-33131455D01*
X73487272Y-33131455D01*
X73309038Y-33103225D01*
X73137414Y-33047461D01*
X72976627Y-32965536D01*
X72830635Y-32859467D01*
X72703033Y-32731865D01*
X72596964Y-32585873D01*
X72515039Y-32425086D01*
X72459275Y-32253462D01*
X72431045Y-32075228D01*
X72431045Y-31894772D01*
X72459275Y-31716538D01*
X72515039Y-31544914D01*
X72596964Y-31384127D01*
X72703033Y-31238135D01*
X72830635Y-31110533D01*
X72976627Y-31004464D01*
X73137414Y-30922539D01*
X73309038Y-30866775D01*
X73487272Y-30838545D01*
X73667728Y-30838545D01*
X73845962Y-30866775D01*
G37*
G36*
X92895962Y-30866775D02*
G01*
X93067586Y-30922539D01*
X93228373Y-31004464D01*
X93374365Y-31110533D01*
X93501967Y-31238135D01*
X93608036Y-31384127D01*
X93689961Y-31544914D01*
X93745725Y-31716538D01*
X93773955Y-31894772D01*
X93773955Y-32075228D01*
X93745725Y-32253462D01*
X93689961Y-32425086D01*
X93608036Y-32585873D01*
X93501967Y-32731865D01*
X93374365Y-32859467D01*
X93228373Y-32965536D01*
X93067586Y-33047461D01*
X92895962Y-33103225D01*
X92717728Y-33131455D01*
X92537272Y-33131455D01*
X92359038Y-33103225D01*
X92187414Y-33047461D01*
X92026627Y-32965536D01*
X91880635Y-32859467D01*
X91753033Y-32731865D01*
X91646964Y-32585873D01*
X91565039Y-32425086D01*
X91509275Y-32253462D01*
X91481045Y-32075228D01*
X91481045Y-31894772D01*
X91509275Y-31716538D01*
X91565039Y-31544914D01*
X91646964Y-31384127D01*
X91753033Y-31238135D01*
X91880635Y-31110533D01*
X92026627Y-31004464D01*
X92187414Y-30922539D01*
X92359038Y-30866775D01*
X92537272Y-30838545D01*
X92717728Y-30838545D01*
X92895962Y-30866775D01*
G37*
G36*
X111945962Y-30866775D02*
G01*
X112117586Y-30922539D01*
X112278373Y-31004464D01*
X112424365Y-31110533D01*
X112551967Y-31238135D01*
X112658036Y-31384127D01*
X112739961Y-31544914D01*
X112795725Y-31716538D01*
X112823955Y-31894772D01*
X112823955Y-32075228D01*
X112795725Y-32253462D01*
X112739961Y-32425086D01*
X112658036Y-32585873D01*
X112551967Y-32731865D01*
X112424365Y-32859467D01*
X112278373Y-32965536D01*
X112117586Y-33047461D01*
X111945962Y-33103225D01*
X111767728Y-33131455D01*
X111587272Y-33131455D01*
X111409038Y-33103225D01*
X111237414Y-33047461D01*
X111076627Y-32965536D01*
X110930635Y-32859467D01*
X110803033Y-32731865D01*
X110696964Y-32585873D01*
X110615039Y-32425086D01*
X110559275Y-32253462D01*
X110531045Y-32075228D01*
X110531045Y-31894772D01*
X110559275Y-31716538D01*
X110615039Y-31544914D01*
X110696964Y-31384127D01*
X110803033Y-31238135D01*
X110930635Y-31110533D01*
X111076627Y-31004464D01*
X111237414Y-30922539D01*
X111409038Y-30866775D01*
X111587272Y-30838545D01*
X111767728Y-30838545D01*
X111945962Y-30866775D01*
G37*
G36*
X135758462Y-30866775D02*
G01*
X135930086Y-30922539D01*
X136090873Y-31004464D01*
X136236865Y-31110533D01*
X136364467Y-31238135D01*
X136470536Y-31384127D01*
X136552461Y-31544914D01*
X136608225Y-31716538D01*
X136636455Y-31894772D01*
X136636455Y-32075228D01*
X136608225Y-32253462D01*
X136552461Y-32425086D01*
X136470536Y-32585873D01*
X136364467Y-32731865D01*
X136236865Y-32859467D01*
X136090873Y-32965536D01*
X135930086Y-33047461D01*
X135758462Y-33103225D01*
X135580228Y-33131455D01*
X135399772Y-33131455D01*
X135221538Y-33103225D01*
X135049914Y-33047461D01*
X134889127Y-32965536D01*
X134743135Y-32859467D01*
X134615533Y-32731865D01*
X134509464Y-32585873D01*
X134427539Y-32425086D01*
X134371775Y-32253462D01*
X134343545Y-32075228D01*
X134343545Y-31894772D01*
X134371775Y-31716538D01*
X134427539Y-31544914D01*
X134509464Y-31384127D01*
X134615533Y-31238135D01*
X134743135Y-31110533D01*
X134889127Y-31004464D01*
X135049914Y-30922539D01*
X135221538Y-30866775D01*
X135399772Y-30838545D01*
X135580228Y-30838545D01*
X135758462Y-30866775D01*
G37*
G36*
X154808462Y-30866775D02*
G01*
X154980086Y-30922539D01*
X155140873Y-31004464D01*
X155286865Y-31110533D01*
X155414467Y-31238135D01*
X155520536Y-31384127D01*
X155602461Y-31544914D01*
X155658225Y-31716538D01*
X155686455Y-31894772D01*
X155686455Y-32075228D01*
X155658225Y-32253462D01*
X155602461Y-32425086D01*
X155520536Y-32585873D01*
X155414467Y-32731865D01*
X155286865Y-32859467D01*
X155140873Y-32965536D01*
X154980086Y-33047461D01*
X154808462Y-33103225D01*
X154630228Y-33131455D01*
X154449772Y-33131455D01*
X154271538Y-33103225D01*
X154099914Y-33047461D01*
X153939127Y-32965536D01*
X153793135Y-32859467D01*
X153665533Y-32731865D01*
X153559464Y-32585873D01*
X153477539Y-32425086D01*
X153421775Y-32253462D01*
X153393545Y-32075228D01*
X153393545Y-31894772D01*
X153421775Y-31716538D01*
X153477539Y-31544914D01*
X153559464Y-31384127D01*
X153665533Y-31238135D01*
X153793135Y-31110533D01*
X153939127Y-31004464D01*
X154099914Y-30922539D01*
X154271538Y-30866775D01*
X154449772Y-30838545D01*
X154630228Y-30838545D01*
X154808462Y-30866775D01*
G37*
G36*
X173858462Y-30866775D02*
G01*
X174030086Y-30922539D01*
X174190873Y-31004464D01*
X174336865Y-31110533D01*
X174464467Y-31238135D01*
X174570536Y-31384127D01*
X174652461Y-31544914D01*
X174708225Y-31716538D01*
X174736455Y-31894772D01*
X174736455Y-32075228D01*
X174708225Y-32253462D01*
X174652461Y-32425086D01*
X174570536Y-32585873D01*
X174464467Y-32731865D01*
X174336865Y-32859467D01*
X174190873Y-32965536D01*
X174030086Y-33047461D01*
X173858462Y-33103225D01*
X173680228Y-33131455D01*
X173499772Y-33131455D01*
X173321538Y-33103225D01*
X173149914Y-33047461D01*
X172989127Y-32965536D01*
X172843135Y-32859467D01*
X172715533Y-32731865D01*
X172609464Y-32585873D01*
X172527539Y-32425086D01*
X172471775Y-32253462D01*
X172443545Y-32075228D01*
X172443545Y-31894772D01*
X172471775Y-31716538D01*
X172527539Y-31544914D01*
X172609464Y-31384127D01*
X172715533Y-31238135D01*
X172843135Y-31110533D01*
X172989127Y-31004464D01*
X173149914Y-30922539D01*
X173321538Y-30866775D01*
X173499772Y-30838545D01*
X173680228Y-30838545D01*
X173858462Y-30866775D01*
G37*
G36*
X192908462Y-30866775D02*
G01*
X193080086Y-30922539D01*
X193240873Y-31004464D01*
X193386865Y-31110533D01*
X193514467Y-31238135D01*
X193620536Y-31384127D01*
X193702461Y-31544914D01*
X193758225Y-31716538D01*
X193786455Y-31894772D01*
X193786455Y-32075228D01*
X193758225Y-32253462D01*
X193702461Y-32425086D01*
X193620536Y-32585873D01*
X193514467Y-32731865D01*
X193386865Y-32859467D01*
X193240873Y-32965536D01*
X193080086Y-33047461D01*
X192908462Y-33103225D01*
X192730228Y-33131455D01*
X192549772Y-33131455D01*
X192371538Y-33103225D01*
X192199914Y-33047461D01*
X192039127Y-32965536D01*
X191893135Y-32859467D01*
X191765533Y-32731865D01*
X191659464Y-32585873D01*
X191577539Y-32425086D01*
X191521775Y-32253462D01*
X191493545Y-32075228D01*
X191493545Y-31894772D01*
X191521775Y-31716538D01*
X191577539Y-31544914D01*
X191659464Y-31384127D01*
X191765533Y-31238135D01*
X191893135Y-31110533D01*
X192039127Y-31004464D01*
X192199914Y-30922539D01*
X192371538Y-30866775D01*
X192549772Y-30838545D01*
X192730228Y-30838545D01*
X192908462Y-30866775D01*
G37*
G36*
X216720962Y-30866775D02*
G01*
X216892586Y-30922539D01*
X217053373Y-31004464D01*
X217199365Y-31110533D01*
X217326967Y-31238135D01*
X217433036Y-31384127D01*
X217514961Y-31544914D01*
X217570725Y-31716538D01*
X217598955Y-31894772D01*
X217598955Y-32075228D01*
X217570725Y-32253462D01*
X217514961Y-32425086D01*
X217433036Y-32585873D01*
X217326967Y-32731865D01*
X217199365Y-32859467D01*
X217053373Y-32965536D01*
X216892586Y-33047461D01*
X216720962Y-33103225D01*
X216542728Y-33131455D01*
X216362272Y-33131455D01*
X216184038Y-33103225D01*
X216012414Y-33047461D01*
X215851627Y-32965536D01*
X215705635Y-32859467D01*
X215578033Y-32731865D01*
X215471964Y-32585873D01*
X215390039Y-32425086D01*
X215334275Y-32253462D01*
X215306045Y-32075228D01*
X215306045Y-31894772D01*
X215334275Y-31716538D01*
X215390039Y-31544914D01*
X215471964Y-31384127D01*
X215578033Y-31238135D01*
X215705635Y-31110533D01*
X215851627Y-31004464D01*
X216012414Y-30922539D01*
X216184038Y-30866775D01*
X216362272Y-30838545D01*
X216542728Y-30838545D01*
X216720962Y-30866775D01*
G37*
G36*
X235770962Y-30866775D02*
G01*
X235942586Y-30922539D01*
X236103373Y-31004464D01*
X236249365Y-31110533D01*
X236376967Y-31238135D01*
X236483036Y-31384127D01*
X236564961Y-31544914D01*
X236620725Y-31716538D01*
X236648955Y-31894772D01*
X236648955Y-32075228D01*
X236620725Y-32253462D01*
X236564961Y-32425086D01*
X236483036Y-32585873D01*
X236376967Y-32731865D01*
X236249365Y-32859467D01*
X236103373Y-32965536D01*
X235942586Y-33047461D01*
X235770962Y-33103225D01*
X235592728Y-33131455D01*
X235412272Y-33131455D01*
X235234038Y-33103225D01*
X235062414Y-33047461D01*
X234901627Y-32965536D01*
X234755635Y-32859467D01*
X234628033Y-32731865D01*
X234521964Y-32585873D01*
X234440039Y-32425086D01*
X234384275Y-32253462D01*
X234356045Y-32075228D01*
X234356045Y-31894772D01*
X234384275Y-31716538D01*
X234440039Y-31544914D01*
X234521964Y-31384127D01*
X234628033Y-31238135D01*
X234755635Y-31110533D01*
X234901627Y-31004464D01*
X235062414Y-30922539D01*
X235234038Y-30866775D01*
X235412272Y-30838545D01*
X235592728Y-30838545D01*
X235770962Y-30866775D01*
G37*
G36*
X254820962Y-30866775D02*
G01*
X254992586Y-30922539D01*
X255153373Y-31004464D01*
X255299365Y-31110533D01*
X255426967Y-31238135D01*
X255533036Y-31384127D01*
X255614961Y-31544914D01*
X255670725Y-31716538D01*
X255698955Y-31894772D01*
X255698955Y-32075228D01*
X255670725Y-32253462D01*
X255614961Y-32425086D01*
X255533036Y-32585873D01*
X255426967Y-32731865D01*
X255299365Y-32859467D01*
X255153373Y-32965536D01*
X254992586Y-33047461D01*
X254820962Y-33103225D01*
X254642728Y-33131455D01*
X254462272Y-33131455D01*
X254284038Y-33103225D01*
X254112414Y-33047461D01*
X253951627Y-32965536D01*
X253805635Y-32859467D01*
X253678033Y-32731865D01*
X253571964Y-32585873D01*
X253490039Y-32425086D01*
X253434275Y-32253462D01*
X253406045Y-32075228D01*
X253406045Y-31894772D01*
X253434275Y-31716538D01*
X253490039Y-31544914D01*
X253571964Y-31384127D01*
X253678033Y-31238135D01*
X253805635Y-31110533D01*
X253951627Y-31004464D01*
X254112414Y-30922539D01*
X254284038Y-30866775D01*
X254462272Y-30838545D01*
X254642728Y-30838545D01*
X254820962Y-30866775D01*
G37*
G36*
X273870962Y-30866775D02*
G01*
X274042586Y-30922539D01*
X274203373Y-31004464D01*
X274349365Y-31110533D01*
X274476967Y-31238135D01*
X274583036Y-31384127D01*
X274664961Y-31544914D01*
X274720725Y-31716538D01*
X274748955Y-31894772D01*
X274748955Y-32075228D01*
X274720725Y-32253462D01*
X274664961Y-32425086D01*
X274583036Y-32585873D01*
X274476967Y-32731865D01*
X274349365Y-32859467D01*
X274203373Y-32965536D01*
X274042586Y-33047461D01*
X273870962Y-33103225D01*
X273692728Y-33131455D01*
X273512272Y-33131455D01*
X273334038Y-33103225D01*
X273162414Y-33047461D01*
X273001627Y-32965536D01*
X272855635Y-32859467D01*
X272728033Y-32731865D01*
X272621964Y-32585873D01*
X272540039Y-32425086D01*
X272484275Y-32253462D01*
X272456045Y-32075228D01*
X272456045Y-31894772D01*
X272484275Y-31716538D01*
X272540039Y-31544914D01*
X272621964Y-31384127D01*
X272728033Y-31238135D01*
X272855635Y-31110533D01*
X273001627Y-31004464D01*
X273162414Y-30922539D01*
X273334038Y-30866775D01*
X273512272Y-30838545D01*
X273692728Y-30838545D01*
X273870962Y-30866775D01*
G37*
G36*
X298635962Y-30866775D02*
G01*
X298807586Y-30922539D01*
X298968373Y-31004464D01*
X299114365Y-31110533D01*
X299241967Y-31238135D01*
X299348036Y-31384127D01*
X299429961Y-31544914D01*
X299485725Y-31716538D01*
X299513955Y-31894772D01*
X299513955Y-32075228D01*
X299485725Y-32253462D01*
X299429961Y-32425086D01*
X299348036Y-32585873D01*
X299241967Y-32731865D01*
X299114365Y-32859467D01*
X298968373Y-32965536D01*
X298807586Y-33047461D01*
X298635962Y-33103225D01*
X298457728Y-33131455D01*
X298277272Y-33131455D01*
X298099038Y-33103225D01*
X297927414Y-33047461D01*
X297766627Y-32965536D01*
X297620635Y-32859467D01*
X297493033Y-32731865D01*
X297386964Y-32585873D01*
X297305039Y-32425086D01*
X297249275Y-32253462D01*
X297221045Y-32075228D01*
X297221045Y-31894772D01*
X297249275Y-31716538D01*
X297305039Y-31544914D01*
X297386964Y-31384127D01*
X297493033Y-31238135D01*
X297620635Y-31110533D01*
X297766627Y-31004464D01*
X297927414Y-30922539D01*
X298099038Y-30866775D01*
X298277272Y-30838545D01*
X298457728Y-30838545D01*
X298635962Y-30866775D01*
G37*
G36*
X317685962Y-30866775D02*
G01*
X317857586Y-30922539D01*
X318018373Y-31004464D01*
X318164365Y-31110533D01*
X318291967Y-31238135D01*
X318398036Y-31384127D01*
X318479961Y-31544914D01*
X318535725Y-31716538D01*
X318563955Y-31894772D01*
X318563955Y-32075228D01*
X318535725Y-32253462D01*
X318479961Y-32425086D01*
X318398036Y-32585873D01*
X318291967Y-32731865D01*
X318164365Y-32859467D01*
X318018373Y-32965536D01*
X317857586Y-33047461D01*
X317685962Y-33103225D01*
X317507728Y-33131455D01*
X317327272Y-33131455D01*
X317149038Y-33103225D01*
X316977414Y-33047461D01*
X316816627Y-32965536D01*
X316670635Y-32859467D01*
X316543033Y-32731865D01*
X316436964Y-32585873D01*
X316355039Y-32425086D01*
X316299275Y-32253462D01*
X316271045Y-32075228D01*
X316271045Y-31894772D01*
X316299275Y-31716538D01*
X316355039Y-31544914D01*
X316436964Y-31384127D01*
X316543033Y-31238135D01*
X316670635Y-31110533D01*
X316816627Y-31004464D01*
X316977414Y-30922539D01*
X317149038Y-30866775D01*
X317327272Y-30838545D01*
X317507728Y-30838545D01*
X317685962Y-30866775D01*
G37*
G36*
X336735962Y-30866775D02*
G01*
X336907586Y-30922539D01*
X337068373Y-31004464D01*
X337214365Y-31110533D01*
X337341967Y-31238135D01*
X337448036Y-31384127D01*
X337529961Y-31544914D01*
X337585725Y-31716538D01*
X337613955Y-31894772D01*
X337613955Y-32075228D01*
X337585725Y-32253462D01*
X337529961Y-32425086D01*
X337448036Y-32585873D01*
X337341967Y-32731865D01*
X337214365Y-32859467D01*
X337068373Y-32965536D01*
X336907586Y-33047461D01*
X336735962Y-33103225D01*
X336557728Y-33131455D01*
X336377272Y-33131455D01*
X336199038Y-33103225D01*
X336027414Y-33047461D01*
X335866627Y-32965536D01*
X335720635Y-32859467D01*
X335593033Y-32731865D01*
X335486964Y-32585873D01*
X335405039Y-32425086D01*
X335349275Y-32253462D01*
X335321045Y-32075228D01*
X335321045Y-31894772D01*
X335349275Y-31716538D01*
X335405039Y-31544914D01*
X335486964Y-31384127D01*
X335593033Y-31238135D01*
X335720635Y-31110533D01*
X335866627Y-31004464D01*
X336027414Y-30922539D01*
X336199038Y-30866775D01*
X336377272Y-30838545D01*
X336557728Y-30838545D01*
X336735962Y-30866775D01*
G37*
G36*
X37333462Y-28326775D02*
G01*
X37505086Y-28382539D01*
X37665873Y-28464464D01*
X37811865Y-28570533D01*
X37939467Y-28698135D01*
X38045536Y-28844127D01*
X38127461Y-29004914D01*
X38183225Y-29176538D01*
X38211455Y-29354772D01*
X38211455Y-29535228D01*
X38183225Y-29713462D01*
X38127461Y-29885086D01*
X38045536Y-30045873D01*
X37939467Y-30191865D01*
X37811865Y-30319467D01*
X37665873Y-30425536D01*
X37505086Y-30507461D01*
X37333462Y-30563225D01*
X37155228Y-30591455D01*
X36974772Y-30591455D01*
X36796538Y-30563225D01*
X36624914Y-30507461D01*
X36464127Y-30425536D01*
X36318135Y-30319467D01*
X36190533Y-30191865D01*
X36084464Y-30045873D01*
X36002539Y-29885086D01*
X35946775Y-29713462D01*
X35918545Y-29535228D01*
X35918545Y-29354772D01*
X35946775Y-29176538D01*
X36002539Y-29004914D01*
X36084464Y-28844127D01*
X36190533Y-28698135D01*
X36318135Y-28570533D01*
X36464127Y-28464464D01*
X36624914Y-28382539D01*
X36796538Y-28326775D01*
X36974772Y-28298545D01*
X37155228Y-28298545D01*
X37333462Y-28326775D01*
G37*
G36*
X61145962Y-28326775D02*
G01*
X61317586Y-28382539D01*
X61478373Y-28464464D01*
X61624365Y-28570533D01*
X61751967Y-28698135D01*
X61858036Y-28844127D01*
X61939961Y-29004914D01*
X61995725Y-29176538D01*
X62023955Y-29354772D01*
X62023955Y-29535228D01*
X61995725Y-29713462D01*
X61939961Y-29885086D01*
X61858036Y-30045873D01*
X61751967Y-30191865D01*
X61624365Y-30319467D01*
X61478373Y-30425536D01*
X61317586Y-30507461D01*
X61145962Y-30563225D01*
X60967728Y-30591455D01*
X60787272Y-30591455D01*
X60609038Y-30563225D01*
X60437414Y-30507461D01*
X60276627Y-30425536D01*
X60130635Y-30319467D01*
X60003033Y-30191865D01*
X59896964Y-30045873D01*
X59815039Y-29885086D01*
X59759275Y-29713462D01*
X59731045Y-29535228D01*
X59731045Y-29354772D01*
X59759275Y-29176538D01*
X59815039Y-29004914D01*
X59896964Y-28844127D01*
X60003033Y-28698135D01*
X60130635Y-28570533D01*
X60276627Y-28464464D01*
X60437414Y-28382539D01*
X60609038Y-28326775D01*
X60787272Y-28298545D01*
X60967728Y-28298545D01*
X61145962Y-28326775D01*
G37*
G36*
X80195962Y-28326775D02*
G01*
X80367586Y-28382539D01*
X80528373Y-28464464D01*
X80674365Y-28570533D01*
X80801967Y-28698135D01*
X80908036Y-28844127D01*
X80989961Y-29004914D01*
X81045725Y-29176538D01*
X81073955Y-29354772D01*
X81073955Y-29535228D01*
X81045725Y-29713462D01*
X80989961Y-29885086D01*
X80908036Y-30045873D01*
X80801967Y-30191865D01*
X80674365Y-30319467D01*
X80528373Y-30425536D01*
X80367586Y-30507461D01*
X80195962Y-30563225D01*
X80017728Y-30591455D01*
X79837272Y-30591455D01*
X79659038Y-30563225D01*
X79487414Y-30507461D01*
X79326627Y-30425536D01*
X79180635Y-30319467D01*
X79053033Y-30191865D01*
X78946964Y-30045873D01*
X78865039Y-29885086D01*
X78809275Y-29713462D01*
X78781045Y-29535228D01*
X78781045Y-29354772D01*
X78809275Y-29176538D01*
X78865039Y-29004914D01*
X78946964Y-28844127D01*
X79053033Y-28698135D01*
X79180635Y-28570533D01*
X79326627Y-28464464D01*
X79487414Y-28382539D01*
X79659038Y-28326775D01*
X79837272Y-28298545D01*
X80017728Y-28298545D01*
X80195962Y-28326775D01*
G37*
G36*
X99245962Y-28326775D02*
G01*
X99417586Y-28382539D01*
X99578373Y-28464464D01*
X99724365Y-28570533D01*
X99851967Y-28698135D01*
X99958036Y-28844127D01*
X100039961Y-29004914D01*
X100095725Y-29176538D01*
X100123955Y-29354772D01*
X100123955Y-29535228D01*
X100095725Y-29713462D01*
X100039961Y-29885086D01*
X99958036Y-30045873D01*
X99851967Y-30191865D01*
X99724365Y-30319467D01*
X99578373Y-30425536D01*
X99417586Y-30507461D01*
X99245962Y-30563225D01*
X99067728Y-30591455D01*
X98887272Y-30591455D01*
X98709038Y-30563225D01*
X98537414Y-30507461D01*
X98376627Y-30425536D01*
X98230635Y-30319467D01*
X98103033Y-30191865D01*
X97996964Y-30045873D01*
X97915039Y-29885086D01*
X97859275Y-29713462D01*
X97831045Y-29535228D01*
X97831045Y-29354772D01*
X97859275Y-29176538D01*
X97915039Y-29004914D01*
X97996964Y-28844127D01*
X98103033Y-28698135D01*
X98230635Y-28570533D01*
X98376627Y-28464464D01*
X98537414Y-28382539D01*
X98709038Y-28326775D01*
X98887272Y-28298545D01*
X99067728Y-28298545D01*
X99245962Y-28326775D01*
G37*
G36*
X118295962Y-28326775D02*
G01*
X118467586Y-28382539D01*
X118628373Y-28464464D01*
X118774365Y-28570533D01*
X118901967Y-28698135D01*
X119008036Y-28844127D01*
X119089961Y-29004914D01*
X119145725Y-29176538D01*
X119173955Y-29354772D01*
X119173955Y-29535228D01*
X119145725Y-29713462D01*
X119089961Y-29885086D01*
X119008036Y-30045873D01*
X118901967Y-30191865D01*
X118774365Y-30319467D01*
X118628373Y-30425536D01*
X118467586Y-30507461D01*
X118295962Y-30563225D01*
X118117728Y-30591455D01*
X117937272Y-30591455D01*
X117759038Y-30563225D01*
X117587414Y-30507461D01*
X117426627Y-30425536D01*
X117280635Y-30319467D01*
X117153033Y-30191865D01*
X117046964Y-30045873D01*
X116965039Y-29885086D01*
X116909275Y-29713462D01*
X116881045Y-29535228D01*
X116881045Y-29354772D01*
X116909275Y-29176538D01*
X116965039Y-29004914D01*
X117046964Y-28844127D01*
X117153033Y-28698135D01*
X117280635Y-28570533D01*
X117426627Y-28464464D01*
X117587414Y-28382539D01*
X117759038Y-28326775D01*
X117937272Y-28298545D01*
X118117728Y-28298545D01*
X118295962Y-28326775D01*
G37*
G36*
X142108462Y-28326775D02*
G01*
X142280086Y-28382539D01*
X142440873Y-28464464D01*
X142586865Y-28570533D01*
X142714467Y-28698135D01*
X142820536Y-28844127D01*
X142902461Y-29004914D01*
X142958225Y-29176538D01*
X142986455Y-29354772D01*
X142986455Y-29535228D01*
X142958225Y-29713462D01*
X142902461Y-29885086D01*
X142820536Y-30045873D01*
X142714467Y-30191865D01*
X142586865Y-30319467D01*
X142440873Y-30425536D01*
X142280086Y-30507461D01*
X142108462Y-30563225D01*
X141930228Y-30591455D01*
X141749772Y-30591455D01*
X141571538Y-30563225D01*
X141399914Y-30507461D01*
X141239127Y-30425536D01*
X141093135Y-30319467D01*
X140965533Y-30191865D01*
X140859464Y-30045873D01*
X140777539Y-29885086D01*
X140721775Y-29713462D01*
X140693545Y-29535228D01*
X140693545Y-29354772D01*
X140721775Y-29176538D01*
X140777539Y-29004914D01*
X140859464Y-28844127D01*
X140965533Y-28698135D01*
X141093135Y-28570533D01*
X141239127Y-28464464D01*
X141399914Y-28382539D01*
X141571538Y-28326775D01*
X141749772Y-28298545D01*
X141930228Y-28298545D01*
X142108462Y-28326775D01*
G37*
G36*
X161158462Y-28326775D02*
G01*
X161330086Y-28382539D01*
X161490873Y-28464464D01*
X161636865Y-28570533D01*
X161764467Y-28698135D01*
X161870536Y-28844127D01*
X161952461Y-29004914D01*
X162008225Y-29176538D01*
X162036455Y-29354772D01*
X162036455Y-29535228D01*
X162008225Y-29713462D01*
X161952461Y-29885086D01*
X161870536Y-30045873D01*
X161764467Y-30191865D01*
X161636865Y-30319467D01*
X161490873Y-30425536D01*
X161330086Y-30507461D01*
X161158462Y-30563225D01*
X160980228Y-30591455D01*
X160799772Y-30591455D01*
X160621538Y-30563225D01*
X160449914Y-30507461D01*
X160289127Y-30425536D01*
X160143135Y-30319467D01*
X160015533Y-30191865D01*
X159909464Y-30045873D01*
X159827539Y-29885086D01*
X159771775Y-29713462D01*
X159743545Y-29535228D01*
X159743545Y-29354772D01*
X159771775Y-29176538D01*
X159827539Y-29004914D01*
X159909464Y-28844127D01*
X160015533Y-28698135D01*
X160143135Y-28570533D01*
X160289127Y-28464464D01*
X160449914Y-28382539D01*
X160621538Y-28326775D01*
X160799772Y-28298545D01*
X160980228Y-28298545D01*
X161158462Y-28326775D01*
G37*
G36*
X180208462Y-28326775D02*
G01*
X180380086Y-28382539D01*
X180540873Y-28464464D01*
X180686865Y-28570533D01*
X180814467Y-28698135D01*
X180920536Y-28844127D01*
X181002461Y-29004914D01*
X181058225Y-29176538D01*
X181086455Y-29354772D01*
X181086455Y-29535228D01*
X181058225Y-29713462D01*
X181002461Y-29885086D01*
X180920536Y-30045873D01*
X180814467Y-30191865D01*
X180686865Y-30319467D01*
X180540873Y-30425536D01*
X180380086Y-30507461D01*
X180208462Y-30563225D01*
X180030228Y-30591455D01*
X179849772Y-30591455D01*
X179671538Y-30563225D01*
X179499914Y-30507461D01*
X179339127Y-30425536D01*
X179193135Y-30319467D01*
X179065533Y-30191865D01*
X178959464Y-30045873D01*
X178877539Y-29885086D01*
X178821775Y-29713462D01*
X178793545Y-29535228D01*
X178793545Y-29354772D01*
X178821775Y-29176538D01*
X178877539Y-29004914D01*
X178959464Y-28844127D01*
X179065533Y-28698135D01*
X179193135Y-28570533D01*
X179339127Y-28464464D01*
X179499914Y-28382539D01*
X179671538Y-28326775D01*
X179849772Y-28298545D01*
X180030228Y-28298545D01*
X180208462Y-28326775D01*
G37*
G36*
X199258462Y-28326775D02*
G01*
X199430086Y-28382539D01*
X199590873Y-28464464D01*
X199736865Y-28570533D01*
X199864467Y-28698135D01*
X199970536Y-28844127D01*
X200052461Y-29004914D01*
X200108225Y-29176538D01*
X200136455Y-29354772D01*
X200136455Y-29535228D01*
X200108225Y-29713462D01*
X200052461Y-29885086D01*
X199970536Y-30045873D01*
X199864467Y-30191865D01*
X199736865Y-30319467D01*
X199590873Y-30425536D01*
X199430086Y-30507461D01*
X199258462Y-30563225D01*
X199080228Y-30591455D01*
X198899772Y-30591455D01*
X198721538Y-30563225D01*
X198549914Y-30507461D01*
X198389127Y-30425536D01*
X198243135Y-30319467D01*
X198115533Y-30191865D01*
X198009464Y-30045873D01*
X197927539Y-29885086D01*
X197871775Y-29713462D01*
X197843545Y-29535228D01*
X197843545Y-29354772D01*
X197871775Y-29176538D01*
X197927539Y-29004914D01*
X198009464Y-28844127D01*
X198115533Y-28698135D01*
X198243135Y-28570533D01*
X198389127Y-28464464D01*
X198549914Y-28382539D01*
X198721538Y-28326775D01*
X198899772Y-28298545D01*
X199080228Y-28298545D01*
X199258462Y-28326775D01*
G37*
G36*
X223070962Y-28326775D02*
G01*
X223242586Y-28382539D01*
X223403373Y-28464464D01*
X223549365Y-28570533D01*
X223676967Y-28698135D01*
X223783036Y-28844127D01*
X223864961Y-29004914D01*
X223920725Y-29176538D01*
X223948955Y-29354772D01*
X223948955Y-29535228D01*
X223920725Y-29713462D01*
X223864961Y-29885086D01*
X223783036Y-30045873D01*
X223676967Y-30191865D01*
X223549365Y-30319467D01*
X223403373Y-30425536D01*
X223242586Y-30507461D01*
X223070962Y-30563225D01*
X222892728Y-30591455D01*
X222712272Y-30591455D01*
X222534038Y-30563225D01*
X222362414Y-30507461D01*
X222201627Y-30425536D01*
X222055635Y-30319467D01*
X221928033Y-30191865D01*
X221821964Y-30045873D01*
X221740039Y-29885086D01*
X221684275Y-29713462D01*
X221656045Y-29535228D01*
X221656045Y-29354772D01*
X221684275Y-29176538D01*
X221740039Y-29004914D01*
X221821964Y-28844127D01*
X221928033Y-28698135D01*
X222055635Y-28570533D01*
X222201627Y-28464464D01*
X222362414Y-28382539D01*
X222534038Y-28326775D01*
X222712272Y-28298545D01*
X222892728Y-28298545D01*
X223070962Y-28326775D01*
G37*
G36*
X242120962Y-28326775D02*
G01*
X242292586Y-28382539D01*
X242453373Y-28464464D01*
X242599365Y-28570533D01*
X242726967Y-28698135D01*
X242833036Y-28844127D01*
X242914961Y-29004914D01*
X242970725Y-29176538D01*
X242998955Y-29354772D01*
X242998955Y-29535228D01*
X242970725Y-29713462D01*
X242914961Y-29885086D01*
X242833036Y-30045873D01*
X242726967Y-30191865D01*
X242599365Y-30319467D01*
X242453373Y-30425536D01*
X242292586Y-30507461D01*
X242120962Y-30563225D01*
X241942728Y-30591455D01*
X241762272Y-30591455D01*
X241584038Y-30563225D01*
X241412414Y-30507461D01*
X241251627Y-30425536D01*
X241105635Y-30319467D01*
X240978033Y-30191865D01*
X240871964Y-30045873D01*
X240790039Y-29885086D01*
X240734275Y-29713462D01*
X240706045Y-29535228D01*
X240706045Y-29354772D01*
X240734275Y-29176538D01*
X240790039Y-29004914D01*
X240871964Y-28844127D01*
X240978033Y-28698135D01*
X241105635Y-28570533D01*
X241251627Y-28464464D01*
X241412414Y-28382539D01*
X241584038Y-28326775D01*
X241762272Y-28298545D01*
X241942728Y-28298545D01*
X242120962Y-28326775D01*
G37*
G36*
X261170962Y-28326775D02*
G01*
X261342586Y-28382539D01*
X261503373Y-28464464D01*
X261649365Y-28570533D01*
X261776967Y-28698135D01*
X261883036Y-28844127D01*
X261964961Y-29004914D01*
X262020725Y-29176538D01*
X262048955Y-29354772D01*
X262048955Y-29535228D01*
X262020725Y-29713462D01*
X261964961Y-29885086D01*
X261883036Y-30045873D01*
X261776967Y-30191865D01*
X261649365Y-30319467D01*
X261503373Y-30425536D01*
X261342586Y-30507461D01*
X261170962Y-30563225D01*
X260992728Y-30591455D01*
X260812272Y-30591455D01*
X260634038Y-30563225D01*
X260462414Y-30507461D01*
X260301627Y-30425536D01*
X260155635Y-30319467D01*
X260028033Y-30191865D01*
X259921964Y-30045873D01*
X259840039Y-29885086D01*
X259784275Y-29713462D01*
X259756045Y-29535228D01*
X259756045Y-29354772D01*
X259784275Y-29176538D01*
X259840039Y-29004914D01*
X259921964Y-28844127D01*
X260028033Y-28698135D01*
X260155635Y-28570533D01*
X260301627Y-28464464D01*
X260462414Y-28382539D01*
X260634038Y-28326775D01*
X260812272Y-28298545D01*
X260992728Y-28298545D01*
X261170962Y-28326775D01*
G37*
G36*
X280220962Y-28326775D02*
G01*
X280392586Y-28382539D01*
X280553373Y-28464464D01*
X280699365Y-28570533D01*
X280826967Y-28698135D01*
X280933036Y-28844127D01*
X281014961Y-29004914D01*
X281070725Y-29176538D01*
X281098955Y-29354772D01*
X281098955Y-29535228D01*
X281070725Y-29713462D01*
X281014961Y-29885086D01*
X280933036Y-30045873D01*
X280826967Y-30191865D01*
X280699365Y-30319467D01*
X280553373Y-30425536D01*
X280392586Y-30507461D01*
X280220962Y-30563225D01*
X280042728Y-30591455D01*
X279862272Y-30591455D01*
X279684038Y-30563225D01*
X279512414Y-30507461D01*
X279351627Y-30425536D01*
X279205635Y-30319467D01*
X279078033Y-30191865D01*
X278971964Y-30045873D01*
X278890039Y-29885086D01*
X278834275Y-29713462D01*
X278806045Y-29535228D01*
X278806045Y-29354772D01*
X278834275Y-29176538D01*
X278890039Y-29004914D01*
X278971964Y-28844127D01*
X279078033Y-28698135D01*
X279205635Y-28570533D01*
X279351627Y-28464464D01*
X279512414Y-28382539D01*
X279684038Y-28326775D01*
X279862272Y-28298545D01*
X280042728Y-28298545D01*
X280220962Y-28326775D01*
G37*
G36*
X304985962Y-28326775D02*
G01*
X305157586Y-28382539D01*
X305318373Y-28464464D01*
X305464365Y-28570533D01*
X305591967Y-28698135D01*
X305698036Y-28844127D01*
X305779961Y-29004914D01*
X305835725Y-29176538D01*
X305863955Y-29354772D01*
X305863955Y-29535228D01*
X305835725Y-29713462D01*
X305779961Y-29885086D01*
X305698036Y-30045873D01*
X305591967Y-30191865D01*
X305464365Y-30319467D01*
X305318373Y-30425536D01*
X305157586Y-30507461D01*
X304985962Y-30563225D01*
X304807728Y-30591455D01*
X304627272Y-30591455D01*
X304449038Y-30563225D01*
X304277414Y-30507461D01*
X304116627Y-30425536D01*
X303970635Y-30319467D01*
X303843033Y-30191865D01*
X303736964Y-30045873D01*
X303655039Y-29885086D01*
X303599275Y-29713462D01*
X303571045Y-29535228D01*
X303571045Y-29354772D01*
X303599275Y-29176538D01*
X303655039Y-29004914D01*
X303736964Y-28844127D01*
X303843033Y-28698135D01*
X303970635Y-28570533D01*
X304116627Y-28464464D01*
X304277414Y-28382539D01*
X304449038Y-28326775D01*
X304627272Y-28298545D01*
X304807728Y-28298545D01*
X304985962Y-28326775D01*
G37*
G36*
X324035962Y-28326775D02*
G01*
X324207586Y-28382539D01*
X324368373Y-28464464D01*
X324514365Y-28570533D01*
X324641967Y-28698135D01*
X324748036Y-28844127D01*
X324829961Y-29004914D01*
X324885725Y-29176538D01*
X324913955Y-29354772D01*
X324913955Y-29535228D01*
X324885725Y-29713462D01*
X324829961Y-29885086D01*
X324748036Y-30045873D01*
X324641967Y-30191865D01*
X324514365Y-30319467D01*
X324368373Y-30425536D01*
X324207586Y-30507461D01*
X324035962Y-30563225D01*
X323857728Y-30591455D01*
X323677272Y-30591455D01*
X323499038Y-30563225D01*
X323327414Y-30507461D01*
X323166627Y-30425536D01*
X323020635Y-30319467D01*
X322893033Y-30191865D01*
X322786964Y-30045873D01*
X322705039Y-29885086D01*
X322649275Y-29713462D01*
X322621045Y-29535228D01*
X322621045Y-29354772D01*
X322649275Y-29176538D01*
X322705039Y-29004914D01*
X322786964Y-28844127D01*
X322893033Y-28698135D01*
X323020635Y-28570533D01*
X323166627Y-28464464D01*
X323327414Y-28382539D01*
X323499038Y-28326775D01*
X323677272Y-28298545D01*
X323857728Y-28298545D01*
X324035962Y-28326775D01*
G37*
G36*
X343085962Y-28326775D02*
G01*
X343257586Y-28382539D01*
X343418373Y-28464464D01*
X343564365Y-28570533D01*
X343691967Y-28698135D01*
X343798036Y-28844127D01*
X343879961Y-29004914D01*
X343935725Y-29176538D01*
X343963955Y-29354772D01*
X343963955Y-29535228D01*
X343935725Y-29713462D01*
X343879961Y-29885086D01*
X343798036Y-30045873D01*
X343691967Y-30191865D01*
X343564365Y-30319467D01*
X343418373Y-30425536D01*
X343257586Y-30507461D01*
X343085962Y-30563225D01*
X342907728Y-30591455D01*
X342727272Y-30591455D01*
X342549038Y-30563225D01*
X342377414Y-30507461D01*
X342216627Y-30425536D01*
X342070635Y-30319467D01*
X341943033Y-30191865D01*
X341836964Y-30045873D01*
X341755039Y-29885086D01*
X341699275Y-29713462D01*
X341671045Y-29535228D01*
X341671045Y-29354772D01*
X341699275Y-29176538D01*
X341755039Y-29004914D01*
X341836964Y-28844127D01*
X341943033Y-28698135D01*
X342070635Y-28570533D01*
X342216627Y-28464464D01*
X342377414Y-28382539D01*
X342549038Y-28326775D01*
X342727272Y-28298545D01*
X342907728Y-28298545D01*
X343085962Y-28326775D01*
G37*
G36*
X357469017Y-20239561D02*
G01*
X357775139Y-20309431D01*
X358071514Y-20413137D01*
X358354413Y-20549374D01*
X358620280Y-20716430D01*
X358865770Y-20912202D01*
X359087798Y-21134230D01*
X359283570Y-21379720D01*
X359450626Y-21645587D01*
X359586863Y-21928486D01*
X359690569Y-22224861D01*
X359760439Y-22530983D01*
X359795595Y-22843003D01*
X359795595Y-23156997D01*
X359760439Y-23469017D01*
X359690569Y-23775139D01*
X359586863Y-24071514D01*
X359450626Y-24354413D01*
X359283570Y-24620280D01*
X359087798Y-24865770D01*
X358865770Y-25087798D01*
X358620280Y-25283570D01*
X358354413Y-25450626D01*
X358071514Y-25586863D01*
X357775139Y-25690569D01*
X357469017Y-25760439D01*
X357156997Y-25795595D01*
X356843003Y-25795595D01*
X356530983Y-25760439D01*
X356224861Y-25690569D01*
X355928486Y-25586863D01*
X355645587Y-25450626D01*
X355379720Y-25283570D01*
X355134230Y-25087798D01*
X354912202Y-24865770D01*
X354716430Y-24620280D01*
X354549374Y-24354413D01*
X354413137Y-24071514D01*
X354309431Y-23775139D01*
X354239561Y-23469017D01*
X354204405Y-23156997D01*
X354204405Y-22843003D01*
X354239561Y-22530983D01*
X354309431Y-22224861D01*
X354413137Y-21928486D01*
X354549374Y-21645587D01*
X354716430Y-21379720D01*
X354912202Y-21134230D01*
X355134230Y-20912202D01*
X355379720Y-20716430D01*
X355645587Y-20549374D01*
X355928486Y-20413137D01*
X356224861Y-20309431D01*
X356530983Y-20239561D01*
X356843003Y-20204405D01*
X357156997Y-20204405D01*
X357469017Y-20239561D01*
G37*
G36*
X297926742Y-23686601D02*
G01*
X298080687Y-23750367D01*
X298219234Y-23842941D01*
X298337059Y-23960766D01*
X298429633Y-24099313D01*
X298493399Y-24253258D01*
X298525907Y-24416685D01*
X298525907Y-24583315D01*
X298493399Y-24746742D01*
X298429633Y-24900687D01*
X298337059Y-25039234D01*
X298219234Y-25157059D01*
X298080687Y-25249633D01*
X297926742Y-25313399D01*
X297763315Y-25345907D01*
X297596685Y-25345907D01*
X297433258Y-25313399D01*
X297279313Y-25249633D01*
X297140766Y-25157059D01*
X297022941Y-25039234D01*
X296930367Y-24900687D01*
X296866601Y-24746742D01*
X296834093Y-24583315D01*
X296834093Y-24416685D01*
X296866601Y-24253258D01*
X296930367Y-24099313D01*
X297022941Y-23960766D01*
X297140766Y-23842941D01*
X297279313Y-23750367D01*
X297433258Y-23686601D01*
X297596685Y-23654093D01*
X297763315Y-23654093D01*
X297926742Y-23686601D01*
G37*
G36*
X306566742Y-23686601D02*
G01*
X306720687Y-23750367D01*
X306859234Y-23842941D01*
X306977059Y-23960766D01*
X307069633Y-24099313D01*
X307133399Y-24253258D01*
X307165907Y-24416685D01*
X307165907Y-24583315D01*
X307133399Y-24746742D01*
X307069633Y-24900687D01*
X306977059Y-25039234D01*
X306859234Y-25157059D01*
X306720687Y-25249633D01*
X306566742Y-25313399D01*
X306403315Y-25345907D01*
X306236685Y-25345907D01*
X306073258Y-25313399D01*
X305919313Y-25249633D01*
X305780766Y-25157059D01*
X305662941Y-25039234D01*
X305570367Y-24900687D01*
X305506601Y-24746742D01*
X305474093Y-24583315D01*
X305474093Y-24416685D01*
X305506601Y-24253258D01*
X305570367Y-24099313D01*
X305662941Y-23960766D01*
X305780766Y-23842941D01*
X305919313Y-23750367D01*
X306073258Y-23686601D01*
X306236685Y-23654093D01*
X306403315Y-23654093D01*
X306566742Y-23686601D01*
G37*
G36*
X22969017Y-19739561D02*
G01*
X23275139Y-19809431D01*
X23571514Y-19913137D01*
X23854413Y-20049374D01*
X24120280Y-20216430D01*
X24365770Y-20412202D01*
X24587798Y-20634230D01*
X24783570Y-20879720D01*
X24950626Y-21145587D01*
X25086863Y-21428486D01*
X25190569Y-21724861D01*
X25260439Y-22030983D01*
X25295595Y-22343003D01*
X25295595Y-22656997D01*
X25260439Y-22969017D01*
X25190569Y-23275139D01*
X25086863Y-23571514D01*
X24950626Y-23854413D01*
X24783570Y-24120280D01*
X24587798Y-24365770D01*
X24365770Y-24587798D01*
X24120280Y-24783570D01*
X23854413Y-24950626D01*
X23571514Y-25086863D01*
X23275139Y-25190569D01*
X22969017Y-25260439D01*
X22656997Y-25295595D01*
X22343003Y-25295595D01*
X22030983Y-25260439D01*
X21724861Y-25190569D01*
X21428486Y-25086863D01*
X21145587Y-24950626D01*
X20879720Y-24783570D01*
X20634230Y-24587798D01*
X20412202Y-24365770D01*
X20216430Y-24120280D01*
X20049374Y-23854413D01*
X19913137Y-23571514D01*
X19809431Y-23275139D01*
X19739561Y-22969017D01*
X19704405Y-22656997D01*
X19704405Y-22343003D01*
X19739561Y-22030983D01*
X19809431Y-21724861D01*
X19913137Y-21428486D01*
X20049374Y-21145587D01*
X20216430Y-20879720D01*
X20412202Y-20634230D01*
X20634230Y-20412202D01*
X20879720Y-20216430D01*
X21145587Y-20049374D01*
X21428486Y-19913137D01*
X21724861Y-19809431D01*
X22030983Y-19739561D01*
X22343003Y-19704405D01*
X22656997Y-19704405D01*
X22969017Y-19739561D01*
G37*
D10*
X30715000Y-31985000D03*
X37065000Y-29445000D03*
X54527500Y-31985000D03*
X60877500Y-29445000D03*
X73577500Y-31985000D03*
X79927500Y-29445000D03*
X92627500Y-31985000D03*
X98977500Y-29445000D03*
X111677500Y-31985000D03*
X118027500Y-29445000D03*
X135490000Y-31985000D03*
X141840000Y-29445000D03*
X154540000Y-31985000D03*
X160890000Y-29445000D03*
X173590000Y-31985000D03*
X179940000Y-29445000D03*
X192640000Y-31985000D03*
X198990000Y-29445000D03*
X216452500Y-31985000D03*
X222802500Y-29445000D03*
X235502500Y-31985000D03*
X241852500Y-29445000D03*
X254552500Y-31985000D03*
X260902500Y-29445000D03*
X273602500Y-31985000D03*
X279952500Y-29445000D03*
X298367500Y-31985000D03*
X304717500Y-29445000D03*
X317417500Y-31985000D03*
X323767500Y-29445000D03*
X336467500Y-31985000D03*
X342817500Y-29445000D03*
X30715000Y-55797500D03*
X37065000Y-53257500D03*
X49765000Y-55797500D03*
X56115000Y-53257500D03*
X68815000Y-55797500D03*
X75165000Y-53257500D03*
X87865000Y-55797500D03*
X94215000Y-53257500D03*
X106915000Y-55797500D03*
X113265000Y-53257500D03*
X125965000Y-55797500D03*
X132315000Y-53257500D03*
X145015000Y-55797500D03*
X151365000Y-53257500D03*
X164065000Y-55797500D03*
X170415000Y-53257500D03*
X183115000Y-55797500D03*
X189465000Y-53257500D03*
X202165000Y-55797500D03*
X208515000Y-53257500D03*
X221215000Y-55797500D03*
X227565000Y-53257500D03*
X240265000Y-55797500D03*
X246615000Y-53257500D03*
X259315000Y-55797500D03*
X265665000Y-53257500D03*
X290271300Y-55797500D03*
X296621300Y-53257500D03*
X322370500Y-55797500D03*
X328720500Y-53257500D03*
X341420500Y-55797500D03*
X347770500Y-53257500D03*
X37858800Y-74847500D03*
X44208800Y-72307500D03*
X64052500Y-74847500D03*
X70402500Y-72307500D03*
X83102500Y-74847500D03*
X89452500Y-72307500D03*
X102152500Y-74847500D03*
X108502500Y-72307500D03*
X121202500Y-74847500D03*
X127552500Y-72307500D03*
X140252500Y-74847500D03*
X146602500Y-72307500D03*
X159302500Y-74847500D03*
X165652500Y-72307500D03*
X178352500Y-74847500D03*
X184702500Y-72307500D03*
X197402500Y-74847500D03*
X203752500Y-72307500D03*
X216452500Y-74847500D03*
X222802500Y-72307500D03*
X235502500Y-74847500D03*
X241852500Y-72307500D03*
X254552500Y-74847500D03*
X260902500Y-72307500D03*
X273602500Y-74847500D03*
X279952500Y-72307500D03*
X297415000Y-84372500D03*
X303765000Y-81832500D03*
X322370500Y-74847500D03*
X328720500Y-72307500D03*
X341420500Y-74847500D03*
X347770500Y-72307500D03*
X40240000Y-93897500D03*
X46590000Y-91357500D03*
X68815000Y-93897500D03*
X75165000Y-91357500D03*
X87865000Y-93897500D03*
X94215000Y-91357500D03*
X106915000Y-93897500D03*
X113265000Y-91357500D03*
X125965000Y-93897500D03*
X132315000Y-91357500D03*
X145015000Y-93897500D03*
X151365000Y-91357500D03*
X164065000Y-93897500D03*
X170415000Y-91357500D03*
X183115000Y-93897500D03*
X189465000Y-91357500D03*
X202165000Y-93897500D03*
X208515000Y-91357500D03*
X221215000Y-93897500D03*
X227565000Y-91357500D03*
X240265000Y-93897500D03*
X246615000Y-91357500D03*
X259315000Y-93897500D03*
X265665000Y-91357500D03*
X322370500Y-93897500D03*
X328720500Y-91357500D03*
X341420500Y-93897500D03*
X347770500Y-91357500D03*
X42621300Y-112947500D03*
X48971300Y-110407500D03*
X73577500Y-112947500D03*
X79927500Y-110407500D03*
X92627500Y-112947500D03*
X98977500Y-110407500D03*
X111677500Y-112947500D03*
X118027500Y-110407500D03*
X130727500Y-112947500D03*
X137077500Y-110407500D03*
X149777500Y-112947500D03*
X156127500Y-110407500D03*
X168827500Y-112947500D03*
X175177500Y-110407500D03*
X187877500Y-112947500D03*
X194227500Y-110407500D03*
X206927500Y-112947500D03*
X213277500Y-110407500D03*
X225977500Y-112947500D03*
X232327500Y-110407500D03*
X245027500Y-112947500D03*
X251377500Y-110407500D03*
X271221300Y-112947500D03*
X277571300Y-110407500D03*
X302177500Y-112947500D03*
X308527500Y-110407500D03*
X343135000Y-114852500D03*
X349485000Y-112312500D03*
X33096300Y-131997500D03*
X39446300Y-129457500D03*
X56908800Y-131997500D03*
X63258800Y-129457500D03*
X80721300Y-131997500D03*
X87071300Y-129457500D03*
X154540000Y-131997500D03*
X160890000Y-129457500D03*
X228358800Y-131997500D03*
X234708800Y-129457500D03*
X252171300Y-131997500D03*
X258521300Y-129457500D03*
X283127500Y-131997500D03*
X289477500Y-129457500D03*
X302177500Y-131997500D03*
X308527500Y-129457500D03*
X321227500Y-131997500D03*
X327577500Y-129457500D03*
X343135000Y-133902500D03*
X349485000Y-131362500D03*
X306320000Y-24500000D03*
X297680000Y-24500000D03*
X335500000Y-77500000D03*
X333500000Y-77500000D03*
X22500000Y-22500000D03*
X357000000Y-23000000D03*
X22500000Y-146500000D03*
X357000000Y-146500000D03*
X127500000Y-45500000D03*
X281500000Y-96000000D03*
M02*
