M48
; DRILL file {KiCad 9.0.7-1.fc43} date 2026-03-27T15:17:15-0400
; FORMAT={-:-/ absolute / metric / decimal}
; #@! TF.CreationDate,2026-03-27T15:17:15-04:00
; #@! TF.GenerationSoftware,Kicad,Pcbnew,9.0.7-1.fc43
; #@! TF.FileFunction,MixedPlating,1,4
FMAT,2
METRIC
; #@! TA.AperFunction,Plated,PTH,ComponentDrill
T1C1.000
; #@! TA.AperFunction,Plated,PTH,ComponentDrill
T2C1.500
; #@! TA.AperFunction,Plated,PTH,ComponentDrill
T3C2.700
%
G90
G05
T1
X173.61Y-122.53
X173.61Y-125.07
X173.61Y-127.61
X173.61Y-130.15
X173.61Y-132.69
X173.61Y-135.23
X173.61Y-137.77
X173.61Y-140.31
X173.61Y-142.85
X173.61Y-145.39
X173.61Y-147.93
X173.61Y-150.47
X177.42Y-155.55
X179.96Y-155.55
X182.5Y-155.55
X185.04Y-155.55
X187.58Y-155.55
X191.39Y-122.53
X191.39Y-125.07
X191.39Y-127.61
X191.39Y-130.15
X191.39Y-132.69
X191.39Y-135.23
X191.39Y-137.77
X191.39Y-140.31
X191.39Y-142.85
X191.39Y-145.39
X191.39Y-147.93
X191.39Y-150.47
X297.68Y-24.5
X306.32Y-24.5
X329.0Y-38.0
X331.0Y-38.0
T2
X30.715Y-31.985
X30.715Y-55.797
X33.096Y-131.998
X37.065Y-29.445
X37.065Y-53.258
X37.859Y-74.847
X39.446Y-129.457
X40.24Y-93.897
X42.621Y-112.947
X44.209Y-72.307
X46.59Y-91.358
X48.971Y-110.407
X49.765Y-55.797
X54.527Y-31.985
X56.115Y-53.258
X56.909Y-131.998
X60.877Y-29.445
X63.259Y-129.457
X64.052Y-74.847
X68.815Y-55.797
X68.815Y-93.897
X70.403Y-72.307
X73.578Y-31.985
X73.578Y-112.947
X75.165Y-53.258
X75.165Y-91.358
X79.927Y-29.445
X79.927Y-110.407
X80.721Y-131.998
X83.102Y-74.847
X87.071Y-129.457
X87.865Y-55.797
X87.865Y-93.897
X89.453Y-72.307
X92.627Y-31.985
X92.627Y-112.947
X94.215Y-53.258
X94.215Y-91.358
X98.977Y-29.445
X98.977Y-110.407
X102.152Y-74.847
X106.915Y-55.797
X106.915Y-93.897
X108.502Y-72.307
X111.677Y-31.985
X111.677Y-112.947
X113.265Y-53.258
X113.265Y-91.358
X118.027Y-29.445
X118.027Y-110.407
X121.203Y-74.847
X125.965Y-55.797
X125.965Y-93.897
X127.552Y-72.307
X130.727Y-112.947
X132.315Y-53.258
X132.315Y-91.358
X135.49Y-31.985
X137.077Y-110.407
X140.252Y-74.847
X141.84Y-29.445
X145.015Y-55.797
X145.015Y-93.897
X146.602Y-72.307
X149.778Y-112.947
X151.365Y-53.258
X151.365Y-91.358
X154.54Y-31.985
X154.54Y-131.998
X156.127Y-110.407
X159.302Y-74.847
X160.89Y-29.445
X160.89Y-129.457
X164.065Y-55.797
X164.065Y-93.897
X165.653Y-72.307
X168.827Y-112.947
X170.415Y-53.258
X170.415Y-91.358
X173.59Y-31.985
X175.177Y-110.407
X178.352Y-74.847
X179.94Y-29.445
X183.115Y-55.797
X183.115Y-93.897
X184.702Y-72.307
X187.877Y-112.947
X189.465Y-53.258
X189.465Y-91.358
X192.64Y-31.985
X194.227Y-110.407
X197.403Y-74.847
X198.99Y-29.445
X202.165Y-55.797
X202.165Y-93.897
X203.752Y-72.307
X206.927Y-112.947
X208.515Y-53.258
X208.515Y-91.358
X213.278Y-110.407
X216.452Y-31.985
X216.452Y-74.847
X221.215Y-55.797
X221.215Y-93.897
X222.802Y-29.445
X222.802Y-72.307
X225.977Y-112.947
X227.565Y-53.258
X227.565Y-91.358
X228.359Y-131.998
X232.327Y-110.407
X234.709Y-129.457
X235.502Y-31.985
X235.502Y-74.847
X240.265Y-55.797
X240.265Y-93.897
X241.852Y-29.445
X241.852Y-72.307
X245.027Y-112.947
X246.615Y-53.258
X246.615Y-91.358
X251.377Y-110.407
X252.171Y-131.998
X254.552Y-31.985
X254.552Y-74.847
X258.521Y-129.457
X259.315Y-55.797
X259.315Y-93.897
X260.902Y-29.445
X260.902Y-72.307
X265.665Y-53.258
X265.665Y-91.358
X271.221Y-112.947
X273.602Y-31.985
X273.602Y-74.847
X277.571Y-110.407
X279.952Y-29.445
X279.952Y-72.307
X283.127Y-131.998
X289.477Y-129.457
X290.271Y-55.797
X296.621Y-53.258
X297.415Y-84.373
X298.368Y-31.985
X302.178Y-112.947
X302.178Y-131.998
X303.765Y-81.832
X304.717Y-29.445
X308.527Y-110.407
X308.527Y-129.457
X317.417Y-31.985
X321.227Y-131.998
X322.37Y-55.797
X322.37Y-74.847
X322.37Y-93.897
X323.767Y-29.445
X327.577Y-129.457
X328.72Y-53.258
X328.72Y-72.307
X328.72Y-91.358
X336.467Y-31.985
X341.421Y-55.797
X341.421Y-74.847
X341.421Y-93.897
X342.817Y-29.445
X343.135Y-114.852
X343.135Y-133.903
X347.77Y-53.258
X347.77Y-72.307
X347.77Y-91.358
X349.485Y-112.312
X349.485Y-131.362
T3
X22.5Y-22.5
X22.5Y-146.5
X127.5Y-45.5
X281.5Y-96.0
X357.0Y-23.0
X357.0Y-146.5
M30
