%TF.GenerationSoftware,KiCad,Pcbnew,9.0.7-1.fc43*%
%TF.CreationDate,2026-03-27T01:22:26-04:00*%
%TF.ProjectId,blue-dream-space,626c7565-2d64-4726-9561-6d2d73706163,rev?*%
%TF.SameCoordinates,Original*%
%TF.FileFunction,Copper,L1,Top*%
%TF.FilePolarity,Positive*%
%FSLAX46Y46*%
G04 Gerber Fmt 4.6, Leading zero omitted, Abs format (unit mm)*
G04 Created by KiCad (PCBNEW 9.0.7-1.fc43) date 2026-03-27 01:22:26*
%MOMM*%
%LPD*%
G01*
G04 APERTURE LIST*
G04 Aperture macros list*
%AMRoundRect*
0 Rectangle with rounded corners*
0 $1 Rounding radius*
0 $2 $3 $4 $5 $6 $7 $8 $9 X,Y pos of 4 corners*
0 Add a 4 corners polygon primitive as box body*
4,1,4,$2,$3,$4,$5,$6,$7,$8,$9,$2,$3,0*
0 Add four circle primitives for the rounded corners*
1,1,$1+$1,$2,$3*
1,1,$1+$1,$4,$5*
1,1,$1+$1,$6,$7*
1,1,$1+$1,$8,$9*
0 Add four rect primitives between the rounded corners*
20,1,$1+$1,$2,$3,$4,$5,0*
20,1,$1+$1,$4,$5,$6,$7,0*
20,1,$1+$1,$6,$7,$8,$9,0*
20,1,$1+$1,$8,$9,$2,$3,0*%
G04 Aperture macros list end*
%TA.AperFunction,ComponentPad*%
%ADD10C,2.200000*%
%TD*%
%TA.AperFunction,SMDPad,CuDef*%
%ADD11RoundRect,0.225000X-0.225000X-0.375000X0.225000X-0.375000X0.225000X0.375000X-0.225000X0.375000X0*%
%TD*%
%TA.AperFunction,SMDPad,CuDef*%
%ADD12RoundRect,0.075000X-0.075000X-0.300000X0.075000X-0.300000X0.075000X0.300000X-0.075000X0.300000X0*%
%TD*%
%TA.AperFunction,SMDPad,CuDef*%
%ADD13RoundRect,0.075000X-0.300000X-0.075000X0.300000X-0.075000X0.300000X0.075000X-0.300000X0.075000X0*%
%TD*%
%TA.AperFunction,SMDPad,CuDef*%
%ADD14R,5.600000X5.600000*%
%TD*%
%TA.AperFunction,SMDPad,CuDef*%
%ADD15RoundRect,0.075000X-0.075000X-0.425000X0.075000X-0.425000X0.075000X0.425000X-0.075000X0.425000X0*%
%TD*%
%TA.AperFunction,ComponentPad*%
%ADD16C,1.600000*%
%TD*%
%TA.AperFunction,ComponentPad*%
%ADD17C,1.750000*%
%TD*%
%TA.AperFunction,SMDPad,CuDef*%
%ADD18R,1.000000X1.500000*%
%TD*%
%TA.AperFunction,ComponentPad*%
%ADD19C,5.500000*%
%TD*%
%ADD20C,0.350000*%
G04 APERTURE END LIST*
D10*
%TO.P,SW1,1*%
%TO.N,COL0*%
X30715000Y-31985000D03*
%TO.P,SW1,2*%
%TO.N,ROW0*%
X37065000Y-29445000D03*
%TD*%
D11*
%TO.P,D1,1*%
%TO.N,ROW0*%
X33175000Y-42525000D03*
%TO.P,D1,2*%
%TO.N,COL0*%
X35875000Y-42525000D03*
%TD*%
D10*
%TO.P,SW2,1*%
%TO.N,COL1*%
X54527500Y-31985000D03*
%TO.P,SW2,2*%
%TO.N,ROW0*%
X60877500Y-29445000D03*
%TD*%
D11*
%TO.P,D2,1*%
%TO.N,ROW0*%
X56987500Y-42525000D03*
%TO.P,D2,2*%
%TO.N,COL1*%
X59687500Y-42525000D03*
%TD*%
D10*
%TO.P,SW3,1*%
%TO.N,COL2*%
X73577500Y-31985000D03*
%TO.P,SW3,2*%
%TO.N,ROW0*%
X79927500Y-29445000D03*
%TD*%
D11*
%TO.P,D3,1*%
%TO.N,ROW0*%
X76037500Y-42525000D03*
%TO.P,D3,2*%
%TO.N,COL2*%
X78737500Y-42525000D03*
%TD*%
D10*
%TO.P,SW4,1*%
%TO.N,COL3*%
X92627500Y-31985000D03*
%TO.P,SW4,2*%
%TO.N,ROW0*%
X98977500Y-29445000D03*
%TD*%
D11*
%TO.P,D4,1*%
%TO.N,ROW0*%
X95087500Y-42525000D03*
%TO.P,D4,2*%
%TO.N,COL3*%
X97787500Y-42525000D03*
%TD*%
D10*
%TO.P,SW5,1*%
%TO.N,COL4*%
X111677500Y-31985000D03*
%TO.P,SW5,2*%
%TO.N,ROW0*%
X118027500Y-29445000D03*
%TD*%
D11*
%TO.P,D5,1*%
%TO.N,ROW0*%
X114137500Y-42525000D03*
%TO.P,D5,2*%
%TO.N,COL4*%
X116837500Y-42525000D03*
%TD*%
D10*
%TO.P,SW6,1*%
%TO.N,COL5*%
X135490000Y-31985000D03*
%TO.P,SW6,2*%
%TO.N,ROW0*%
X141840000Y-29445000D03*
%TD*%
D11*
%TO.P,D6,1*%
%TO.N,ROW0*%
X137950000Y-42525000D03*
%TO.P,D6,2*%
%TO.N,COL5*%
X140650000Y-42525000D03*
%TD*%
D10*
%TO.P,SW7,1*%
%TO.N,COL6*%
X154540000Y-31985000D03*
%TO.P,SW7,2*%
%TO.N,ROW0*%
X160890000Y-29445000D03*
%TD*%
D11*
%TO.P,D7,1*%
%TO.N,ROW0*%
X157000000Y-42525000D03*
%TO.P,D7,2*%
%TO.N,COL6*%
X159700000Y-42525000D03*
%TD*%
D10*
%TO.P,SW8,1*%
%TO.N,COL7*%
X173590000Y-31985000D03*
%TO.P,SW8,2*%
%TO.N,ROW0*%
X179940000Y-29445000D03*
%TD*%
D11*
%TO.P,D8,1*%
%TO.N,ROW0*%
X176050000Y-42525000D03*
%TO.P,D8,2*%
%TO.N,COL7*%
X178750000Y-42525000D03*
%TD*%
D10*
%TO.P,SW9,1*%
%TO.N,COL0*%
X192640000Y-31985000D03*
%TO.P,SW9,2*%
%TO.N,ROW1*%
X198990000Y-29445000D03*
%TD*%
D11*
%TO.P,D9,1*%
%TO.N,ROW1*%
X195100000Y-42525000D03*
%TO.P,D9,2*%
%TO.N,COL0*%
X197800000Y-42525000D03*
%TD*%
D10*
%TO.P,SW10,1*%
%TO.N,COL1*%
X216452500Y-31985000D03*
%TO.P,SW10,2*%
%TO.N,ROW1*%
X222802500Y-29445000D03*
%TD*%
D11*
%TO.P,D10,1*%
%TO.N,ROW1*%
X218912500Y-42525000D03*
%TO.P,D10,2*%
%TO.N,COL1*%
X221612500Y-42525000D03*
%TD*%
D10*
%TO.P,SW11,1*%
%TO.N,COL2*%
X235502500Y-31985000D03*
%TO.P,SW11,2*%
%TO.N,ROW1*%
X241852500Y-29445000D03*
%TD*%
D11*
%TO.P,D11,1*%
%TO.N,ROW1*%
X237962500Y-42525000D03*
%TO.P,D11,2*%
%TO.N,COL2*%
X240662500Y-42525000D03*
%TD*%
D10*
%TO.P,SW12,1*%
%TO.N,COL3*%
X254552500Y-31985000D03*
%TO.P,SW12,2*%
%TO.N,ROW1*%
X260902500Y-29445000D03*
%TD*%
D11*
%TO.P,D12,1*%
%TO.N,ROW1*%
X257012500Y-42525000D03*
%TO.P,D12,2*%
%TO.N,COL3*%
X259712500Y-42525000D03*
%TD*%
D10*
%TO.P,SW13,1*%
%TO.N,COL4*%
X273602500Y-31985000D03*
%TO.P,SW13,2*%
%TO.N,ROW1*%
X279952500Y-29445000D03*
%TD*%
D11*
%TO.P,D13,1*%
%TO.N,ROW1*%
X276062500Y-42525000D03*
%TO.P,D13,2*%
%TO.N,COL4*%
X278762500Y-42525000D03*
%TD*%
D10*
%TO.P,SW14,1*%
%TO.N,COL5*%
X298367500Y-31985000D03*
%TO.P,SW14,2*%
%TO.N,ROW1*%
X304717500Y-29445000D03*
%TD*%
D11*
%TO.P,D14,1*%
%TO.N,ROW1*%
X300827500Y-42525000D03*
%TO.P,D14,2*%
%TO.N,COL5*%
X303527500Y-42525000D03*
%TD*%
D10*
%TO.P,SW15,1*%
%TO.N,COL6*%
X317417500Y-31985000D03*
%TO.P,SW15,2*%
%TO.N,ROW1*%
X323767500Y-29445000D03*
%TD*%
D11*
%TO.P,D15,1*%
%TO.N,ROW1*%
X319877500Y-42525000D03*
%TO.P,D15,2*%
%TO.N,COL6*%
X322577500Y-42525000D03*
%TD*%
D10*
%TO.P,SW16,1*%
%TO.N,COL7*%
X336467500Y-31985000D03*
%TO.P,SW16,2*%
%TO.N,ROW1*%
X342817500Y-29445000D03*
%TD*%
D11*
%TO.P,D16,1*%
%TO.N,ROW1*%
X338927500Y-42525000D03*
%TO.P,D16,2*%
%TO.N,COL7*%
X341627500Y-42525000D03*
%TD*%
D10*
%TO.P,SW17,1*%
%TO.N,COL0*%
X30715000Y-55797500D03*
%TO.P,SW17,2*%
%TO.N,ROW2*%
X37065000Y-53257500D03*
%TD*%
D11*
%TO.P,D17,1*%
%TO.N,ROW2*%
X33175000Y-66337500D03*
%TO.P,D17,2*%
%TO.N,COL0*%
X35875000Y-66337500D03*
%TD*%
D10*
%TO.P,SW18,1*%
%TO.N,COL1*%
X49765000Y-55797500D03*
%TO.P,SW18,2*%
%TO.N,ROW2*%
X56115000Y-53257500D03*
%TD*%
D11*
%TO.P,D18,1*%
%TO.N,ROW2*%
X52225000Y-66337500D03*
%TO.P,D18,2*%
%TO.N,COL1*%
X54925000Y-66337500D03*
%TD*%
D10*
%TO.P,SW19,1*%
%TO.N,COL2*%
X68815000Y-55797500D03*
%TO.P,SW19,2*%
%TO.N,ROW2*%
X75165000Y-53257500D03*
%TD*%
D11*
%TO.P,D19,1*%
%TO.N,ROW2*%
X71275000Y-66337500D03*
%TO.P,D19,2*%
%TO.N,COL2*%
X73975000Y-66337500D03*
%TD*%
D10*
%TO.P,SW20,1*%
%TO.N,COL3*%
X87865000Y-55797500D03*
%TO.P,SW20,2*%
%TO.N,ROW2*%
X94215000Y-53257500D03*
%TD*%
D11*
%TO.P,D20,1*%
%TO.N,ROW2*%
X90325000Y-66337500D03*
%TO.P,D20,2*%
%TO.N,COL3*%
X93025000Y-66337500D03*
%TD*%
D10*
%TO.P,SW21,1*%
%TO.N,COL4*%
X106915000Y-55797500D03*
%TO.P,SW21,2*%
%TO.N,ROW2*%
X113265000Y-53257500D03*
%TD*%
D11*
%TO.P,D21,1*%
%TO.N,ROW2*%
X109375000Y-66337500D03*
%TO.P,D21,2*%
%TO.N,COL4*%
X112075000Y-66337500D03*
%TD*%
D10*
%TO.P,SW22,1*%
%TO.N,COL5*%
X125965000Y-55797500D03*
%TO.P,SW22,2*%
%TO.N,ROW2*%
X132315000Y-53257500D03*
%TD*%
D11*
%TO.P,D22,1*%
%TO.N,ROW2*%
X128425000Y-66337500D03*
%TO.P,D22,2*%
%TO.N,COL5*%
X131125000Y-66337500D03*
%TD*%
D10*
%TO.P,SW23,1*%
%TO.N,COL6*%
X145015000Y-55797500D03*
%TO.P,SW23,2*%
%TO.N,ROW2*%
X151365000Y-53257500D03*
%TD*%
D11*
%TO.P,D23,1*%
%TO.N,ROW2*%
X147475000Y-66337500D03*
%TO.P,D23,2*%
%TO.N,COL6*%
X150175000Y-66337500D03*
%TD*%
D10*
%TO.P,SW24,1*%
%TO.N,COL7*%
X164065000Y-55797500D03*
%TO.P,SW24,2*%
%TO.N,ROW2*%
X170415000Y-53257500D03*
%TD*%
D11*
%TO.P,D24,1*%
%TO.N,ROW2*%
X166525000Y-66337500D03*
%TO.P,D24,2*%
%TO.N,COL7*%
X169225000Y-66337500D03*
%TD*%
D10*
%TO.P,SW25,1*%
%TO.N,COL0*%
X183115000Y-55797500D03*
%TO.P,SW25,2*%
%TO.N,ROW3*%
X189465000Y-53257500D03*
%TD*%
D11*
%TO.P,D25,1*%
%TO.N,ROW3*%
X185575000Y-66337500D03*
%TO.P,D25,2*%
%TO.N,COL0*%
X188275000Y-66337500D03*
%TD*%
D10*
%TO.P,SW26,1*%
%TO.N,COL1*%
X202165000Y-55797500D03*
%TO.P,SW26,2*%
%TO.N,ROW3*%
X208515000Y-53257500D03*
%TD*%
D11*
%TO.P,D26,1*%
%TO.N,ROW3*%
X204625000Y-66337500D03*
%TO.P,D26,2*%
%TO.N,COL1*%
X207325000Y-66337500D03*
%TD*%
D10*
%TO.P,SW27,1*%
%TO.N,COL2*%
X221215000Y-55797500D03*
%TO.P,SW27,2*%
%TO.N,ROW3*%
X227565000Y-53257500D03*
%TD*%
D11*
%TO.P,D27,1*%
%TO.N,ROW3*%
X223675000Y-66337500D03*
%TO.P,D27,2*%
%TO.N,COL2*%
X226375000Y-66337500D03*
%TD*%
D10*
%TO.P,SW28,1*%
%TO.N,COL3*%
X240265000Y-55797500D03*
%TO.P,SW28,2*%
%TO.N,ROW3*%
X246615000Y-53257500D03*
%TD*%
D11*
%TO.P,D28,1*%
%TO.N,ROW3*%
X242725000Y-66337500D03*
%TO.P,D28,2*%
%TO.N,COL3*%
X245425000Y-66337500D03*
%TD*%
D10*
%TO.P,SW29,1*%
%TO.N,COL4*%
X259315000Y-55797500D03*
%TO.P,SW29,2*%
%TO.N,ROW3*%
X265665000Y-53257500D03*
%TD*%
D11*
%TO.P,D29,1*%
%TO.N,ROW3*%
X261775000Y-66337500D03*
%TO.P,D29,2*%
%TO.N,COL4*%
X264475000Y-66337500D03*
%TD*%
D10*
%TO.P,SW30,1*%
%TO.N,COL5*%
X290271300Y-55797500D03*
%TO.P,SW30,2*%
%TO.N,ROW3*%
X296621300Y-53257500D03*
%TD*%
D11*
%TO.P,D30,1*%
%TO.N,ROW3*%
X292731300Y-66337500D03*
%TO.P,D30,2*%
%TO.N,COL5*%
X295431300Y-66337500D03*
%TD*%
D10*
%TO.P,SW31,1*%
%TO.N,COL6*%
X322370500Y-55797500D03*
%TO.P,SW31,2*%
%TO.N,ROW3*%
X328720500Y-53257500D03*
%TD*%
D11*
%TO.P,D31,1*%
%TO.N,ROW3*%
X324830500Y-66337500D03*
%TO.P,D31,2*%
%TO.N,COL6*%
X327530500Y-66337500D03*
%TD*%
D10*
%TO.P,SW32,1*%
%TO.N,COL7*%
X341420500Y-55797500D03*
%TO.P,SW32,2*%
%TO.N,ROW3*%
X347770500Y-53257500D03*
%TD*%
D11*
%TO.P,D32,1*%
%TO.N,ROW3*%
X343880500Y-66337500D03*
%TO.P,D32,2*%
%TO.N,COL7*%
X346580500Y-66337500D03*
%TD*%
D10*
%TO.P,SW33,1*%
%TO.N,COL0*%
X37858800Y-74847500D03*
%TO.P,SW33,2*%
%TO.N,ROW4*%
X44208800Y-72307500D03*
%TD*%
D11*
%TO.P,D33,1*%
%TO.N,ROW4*%
X40318800Y-85387500D03*
%TO.P,D33,2*%
%TO.N,COL0*%
X43018800Y-85387500D03*
%TD*%
D10*
%TO.P,SW34,1*%
%TO.N,COL1*%
X64052500Y-74847500D03*
%TO.P,SW34,2*%
%TO.N,ROW4*%
X70402500Y-72307500D03*
%TD*%
D11*
%TO.P,D34,1*%
%TO.N,ROW4*%
X66512500Y-85387500D03*
%TO.P,D34,2*%
%TO.N,COL1*%
X69212500Y-85387500D03*
%TD*%
D10*
%TO.P,SW35,1*%
%TO.N,COL2*%
X83102500Y-74847500D03*
%TO.P,SW35,2*%
%TO.N,ROW4*%
X89452500Y-72307500D03*
%TD*%
D11*
%TO.P,D35,1*%
%TO.N,ROW4*%
X85562500Y-85387500D03*
%TO.P,D35,2*%
%TO.N,COL2*%
X88262500Y-85387500D03*
%TD*%
D10*
%TO.P,SW36,1*%
%TO.N,COL3*%
X102152500Y-74847500D03*
%TO.P,SW36,2*%
%TO.N,ROW4*%
X108502500Y-72307500D03*
%TD*%
D11*
%TO.P,D36,1*%
%TO.N,ROW4*%
X104612500Y-85387500D03*
%TO.P,D36,2*%
%TO.N,COL3*%
X107312500Y-85387500D03*
%TD*%
D10*
%TO.P,SW37,1*%
%TO.N,COL4*%
X121202500Y-74847500D03*
%TO.P,SW37,2*%
%TO.N,ROW4*%
X127552500Y-72307500D03*
%TD*%
D11*
%TO.P,D37,1*%
%TO.N,ROW4*%
X123662500Y-85387500D03*
%TO.P,D37,2*%
%TO.N,COL4*%
X126362500Y-85387500D03*
%TD*%
D10*
%TO.P,SW38,1*%
%TO.N,COL5*%
X140252500Y-74847500D03*
%TO.P,SW38,2*%
%TO.N,ROW4*%
X146602500Y-72307500D03*
%TD*%
D11*
%TO.P,D38,1*%
%TO.N,ROW4*%
X142712500Y-85387500D03*
%TO.P,D38,2*%
%TO.N,COL5*%
X145412500Y-85387500D03*
%TD*%
D10*
%TO.P,SW39,1*%
%TO.N,COL6*%
X159302500Y-74847500D03*
%TO.P,SW39,2*%
%TO.N,ROW4*%
X165652500Y-72307500D03*
%TD*%
D11*
%TO.P,D39,1*%
%TO.N,ROW4*%
X161762500Y-85387500D03*
%TO.P,D39,2*%
%TO.N,COL6*%
X164462500Y-85387500D03*
%TD*%
D10*
%TO.P,SW40,1*%
%TO.N,COL7*%
X178352500Y-74847500D03*
%TO.P,SW40,2*%
%TO.N,ROW4*%
X184702500Y-72307500D03*
%TD*%
D11*
%TO.P,D40,1*%
%TO.N,ROW4*%
X180812500Y-85387500D03*
%TO.P,D40,2*%
%TO.N,COL7*%
X183512500Y-85387500D03*
%TD*%
D10*
%TO.P,SW41,1*%
%TO.N,COL0*%
X197402500Y-74847500D03*
%TO.P,SW41,2*%
%TO.N,ROW5*%
X203752500Y-72307500D03*
%TD*%
D11*
%TO.P,D41,1*%
%TO.N,ROW5*%
X199862500Y-85387500D03*
%TO.P,D41,2*%
%TO.N,COL0*%
X202562500Y-85387500D03*
%TD*%
D10*
%TO.P,SW42,1*%
%TO.N,COL1*%
X216452500Y-74847500D03*
%TO.P,SW42,2*%
%TO.N,ROW5*%
X222802500Y-72307500D03*
%TD*%
D11*
%TO.P,D42,1*%
%TO.N,ROW5*%
X218912500Y-85387500D03*
%TO.P,D42,2*%
%TO.N,COL1*%
X221612500Y-85387500D03*
%TD*%
D10*
%TO.P,SW43,1*%
%TO.N,COL2*%
X235502500Y-74847500D03*
%TO.P,SW43,2*%
%TO.N,ROW5*%
X241852500Y-72307500D03*
%TD*%
D11*
%TO.P,D43,1*%
%TO.N,ROW5*%
X237962500Y-85387500D03*
%TO.P,D43,2*%
%TO.N,COL2*%
X240662500Y-85387500D03*
%TD*%
D10*
%TO.P,SW44,1*%
%TO.N,COL3*%
X254552500Y-74847500D03*
%TO.P,SW44,2*%
%TO.N,ROW5*%
X260902500Y-72307500D03*
%TD*%
D11*
%TO.P,D44,1*%
%TO.N,ROW5*%
X257012500Y-85387500D03*
%TO.P,D44,2*%
%TO.N,COL3*%
X259712500Y-85387500D03*
%TD*%
D10*
%TO.P,SW45,1*%
%TO.N,COL4*%
X273602500Y-74847500D03*
%TO.P,SW45,2*%
%TO.N,ROW5*%
X279952500Y-72307500D03*
%TD*%
D11*
%TO.P,D45,1*%
%TO.N,ROW5*%
X276062500Y-85387500D03*
%TO.P,D45,2*%
%TO.N,COL4*%
X278762500Y-85387500D03*
%TD*%
D10*
%TO.P,SW46,1*%
%TO.N,COL5*%
X297415000Y-84372500D03*
%TO.P,SW46,2*%
%TO.N,ROW5*%
X303765000Y-81832500D03*
%TD*%
D11*
%TO.P,D46,1*%
%TO.N,ROW5*%
X299875000Y-94912500D03*
%TO.P,D46,2*%
%TO.N,COL5*%
X302575000Y-94912500D03*
%TD*%
D10*
%TO.P,SW47,1*%
%TO.N,COL6*%
X322370500Y-74847500D03*
%TO.P,SW47,2*%
%TO.N,ROW5*%
X328720500Y-72307500D03*
%TD*%
D11*
%TO.P,D47,1*%
%TO.N,ROW5*%
X324830500Y-85387500D03*
%TO.P,D47,2*%
%TO.N,COL6*%
X327530500Y-85387500D03*
%TD*%
D10*
%TO.P,SW48,1*%
%TO.N,COL7*%
X341420500Y-74847500D03*
%TO.P,SW48,2*%
%TO.N,ROW5*%
X347770500Y-72307500D03*
%TD*%
D11*
%TO.P,D48,1*%
%TO.N,ROW5*%
X343880500Y-85387500D03*
%TO.P,D48,2*%
%TO.N,COL7*%
X346580500Y-85387500D03*
%TD*%
D10*
%TO.P,SW49,1*%
%TO.N,COL0*%
X40240000Y-93897500D03*
%TO.P,SW49,2*%
%TO.N,ROW6*%
X46590000Y-91357500D03*
%TD*%
D11*
%TO.P,D49,1*%
%TO.N,ROW6*%
X42700000Y-104437500D03*
%TO.P,D49,2*%
%TO.N,COL0*%
X45400000Y-104437500D03*
%TD*%
D10*
%TO.P,SW50,1*%
%TO.N,COL1*%
X68815000Y-93897500D03*
%TO.P,SW50,2*%
%TO.N,ROW6*%
X75165000Y-91357500D03*
%TD*%
D11*
%TO.P,D50,1*%
%TO.N,ROW6*%
X71275000Y-104437500D03*
%TO.P,D50,2*%
%TO.N,COL1*%
X73975000Y-104437500D03*
%TD*%
D10*
%TO.P,SW51,1*%
%TO.N,COL2*%
X87865000Y-93897500D03*
%TO.P,SW51,2*%
%TO.N,ROW6*%
X94215000Y-91357500D03*
%TD*%
D11*
%TO.P,D51,1*%
%TO.N,ROW6*%
X90325000Y-104437500D03*
%TO.P,D51,2*%
%TO.N,COL2*%
X93025000Y-104437500D03*
%TD*%
D10*
%TO.P,SW52,1*%
%TO.N,COL3*%
X106915000Y-93897500D03*
%TO.P,SW52,2*%
%TO.N,ROW6*%
X113265000Y-91357500D03*
%TD*%
D11*
%TO.P,D52,1*%
%TO.N,ROW6*%
X109375000Y-104437500D03*
%TO.P,D52,2*%
%TO.N,COL3*%
X112075000Y-104437500D03*
%TD*%
D10*
%TO.P,SW53,1*%
%TO.N,COL4*%
X125965000Y-93897500D03*
%TO.P,SW53,2*%
%TO.N,ROW6*%
X132315000Y-91357500D03*
%TD*%
D11*
%TO.P,D53,1*%
%TO.N,ROW6*%
X128425000Y-104437500D03*
%TO.P,D53,2*%
%TO.N,COL4*%
X131125000Y-104437500D03*
%TD*%
D10*
%TO.P,SW54,1*%
%TO.N,COL5*%
X145015000Y-93897500D03*
%TO.P,SW54,2*%
%TO.N,ROW6*%
X151365000Y-91357500D03*
%TD*%
D11*
%TO.P,D54,1*%
%TO.N,ROW6*%
X147475000Y-104437500D03*
%TO.P,D54,2*%
%TO.N,COL5*%
X150175000Y-104437500D03*
%TD*%
D10*
%TO.P,SW55,1*%
%TO.N,COL6*%
X164065000Y-93897500D03*
%TO.P,SW55,2*%
%TO.N,ROW6*%
X170415000Y-91357500D03*
%TD*%
D11*
%TO.P,D55,1*%
%TO.N,ROW6*%
X166525000Y-104437500D03*
%TO.P,D55,2*%
%TO.N,COL6*%
X169225000Y-104437500D03*
%TD*%
D10*
%TO.P,SW56,1*%
%TO.N,COL0*%
X183115000Y-93897500D03*
%TO.P,SW56,2*%
%TO.N,ROW7*%
X189465000Y-91357500D03*
%TD*%
D11*
%TO.P,D56,1*%
%TO.N,ROW7*%
X185575000Y-104437500D03*
%TO.P,D56,2*%
%TO.N,COL0*%
X188275000Y-104437500D03*
%TD*%
D10*
%TO.P,SW57,1*%
%TO.N,COL1*%
X202165000Y-93897500D03*
%TO.P,SW57,2*%
%TO.N,ROW7*%
X208515000Y-91357500D03*
%TD*%
D11*
%TO.P,D57,1*%
%TO.N,ROW7*%
X204625000Y-104437500D03*
%TO.P,D57,2*%
%TO.N,COL1*%
X207325000Y-104437500D03*
%TD*%
D10*
%TO.P,SW58,1*%
%TO.N,COL2*%
X221215000Y-93897500D03*
%TO.P,SW58,2*%
%TO.N,ROW7*%
X227565000Y-91357500D03*
%TD*%
D11*
%TO.P,D58,1*%
%TO.N,ROW7*%
X223675000Y-104437500D03*
%TO.P,D58,2*%
%TO.N,COL2*%
X226375000Y-104437500D03*
%TD*%
D10*
%TO.P,SW59,1*%
%TO.N,COL3*%
X240265000Y-93897500D03*
%TO.P,SW59,2*%
%TO.N,ROW7*%
X246615000Y-91357500D03*
%TD*%
D11*
%TO.P,D59,1*%
%TO.N,ROW7*%
X242725000Y-104437500D03*
%TO.P,D59,2*%
%TO.N,COL3*%
X245425000Y-104437500D03*
%TD*%
D10*
%TO.P,SW60,1*%
%TO.N,COL4*%
X259315000Y-93897500D03*
%TO.P,SW60,2*%
%TO.N,ROW7*%
X265665000Y-91357500D03*
%TD*%
D11*
%TO.P,D60,1*%
%TO.N,ROW7*%
X261775000Y-104437500D03*
%TO.P,D60,2*%
%TO.N,COL4*%
X264475000Y-104437500D03*
%TD*%
D10*
%TO.P,SW61,1*%
%TO.N,COL5*%
X322370500Y-93897500D03*
%TO.P,SW61,2*%
%TO.N,ROW7*%
X328720500Y-91357500D03*
%TD*%
D11*
%TO.P,D61,1*%
%TO.N,ROW7*%
X324830500Y-104437500D03*
%TO.P,D61,2*%
%TO.N,COL5*%
X327530500Y-104437500D03*
%TD*%
D10*
%TO.P,SW62,1*%
%TO.N,COL6*%
X341420500Y-93897500D03*
%TO.P,SW62,2*%
%TO.N,ROW7*%
X347770500Y-91357500D03*
%TD*%
D11*
%TO.P,D62,1*%
%TO.N,ROW7*%
X343880500Y-104437500D03*
%TO.P,D62,2*%
%TO.N,COL6*%
X346580500Y-104437500D03*
%TD*%
D10*
%TO.P,SW63,1*%
%TO.N,COL0*%
X42621300Y-112947500D03*
%TO.P,SW63,2*%
%TO.N,ROW8*%
X48971300Y-110407500D03*
%TD*%
D11*
%TO.P,D63,1*%
%TO.N,ROW8*%
X45081300Y-123487500D03*
%TO.P,D63,2*%
%TO.N,COL0*%
X47781300Y-123487500D03*
%TD*%
D10*
%TO.P,SW64,1*%
%TO.N,COL1*%
X73577500Y-112947500D03*
%TO.P,SW64,2*%
%TO.N,ROW8*%
X79927500Y-110407500D03*
%TD*%
D11*
%TO.P,D64,1*%
%TO.N,ROW8*%
X76037500Y-123487500D03*
%TO.P,D64,2*%
%TO.N,COL1*%
X78737500Y-123487500D03*
%TD*%
D10*
%TO.P,SW65,1*%
%TO.N,COL2*%
X92627500Y-112947500D03*
%TO.P,SW65,2*%
%TO.N,ROW8*%
X98977500Y-110407500D03*
%TD*%
D11*
%TO.P,D65,1*%
%TO.N,ROW8*%
X95087500Y-123487500D03*
%TO.P,D65,2*%
%TO.N,COL2*%
X97787500Y-123487500D03*
%TD*%
D10*
%TO.P,SW66,1*%
%TO.N,COL3*%
X111677500Y-112947500D03*
%TO.P,SW66,2*%
%TO.N,ROW8*%
X118027500Y-110407500D03*
%TD*%
D11*
%TO.P,D66,1*%
%TO.N,ROW8*%
X114137500Y-123487500D03*
%TO.P,D66,2*%
%TO.N,COL3*%
X116837500Y-123487500D03*
%TD*%
D10*
%TO.P,SW67,1*%
%TO.N,COL4*%
X130727500Y-112947500D03*
%TO.P,SW67,2*%
%TO.N,ROW8*%
X137077500Y-110407500D03*
%TD*%
D11*
%TO.P,D67,1*%
%TO.N,ROW8*%
X133187500Y-123487500D03*
%TO.P,D67,2*%
%TO.N,COL4*%
X135887500Y-123487500D03*
%TD*%
D10*
%TO.P,SW68,1*%
%TO.N,COL5*%
X149777500Y-112947500D03*
%TO.P,SW68,2*%
%TO.N,ROW8*%
X156127500Y-110407500D03*
%TD*%
D11*
%TO.P,D68,1*%
%TO.N,ROW8*%
X152237500Y-123487500D03*
%TO.P,D68,2*%
%TO.N,COL5*%
X154937500Y-123487500D03*
%TD*%
D10*
%TO.P,SW69,1*%
%TO.N,COL6*%
X168827500Y-112947500D03*
%TO.P,SW69,2*%
%TO.N,ROW8*%
X175177500Y-110407500D03*
%TD*%
D11*
%TO.P,D69,1*%
%TO.N,ROW8*%
X171287500Y-123487500D03*
%TO.P,D69,2*%
%TO.N,COL6*%
X173987500Y-123487500D03*
%TD*%
D10*
%TO.P,SW70,1*%
%TO.N,COL0*%
X187877500Y-112947500D03*
%TO.P,SW70,2*%
%TO.N,ROW9*%
X194227500Y-110407500D03*
%TD*%
D11*
%TO.P,D70,1*%
%TO.N,ROW9*%
X190337500Y-123487500D03*
%TO.P,D70,2*%
%TO.N,COL0*%
X193037500Y-123487500D03*
%TD*%
D10*
%TO.P,SW71,1*%
%TO.N,COL1*%
X206927500Y-112947500D03*
%TO.P,SW71,2*%
%TO.N,ROW9*%
X213277500Y-110407500D03*
%TD*%
D11*
%TO.P,D71,1*%
%TO.N,ROW9*%
X209387500Y-123487500D03*
%TO.P,D71,2*%
%TO.N,COL1*%
X212087500Y-123487500D03*
%TD*%
D10*
%TO.P,SW72,1*%
%TO.N,COL2*%
X225977500Y-112947500D03*
%TO.P,SW72,2*%
%TO.N,ROW9*%
X232327500Y-110407500D03*
%TD*%
D11*
%TO.P,D72,1*%
%TO.N,ROW9*%
X228437500Y-123487500D03*
%TO.P,D72,2*%
%TO.N,COL2*%
X231137500Y-123487500D03*
%TD*%
D10*
%TO.P,SW73,1*%
%TO.N,COL3*%
X245027500Y-112947500D03*
%TO.P,SW73,2*%
%TO.N,ROW9*%
X251377500Y-110407500D03*
%TD*%
D11*
%TO.P,D73,1*%
%TO.N,ROW9*%
X247487500Y-123487500D03*
%TO.P,D73,2*%
%TO.N,COL3*%
X250187500Y-123487500D03*
%TD*%
D10*
%TO.P,SW74,1*%
%TO.N,COL4*%
X271221300Y-112947500D03*
%TO.P,SW74,2*%
%TO.N,ROW9*%
X277571300Y-110407500D03*
%TD*%
D11*
%TO.P,D74,1*%
%TO.N,ROW9*%
X273681300Y-123487500D03*
%TO.P,D74,2*%
%TO.N,COL4*%
X276381300Y-123487500D03*
%TD*%
D10*
%TO.P,SW75,1*%
%TO.N,COL5*%
X302177500Y-112947500D03*
%TO.P,SW75,2*%
%TO.N,ROW9*%
X308527500Y-110407500D03*
%TD*%
D11*
%TO.P,D75,1*%
%TO.N,ROW9*%
X304637500Y-123487500D03*
%TO.P,D75,2*%
%TO.N,COL5*%
X307337500Y-123487500D03*
%TD*%
D10*
%TO.P,SW76,1*%
%TO.N,COL6*%
X343135000Y-114852500D03*
%TO.P,SW76,2*%
%TO.N,ROW9*%
X349485000Y-112312500D03*
%TD*%
D11*
%TO.P,D76,1*%
%TO.N,ROW9*%
X345595000Y-125392500D03*
%TO.P,D76,2*%
%TO.N,COL6*%
X348295000Y-125392500D03*
%TD*%
D10*
%TO.P,SW77,1*%
%TO.N,COL0*%
X33096300Y-131997500D03*
%TO.P,SW77,2*%
%TO.N,ROW10*%
X39446300Y-129457500D03*
%TD*%
D11*
%TO.P,D77,1*%
%TO.N,ROW10*%
X35556300Y-142537500D03*
%TO.P,D77,2*%
%TO.N,COL0*%
X38256300Y-142537500D03*
%TD*%
D10*
%TO.P,SW78,1*%
%TO.N,COL1*%
X56908800Y-131997500D03*
%TO.P,SW78,2*%
%TO.N,ROW10*%
X63258800Y-129457500D03*
%TD*%
D11*
%TO.P,D78,1*%
%TO.N,ROW10*%
X59368800Y-142537500D03*
%TO.P,D78,2*%
%TO.N,COL1*%
X62068800Y-142537500D03*
%TD*%
D10*
%TO.P,SW79,1*%
%TO.N,COL2*%
X80721300Y-131997500D03*
%TO.P,SW79,2*%
%TO.N,ROW10*%
X87071300Y-129457500D03*
%TD*%
D11*
%TO.P,D79,1*%
%TO.N,ROW10*%
X83181300Y-142537500D03*
%TO.P,D79,2*%
%TO.N,COL2*%
X85881300Y-142537500D03*
%TD*%
D10*
%TO.P,SW80,1*%
%TO.N,COL3*%
X154540000Y-131997500D03*
%TO.P,SW80,2*%
%TO.N,ROW10*%
X160890000Y-129457500D03*
%TD*%
D11*
%TO.P,D80,1*%
%TO.N,ROW10*%
X157000000Y-142537500D03*
%TO.P,D80,2*%
%TO.N,COL3*%
X159700000Y-142537500D03*
%TD*%
D10*
%TO.P,SW81,1*%
%TO.N,COL4*%
X228358800Y-131997500D03*
%TO.P,SW81,2*%
%TO.N,ROW10*%
X234708800Y-129457500D03*
%TD*%
D11*
%TO.P,D81,1*%
%TO.N,ROW10*%
X230818800Y-142537500D03*
%TO.P,D81,2*%
%TO.N,COL4*%
X233518800Y-142537500D03*
%TD*%
D10*
%TO.P,SW82,1*%
%TO.N,COL5*%
X252171300Y-131997500D03*
%TO.P,SW82,2*%
%TO.N,ROW10*%
X258521300Y-129457500D03*
%TD*%
D11*
%TO.P,D82,1*%
%TO.N,ROW10*%
X254631300Y-142537500D03*
%TO.P,D82,2*%
%TO.N,COL5*%
X257331300Y-142537500D03*
%TD*%
D10*
%TO.P,SW83,1*%
%TO.N,COL6*%
X283127500Y-131997500D03*
%TO.P,SW83,2*%
%TO.N,ROW10*%
X289477500Y-129457500D03*
%TD*%
D11*
%TO.P,D83,1*%
%TO.N,ROW10*%
X285587500Y-142537500D03*
%TO.P,D83,2*%
%TO.N,COL6*%
X288287500Y-142537500D03*
%TD*%
D10*
%TO.P,SW84,1*%
%TO.N,COL7*%
X302177500Y-131997500D03*
%TO.P,SW84,2*%
%TO.N,ROW10*%
X308527500Y-129457500D03*
%TD*%
D11*
%TO.P,D84,1*%
%TO.N,ROW10*%
X304637500Y-142537500D03*
%TO.P,D84,2*%
%TO.N,COL7*%
X307337500Y-142537500D03*
%TD*%
D10*
%TO.P,SW85,1*%
%TO.N,COL8*%
X321227500Y-131997500D03*
%TO.P,SW85,2*%
%TO.N,ROW10*%
X327577500Y-129457500D03*
%TD*%
D11*
%TO.P,D85,1*%
%TO.N,ROW10*%
X323687500Y-142537500D03*
%TO.P,D85,2*%
%TO.N,COL8*%
X326387500Y-142537500D03*
%TD*%
D10*
%TO.P,SW86,1*%
%TO.N,COL9*%
X343135000Y-133902500D03*
%TO.P,SW86,2*%
%TO.N,ROW10*%
X349485000Y-131362500D03*
%TD*%
D11*
%TO.P,D86,1*%
%TO.N,ROW10*%
X345595000Y-144442500D03*
%TO.P,D86,2*%
%TO.N,COL9*%
X348295000Y-144442500D03*
%TD*%
D12*
%TO.P,U1,1*%
%TO.N,ROW0*%
X178750000Y-140000000D03*
%TO.P,U1,2*%
%TO.N,ROW1*%
X179250000Y-140000000D03*
%TO.P,U1,3*%
%TO.N,ROW2*%
X179750000Y-140000000D03*
%TO.P,U1,4*%
%TO.N,ROW3*%
X180250000Y-140000000D03*
%TO.P,U1,5*%
%TO.N,ROW4*%
X180750000Y-140000000D03*
%TO.P,U1,6*%
%TO.N,ROW5*%
X181250000Y-140000000D03*
%TO.P,U1,7*%
%TO.N,ROW6*%
X181750000Y-140000000D03*
%TO.P,U1,8*%
%TO.N,ROW7*%
X182250000Y-140000000D03*
%TO.P,U1,9*%
%TO.N,ROW8*%
X182750000Y-140000000D03*
%TO.P,U1,10*%
%TO.N,ROW9*%
X183250000Y-140000000D03*
%TO.P,U1,11*%
%TO.N,ROW10*%
X183750000Y-140000000D03*
%TO.P,U1,12*%
%TO.N,COL0*%
X184250000Y-140000000D03*
D13*
%TO.P,U1,13*%
%TO.N,COL1*%
X185000000Y-133750000D03*
%TO.P,U1,14*%
%TO.N,COL2*%
X185000000Y-134250000D03*
%TO.P,U1,15*%
%TO.N,COL3*%
X185000000Y-134750000D03*
%TO.P,U1,16*%
%TO.N,COL4*%
X185000000Y-135250000D03*
%TO.P,U1,17*%
%TO.N,COL5*%
X185000000Y-135750000D03*
%TO.P,U1,18*%
%TO.N,COL6*%
X185000000Y-136250000D03*
%TO.P,U1,19*%
%TO.N,COL7*%
X185000000Y-136750000D03*
%TO.P,U1,20*%
%TO.N,COL8*%
X185000000Y-137250000D03*
%TO.P,U1,21*%
%TO.N,COL9*%
X185000000Y-137750000D03*
%TO.P,U1,22*%
%TO.N,N/C*%
X185000000Y-138250000D03*
%TO.P,U1,23*%
X185000000Y-138750000D03*
%TO.P,U1,24*%
X185000000Y-139250000D03*
D12*
%TO.P,U1,25*%
X184250000Y-133000000D03*
%TO.P,U1,26*%
X183750000Y-133000000D03*
%TO.P,U1,27*%
X183250000Y-133000000D03*
%TO.P,U1,28*%
X182750000Y-133000000D03*
%TO.P,U1,29*%
X182250000Y-133000000D03*
%TO.P,U1,30*%
X181750000Y-133000000D03*
%TO.P,U1,31*%
X181250000Y-133000000D03*
%TO.P,U1,32*%
X180750000Y-133000000D03*
%TO.P,U1,33*%
X180250000Y-133000000D03*
%TO.P,U1,34*%
X179750000Y-133000000D03*
%TO.P,U1,35*%
%TO.N,VCC*%
X179250000Y-133000000D03*
%TO.P,U1,36*%
X178750000Y-133000000D03*
D13*
%TO.P,U1,37*%
%TO.N,USB_DP*%
X178000000Y-139250000D03*
%TO.P,U1,38*%
%TO.N,USB_DM*%
X178000000Y-138750000D03*
%TO.P,U1,39*%
%TO.N,VBUS*%
X178000000Y-138250000D03*
%TO.P,U1,40*%
%TO.N,N/C*%
X178000000Y-137750000D03*
%TO.P,U1,41*%
X178000000Y-137250000D03*
%TO.P,U1,42*%
X178000000Y-136750000D03*
%TO.P,U1,43*%
X178000000Y-136250000D03*
%TO.P,U1,44*%
X178000000Y-135750000D03*
%TO.P,U1,45*%
X178000000Y-135250000D03*
%TO.P,U1,46*%
X178000000Y-134750000D03*
%TO.P,U1,47*%
X178000000Y-134250000D03*
%TO.P,U1,48*%
%TO.N,GND*%
X178000000Y-133750000D03*
D14*
%TO.P,U1,49*%
X181500000Y-136500000D03*
%TD*%
D15*
%TO.P,J1,A1*%
%TO.N,GND*%
X305250000Y-23000000D03*
%TO.P,J1,A4*%
%TO.N,VBUS*%
X304250000Y-23000000D03*
%TO.P,J1,A6*%
%TO.N,USB_DP*%
X303250000Y-23000000D03*
%TO.P,J1,A7*%
%TO.N,USB_DM*%
X302750000Y-23000000D03*
%TO.P,J1,B1*%
%TO.N,GND*%
X298750000Y-23000000D03*
%TO.P,J1,B4*%
%TO.N,VBUS*%
X299750000Y-23000000D03*
D16*
%TO.P,J1,S1*%
%TO.N,GND*%
X306320000Y-24500000D03*
%TO.P,J1,S2*%
X297680000Y-24500000D03*
%TD*%
D17*
%TO.P,BT1,1*%
%TO.N,VBAT*%
X331000000Y-38000000D03*
%TO.P,BT1,2*%
%TO.N,GND*%
X329000000Y-38000000D03*
%TD*%
D18*
%TO.P,SW_PWR,1*%
%TO.N,VBAT*%
X333000000Y-23000000D03*
%TO.P,SW_PWR,2*%
%TO.N,VCC*%
X330500000Y-23000000D03*
%TO.P,SW_PWR,3*%
%TO.N,N/C*%
X328000000Y-23000000D03*
%TD*%
D19*
%TO.P,MH_screw_tl,1*%
%TO.N,N/C*%
X22500000Y-22500000D03*
%TD*%
%TO.P,MH_screw_tr,1*%
%TO.N,N/C*%
X357000000Y-23000000D03*
%TD*%
%TO.P,MH_screw_bl,1*%
%TO.N,N/C*%
X22500000Y-146500000D03*
%TD*%
%TO.P,MH_screw_br,1*%
%TO.N,N/C*%
X357000000Y-146500000D03*
%TD*%
%TO.P,MH_screw_ml,1*%
%TO.N,N/C*%
X127500000Y-45500000D03*
%TD*%
%TO.P,MH_screw_mr,1*%
%TO.N,N/C*%
X281500000Y-96000000D03*
%TD*%
D20*
X30715000Y-31985000D03*
X37065000Y-29445000D03*
X54527500Y-31985000D03*
X60877500Y-29445000D03*
X73577500Y-31985000D03*
X79927500Y-29445000D03*
X92627500Y-31985000D03*
X98977500Y-29445000D03*
X111677500Y-31985000D03*
X118027500Y-29445000D03*
X135490000Y-31985000D03*
X141840000Y-29445000D03*
X154540000Y-31985000D03*
X160890000Y-29445000D03*
X173590000Y-31985000D03*
X179940000Y-29445000D03*
X192640000Y-31985000D03*
X198990000Y-29445000D03*
X216452500Y-31985000D03*
X222802500Y-29445000D03*
X235502500Y-31985000D03*
X241852500Y-29445000D03*
X254552500Y-31985000D03*
X260902500Y-29445000D03*
X273602500Y-31985000D03*
X279952500Y-29445000D03*
X298367500Y-31985000D03*
X304717500Y-29445000D03*
X317417500Y-31985000D03*
X323767500Y-29445000D03*
X336467500Y-31985000D03*
X342817500Y-29445000D03*
X30715000Y-55797500D03*
X37065000Y-53257500D03*
X49765000Y-55797500D03*
X56115000Y-53257500D03*
X68815000Y-55797500D03*
X75165000Y-53257500D03*
X87865000Y-55797500D03*
X94215000Y-53257500D03*
X106915000Y-55797500D03*
X113265000Y-53257500D03*
X125965000Y-55797500D03*
X132315000Y-53257500D03*
X145015000Y-55797500D03*
X151365000Y-53257500D03*
X164065000Y-55797500D03*
X170415000Y-53257500D03*
X183115000Y-55797500D03*
X189465000Y-53257500D03*
X202165000Y-55797500D03*
X208515000Y-53257500D03*
X221215000Y-55797500D03*
X227565000Y-53257500D03*
X240265000Y-55797500D03*
X246615000Y-53257500D03*
X259315000Y-55797500D03*
X265665000Y-53257500D03*
X290271300Y-55797500D03*
X296621300Y-53257500D03*
X322370500Y-55797500D03*
X328720500Y-53257500D03*
X341420500Y-55797500D03*
X347770500Y-53257500D03*
X37858800Y-74847500D03*
X44208800Y-72307500D03*
X64052500Y-74847500D03*
X70402500Y-72307500D03*
X83102500Y-74847500D03*
X89452500Y-72307500D03*
X102152500Y-74847500D03*
X108502500Y-72307500D03*
X121202500Y-74847500D03*
X127552500Y-72307500D03*
X140252500Y-74847500D03*
X146602500Y-72307500D03*
X159302500Y-74847500D03*
X165652500Y-72307500D03*
X178352500Y-74847500D03*
X184702500Y-72307500D03*
X197402500Y-74847500D03*
X203752500Y-72307500D03*
X216452500Y-74847500D03*
X222802500Y-72307500D03*
X235502500Y-74847500D03*
X241852500Y-72307500D03*
X254552500Y-74847500D03*
X260902500Y-72307500D03*
X273602500Y-74847500D03*
X279952500Y-72307500D03*
X297415000Y-84372500D03*
X303765000Y-81832500D03*
X322370500Y-74847500D03*
X328720500Y-72307500D03*
X341420500Y-74847500D03*
X347770500Y-72307500D03*
X40240000Y-93897500D03*
X46590000Y-91357500D03*
X68815000Y-93897500D03*
X75165000Y-91357500D03*
X87865000Y-93897500D03*
X94215000Y-91357500D03*
X106915000Y-93897500D03*
X113265000Y-91357500D03*
X125965000Y-93897500D03*
X132315000Y-91357500D03*
X145015000Y-93897500D03*
X151365000Y-91357500D03*
X164065000Y-93897500D03*
X170415000Y-91357500D03*
X183115000Y-93897500D03*
X189465000Y-91357500D03*
X202165000Y-93897500D03*
X208515000Y-91357500D03*
X221215000Y-93897500D03*
X227565000Y-91357500D03*
X240265000Y-93897500D03*
X246615000Y-91357500D03*
X259315000Y-93897500D03*
X265665000Y-91357500D03*
X322370500Y-93897500D03*
X328720500Y-91357500D03*
X341420500Y-93897500D03*
X347770500Y-91357500D03*
X42621300Y-112947500D03*
X48971300Y-110407500D03*
X73577500Y-112947500D03*
X79927500Y-110407500D03*
X92627500Y-112947500D03*
X98977500Y-110407500D03*
X111677500Y-112947500D03*
X118027500Y-110407500D03*
X130727500Y-112947500D03*
X137077500Y-110407500D03*
X149777500Y-112947500D03*
X156127500Y-110407500D03*
X168827500Y-112947500D03*
X175177500Y-110407500D03*
X187877500Y-112947500D03*
X194227500Y-110407500D03*
X206927500Y-112947500D03*
X213277500Y-110407500D03*
X225977500Y-112947500D03*
X232327500Y-110407500D03*
X245027500Y-112947500D03*
X251377500Y-110407500D03*
X271221300Y-112947500D03*
X277571300Y-110407500D03*
X302177500Y-112947500D03*
X308527500Y-110407500D03*
X343135000Y-114852500D03*
X349485000Y-112312500D03*
X33096300Y-131997500D03*
X39446300Y-129457500D03*
X56908800Y-131997500D03*
X63258800Y-129457500D03*
X80721300Y-131997500D03*
X87071300Y-129457500D03*
X154540000Y-131997500D03*
X160890000Y-129457500D03*
X228358800Y-131997500D03*
X234708800Y-129457500D03*
X252171300Y-131997500D03*
X258521300Y-129457500D03*
X283127500Y-131997500D03*
X289477500Y-129457500D03*
X302177500Y-131997500D03*
X308527500Y-129457500D03*
X321227500Y-131997500D03*
X327577500Y-129457500D03*
X343135000Y-133902500D03*
X349485000Y-131362500D03*
X306320000Y-24500000D03*
X297680000Y-24500000D03*
X331000000Y-38000000D03*
X329000000Y-38000000D03*
X22500000Y-22500000D03*
X357000000Y-23000000D03*
X22500000Y-146500000D03*
X357000000Y-146500000D03*
X127500000Y-45500000D03*
X281500000Y-96000000D03*
M02*
