%TF.GenerationSoftware,KiCad,Pcbnew,9.0.8-1.fc43*%
%TF.CreationDate,2026-04-08T17:55:42-04:00*%
%TF.ProjectId,blue-dream-space,626c7565-2d64-4726-9561-6d2d73706163,rev?*%
%TF.SameCoordinates,Original*%
%TF.FileFunction,Copper,L4,Bot*%
%TF.FilePolarity,Positive*%
%FSLAX46Y46*%
G04 Gerber Fmt 4.6, Leading zero omitted, Abs format (unit mm)*
G04 Created by KiCad (PCBNEW 9.0.8-1.fc43) date 2026-04-08 17:55:42*
%MOMM*%
%LPD*%
G01*
G04 APERTURE LIST*
%TA.AperFunction,ComponentPad*%
%ADD10C,2.200000*%
%TD*%
%TA.AperFunction,ComponentPad*%
%ADD11C,1.600000*%
%TD*%
%TA.AperFunction,ComponentPad*%
%ADD12C,1.750000*%
%TD*%
%TA.AperFunction,ComponentPad*%
%ADD13C,5.500000*%
%TD*%
%TA.AperFunction,ViaPad*%
%ADD14C,0.600000*%
%TD*%
%ADD15C,0.300000*%
%ADD16C,0.350000*%
G04 APERTURE END LIST*
D10*
%TO.P,SW1,1*%
%TO.N,COL0*%
X30715000Y-31985000D03*
%TO.P,SW1,2*%
%TO.N,ROW0*%
X37065000Y-29445000D03*
%TD*%
%TO.P,SW2,1*%
%TO.N,COL1*%
X54527500Y-31985000D03*
%TO.P,SW2,2*%
%TO.N,ROW0*%
X60877500Y-29445000D03*
%TD*%
%TO.P,SW3,1*%
%TO.N,COL2*%
X73577500Y-31985000D03*
%TO.P,SW3,2*%
%TO.N,ROW0*%
X79927500Y-29445000D03*
%TD*%
%TO.P,SW4,1*%
%TO.N,COL3*%
X92627500Y-31985000D03*
%TO.P,SW4,2*%
%TO.N,ROW0*%
X98977500Y-29445000D03*
%TD*%
%TO.P,SW5,1*%
%TO.N,COL4*%
X111677500Y-31985000D03*
%TO.P,SW5,2*%
%TO.N,ROW0*%
X118027500Y-29445000D03*
%TD*%
%TO.P,SW6,1*%
%TO.N,COL5*%
X135490000Y-31985000D03*
%TO.P,SW6,2*%
%TO.N,ROW0*%
X141840000Y-29445000D03*
%TD*%
%TO.P,SW7,1*%
%TO.N,COL6*%
X154540000Y-31985000D03*
%TO.P,SW7,2*%
%TO.N,ROW0*%
X160890000Y-29445000D03*
%TD*%
%TO.P,SW8,1*%
%TO.N,COL7*%
X173590000Y-31985000D03*
%TO.P,SW8,2*%
%TO.N,ROW0*%
X179940000Y-29445000D03*
%TD*%
%TO.P,SW9,1*%
%TO.N,COL8*%
X192640000Y-31985000D03*
%TO.P,SW9,2*%
%TO.N,ROW0*%
X198990000Y-29445000D03*
%TD*%
%TO.P,SW10,1*%
%TO.N,COL9*%
X216452500Y-31985000D03*
%TO.P,SW10,2*%
%TO.N,ROW0*%
X222802500Y-29445000D03*
%TD*%
%TO.P,SW11,1*%
%TO.N,COL10*%
X235502500Y-31985000D03*
%TO.P,SW11,2*%
%TO.N,ROW0*%
X241852500Y-29445000D03*
%TD*%
%TO.P,SW12,1*%
%TO.N,COL11*%
X254552500Y-31985000D03*
%TO.P,SW12,2*%
%TO.N,ROW0*%
X260902500Y-29445000D03*
%TD*%
%TO.P,SW13,1*%
%TO.N,COL12*%
X273602500Y-31985000D03*
%TO.P,SW13,2*%
%TO.N,ROW0*%
X279952500Y-29445000D03*
%TD*%
%TO.P,SW14,1*%
%TO.N,COL13*%
X298367500Y-31985000D03*
%TO.P,SW14,2*%
%TO.N,ROW0*%
X304717500Y-29445000D03*
%TD*%
%TO.P,SW15,1*%
%TO.N,COL14*%
X317417500Y-31985000D03*
%TO.P,SW15,2*%
%TO.N,ROW0*%
X323767500Y-29445000D03*
%TD*%
%TO.P,SW16,1*%
%TO.N,COL15*%
X336467500Y-31985000D03*
%TO.P,SW16,2*%
%TO.N,ROW0*%
X342817500Y-29445000D03*
%TD*%
%TO.P,SW17,1*%
%TO.N,COL0*%
X30715000Y-55797500D03*
%TO.P,SW17,2*%
%TO.N,ROW1*%
X37065000Y-53257500D03*
%TD*%
%TO.P,SW18,1*%
%TO.N,COL1*%
X49765000Y-55797500D03*
%TO.P,SW18,2*%
%TO.N,ROW1*%
X56115000Y-53257500D03*
%TD*%
%TO.P,SW19,1*%
%TO.N,COL2*%
X68815000Y-55797500D03*
%TO.P,SW19,2*%
%TO.N,ROW1*%
X75165000Y-53257500D03*
%TD*%
%TO.P,SW20,1*%
%TO.N,COL3*%
X87865000Y-55797500D03*
%TO.P,SW20,2*%
%TO.N,ROW1*%
X94215000Y-53257500D03*
%TD*%
%TO.P,SW21,1*%
%TO.N,COL4*%
X106915000Y-55797500D03*
%TO.P,SW21,2*%
%TO.N,ROW1*%
X113265000Y-53257500D03*
%TD*%
%TO.P,SW22,1*%
%TO.N,COL5*%
X125965000Y-55797500D03*
%TO.P,SW22,2*%
%TO.N,ROW1*%
X132315000Y-53257500D03*
%TD*%
%TO.P,SW23,1*%
%TO.N,COL6*%
X145015000Y-55797500D03*
%TO.P,SW23,2*%
%TO.N,ROW1*%
X151365000Y-53257500D03*
%TD*%
%TO.P,SW24,1*%
%TO.N,COL7*%
X164065000Y-55797500D03*
%TO.P,SW24,2*%
%TO.N,ROW1*%
X170415000Y-53257500D03*
%TD*%
%TO.P,SW25,1*%
%TO.N,COL8*%
X183115000Y-55797500D03*
%TO.P,SW25,2*%
%TO.N,ROW1*%
X189465000Y-53257500D03*
%TD*%
%TO.P,SW26,1*%
%TO.N,COL9*%
X202165000Y-55797500D03*
%TO.P,SW26,2*%
%TO.N,ROW1*%
X208515000Y-53257500D03*
%TD*%
%TO.P,SW27,1*%
%TO.N,COL10*%
X221215000Y-55797500D03*
%TO.P,SW27,2*%
%TO.N,ROW1*%
X227565000Y-53257500D03*
%TD*%
%TO.P,SW28,1*%
%TO.N,COL11*%
X240265000Y-55797500D03*
%TO.P,SW28,2*%
%TO.N,ROW1*%
X246615000Y-53257500D03*
%TD*%
%TO.P,SW29,1*%
%TO.N,COL12*%
X259315000Y-55797500D03*
%TO.P,SW29,2*%
%TO.N,ROW1*%
X265665000Y-53257500D03*
%TD*%
%TO.P,SW30,1*%
%TO.N,COL13*%
X290271300Y-55797500D03*
%TO.P,SW30,2*%
%TO.N,ROW1*%
X296621300Y-53257500D03*
%TD*%
%TO.P,SW31,1*%
%TO.N,COL14*%
X322370500Y-55797500D03*
%TO.P,SW31,2*%
%TO.N,ROW1*%
X328720500Y-53257500D03*
%TD*%
%TO.P,SW32,1*%
%TO.N,COL15*%
X341420500Y-55797500D03*
%TO.P,SW32,2*%
%TO.N,ROW1*%
X347770500Y-53257500D03*
%TD*%
%TO.P,SW33,1*%
%TO.N,COL0*%
X37858800Y-74847500D03*
%TO.P,SW33,2*%
%TO.N,ROW2*%
X44208800Y-72307500D03*
%TD*%
%TO.P,SW34,1*%
%TO.N,COL1*%
X64052500Y-74847500D03*
%TO.P,SW34,2*%
%TO.N,ROW2*%
X70402500Y-72307500D03*
%TD*%
%TO.P,SW35,1*%
%TO.N,COL2*%
X83102500Y-74847500D03*
%TO.P,SW35,2*%
%TO.N,ROW2*%
X89452500Y-72307500D03*
%TD*%
%TO.P,SW36,1*%
%TO.N,COL3*%
X102152500Y-74847500D03*
%TO.P,SW36,2*%
%TO.N,ROW2*%
X108502500Y-72307500D03*
%TD*%
%TO.P,SW37,1*%
%TO.N,COL4*%
X121202500Y-74847500D03*
%TO.P,SW37,2*%
%TO.N,ROW2*%
X127552500Y-72307500D03*
%TD*%
%TO.P,SW38,1*%
%TO.N,COL5*%
X140252500Y-74847500D03*
%TO.P,SW38,2*%
%TO.N,ROW2*%
X146602500Y-72307500D03*
%TD*%
%TO.P,SW39,1*%
%TO.N,COL6*%
X159302500Y-74847500D03*
%TO.P,SW39,2*%
%TO.N,ROW2*%
X165652500Y-72307500D03*
%TD*%
%TO.P,SW40,1*%
%TO.N,COL7*%
X178352500Y-74847500D03*
%TO.P,SW40,2*%
%TO.N,ROW2*%
X184702500Y-72307500D03*
%TD*%
%TO.P,SW41,1*%
%TO.N,COL8*%
X197402500Y-74847500D03*
%TO.P,SW41,2*%
%TO.N,ROW2*%
X203752500Y-72307500D03*
%TD*%
%TO.P,SW42,1*%
%TO.N,COL9*%
X216452500Y-74847500D03*
%TO.P,SW42,2*%
%TO.N,ROW2*%
X222802500Y-72307500D03*
%TD*%
%TO.P,SW43,1*%
%TO.N,COL10*%
X235502500Y-74847500D03*
%TO.P,SW43,2*%
%TO.N,ROW2*%
X241852500Y-72307500D03*
%TD*%
%TO.P,SW44,1*%
%TO.N,COL11*%
X254552500Y-74847500D03*
%TO.P,SW44,2*%
%TO.N,ROW2*%
X260902500Y-72307500D03*
%TD*%
%TO.P,SW45,1*%
%TO.N,COL12*%
X273602500Y-74847500D03*
%TO.P,SW45,2*%
%TO.N,ROW2*%
X279952500Y-72307500D03*
%TD*%
%TO.P,SW46,1*%
%TO.N,COL13*%
X297415000Y-84372500D03*
%TO.P,SW46,2*%
%TO.N,ROW2*%
X303765000Y-81832500D03*
%TD*%
%TO.P,SW47,1*%
%TO.N,COL14*%
X322370500Y-74847500D03*
%TO.P,SW47,2*%
%TO.N,ROW2*%
X328720500Y-72307500D03*
%TD*%
%TO.P,SW48,1*%
%TO.N,COL15*%
X341420500Y-74847500D03*
%TO.P,SW48,2*%
%TO.N,ROW2*%
X347770500Y-72307500D03*
%TD*%
%TO.P,SW49,1*%
%TO.N,COL0*%
X40240000Y-93897500D03*
%TO.P,SW49,2*%
%TO.N,ROW3*%
X46590000Y-91357500D03*
%TD*%
%TO.P,SW50,1*%
%TO.N,COL1*%
X68815000Y-93897500D03*
%TO.P,SW50,2*%
%TO.N,ROW3*%
X75165000Y-91357500D03*
%TD*%
%TO.P,SW51,1*%
%TO.N,COL2*%
X87865000Y-93897500D03*
%TO.P,SW51,2*%
%TO.N,ROW3*%
X94215000Y-91357500D03*
%TD*%
%TO.P,SW52,1*%
%TO.N,COL3*%
X106915000Y-93897500D03*
%TO.P,SW52,2*%
%TO.N,ROW3*%
X113265000Y-91357500D03*
%TD*%
%TO.P,SW53,1*%
%TO.N,COL4*%
X125965000Y-93897500D03*
%TO.P,SW53,2*%
%TO.N,ROW3*%
X132315000Y-91357500D03*
%TD*%
%TO.P,SW54,1*%
%TO.N,COL5*%
X145015000Y-93897500D03*
%TO.P,SW54,2*%
%TO.N,ROW3*%
X151365000Y-91357500D03*
%TD*%
%TO.P,SW55,1*%
%TO.N,COL6*%
X164065000Y-93897500D03*
%TO.P,SW55,2*%
%TO.N,ROW3*%
X170415000Y-91357500D03*
%TD*%
%TO.P,SW56,1*%
%TO.N,COL7*%
X183115000Y-93897500D03*
%TO.P,SW56,2*%
%TO.N,ROW3*%
X189465000Y-91357500D03*
%TD*%
%TO.P,SW57,1*%
%TO.N,COL8*%
X202165000Y-93897500D03*
%TO.P,SW57,2*%
%TO.N,ROW3*%
X208515000Y-91357500D03*
%TD*%
%TO.P,SW58,1*%
%TO.N,COL9*%
X221215000Y-93897500D03*
%TO.P,SW58,2*%
%TO.N,ROW3*%
X227565000Y-91357500D03*
%TD*%
%TO.P,SW59,1*%
%TO.N,COL10*%
X240265000Y-93897500D03*
%TO.P,SW59,2*%
%TO.N,ROW3*%
X246615000Y-91357500D03*
%TD*%
%TO.P,SW60,1*%
%TO.N,COL11*%
X259315000Y-93897500D03*
%TO.P,SW60,2*%
%TO.N,ROW3*%
X265665000Y-91357500D03*
%TD*%
%TO.P,SW61,1*%
%TO.N,COL12*%
X322370500Y-93897500D03*
%TO.P,SW61,2*%
%TO.N,ROW3*%
X328720500Y-91357500D03*
%TD*%
%TO.P,SW62,1*%
%TO.N,COL13*%
X341420500Y-93897500D03*
%TO.P,SW62,2*%
%TO.N,ROW3*%
X347770500Y-91357500D03*
%TD*%
%TO.P,SW63,1*%
%TO.N,COL0*%
X42621300Y-112947500D03*
%TO.P,SW63,2*%
%TO.N,ROW4*%
X48971300Y-110407500D03*
%TD*%
%TO.P,SW64,1*%
%TO.N,COL1*%
X73577500Y-112947500D03*
%TO.P,SW64,2*%
%TO.N,ROW4*%
X79927500Y-110407500D03*
%TD*%
%TO.P,SW65,1*%
%TO.N,COL2*%
X92627500Y-112947500D03*
%TO.P,SW65,2*%
%TO.N,ROW4*%
X98977500Y-110407500D03*
%TD*%
%TO.P,SW66,1*%
%TO.N,COL3*%
X111677500Y-112947500D03*
%TO.P,SW66,2*%
%TO.N,ROW4*%
X118027500Y-110407500D03*
%TD*%
%TO.P,SW67,1*%
%TO.N,COL4*%
X130727500Y-112947500D03*
%TO.P,SW67,2*%
%TO.N,ROW4*%
X137077500Y-110407500D03*
%TD*%
%TO.P,SW68,1*%
%TO.N,COL5*%
X149777500Y-112947500D03*
%TO.P,SW68,2*%
%TO.N,ROW4*%
X156127500Y-110407500D03*
%TD*%
%TO.P,SW69,1*%
%TO.N,COL6*%
X168827500Y-112947500D03*
%TO.P,SW69,2*%
%TO.N,ROW4*%
X175177500Y-110407500D03*
%TD*%
%TO.P,SW70,1*%
%TO.N,COL7*%
X187877500Y-112947500D03*
%TO.P,SW70,2*%
%TO.N,ROW4*%
X194227500Y-110407500D03*
%TD*%
%TO.P,SW71,1*%
%TO.N,COL8*%
X206927500Y-112947500D03*
%TO.P,SW71,2*%
%TO.N,ROW4*%
X213277500Y-110407500D03*
%TD*%
%TO.P,SW72,1*%
%TO.N,COL9*%
X225977500Y-112947500D03*
%TO.P,SW72,2*%
%TO.N,ROW4*%
X232327500Y-110407500D03*
%TD*%
%TO.P,SW73,1*%
%TO.N,COL10*%
X245027500Y-112947500D03*
%TO.P,SW73,2*%
%TO.N,ROW4*%
X251377500Y-110407500D03*
%TD*%
%TO.P,SW74,1*%
%TO.N,COL11*%
X271221300Y-112947500D03*
%TO.P,SW74,2*%
%TO.N,ROW4*%
X277571300Y-110407500D03*
%TD*%
%TO.P,SW75,1*%
%TO.N,COL12*%
X302177500Y-112947500D03*
%TO.P,SW75,2*%
%TO.N,ROW4*%
X308527500Y-110407500D03*
%TD*%
%TO.P,SW76,1*%
%TO.N,COL13*%
X343135000Y-114852500D03*
%TO.P,SW76,2*%
%TO.N,ROW4*%
X349485000Y-112312500D03*
%TD*%
%TO.P,SW77,1*%
%TO.N,COL0*%
X33096300Y-131997500D03*
%TO.P,SW77,2*%
%TO.N,ROW5*%
X39446300Y-129457500D03*
%TD*%
%TO.P,SW78,1*%
%TO.N,COL1*%
X56908800Y-131997500D03*
%TO.P,SW78,2*%
%TO.N,ROW5*%
X63258800Y-129457500D03*
%TD*%
%TO.P,SW79,1*%
%TO.N,COL2*%
X80721300Y-131997500D03*
%TO.P,SW79,2*%
%TO.N,ROW5*%
X87071300Y-129457500D03*
%TD*%
%TO.P,SW80,1*%
%TO.N,COL3*%
X154540000Y-131997500D03*
%TO.P,SW80,2*%
%TO.N,ROW5*%
X160890000Y-129457500D03*
%TD*%
%TO.P,SW81,1*%
%TO.N,COL4*%
X228358800Y-131997500D03*
%TO.P,SW81,2*%
%TO.N,ROW5*%
X234708800Y-129457500D03*
%TD*%
%TO.P,SW82,1*%
%TO.N,COL5*%
X252171300Y-131997500D03*
%TO.P,SW82,2*%
%TO.N,ROW5*%
X258521300Y-129457500D03*
%TD*%
%TO.P,SW83,1*%
%TO.N,COL6*%
X283127500Y-131997500D03*
%TO.P,SW83,2*%
%TO.N,ROW5*%
X289477500Y-129457500D03*
%TD*%
%TO.P,SW84,1*%
%TO.N,COL7*%
X302177500Y-131997500D03*
%TO.P,SW84,2*%
%TO.N,ROW5*%
X308527500Y-129457500D03*
%TD*%
%TO.P,SW85,1*%
%TO.N,COL8*%
X321227500Y-131997500D03*
%TO.P,SW85,2*%
%TO.N,ROW5*%
X327577500Y-129457500D03*
%TD*%
%TO.P,SW86,1*%
%TO.N,COL9*%
X343135000Y-133902500D03*
%TO.P,SW86,2*%
%TO.N,ROW5*%
X349485000Y-131362500D03*
%TD*%
D11*
%TO.P,J1,S1*%
%TO.N,GND*%
X306320000Y-24500000D03*
%TO.P,J1,S2*%
X297680000Y-24500000D03*
%TD*%
D12*
%TO.P,BT1,1*%
%TO.N,VBAT*%
X335500000Y-77500000D03*
%TO.P,BT1,2*%
%TO.N,GND*%
X333500000Y-77500000D03*
%TD*%
D13*
%TO.P,MH_screw_tl,1*%
%TO.N,N/C*%
X22500000Y-22500000D03*
%TD*%
%TO.P,MH_screw_tr,1*%
%TO.N,N/C*%
X357000000Y-23000000D03*
%TD*%
%TO.P,MH_screw_bl,1*%
%TO.N,N/C*%
X22500000Y-146500000D03*
%TD*%
%TO.P,MH_screw_br,1*%
%TO.N,N/C*%
X357000000Y-146500000D03*
%TD*%
%TO.P,MH_screw_ml,1*%
%TO.N,N/C*%
X127500000Y-45500000D03*
%TD*%
%TO.P,MH_screw_mr,1*%
%TO.N,N/C*%
X281500000Y-96000000D03*
%TD*%
D14*
%TO.N,ROW0*%
X185750000Y-138500000D03*
%TO.N,ROW1*%
X186250000Y-139300000D03*
%TO.N,ROW2*%
X186750000Y-138500000D03*
%TO.N,ROW3*%
X187250000Y-139300000D03*
%TO.N,ROW4*%
X187750000Y-138500000D03*
%TO.N,ROW5*%
X188250000Y-139300000D03*
%TO.N,COL0*%
X188750000Y-138500000D03*
%TO.N,COL1*%
X189250000Y-139300000D03*
%TO.N,COL2*%
X189750000Y-138500000D03*
%TO.N,USB_DP*%
X190250000Y-139300000D03*
%TO.N,USB_DM*%
X190750000Y-138500000D03*
%TO.N,COL3*%
X191250000Y-139300000D03*
%TO.N,COL4*%
X193000000Y-131250000D03*
%TO.N,GND*%
X193800000Y-131750000D03*
%TO.N,VCC*%
X193000000Y-132250000D03*
%TO.N,COL5*%
X193800000Y-132750000D03*
%TO.N,COL6*%
X193000000Y-133250000D03*
%TO.N,COL7*%
X193800000Y-133750000D03*
%TO.N,COL8*%
X193000000Y-134250000D03*
%TO.N,COL9*%
X193800000Y-134750000D03*
%TO.N,COL10*%
X193000000Y-135250000D03*
%TO.N,COL11*%
X193800000Y-135750000D03*
%TO.N,COL12*%
X193000000Y-136250000D03*
%TO.N,COL13*%
X193800000Y-136750000D03*
%TO.N,COL14*%
X191250000Y-129500000D03*
%TO.N,COL15*%
X190750000Y-128700000D03*
%TO.N,GND*%
X184000000Y-136750000D03*
%TO.N,VCC*%
X183200000Y-136250000D03*
%TO.N,VBUS*%
X312750000Y-28250000D03*
%TO.N,GND*%
X313250000Y-29050000D03*
%TO.N,VBAT*%
X313750000Y-28250000D03*
%TO.N,VCC*%
X314250000Y-29050000D03*
%TO.N,VBUS*%
X316250000Y-24750000D03*
%TO.N,GND*%
X317050000Y-25250000D03*
%TO.N,VBAT*%
X316250000Y-25750000D03*
%TO.N,VCC*%
X317050000Y-26250000D03*
%TO.N,VBUS*%
X314250000Y-22750000D03*
%TO.N,GND*%
X313750000Y-21950000D03*
%TO.N,VBAT*%
X313250000Y-22750000D03*
%TO.N,VCC*%
X312750000Y-21950000D03*
%TO.N,VBUS*%
X310750000Y-26250000D03*
%TO.N,GND*%
X309950000Y-25750000D03*
%TO.N,VBAT*%
X310750000Y-25250000D03*
%TO.N,VCC*%
X309950000Y-24750000D03*
%TD*%
D15*
X185750000Y-138500000D03*
X186250000Y-139300000D03*
X186750000Y-138500000D03*
X187250000Y-139300000D03*
X187750000Y-138500000D03*
X188250000Y-139300000D03*
X188750000Y-138500000D03*
X189250000Y-139300000D03*
X189750000Y-138500000D03*
X190250000Y-139300000D03*
X190750000Y-138500000D03*
X191250000Y-139300000D03*
X193000000Y-131250000D03*
X193800000Y-131750000D03*
X193000000Y-132250000D03*
X193800000Y-132750000D03*
X193000000Y-133250000D03*
X193800000Y-133750000D03*
X193000000Y-134250000D03*
X193800000Y-134750000D03*
X193000000Y-135250000D03*
X193800000Y-135750000D03*
X193000000Y-136250000D03*
X193800000Y-136750000D03*
X191250000Y-129500000D03*
X190750000Y-128700000D03*
X184000000Y-136750000D03*
X183200000Y-136250000D03*
X312750000Y-28250000D03*
X313250000Y-29050000D03*
X313750000Y-28250000D03*
X314250000Y-29050000D03*
X316250000Y-24750000D03*
X317050000Y-25250000D03*
X316250000Y-25750000D03*
X317050000Y-26250000D03*
X314250000Y-22750000D03*
X313750000Y-21950000D03*
X313250000Y-22750000D03*
X312750000Y-21950000D03*
X310750000Y-26250000D03*
X309950000Y-25750000D03*
X310750000Y-25250000D03*
X309950000Y-24750000D03*
D16*
X30715000Y-31985000D03*
X37065000Y-29445000D03*
X54527500Y-31985000D03*
X60877500Y-29445000D03*
X73577500Y-31985000D03*
X79927500Y-29445000D03*
X92627500Y-31985000D03*
X98977500Y-29445000D03*
X111677500Y-31985000D03*
X118027500Y-29445000D03*
X135490000Y-31985000D03*
X141840000Y-29445000D03*
X154540000Y-31985000D03*
X160890000Y-29445000D03*
X173590000Y-31985000D03*
X179940000Y-29445000D03*
X192640000Y-31985000D03*
X198990000Y-29445000D03*
X216452500Y-31985000D03*
X222802500Y-29445000D03*
X235502500Y-31985000D03*
X241852500Y-29445000D03*
X254552500Y-31985000D03*
X260902500Y-29445000D03*
X273602500Y-31985000D03*
X279952500Y-29445000D03*
X298367500Y-31985000D03*
X304717500Y-29445000D03*
X317417500Y-31985000D03*
X323767500Y-29445000D03*
X336467500Y-31985000D03*
X342817500Y-29445000D03*
X30715000Y-55797500D03*
X37065000Y-53257500D03*
X49765000Y-55797500D03*
X56115000Y-53257500D03*
X68815000Y-55797500D03*
X75165000Y-53257500D03*
X87865000Y-55797500D03*
X94215000Y-53257500D03*
X106915000Y-55797500D03*
X113265000Y-53257500D03*
X125965000Y-55797500D03*
X132315000Y-53257500D03*
X145015000Y-55797500D03*
X151365000Y-53257500D03*
X164065000Y-55797500D03*
X170415000Y-53257500D03*
X183115000Y-55797500D03*
X189465000Y-53257500D03*
X202165000Y-55797500D03*
X208515000Y-53257500D03*
X221215000Y-55797500D03*
X227565000Y-53257500D03*
X240265000Y-55797500D03*
X246615000Y-53257500D03*
X259315000Y-55797500D03*
X265665000Y-53257500D03*
X290271300Y-55797500D03*
X296621300Y-53257500D03*
X322370500Y-55797500D03*
X328720500Y-53257500D03*
X341420500Y-55797500D03*
X347770500Y-53257500D03*
X37858800Y-74847500D03*
X44208800Y-72307500D03*
X64052500Y-74847500D03*
X70402500Y-72307500D03*
X83102500Y-74847500D03*
X89452500Y-72307500D03*
X102152500Y-74847500D03*
X108502500Y-72307500D03*
X121202500Y-74847500D03*
X127552500Y-72307500D03*
X140252500Y-74847500D03*
X146602500Y-72307500D03*
X159302500Y-74847500D03*
X165652500Y-72307500D03*
X178352500Y-74847500D03*
X184702500Y-72307500D03*
X197402500Y-74847500D03*
X203752500Y-72307500D03*
X216452500Y-74847500D03*
X222802500Y-72307500D03*
X235502500Y-74847500D03*
X241852500Y-72307500D03*
X254552500Y-74847500D03*
X260902500Y-72307500D03*
X273602500Y-74847500D03*
X279952500Y-72307500D03*
X297415000Y-84372500D03*
X303765000Y-81832500D03*
X322370500Y-74847500D03*
X328720500Y-72307500D03*
X341420500Y-74847500D03*
X347770500Y-72307500D03*
X40240000Y-93897500D03*
X46590000Y-91357500D03*
X68815000Y-93897500D03*
X75165000Y-91357500D03*
X87865000Y-93897500D03*
X94215000Y-91357500D03*
X106915000Y-93897500D03*
X113265000Y-91357500D03*
X125965000Y-93897500D03*
X132315000Y-91357500D03*
X145015000Y-93897500D03*
X151365000Y-91357500D03*
X164065000Y-93897500D03*
X170415000Y-91357500D03*
X183115000Y-93897500D03*
X189465000Y-91357500D03*
X202165000Y-93897500D03*
X208515000Y-91357500D03*
X221215000Y-93897500D03*
X227565000Y-91357500D03*
X240265000Y-93897500D03*
X246615000Y-91357500D03*
X259315000Y-93897500D03*
X265665000Y-91357500D03*
X322370500Y-93897500D03*
X328720500Y-91357500D03*
X341420500Y-93897500D03*
X347770500Y-91357500D03*
X42621300Y-112947500D03*
X48971300Y-110407500D03*
X73577500Y-112947500D03*
X79927500Y-110407500D03*
X92627500Y-112947500D03*
X98977500Y-110407500D03*
X111677500Y-112947500D03*
X118027500Y-110407500D03*
X130727500Y-112947500D03*
X137077500Y-110407500D03*
X149777500Y-112947500D03*
X156127500Y-110407500D03*
X168827500Y-112947500D03*
X175177500Y-110407500D03*
X187877500Y-112947500D03*
X194227500Y-110407500D03*
X206927500Y-112947500D03*
X213277500Y-110407500D03*
X225977500Y-112947500D03*
X232327500Y-110407500D03*
X245027500Y-112947500D03*
X251377500Y-110407500D03*
X271221300Y-112947500D03*
X277571300Y-110407500D03*
X302177500Y-112947500D03*
X308527500Y-110407500D03*
X343135000Y-114852500D03*
X349485000Y-112312500D03*
X33096300Y-131997500D03*
X39446300Y-129457500D03*
X56908800Y-131997500D03*
X63258800Y-129457500D03*
X80721300Y-131997500D03*
X87071300Y-129457500D03*
X154540000Y-131997500D03*
X160890000Y-129457500D03*
X228358800Y-131997500D03*
X234708800Y-129457500D03*
X252171300Y-131997500D03*
X258521300Y-129457500D03*
X283127500Y-131997500D03*
X289477500Y-129457500D03*
X302177500Y-131997500D03*
X308527500Y-129457500D03*
X321227500Y-131997500D03*
X327577500Y-129457500D03*
X343135000Y-133902500D03*
X349485000Y-131362500D03*
X306320000Y-24500000D03*
X297680000Y-24500000D03*
X335500000Y-77500000D03*
X333500000Y-77500000D03*
X22500000Y-22500000D03*
X357000000Y-23000000D03*
X22500000Y-146500000D03*
X357000000Y-146500000D03*
X127500000Y-45500000D03*
X281500000Y-96000000D03*
M02*
